<svg xmlns="http://www.w3.org/2000/svg" width="756" height="660" viewBox="0 0 756 660" role="img" aria-labelledby="title desc">
  <title id="title">ISTJ-A Final offer illustration</title>
  <desc id="desc">Abstract report unlock panel for the ISTJ-A MBTI desktop result module.</desc>
  <defs>
    <linearGradient id="bg" x1="0" x2="1" y1="0" y2="1">
      <stop offset="0" stop-color="#DFEAF0" stop-opacity="0.92"/>
      <stop offset="0.55" stop-color="#FFFFFF" stop-opacity="0.96"/>
      <stop offset="1" stop-color="#577590" stop-opacity="0.14"/>
    </linearGradient>
    <radialGradient id="halo" cx="74%" cy="35%" r="48%">
      <stop offset="0" stop-color="#577590" stop-opacity="0.26"/>
      <stop offset="1" stop-color="#577590" stop-opacity="0"/>
    </radialGradient>
    <filter id="soft"><feGaussianBlur stdDeviation="18"/></filter>
  </defs>
  <rect width="756" height="660" rx="22" fill="url(#bg)"/>
  <circle cx="589.7" cy="224.4" r="211.2" fill="url(#halo)"/>
  <path d="M 60.5 475.2 C 211.7 165.0, 408.2 567.6, 695.5 184.8" fill="none" stroke="#1E2F3A" stroke-opacity="0.16" stroke-width="3"/>
  <polyline points="0.0,385.3 94.5,313.2 189.0,304.6 283.5,370.5 378.0,426.8 472.5,401.8 567.0,327.3 661.5,298.3 756.0,351.9" fill="none" stroke="#577590" stroke-opacity="0.34" stroke-width="4" stroke-linecap="round"/>
  <line x1="596.33" y1="478.9" x2="446.95" y2="503.45" stroke="#577590" stroke-opacity="0.24" stroke-width="2"/><line x1="234.36" y1="286.57" x2="659.53" y2="311.12" stroke="#577590" stroke-opacity="0.24" stroke-width="2"/><line x1="446.95" y1="503.45" x2="297.56" y2="118.8" stroke="#577590" stroke-opacity="0.24" stroke-width="2"/><line x1="659.53" y1="311.12" x2="510.15" y2="335.68" stroke="#577590" stroke-opacity="0.24" stroke-width="2"/><line x1="297.56" y1="118.8" x2="148.18" y2="143.35" stroke="#577590" stroke-opacity="0.24" stroke-width="2"/><line x1="148.18" y1="143.35" x2="573.35" y2="167.9" stroke="#577590" stroke-opacity="0.24" stroke-width="2"/>
  <circle cx="596.33" cy="478.9" r="3" fill="#577590" fill-opacity="0.35"/><circle cx="234.36" cy="286.57" r="4" fill="#577590" fill-opacity="0.40"/><circle cx="446.95" cy="503.45" r="5" fill="#577590" fill-opacity="0.45"/><circle cx="659.53" cy="311.12" r="3" fill="#577590" fill-opacity="0.50"/><circle cx="297.56" cy="118.8" r="4" fill="#577590" fill-opacity="0.35"/><circle cx="510.15" cy="335.68" r="5" fill="#577590" fill-opacity="0.40"/><circle cx="148.18" cy="143.35" r="3" fill="#577590" fill-opacity="0.45"/><circle cx="360.76" cy="360.23" r="4" fill="#577590" fill-opacity="0.50"/><circle cx="573.35" cy="167.9" r="5" fill="#577590" fill-opacity="0.35"/>
  <rect x="56.7" y="79.2" width="136.1" height="118.8" rx="18" fill="#577590" fill-opacity="0.16"/>
  <circle cx="635.0" cy="475.2" r="105.6" fill="#FFFFFF" fill-opacity="0.36" stroke="#1E2F3A" stroke-opacity="0.10"/>
  <text x="60.5" y="580.8" font-family="Inter, Arial, sans-serif" font-size="59" font-weight="700" fill="#1E2F3A" fill-opacity="0.72">ISTJ-A</text>
  <text x="60.5" y="654.5" font-family="Inter, Arial, sans-serif" font-size="30" font-weight="500" fill="#1E2F3A" fill-opacity="0.48">report unlock panel · A</text>
</svg>
