<svg xmlns="http://www.w3.org/2000/svg" width="1272" height="296" viewBox="0 0 1272 296" role="img" aria-labelledby="title desc">
  <title id="title">ISTJ-A Relationships illustration</title>
  <desc id="desc">Abstract relationship orbit map for the ISTJ-A MBTI desktop result module.</desc>
  <defs>
    <linearGradient id="bg" x1="0" x2="1" y1="0" y2="1">
      <stop offset="0" stop-color="#DFEAF0" stop-opacity="0.92"/>
      <stop offset="0.55" stop-color="#FFFFFF" stop-opacity="0.96"/>
      <stop offset="1" stop-color="#577590" stop-opacity="0.14"/>
    </linearGradient>
    <radialGradient id="halo" cx="74%" cy="35%" r="48%">
      <stop offset="0" stop-color="#577590" stop-opacity="0.26"/>
      <stop offset="1" stop-color="#577590" stop-opacity="0"/>
    </radialGradient>
    <filter id="soft"><feGaussianBlur stdDeviation="18"/></filter>
  </defs>
  <rect width="1272" height="296" rx="22" fill="url(#bg)"/>
  <circle cx="992.2" cy="100.6" r="94.7" fill="url(#halo)"/>
  <path d="M 101.8 213.1 C 356.2 74.0, 686.9 254.6, 1170.2 82.9" fill="none" stroke="#1E2F3A" stroke-opacity="0.16" stroke-width="3"/>
  <polyline points="0.0,161.9 159.0,190.1 318.0,183.4 477.0,150.5 636.0,133.2 795.0,153.7 954.0,185.7 1113.0,188.5 1272.0,158.5" fill="none" stroke="#577590" stroke-opacity="0.34" stroke-width="4" stroke-linecap="round"/>
  <line x1="191.31" y1="60.62" x2="906.68" y2="71.63" stroke="#577590" stroke-opacity="0.24" stroke-width="2"/><line x1="549.0" y1="157.89" x2="297.65" y2="168.9" stroke="#577590" stroke-opacity="0.24" stroke-width="2"/><line x1="906.68" y1="71.63" x2="655.33" y2="82.64" stroke="#577590" stroke-opacity="0.24" stroke-width="2"/><line x1="297.65" y1="168.9" x2="1013.02" y2="179.91" stroke="#577590" stroke-opacity="0.24" stroke-width="2"/><line x1="655.33" y1="82.64" x2="403.99" y2="93.65" stroke="#577590" stroke-opacity="0.24" stroke-width="2"/><line x1="403.99" y1="93.65" x2="152.64" y2="104.67" stroke="#577590" stroke-opacity="0.24" stroke-width="2"/>
  <circle cx="191.31" cy="60.62" r="3" fill="#577590" fill-opacity="0.35"/><circle cx="549.0" cy="157.89" r="4" fill="#577590" fill-opacity="0.40"/><circle cx="906.68" cy="71.63" r="5" fill="#577590" fill-opacity="0.45"/><circle cx="297.65" cy="168.9" r="3" fill="#577590" fill-opacity="0.50"/><circle cx="655.33" cy="82.64" r="4" fill="#577590" fill-opacity="0.35"/><circle cx="1013.02" cy="179.91" r="5" fill="#577590" fill-opacity="0.40"/><circle cx="403.99" cy="93.65" r="3" fill="#577590" fill-opacity="0.45"/><circle cx="761.67" cy="190.92" r="4" fill="#577590" fill-opacity="0.50"/><circle cx="152.64" cy="104.67" r="5" fill="#577590" fill-opacity="0.35"/>
  <rect x="95.4" y="35.5" width="229.0" height="53.3" rx="18" fill="#577590" fill-opacity="0.16"/>
  <circle cx="1068.5" cy="213.1" r="47.4" fill="#FFFFFF" fill-opacity="0.36" stroke="#1E2F3A" stroke-opacity="0.10"/>
  <text x="101.8" y="260.5" font-family="Inter, Arial, sans-serif" font-size="27" font-weight="700" fill="#1E2F3A" fill-opacity="0.72">ISTJ-A</text>
  <text x="101.8" y="294.2" font-family="Inter, Arial, sans-serif" font-size="13" font-weight="500" fill="#1E2F3A" fill-opacity="0.48">relationship orbit map · A</text>
</svg>
