<svg xmlns="http://www.w3.org/2000/svg" width="1272" height="296" viewBox="0 0 1272 296" role="img" aria-labelledby="title desc">
  <title id="title">ISTJ-A Traits axis illustration</title>
  <desc id="desc">Abstract axis map for the ISTJ-A MBTI desktop result module.</desc>
  <defs>
    <linearGradient id="bg" x1="0" x2="1" y1="0" y2="1">
      <stop offset="0" stop-color="#DFEAF0" stop-opacity="0.92"/>
      <stop offset="0.55" stop-color="#FFFFFF" stop-opacity="0.96"/>
      <stop offset="1" stop-color="#577590" stop-opacity="0.14"/>
    </linearGradient>
    <radialGradient id="halo" cx="74%" cy="35%" r="48%">
      <stop offset="0" stop-color="#577590" stop-opacity="0.26"/>
      <stop offset="1" stop-color="#577590" stop-opacity="0"/>
    </radialGradient>
    <filter id="soft"><feGaussianBlur stdDeviation="18"/></filter>
  </defs>
  <rect width="1272" height="296" rx="22" fill="url(#bg)"/>
  <circle cx="992.2" cy="100.6" r="94.7" fill="url(#halo)"/>
  <path d="M 101.8 213.1 C 356.2 74.0, 686.9 254.6, 1170.2 82.9" fill="none" stroke="#1E2F3A" stroke-opacity="0.16" stroke-width="3"/>
  <polyline points="0.0,150.3 159.0,133.3 318.0,153.9 477.0,185.9 636.0,188.4 795.0,158.3 954.0,133.9 1113.0,146.4 1272.0,179.8" fill="none" stroke="#577590" stroke-opacity="0.34" stroke-width="4" stroke-linecap="round"/>
  <line x1="674.67" y1="152.38" x2="423.32" y2="163.39" stroke="#577590" stroke-opacity="0.24" stroke-width="2"/><line x1="1032.36" y1="66.13" x2="781.01" y2="77.14" stroke="#577590" stroke-opacity="0.24" stroke-width="2"/><line x1="423.32" y1="163.39" x2="171.97" y2="174.4" stroke="#577590" stroke-opacity="0.24" stroke-width="2"/><line x1="781.01" y1="77.14" x2="529.66" y2="88.15" stroke="#577590" stroke-opacity="0.24" stroke-width="2"/><line x1="171.97" y1="174.4" x2="887.35" y2="185.41" stroke="#577590" stroke-opacity="0.24" stroke-width="2"/><line x1="887.35" y1="185.41" x2="636.0" y2="196.43" stroke="#577590" stroke-opacity="0.24" stroke-width="2"/>
  <circle cx="674.67" cy="152.38" r="3" fill="#577590" fill-opacity="0.35"/><circle cx="1032.36" cy="66.13" r="4" fill="#577590" fill-opacity="0.40"/><circle cx="423.32" cy="163.39" r="5" fill="#577590" fill-opacity="0.45"/><circle cx="781.01" cy="77.14" r="3" fill="#577590" fill-opacity="0.50"/><circle cx="171.97" cy="174.4" r="4" fill="#577590" fill-opacity="0.35"/><circle cx="529.66" cy="88.15" r="5" fill="#577590" fill-opacity="0.40"/><circle cx="887.35" cy="185.41" r="3" fill="#577590" fill-opacity="0.45"/><circle cx="278.31" cy="99.16" r="4" fill="#577590" fill-opacity="0.50"/><circle cx="636.0" cy="196.43" r="5" fill="#577590" fill-opacity="0.35"/>
  <rect x="95.4" y="35.5" width="229.0" height="53.3" rx="18" fill="#577590" fill-opacity="0.16"/>
  <circle cx="1068.5" cy="213.1" r="47.4" fill="#FFFFFF" fill-opacity="0.36" stroke="#1E2F3A" stroke-opacity="0.10"/>
  <text x="101.8" y="260.5" font-family="Inter, Arial, sans-serif" font-size="27" font-weight="700" fill="#1E2F3A" fill-opacity="0.72">ISTJ-A</text>
  <text x="101.8" y="294.2" font-family="Inter, Arial, sans-serif" font-size="13" font-weight="500" fill="#1E2F3A" fill-opacity="0.48">axis map · A</text>
</svg>
