<svg xmlns="http://www.w3.org/2000/svg" width="756" height="660" viewBox="0 0 756 660" role="img" aria-labelledby="title desc">
  <title id="title">ENFJ-A Final offer illustration</title>
  <desc id="desc">Abstract report unlock panel for the ENFJ-A MBTI desktop result module.</desc>
  <defs>
    <linearGradient id="bg" x1="0" x2="1" y1="0" y2="1">
      <stop offset="0" stop-color="#FFE0E0" stop-opacity="0.92"/>
      <stop offset="0.55" stop-color="#FFFFFF" stop-opacity="0.96"/>
      <stop offset="1" stop-color="#FF6B6B" stop-opacity="0.14"/>
    </linearGradient>
    <radialGradient id="halo" cx="74%" cy="35%" r="48%">
      <stop offset="0" stop-color="#FF6B6B" stop-opacity="0.26"/>
      <stop offset="1" stop-color="#FF6B6B" stop-opacity="0"/>
    </radialGradient>
    <filter id="soft"><feGaussianBlur stdDeviation="18"/></filter>
  </defs>
  <rect width="756" height="660" rx="22" fill="url(#bg)"/>
  <circle cx="589.7" cy="224.4" r="211.2" fill="url(#halo)"/>
  <path d="M 60.5 475.2 C 211.7 165.0, 408.2 567.6, 695.5 184.8" fill="none" stroke="#4A1E24" stroke-opacity="0.16" stroke-width="3"/>
  <polyline points="0.0,423.9 94.5,408.9 189.0,335.4 283.5,297.1 378.0,342.9 472.5,414.3 567.0,420.3 661.5,353.2 756.0,298.6" fill="none" stroke="#FF6B6B" stroke-opacity="0.34" stroke-width="4" stroke-linecap="round"/>
  <line x1="464.18" y1="384.78" x2="314.8" y2="409.33" stroke="#FF6B6B" stroke-opacity="0.24" stroke-width="2"/><line x1="102.21" y1="192.46" x2="527.39" y2="217.01" stroke="#FF6B6B" stroke-opacity="0.24" stroke-width="2"/><line x1="314.8" y1="409.33" x2="165.41" y2="433.88" stroke="#FF6B6B" stroke-opacity="0.24" stroke-width="2"/><line x1="527.39" y1="217.01" x2="378.0" y2="241.56" stroke="#FF6B6B" stroke-opacity="0.24" stroke-width="2"/><line x1="378.0" y1="241.56" x2="228.61" y2="266.11" stroke="#FF6B6B" stroke-opacity="0.24" stroke-width="2"/><line x1="228.61" y1="266.11" x2="464.18" y2="384.78" stroke="#FF6B6B" stroke-opacity="0.24" stroke-width="2"/>
  <circle cx="464.18" cy="384.78" r="3" fill="#FF6B6B" fill-opacity="0.35"/><circle cx="102.21" cy="192.46" r="4" fill="#FF6B6B" fill-opacity="0.40"/><circle cx="314.8" cy="409.33" r="5" fill="#FF6B6B" fill-opacity="0.45"/><circle cx="527.39" cy="217.01" r="3" fill="#FF6B6B" fill-opacity="0.50"/><circle cx="165.41" cy="433.88" r="4" fill="#FF6B6B" fill-opacity="0.35"/><circle cx="378.0" cy="241.56" r="5" fill="#FF6B6B" fill-opacity="0.40"/><circle cx="590.59" cy="458.44" r="3" fill="#FF6B6B" fill-opacity="0.45"/><circle cx="228.61" cy="266.11" r="4" fill="#FF6B6B" fill-opacity="0.50"/><circle cx="441.2" cy="482.99" r="5" fill="#FF6B6B" fill-opacity="0.35"/>
  <rect x="56.7" y="79.2" width="136.1" height="118.8" rx="18" fill="#FF6B6B" fill-opacity="0.16"/>
  <circle cx="635.0" cy="475.2" r="105.6" fill="#FFFFFF" fill-opacity="0.36" stroke="#4A1E24" stroke-opacity="0.10"/>
  <text x="60.5" y="580.8" font-family="Inter, Arial, sans-serif" font-size="59" font-weight="700" fill="#4A1E24" fill-opacity="0.72">ENFJ-A</text>
  <text x="60.5" y="654.5" font-family="Inter, Arial, sans-serif" font-size="30" font-weight="500" fill="#4A1E24" fill-opacity="0.48">report unlock panel · A</text>
</svg>
