<svg xmlns="http://www.w3.org/2000/svg" width="708" height="480" viewBox="0 0 708 480" role="img" aria-labelledby="title desc">
  <title id="title">ENFJ-A Hero identity illustration</title>
  <desc id="desc">Abstract identity lattice for the ENFJ-A MBTI desktop result module.</desc>
  <defs>
    <linearGradient id="bg" x1="0" x2="1" y1="0" y2="1">
      <stop offset="0" stop-color="#FFE0E0" stop-opacity="0.92"/>
      <stop offset="0.55" stop-color="#FFFFFF" stop-opacity="0.96"/>
      <stop offset="1" stop-color="#FF6B6B" stop-opacity="0.14"/>
    </linearGradient>
    <radialGradient id="halo" cx="74%" cy="35%" r="48%">
      <stop offset="0" stop-color="#FF6B6B" stop-opacity="0.26"/>
      <stop offset="1" stop-color="#FF6B6B" stop-opacity="0"/>
    </radialGradient>
    <filter id="soft"><feGaussianBlur stdDeviation="18"/></filter>
  </defs>
  <rect width="708" height="480" rx="22" fill="url(#bg)"/>
  <circle cx="552.2" cy="163.2" r="153.6" fill="url(#halo)"/>
  <path d="M 56.6 345.6 C 198.2 120.0, 382.3 412.8, 651.4 134.4" fill="none" stroke="#4A1E24" stroke-opacity="0.16" stroke-width="3"/>
  <polyline points="0.0,219.0 88.5,232.1 177.0,285.9 265.5,311.7 354.0,276.7 442.5,225.5 531.0,223.4 619.5,273.1 708.0,311.2" fill="none" stroke="#FF6B6B" stroke-opacity="0.34" stroke-width="4" stroke-linecap="round"/>
  <line x1="612.28" y1="378.05" x2="472.38" y2="98.3" stroke="#FF6B6B" stroke-opacity="0.24" stroke-width="2"/><line x1="273.29" y1="238.18" x2="133.39" y2="256.03" stroke="#FF6B6B" stroke-opacity="0.24" stroke-width="2"/><line x1="472.38" y1="98.3" x2="332.48" y2="116.16" stroke="#FF6B6B" stroke-opacity="0.24" stroke-width="2"/><line x1="133.39" y1="256.03" x2="531.57" y2="273.89" stroke="#FF6B6B" stroke-opacity="0.24" stroke-width="2"/><line x1="332.48" y1="116.16" x2="192.58" y2="134.02" stroke="#FF6B6B" stroke-opacity="0.24" stroke-width="2"/><line x1="192.58" y1="134.02" x2="590.76" y2="151.87" stroke="#FF6B6B" stroke-opacity="0.24" stroke-width="2"/>
  <circle cx="612.28" cy="378.05" r="3" fill="#FF6B6B" fill-opacity="0.35"/><circle cx="273.29" cy="238.18" r="4" fill="#FF6B6B" fill-opacity="0.40"/><circle cx="472.38" cy="98.3" r="5" fill="#FF6B6B" fill-opacity="0.45"/><circle cx="133.39" cy="256.03" r="3" fill="#FF6B6B" fill-opacity="0.50"/><circle cx="332.48" cy="116.16" r="4" fill="#FF6B6B" fill-opacity="0.35"/><circle cx="531.57" cy="273.89" r="5" fill="#FF6B6B" fill-opacity="0.40"/><circle cx="192.58" cy="134.02" r="3" fill="#FF6B6B" fill-opacity="0.45"/><circle cx="391.67" cy="291.74" r="4" fill="#FF6B6B" fill-opacity="0.50"/><circle cx="590.76" cy="151.87" r="5" fill="#FF6B6B" fill-opacity="0.35"/>
  <rect x="53.1" y="57.6" width="127.4" height="86.4" rx="18" fill="#FF6B6B" fill-opacity="0.16"/>
  <circle cx="594.7" cy="345.6" r="76.8" fill="#FFFFFF" fill-opacity="0.36" stroke="#4A1E24" stroke-opacity="0.10"/>
  <text x="56.6" y="422.4" font-family="Inter, Arial, sans-serif" font-size="43" font-weight="700" fill="#4A1E24" fill-opacity="0.72">ENFJ-A</text>
  <text x="56.6" y="476.1" font-family="Inter, Arial, sans-serif" font-size="22" font-weight="500" fill="#4A1E24" fill-opacity="0.48">identity lattice · A</text>
</svg>
