<svg xmlns="http://www.w3.org/2000/svg" width="1272" height="296" viewBox="0 0 1272 296" role="img" aria-labelledby="title desc">
  <title id="title">ENFJ-A Relationships illustration</title>
  <desc id="desc">Abstract relationship orbit map for the ENFJ-A MBTI desktop result module.</desc>
  <defs>
    <linearGradient id="bg" x1="0" x2="1" y1="0" y2="1">
      <stop offset="0" stop-color="#FFE0E0" stop-opacity="0.92"/>
      <stop offset="0.55" stop-color="#FFFFFF" stop-opacity="0.96"/>
      <stop offset="1" stop-color="#FF6B6B" stop-opacity="0.14"/>
    </linearGradient>
    <radialGradient id="halo" cx="74%" cy="35%" r="48%">
      <stop offset="0" stop-color="#FF6B6B" stop-opacity="0.26"/>
      <stop offset="1" stop-color="#FF6B6B" stop-opacity="0"/>
    </radialGradient>
    <filter id="soft"><feGaussianBlur stdDeviation="18"/></filter>
  </defs>
  <rect width="1272" height="296" rx="22" fill="url(#bg)"/>
  <circle cx="992.2" cy="100.6" r="94.7" fill="url(#halo)"/>
  <path d="M 101.8 213.1 C 356.2 74.0, 686.9 254.6, 1170.2 82.9" fill="none" stroke="#4A1E24" stroke-opacity="0.16" stroke-width="3"/>
  <polyline points="0.0,133.3 159.0,149.8 318.0,182.9 477.0,190.3 636.0,162.7 795.0,135.2 954.0,142.9 1113.0,176.0 1272.0,192.3" fill="none" stroke="#FF6B6B" stroke-opacity="0.34" stroke-width="4" stroke-linecap="round"/>
  <line x1="935.68" y1="201.93" x2="684.34" y2="212.94" stroke="#FF6B6B" stroke-opacity="0.24" stroke-width="2"/><line x1="326.65" y1="115.68" x2="1042.02" y2="126.69" stroke="#FF6B6B" stroke-opacity="0.24" stroke-width="2"/><line x1="684.34" y1="212.94" x2="432.99" y2="223.95" stroke="#FF6B6B" stroke-opacity="0.24" stroke-width="2"/><line x1="1042.02" y1="126.69" x2="790.68" y2="137.7" stroke="#FF6B6B" stroke-opacity="0.24" stroke-width="2"/><line x1="790.68" y1="137.7" x2="539.33" y2="148.71" stroke="#FF6B6B" stroke-opacity="0.24" stroke-width="2"/><line x1="539.33" y1="148.71" x2="935.68" y2="201.93" stroke="#FF6B6B" stroke-opacity="0.24" stroke-width="2"/>
  <circle cx="935.68" cy="201.93" r="3" fill="#FF6B6B" fill-opacity="0.35"/><circle cx="326.65" cy="115.68" r="4" fill="#FF6B6B" fill-opacity="0.40"/><circle cx="684.34" cy="212.94" r="5" fill="#FF6B6B" fill-opacity="0.45"/><circle cx="1042.02" cy="126.69" r="3" fill="#FF6B6B" fill-opacity="0.50"/><circle cx="432.99" cy="223.95" r="4" fill="#FF6B6B" fill-opacity="0.35"/><circle cx="790.68" cy="137.7" r="5" fill="#FF6B6B" fill-opacity="0.40"/><circle cx="181.64" cy="234.96" r="3" fill="#FF6B6B" fill-opacity="0.45"/><circle cx="539.33" cy="148.71" r="4" fill="#FF6B6B" fill-opacity="0.50"/><circle cx="897.01" cy="62.46" r="5" fill="#FF6B6B" fill-opacity="0.35"/>
  <rect x="95.4" y="35.5" width="229.0" height="53.3" rx="18" fill="#FF6B6B" fill-opacity="0.16"/>
  <circle cx="1068.5" cy="213.1" r="47.4" fill="#FFFFFF" fill-opacity="0.36" stroke="#4A1E24" stroke-opacity="0.10"/>
  <text x="101.8" y="260.5" font-family="Inter, Arial, sans-serif" font-size="27" font-weight="700" fill="#4A1E24" fill-opacity="0.72">ENFJ-A</text>
  <text x="101.8" y="294.2" font-family="Inter, Arial, sans-serif" font-size="13" font-weight="500" fill="#4A1E24" fill-opacity="0.48">relationship orbit map · A</text>
</svg>
