<svg xmlns="http://www.w3.org/2000/svg" width="720" height="354" viewBox="0 0 720 354" role="img" aria-labelledby="title desc">
  <title id="title">ENFJ-A Traits summary illustration</title>
  <desc id="desc">Abstract trait signal card for the ENFJ-A MBTI desktop result module.</desc>
  <defs>
    <linearGradient id="bg" x1="0" x2="1" y1="0" y2="1">
      <stop offset="0" stop-color="#FFE0E0" stop-opacity="0.92"/>
      <stop offset="0.55" stop-color="#FFFFFF" stop-opacity="0.96"/>
      <stop offset="1" stop-color="#FF6B6B" stop-opacity="0.14"/>
    </linearGradient>
    <radialGradient id="halo" cx="74%" cy="35%" r="48%">
      <stop offset="0" stop-color="#FF6B6B" stop-opacity="0.26"/>
      <stop offset="1" stop-color="#FF6B6B" stop-opacity="0"/>
    </radialGradient>
    <filter id="soft"><feGaussianBlur stdDeviation="18"/></filter>
  </defs>
  <rect width="720" height="354" rx="22" fill="url(#bg)"/>
  <circle cx="561.6" cy="120.4" r="113.3" fill="url(#halo)"/>
  <path d="M 57.6 254.9 C 201.6 88.5, 388.8 304.4, 662.4 99.1" fill="none" stroke="#4A1E24" stroke-opacity="0.16" stroke-width="3"/>
  <polyline points="0.0,173.6 90.0,160.6 180.0,191.1 270.0,226.2 360.0,221.1 450.0,182.3 540.0,159.3 630.0,181.4 720.0,220.5" fill="none" stroke="#FF6B6B" stroke-opacity="0.34" stroke-width="4" stroke-linecap="round"/>
  <line x1="403.78" y1="191.02" x2="261.5" y2="204.19" stroke="#FF6B6B" stroke-opacity="0.24" stroke-width="2"/><line x1="606.24" y1="87.86" x2="463.97" y2="101.03" stroke="#FF6B6B" stroke-opacity="0.24" stroke-width="2"/><line x1="261.5" y1="204.19" x2="119.23" y2="217.36" stroke="#FF6B6B" stroke-opacity="0.24" stroke-width="2"/><line x1="463.97" y1="101.03" x2="321.7" y2="114.2" stroke="#FF6B6B" stroke-opacity="0.24" stroke-width="2"/><line x1="119.23" y1="217.36" x2="524.16" y2="230.52" stroke="#FF6B6B" stroke-opacity="0.24" stroke-width="2"/><line x1="524.16" y1="230.52" x2="381.89" y2="243.69" stroke="#FF6B6B" stroke-opacity="0.24" stroke-width="2"/>
  <circle cx="403.78" cy="191.02" r="3" fill="#FF6B6B" fill-opacity="0.35"/><circle cx="606.24" cy="87.86" r="4" fill="#FF6B6B" fill-opacity="0.40"/><circle cx="261.5" cy="204.19" r="5" fill="#FF6B6B" fill-opacity="0.45"/><circle cx="463.97" cy="101.03" r="3" fill="#FF6B6B" fill-opacity="0.50"/><circle cx="119.23" cy="217.36" r="4" fill="#FF6B6B" fill-opacity="0.35"/><circle cx="321.7" cy="114.2" r="5" fill="#FF6B6B" fill-opacity="0.40"/><circle cx="524.16" cy="230.52" r="3" fill="#FF6B6B" fill-opacity="0.45"/><circle cx="179.42" cy="127.37" r="4" fill="#FF6B6B" fill-opacity="0.50"/><circle cx="381.89" cy="243.69" r="5" fill="#FF6B6B" fill-opacity="0.35"/>
  <rect x="54.0" y="42.5" width="129.6" height="63.7" rx="18" fill="#FF6B6B" fill-opacity="0.16"/>
  <circle cx="604.8" cy="254.9" r="56.6" fill="#FFFFFF" fill-opacity="0.36" stroke="#4A1E24" stroke-opacity="0.10"/>
  <text x="57.6" y="311.5" font-family="Inter, Arial, sans-serif" font-size="32" font-weight="700" fill="#4A1E24" fill-opacity="0.72">ENFJ-A</text>
  <text x="57.6" y="351.5" font-family="Inter, Arial, sans-serif" font-size="16" font-weight="500" fill="#4A1E24" fill-opacity="0.48">trait signal card · A</text>
</svg>
