<svg xmlns="http://www.w3.org/2000/svg" width="1272" height="296" viewBox="0 0 1272 296" role="img" aria-labelledby="title desc">
  <title id="title">ESTJ-T Career path illustration</title>
  <desc id="desc">Abstract career path map for the ESTJ-T MBTI desktop result module.</desc>
  <defs>
    <linearGradient id="bg" x1="0" x2="1" y1="0" y2="1">
      <stop offset="0" stop-color="#FFE1D0" stop-opacity="0.92"/>
      <stop offset="0.55" stop-color="#FFFFFF" stop-opacity="0.96"/>
      <stop offset="1" stop-color="#F3722C" stop-opacity="0.14"/>
    </linearGradient>
    <radialGradient id="halo" cx="74%" cy="35%" r="48%">
      <stop offset="0" stop-color="#F3722C" stop-opacity="0.26"/>
      <stop offset="1" stop-color="#F3722C" stop-opacity="0"/>
    </radialGradient>
    <filter id="soft"><feGaussianBlur stdDeviation="18"/></filter>
  </defs>
  <rect width="1272" height="296" rx="22" fill="url(#bg)"/>
  <circle cx="992.2" cy="100.6" r="94.7" fill="url(#halo)"/>
  <path d="M 101.8 213.1 C 356.2 74.0, 686.9 254.6, 1170.2 82.9" fill="none" stroke="#4A210B" stroke-opacity="0.16" stroke-width="3"/>
  <polyline points="0.0,189.4 159.0,160.3 318.0,134.4 477.0,144.7 636.0,178.1 795.0,192.0 954.0,168.7 1113.0,137.9 1272.0,138.9" fill="none" stroke="#F3722C" stroke-opacity="0.34" stroke-width="4" stroke-linecap="round"/>
  <line x1="461.99" y1="112.01" x2="210.64" y2="123.02" stroke="#F3722C" stroke-opacity="0.24" stroke-width="2"/><line x1="819.68" y1="209.27" x2="568.33" y2="220.28" stroke="#F3722C" stroke-opacity="0.24" stroke-width="2"/><line x1="210.64" y1="123.02" x2="926.02" y2="134.03" stroke="#F3722C" stroke-opacity="0.24" stroke-width="2"/><line x1="568.33" y1="220.28" x2="316.98" y2="231.29" stroke="#F3722C" stroke-opacity="0.24" stroke-width="2"/><line x1="926.02" y1="134.03" x2="674.67" y2="145.04" stroke="#F3722C" stroke-opacity="0.24" stroke-width="2"/><line x1="674.67" y1="145.04" x2="423.32" y2="156.05" stroke="#F3722C" stroke-opacity="0.24" stroke-width="2"/>
  <circle cx="461.99" cy="112.01" r="3" fill="#F3722C" fill-opacity="0.35"/><circle cx="819.68" cy="209.27" r="4" fill="#F3722C" fill-opacity="0.40"/><circle cx="210.64" cy="123.02" r="5" fill="#F3722C" fill-opacity="0.45"/><circle cx="568.33" cy="220.28" r="3" fill="#F3722C" fill-opacity="0.50"/><circle cx="926.02" cy="134.03" r="4" fill="#F3722C" fill-opacity="0.35"/><circle cx="316.98" cy="231.29" r="5" fill="#F3722C" fill-opacity="0.40"/><circle cx="674.67" cy="145.04" r="3" fill="#F3722C" fill-opacity="0.45"/><circle cx="1032.36" cy="58.79" r="4" fill="#F3722C" fill-opacity="0.50"/><circle cx="423.32" cy="156.05" r="5" fill="#F3722C" fill-opacity="0.35"/>
  <rect x="95.4" y="35.5" width="229.0" height="53.3" rx="18" fill="#F3722C" fill-opacity="0.16"/>
  <circle cx="1068.5" cy="213.1" r="47.4" fill="#FFFFFF" fill-opacity="0.36" stroke="#4A210B" stroke-opacity="0.10"/>
  <text x="101.8" y="260.5" font-family="Inter, Arial, sans-serif" font-size="27" font-weight="700" fill="#4A210B" fill-opacity="0.72">ESTJ-T</text>
  <text x="101.8" y="294.2" font-family="Inter, Arial, sans-serif" font-size="13" font-weight="500" fill="#4A210B" fill-opacity="0.48">career path map · T</text>
</svg>
