<svg xmlns="http://www.w3.org/2000/svg" width="756" height="660" viewBox="0 0 756 660" role="img" aria-labelledby="title desc">
  <title id="title">ESTJ-T Final offer illustration</title>
  <desc id="desc">Abstract report unlock panel for the ESTJ-T MBTI desktop result module.</desc>
  <defs>
    <linearGradient id="bg" x1="0" x2="1" y1="0" y2="1">
      <stop offset="0" stop-color="#FFE1D0" stop-opacity="0.92"/>
      <stop offset="0.55" stop-color="#FFFFFF" stop-opacity="0.96"/>
      <stop offset="1" stop-color="#F3722C" stop-opacity="0.14"/>
    </linearGradient>
    <radialGradient id="halo" cx="74%" cy="35%" r="48%">
      <stop offset="0" stop-color="#F3722C" stop-opacity="0.26"/>
      <stop offset="1" stop-color="#F3722C" stop-opacity="0"/>
    </radialGradient>
    <filter id="soft"><feGaussianBlur stdDeviation="18"/></filter>
  </defs>
  <rect width="756" height="660" rx="22" fill="url(#bg)"/>
  <circle cx="589.7" cy="224.4" r="211.2" fill="url(#halo)"/>
  <path d="M 60.5 475.2 C 211.7 165.0, 408.2 567.6, 695.5 184.8" fill="none" stroke="#4A210B" stroke-opacity="0.16" stroke-width="3"/>
  <polyline points="0.0,319.8 94.5,300.9 189.0,361.2 283.5,423.8 378.0,408.9 472.5,335.4 567.0,297.1 661.5,342.8 756.0,414.3" fill="none" stroke="#F3722C" stroke-opacity="0.34" stroke-width="4" stroke-linecap="round"/>
  <line x1="107.96" y1="131.08" x2="533.13" y2="155.63" stroke="#F3722C" stroke-opacity="0.24" stroke-width="2"/><line x1="320.54" y1="347.95" x2="171.16" y2="372.5" stroke="#F3722C" stroke-opacity="0.24" stroke-width="2"/><line x1="533.13" y1="155.63" x2="383.75" y2="180.18" stroke="#F3722C" stroke-opacity="0.24" stroke-width="2"/><line x1="171.16" y1="372.5" x2="596.33" y2="397.06" stroke="#F3722C" stroke-opacity="0.24" stroke-width="2"/><line x1="596.33" y1="397.06" x2="446.95" y2="421.61" stroke="#F3722C" stroke-opacity="0.24" stroke-width="2"/><line x1="446.95" y1="421.61" x2="107.96" y2="131.08" stroke="#F3722C" stroke-opacity="0.24" stroke-width="2"/>
  <circle cx="107.96" cy="131.08" r="3" fill="#F3722C" fill-opacity="0.35"/><circle cx="320.54" cy="347.95" r="4" fill="#F3722C" fill-opacity="0.40"/><circle cx="533.13" cy="155.63" r="5" fill="#F3722C" fill-opacity="0.45"/><circle cx="171.16" cy="372.5" r="3" fill="#F3722C" fill-opacity="0.50"/><circle cx="383.75" cy="180.18" r="4" fill="#F3722C" fill-opacity="0.35"/><circle cx="596.33" cy="397.06" r="5" fill="#F3722C" fill-opacity="0.40"/><circle cx="234.36" cy="204.73" r="3" fill="#F3722C" fill-opacity="0.45"/><circle cx="446.95" cy="421.61" r="4" fill="#F3722C" fill-opacity="0.50"/><circle cx="659.53" cy="229.28" r="5" fill="#F3722C" fill-opacity="0.35"/>
  <rect x="56.7" y="79.2" width="136.1" height="118.8" rx="18" fill="#F3722C" fill-opacity="0.16"/>
  <circle cx="635.0" cy="475.2" r="105.6" fill="#FFFFFF" fill-opacity="0.36" stroke="#4A210B" stroke-opacity="0.10"/>
  <text x="60.5" y="580.8" font-family="Inter, Arial, sans-serif" font-size="59" font-weight="700" fill="#4A210B" fill-opacity="0.72">ESTJ-T</text>
  <text x="60.5" y="654.5" font-family="Inter, Arial, sans-serif" font-size="30" font-weight="500" fill="#4A210B" fill-opacity="0.48">report unlock panel · T</text>
</svg>
