<svg xmlns="http://www.w3.org/2000/svg" width="1272" height="296" viewBox="0 0 1272 296" role="img" aria-labelledby="title desc">
  <title id="title">ESTJ-T Growth path illustration</title>
  <desc id="desc">Abstract growth rhythm map for the ESTJ-T MBTI desktop result module.</desc>
  <defs>
    <linearGradient id="bg" x1="0" x2="1" y1="0" y2="1">
      <stop offset="0" stop-color="#FFE1D0" stop-opacity="0.92"/>
      <stop offset="0.55" stop-color="#FFFFFF" stop-opacity="0.96"/>
      <stop offset="1" stop-color="#F3722C" stop-opacity="0.14"/>
    </linearGradient>
    <radialGradient id="halo" cx="74%" cy="35%" r="48%">
      <stop offset="0" stop-color="#F3722C" stop-opacity="0.26"/>
      <stop offset="1" stop-color="#F3722C" stop-opacity="0"/>
    </radialGradient>
    <filter id="soft"><feGaussianBlur stdDeviation="18"/></filter>
  </defs>
  <rect width="1272" height="296" rx="22" fill="url(#bg)"/>
  <circle cx="992.2" cy="100.6" r="94.7" fill="url(#halo)"/>
  <path d="M 101.8 213.1 C 356.2 74.0, 686.9 254.6, 1170.2 82.9" fill="none" stroke="#4A210B" stroke-opacity="0.16" stroke-width="3"/>
  <polyline points="0.0,133.8 159.0,158.0 318.0,188.3 477.0,186.1 636.0,154.2 795.0,133.3 954.0,150.0 1113.0,183.0 1272.0,190.3" fill="none" stroke="#F3722C" stroke-opacity="0.34" stroke-width="4" stroke-linecap="round"/>
  <line x1="858.35" y1="187.25" x2="607.0" y2="198.26" stroke="#F3722C" stroke-opacity="0.24" stroke-width="2"/><line x1="249.31" y1="101.0" x2="964.68" y2="112.01" stroke="#F3722C" stroke-opacity="0.24" stroke-width="2"/><line x1="607.0" y1="198.26" x2="355.65" y2="209.27" stroke="#F3722C" stroke-opacity="0.24" stroke-width="2"/><line x1="964.68" y1="112.01" x2="713.34" y2="123.02" stroke="#F3722C" stroke-opacity="0.24" stroke-width="2"/><line x1="713.34" y1="123.02" x2="461.99" y2="134.03" stroke="#F3722C" stroke-opacity="0.24" stroke-width="2"/><line x1="461.99" y1="134.03" x2="858.35" y2="187.25" stroke="#F3722C" stroke-opacity="0.24" stroke-width="2"/>
  <circle cx="858.35" cy="187.25" r="3" fill="#F3722C" fill-opacity="0.35"/><circle cx="249.31" cy="101.0" r="4" fill="#F3722C" fill-opacity="0.40"/><circle cx="607.0" cy="198.26" r="5" fill="#F3722C" fill-opacity="0.45"/><circle cx="964.68" cy="112.01" r="3" fill="#F3722C" fill-opacity="0.50"/><circle cx="355.65" cy="209.27" r="4" fill="#F3722C" fill-opacity="0.35"/><circle cx="713.34" cy="123.02" r="5" fill="#F3722C" fill-opacity="0.40"/><circle cx="1071.02" cy="220.28" r="3" fill="#F3722C" fill-opacity="0.45"/><circle cx="461.99" cy="134.03" r="4" fill="#F3722C" fill-opacity="0.50"/><circle cx="819.68" cy="231.29" r="5" fill="#F3722C" fill-opacity="0.35"/>
  <rect x="95.4" y="35.5" width="229.0" height="53.3" rx="18" fill="#F3722C" fill-opacity="0.16"/>
  <circle cx="1068.5" cy="213.1" r="47.4" fill="#FFFFFF" fill-opacity="0.36" stroke="#4A210B" stroke-opacity="0.10"/>
  <text x="101.8" y="260.5" font-family="Inter, Arial, sans-serif" font-size="27" font-weight="700" fill="#4A210B" fill-opacity="0.72">ESTJ-T</text>
  <text x="101.8" y="294.2" font-family="Inter, Arial, sans-serif" font-size="13" font-weight="500" fill="#4A210B" fill-opacity="0.48">growth rhythm map · T</text>
</svg>
