<svg xmlns="http://www.w3.org/2000/svg" width="708" height="480" viewBox="0 0 708 480" role="img" aria-labelledby="title desc">
  <title id="title">ESTJ-T Hero identity illustration</title>
  <desc id="desc">Abstract identity lattice for the ESTJ-T MBTI desktop result module.</desc>
  <defs>
    <linearGradient id="bg" x1="0" x2="1" y1="0" y2="1">
      <stop offset="0" stop-color="#FFE1D0" stop-opacity="0.92"/>
      <stop offset="0.55" stop-color="#FFFFFF" stop-opacity="0.96"/>
      <stop offset="1" stop-color="#F3722C" stop-opacity="0.14"/>
    </linearGradient>
    <radialGradient id="halo" cx="74%" cy="35%" r="48%">
      <stop offset="0" stop-color="#F3722C" stop-opacity="0.26"/>
      <stop offset="1" stop-color="#F3722C" stop-opacity="0"/>
    </radialGradient>
    <filter id="soft"><feGaussianBlur stdDeviation="18"/></filter>
  </defs>
  <rect width="708" height="480" rx="22" fill="url(#bg)"/>
  <circle cx="552.2" cy="163.2" r="153.6" fill="url(#halo)"/>
  <path d="M 56.6 345.6 C 198.2 120.0, 382.3 412.8, 651.4 134.4" fill="none" stroke="#4A210B" stroke-opacity="0.16" stroke-width="3"/>
  <polyline points="0.0,296.9 88.5,308.5 177.0,263.3 265.5,219.0 354.0,232.1 442.5,285.8 531.0,311.8 619.5,276.8 708.0,225.5" fill="none" stroke="#F3722C" stroke-opacity="0.34" stroke-width="4" stroke-linecap="round"/>
  <line x1="278.67" y1="193.54" x2="138.77" y2="211.39" stroke="#F3722C" stroke-opacity="0.24" stroke-width="2"/><line x1="477.76" y1="351.26" x2="337.86" y2="369.12" stroke="#F3722C" stroke-opacity="0.24" stroke-width="2"/><line x1="138.77" y1="211.39" x2="536.95" y2="229.25" stroke="#F3722C" stroke-opacity="0.24" stroke-width="2"/><line x1="337.86" y1="369.12" x2="197.96" y2="89.38" stroke="#F3722C" stroke-opacity="0.24" stroke-width="2"/><line x1="536.95" y1="229.25" x2="397.05" y2="247.1" stroke="#F3722C" stroke-opacity="0.24" stroke-width="2"/><line x1="397.05" y1="247.1" x2="257.15" y2="264.96" stroke="#F3722C" stroke-opacity="0.24" stroke-width="2"/>
  <circle cx="278.67" cy="193.54" r="3" fill="#F3722C" fill-opacity="0.35"/><circle cx="477.76" cy="351.26" r="4" fill="#F3722C" fill-opacity="0.40"/><circle cx="138.77" cy="211.39" r="5" fill="#F3722C" fill-opacity="0.45"/><circle cx="337.86" cy="369.12" r="3" fill="#F3722C" fill-opacity="0.50"/><circle cx="536.95" cy="229.25" r="4" fill="#F3722C" fill-opacity="0.35"/><circle cx="197.96" cy="89.38" r="5" fill="#F3722C" fill-opacity="0.40"/><circle cx="397.05" cy="247.1" r="3" fill="#F3722C" fill-opacity="0.45"/><circle cx="596.14" cy="107.23" r="4" fill="#F3722C" fill-opacity="0.50"/><circle cx="257.15" cy="264.96" r="5" fill="#F3722C" fill-opacity="0.35"/>
  <rect x="53.1" y="57.6" width="127.4" height="86.4" rx="18" fill="#F3722C" fill-opacity="0.16"/>
  <circle cx="594.7" cy="345.6" r="76.8" fill="#FFFFFF" fill-opacity="0.36" stroke="#4A210B" stroke-opacity="0.10"/>
  <text x="56.6" y="422.4" font-family="Inter, Arial, sans-serif" font-size="43" font-weight="700" fill="#4A210B" fill-opacity="0.72">ESTJ-T</text>
  <text x="56.6" y="476.1" font-family="Inter, Arial, sans-serif" font-size="22" font-weight="500" fill="#4A210B" fill-opacity="0.48">identity lattice · T</text>
</svg>
