<svg xmlns="http://www.w3.org/2000/svg" width="720" height="354" viewBox="0 0 720 354" role="img" aria-labelledby="title desc">
  <title id="title">ESTJ-T Traits summary illustration</title>
  <desc id="desc">Abstract trait signal card for the ESTJ-T MBTI desktop result module.</desc>
  <defs>
    <linearGradient id="bg" x1="0" x2="1" y1="0" y2="1">
      <stop offset="0" stop-color="#FFE1D0" stop-opacity="0.92"/>
      <stop offset="0.55" stop-color="#FFFFFF" stop-opacity="0.96"/>
      <stop offset="1" stop-color="#F3722C" stop-opacity="0.14"/>
    </linearGradient>
    <radialGradient id="halo" cx="74%" cy="35%" r="48%">
      <stop offset="0" stop-color="#F3722C" stop-opacity="0.26"/>
      <stop offset="1" stop-color="#F3722C" stop-opacity="0"/>
    </radialGradient>
    <filter id="soft"><feGaussianBlur stdDeviation="18"/></filter>
  </defs>
  <rect width="720" height="354" rx="22" fill="url(#bg)"/>
  <circle cx="561.6" cy="120.4" r="113.3" fill="url(#halo)"/>
  <path d="M 57.6 254.9 C 201.6 88.5, 388.8 304.4, 662.4 99.1" fill="none" stroke="#4A210B" stroke-opacity="0.16" stroke-width="3"/>
  <polyline points="0.0,201.1 90.0,229.5 180.0,213.5 270.0,173.6 360.0,160.6 450.0,191.1 540.0,226.2 630.0,221.2 720.0,182.4" fill="none" stroke="#F3722C" stroke-opacity="0.34" stroke-width="4" stroke-linecap="round"/>
  <line x1="611.71" y1="274.42" x2="469.44" y2="68.11" stroke="#F3722C" stroke-opacity="0.24" stroke-width="2"/><line x1="266.98" y1="171.27" x2="124.7" y2="184.43" stroke="#F3722C" stroke-opacity="0.24" stroke-width="2"/><line x1="469.44" y1="68.11" x2="327.17" y2="81.28" stroke="#F3722C" stroke-opacity="0.24" stroke-width="2"/><line x1="124.7" y1="184.43" x2="529.63" y2="197.6" stroke="#F3722C" stroke-opacity="0.24" stroke-width="2"/><line x1="327.17" y1="81.28" x2="184.9" y2="94.45" stroke="#F3722C" stroke-opacity="0.24" stroke-width="2"/><line x1="184.9" y1="94.45" x2="589.82" y2="107.62" stroke="#F3722C" stroke-opacity="0.24" stroke-width="2"/>
  <circle cx="611.71" cy="274.42" r="3" fill="#F3722C" fill-opacity="0.35"/><circle cx="266.98" cy="171.27" r="4" fill="#F3722C" fill-opacity="0.40"/><circle cx="469.44" cy="68.11" r="5" fill="#F3722C" fill-opacity="0.45"/><circle cx="124.7" cy="184.43" r="3" fill="#F3722C" fill-opacity="0.50"/><circle cx="327.17" cy="81.28" r="4" fill="#F3722C" fill-opacity="0.35"/><circle cx="529.63" cy="197.6" r="5" fill="#F3722C" fill-opacity="0.40"/><circle cx="184.9" cy="94.45" r="3" fill="#F3722C" fill-opacity="0.45"/><circle cx="387.36" cy="210.77" r="4" fill="#F3722C" fill-opacity="0.50"/><circle cx="589.82" cy="107.62" r="5" fill="#F3722C" fill-opacity="0.35"/>
  <rect x="54.0" y="42.5" width="129.6" height="63.7" rx="18" fill="#F3722C" fill-opacity="0.16"/>
  <circle cx="604.8" cy="254.9" r="56.6" fill="#FFFFFF" fill-opacity="0.36" stroke="#4A210B" stroke-opacity="0.10"/>
  <text x="57.6" y="311.5" font-family="Inter, Arial, sans-serif" font-size="32" font-weight="700" fill="#4A210B" fill-opacity="0.72">ESTJ-T</text>
  <text x="57.6" y="351.5" font-family="Inter, Arial, sans-serif" font-size="16" font-weight="500" fill="#4A210B" fill-opacity="0.48">trait signal card · T</text>
</svg>
