<svg xmlns="http://www.w3.org/2000/svg" width="756" height="660" viewBox="0 0 756 660" role="img" aria-labelledby="title desc">
  <title id="title">INTJ-A Final offer illustration</title>
  <desc id="desc">Abstract report unlock panel for the INTJ-A MBTI desktop result module.</desc>
  <defs>
    <linearGradient id="bg" x1="0" x2="1" y1="0" y2="1">
      <stop offset="0" stop-color="#DDE1FF" stop-opacity="0.92"/>
      <stop offset="0.55" stop-color="#FFFFFF" stop-opacity="0.96"/>
      <stop offset="1" stop-color="#6C63FF" stop-opacity="0.14"/>
    </linearGradient>
    <radialGradient id="halo" cx="74%" cy="35%" r="48%">
      <stop offset="0" stop-color="#6C63FF" stop-opacity="0.26"/>
      <stop offset="1" stop-color="#6C63FF" stop-opacity="0"/>
    </radialGradient>
    <filter id="soft"><feGaussianBlur stdDeviation="18"/></filter>
  </defs>
  <rect width="756" height="660" rx="22" fill="url(#bg)"/>
  <circle cx="589.7" cy="224.4" r="211.2" fill="url(#halo)"/>
  <path d="M 60.5 475.2 C 211.7 165.0, 408.2 567.6, 695.5 184.8" fill="none" stroke="#1D1B4F" stroke-opacity="0.16" stroke-width="3"/>
  <polyline points="0.0,405.4 94.5,331.2 189.0,297.6 283.5,347.4 378.0,417.1 472.5,417.8 567.0,348.7 661.5,297.8 756.0,330.1" fill="none" stroke="#6C63FF" stroke-opacity="0.34" stroke-width="4" stroke-linecap="round"/>
  <line x1="567.6" y1="458.44" x2="418.22" y2="482.99" stroke="#6C63FF" stroke-opacity="0.24" stroke-width="2"/><line x1="205.63" y1="266.11" x2="630.81" y2="290.66" stroke="#6C63FF" stroke-opacity="0.24" stroke-width="2"/><line x1="418.22" y1="482.99" x2="268.83" y2="507.54" stroke="#6C63FF" stroke-opacity="0.24" stroke-width="2"/><line x1="630.81" y1="290.66" x2="481.42" y2="315.22" stroke="#6C63FF" stroke-opacity="0.24" stroke-width="2"/><line x1="481.42" y1="315.22" x2="332.04" y2="339.77" stroke="#6C63FF" stroke-opacity="0.24" stroke-width="2"/><line x1="332.04" y1="339.77" x2="567.6" y2="458.44" stroke="#6C63FF" stroke-opacity="0.24" stroke-width="2"/>
  <circle cx="567.6" cy="458.44" r="3" fill="#6C63FF" fill-opacity="0.35"/><circle cx="205.63" cy="266.11" r="4" fill="#6C63FF" fill-opacity="0.40"/><circle cx="418.22" cy="482.99" r="5" fill="#6C63FF" fill-opacity="0.45"/><circle cx="630.81" cy="290.66" r="3" fill="#6C63FF" fill-opacity="0.50"/><circle cx="268.83" cy="507.54" r="4" fill="#6C63FF" fill-opacity="0.35"/><circle cx="481.42" cy="315.22" r="5" fill="#6C63FF" fill-opacity="0.40"/><circle cx="119.45" cy="122.89" r="3" fill="#6C63FF" fill-opacity="0.45"/><circle cx="332.04" cy="339.77" r="4" fill="#6C63FF" fill-opacity="0.50"/><circle cx="544.62" cy="147.44" r="5" fill="#6C63FF" fill-opacity="0.35"/>
  <rect x="56.7" y="79.2" width="136.1" height="118.8" rx="18" fill="#6C63FF" fill-opacity="0.16"/>
  <circle cx="635.0" cy="475.2" r="105.6" fill="#FFFFFF" fill-opacity="0.36" stroke="#1D1B4F" stroke-opacity="0.10"/>
  <text x="60.5" y="580.8" font-family="Inter, Arial, sans-serif" font-size="59" font-weight="700" fill="#1D1B4F" fill-opacity="0.72">INTJ-A</text>
  <text x="60.5" y="654.5" font-family="Inter, Arial, sans-serif" font-size="30" font-weight="500" fill="#1D1B4F" fill-opacity="0.48">report unlock panel · A</text>
</svg>
