<svg xmlns="http://www.w3.org/2000/svg" width="1272" height="296" viewBox="0 0 1272 296" role="img" aria-labelledby="title desc">
  <title id="title">INTJ-A Growth path illustration</title>
  <desc id="desc">Abstract growth rhythm map for the INTJ-A MBTI desktop result module.</desc>
  <defs>
    <linearGradient id="bg" x1="0" x2="1" y1="0" y2="1">
      <stop offset="0" stop-color="#DDE1FF" stop-opacity="0.92"/>
      <stop offset="0.55" stop-color="#FFFFFF" stop-opacity="0.96"/>
      <stop offset="1" stop-color="#6C63FF" stop-opacity="0.14"/>
    </linearGradient>
    <radialGradient id="halo" cx="74%" cy="35%" r="48%">
      <stop offset="0" stop-color="#6C63FF" stop-opacity="0.26"/>
      <stop offset="1" stop-color="#6C63FF" stop-opacity="0"/>
    </radialGradient>
    <filter id="soft"><feGaussianBlur stdDeviation="18"/></filter>
  </defs>
  <rect width="1272" height="296" rx="22" fill="url(#bg)"/>
  <circle cx="992.2" cy="100.6" r="94.7" fill="url(#halo)"/>
  <path d="M 101.8 213.1 C 356.2 74.0, 686.9 254.6, 1170.2 82.9" fill="none" stroke="#1D1B4F" stroke-opacity="0.16" stroke-width="3"/>
  <polyline points="0.0,152.2 159.0,133.2 318.0,151.9 477.0,184.5 636.0,189.4 795.0,160.4 954.0,134.4 1113.0,144.7 1272.0,178.0" fill="none" stroke="#6C63FF" stroke-opacity="0.34" stroke-width="4" stroke-linecap="round"/>
  <line x1="665.0" y1="150.55" x2="413.65" y2="161.56" stroke="#6C63FF" stroke-opacity="0.24" stroke-width="2"/><line x1="1022.69" y1="64.29" x2="771.34" y2="75.3" stroke="#6C63FF" stroke-opacity="0.24" stroke-width="2"/><line x1="413.65" y1="161.56" x2="162.31" y2="172.57" stroke="#6C63FF" stroke-opacity="0.24" stroke-width="2"/><line x1="771.34" y1="75.3" x2="519.99" y2="86.31" stroke="#6C63FF" stroke-opacity="0.24" stroke-width="2"/><line x1="519.99" y1="86.31" x2="268.65" y2="97.32" stroke="#6C63FF" stroke-opacity="0.24" stroke-width="2"/><line x1="268.65" y1="97.32" x2="665.0" y2="150.55" stroke="#6C63FF" stroke-opacity="0.24" stroke-width="2"/>
  <circle cx="665.0" cy="150.55" r="3" fill="#6C63FF" fill-opacity="0.35"/><circle cx="1022.69" cy="64.29" r="4" fill="#6C63FF" fill-opacity="0.40"/><circle cx="413.65" cy="161.56" r="5" fill="#6C63FF" fill-opacity="0.45"/><circle cx="771.34" cy="75.3" r="3" fill="#6C63FF" fill-opacity="0.50"/><circle cx="162.31" cy="172.57" r="4" fill="#6C63FF" fill-opacity="0.35"/><circle cx="519.99" cy="86.31" r="5" fill="#6C63FF" fill-opacity="0.40"/><circle cx="877.68" cy="183.58" r="3" fill="#6C63FF" fill-opacity="0.45"/><circle cx="268.65" cy="97.32" r="4" fill="#6C63FF" fill-opacity="0.50"/><circle cx="626.33" cy="194.59" r="5" fill="#6C63FF" fill-opacity="0.35"/>
  <rect x="95.4" y="35.5" width="229.0" height="53.3" rx="18" fill="#6C63FF" fill-opacity="0.16"/>
  <circle cx="1068.5" cy="213.1" r="47.4" fill="#FFFFFF" fill-opacity="0.36" stroke="#1D1B4F" stroke-opacity="0.10"/>
  <text x="101.8" y="260.5" font-family="Inter, Arial, sans-serif" font-size="27" font-weight="700" fill="#1D1B4F" fill-opacity="0.72">INTJ-A</text>
  <text x="101.8" y="294.2" font-family="Inter, Arial, sans-serif" font-size="13" font-weight="500" fill="#1D1B4F" fill-opacity="0.48">growth rhythm map · A</text>
</svg>
