<svg xmlns="http://www.w3.org/2000/svg" width="708" height="480" viewBox="0 0 708 480" role="img" aria-labelledby="title desc">
  <title id="title">INTJ-A Hero identity illustration</title>
  <desc id="desc">Abstract identity lattice for the INTJ-A MBTI desktop result module.</desc>
  <defs>
    <linearGradient id="bg" x1="0" x2="1" y1="0" y2="1">
      <stop offset="0" stop-color="#DDE1FF" stop-opacity="0.92"/>
      <stop offset="0.55" stop-color="#FFFFFF" stop-opacity="0.96"/>
      <stop offset="1" stop-color="#6C63FF" stop-opacity="0.14"/>
    </linearGradient>
    <radialGradient id="halo" cx="74%" cy="35%" r="48%">
      <stop offset="0" stop-color="#6C63FF" stop-opacity="0.26"/>
      <stop offset="1" stop-color="#6C63FF" stop-opacity="0"/>
    </radialGradient>
    <filter id="soft"><feGaussianBlur stdDeviation="18"/></filter>
  </defs>
  <rect width="708" height="480" rx="22" fill="url(#bg)"/>
  <circle cx="552.2" cy="163.2" r="153.6" fill="url(#halo)"/>
  <path d="M 56.6 345.6 C 198.2 120.0, 382.3 412.8, 651.4 134.4" fill="none" stroke="#1D1B4F" stroke-opacity="0.16" stroke-width="3"/>
  <polyline points="0.0,234.7 88.5,288.8 177.0,311.3 265.5,273.4 354.0,223.5 442.5,225.3 531.0,276.4 619.5,311.7 708.0,286.2" fill="none" stroke="#6C63FF" stroke-opacity="0.34" stroke-width="4" stroke-linecap="round"/>
  <line x1="171.05" y1="134.02" x2="569.23" y2="151.87" stroke="#6C63FF" stroke-opacity="0.24" stroke-width="2"/><line x1="370.14" y1="291.74" x2="230.24" y2="309.6" stroke="#6C63FF" stroke-opacity="0.24" stroke-width="2"/><line x1="569.23" y1="151.87" x2="429.33" y2="169.73" stroke="#6C63FF" stroke-opacity="0.24" stroke-width="2"/><line x1="230.24" y1="309.6" x2="90.34" y2="327.46" stroke="#6C63FF" stroke-opacity="0.24" stroke-width="2"/><line x1="429.33" y1="169.73" x2="289.43" y2="187.58" stroke="#6C63FF" stroke-opacity="0.24" stroke-width="2"/><line x1="289.43" y1="187.58" x2="149.53" y2="205.44" stroke="#6C63FF" stroke-opacity="0.24" stroke-width="2"/>
  <circle cx="171.05" cy="134.02" r="3" fill="#6C63FF" fill-opacity="0.35"/><circle cx="370.14" cy="291.74" r="4" fill="#6C63FF" fill-opacity="0.40"/><circle cx="569.23" cy="151.87" r="5" fill="#6C63FF" fill-opacity="0.45"/><circle cx="230.24" cy="309.6" r="3" fill="#6C63FF" fill-opacity="0.50"/><circle cx="429.33" cy="169.73" r="4" fill="#6C63FF" fill-opacity="0.35"/><circle cx="90.34" cy="327.46" r="5" fill="#6C63FF" fill-opacity="0.40"/><circle cx="289.43" cy="187.58" r="3" fill="#6C63FF" fill-opacity="0.45"/><circle cx="488.52" cy="345.31" r="4" fill="#6C63FF" fill-opacity="0.50"/><circle cx="149.53" cy="205.44" r="5" fill="#6C63FF" fill-opacity="0.35"/>
  <rect x="53.1" y="57.6" width="127.4" height="86.4" rx="18" fill="#6C63FF" fill-opacity="0.16"/>
  <circle cx="594.7" cy="345.6" r="76.8" fill="#FFFFFF" fill-opacity="0.36" stroke="#1D1B4F" stroke-opacity="0.10"/>
  <text x="56.6" y="422.4" font-family="Inter, Arial, sans-serif" font-size="43" font-weight="700" fill="#1D1B4F" fill-opacity="0.72">INTJ-A</text>
  <text x="56.6" y="476.1" font-family="Inter, Arial, sans-serif" font-size="22" font-weight="500" fill="#1D1B4F" fill-opacity="0.48">identity lattice · A</text>
</svg>
