<svg xmlns="http://www.w3.org/2000/svg" width="1272" height="296" viewBox="0 0 1272 296" role="img" aria-labelledby="title desc">
  <title id="title">INTJ-A Relationships illustration</title>
  <desc id="desc">Abstract relationship orbit map for the INTJ-A MBTI desktop result module.</desc>
  <defs>
    <linearGradient id="bg" x1="0" x2="1" y1="0" y2="1">
      <stop offset="0" stop-color="#DDE1FF" stop-opacity="0.92"/>
      <stop offset="0.55" stop-color="#FFFFFF" stop-opacity="0.96"/>
      <stop offset="1" stop-color="#6C63FF" stop-opacity="0.14"/>
    </linearGradient>
    <radialGradient id="halo" cx="74%" cy="35%" r="48%">
      <stop offset="0" stop-color="#6C63FF" stop-opacity="0.26"/>
      <stop offset="1" stop-color="#6C63FF" stop-opacity="0"/>
    </radialGradient>
    <filter id="soft"><feGaussianBlur stdDeviation="18"/></filter>
  </defs>
  <rect width="1272" height="296" rx="22" fill="url(#bg)"/>
  <circle cx="992.2" cy="100.6" r="94.7" fill="url(#halo)"/>
  <path d="M 101.8 213.1 C 356.2 74.0, 686.9 254.6, 1170.2 82.9" fill="none" stroke="#1D1B4F" stroke-opacity="0.16" stroke-width="3"/>
  <polyline points="0.0,151.7 159.0,184.4 318.0,189.5 477.0,160.6 636.0,134.5 795.0,144.5 954.0,177.9 1113.0,192.0 1272.0,168.9" fill="none" stroke="#6C63FF" stroke-opacity="0.34" stroke-width="4" stroke-linecap="round"/>
  <line x1="1109.69" y1="234.96" x2="858.35" y2="62.46" stroke="#6C63FF" stroke-opacity="0.24" stroke-width="2"/><line x1="500.66" y1="148.71" x2="249.31" y2="159.72" stroke="#6C63FF" stroke-opacity="0.24" stroke-width="2"/><line x1="858.35" y1="62.46" x2="607.0" y2="73.47" stroke="#6C63FF" stroke-opacity="0.24" stroke-width="2"/><line x1="249.31" y1="159.72" x2="964.68" y2="170.73" stroke="#6C63FF" stroke-opacity="0.24" stroke-width="2"/><line x1="964.68" y1="170.73" x2="713.34" y2="181.74" stroke="#6C63FF" stroke-opacity="0.24" stroke-width="2"/><line x1="713.34" y1="181.74" x2="1109.69" y2="234.96" stroke="#6C63FF" stroke-opacity="0.24" stroke-width="2"/>
  <circle cx="1109.69" cy="234.96" r="3" fill="#6C63FF" fill-opacity="0.35"/><circle cx="500.66" cy="148.71" r="4" fill="#6C63FF" fill-opacity="0.40"/><circle cx="858.35" cy="62.46" r="5" fill="#6C63FF" fill-opacity="0.45"/><circle cx="249.31" cy="159.72" r="3" fill="#6C63FF" fill-opacity="0.50"/><circle cx="607.0" cy="73.47" r="4" fill="#6C63FF" fill-opacity="0.35"/><circle cx="964.68" cy="170.73" r="5" fill="#6C63FF" fill-opacity="0.40"/><circle cx="355.65" cy="84.48" r="3" fill="#6C63FF" fill-opacity="0.45"/><circle cx="713.34" cy="181.74" r="4" fill="#6C63FF" fill-opacity="0.50"/><circle cx="1071.02" cy="95.49" r="5" fill="#6C63FF" fill-opacity="0.35"/>
  <rect x="95.4" y="35.5" width="229.0" height="53.3" rx="18" fill="#6C63FF" fill-opacity="0.16"/>
  <circle cx="1068.5" cy="213.1" r="47.4" fill="#FFFFFF" fill-opacity="0.36" stroke="#1D1B4F" stroke-opacity="0.10"/>
  <text x="101.8" y="260.5" font-family="Inter, Arial, sans-serif" font-size="27" font-weight="700" fill="#1D1B4F" fill-opacity="0.72">INTJ-A</text>
  <text x="101.8" y="294.2" font-family="Inter, Arial, sans-serif" font-size="13" font-weight="500" fill="#1D1B4F" fill-opacity="0.48">relationship orbit map · A</text>
</svg>
