<svg xmlns="http://www.w3.org/2000/svg" width="720" height="354" viewBox="0 0 720 354" role="img" aria-labelledby="title desc">
  <title id="title">INTJ-A Traits summary illustration</title>
  <desc id="desc">Abstract trait signal card for the INTJ-A MBTI desktop result module.</desc>
  <defs>
    <linearGradient id="bg" x1="0" x2="1" y1="0" y2="1">
      <stop offset="0" stop-color="#DDE1FF" stop-opacity="0.92"/>
      <stop offset="0.55" stop-color="#FFFFFF" stop-opacity="0.96"/>
      <stop offset="1" stop-color="#6C63FF" stop-opacity="0.14"/>
    </linearGradient>
    <radialGradient id="halo" cx="74%" cy="35%" r="48%">
      <stop offset="0" stop-color="#6C63FF" stop-opacity="0.26"/>
      <stop offset="1" stop-color="#6C63FF" stop-opacity="0"/>
    </radialGradient>
    <filter id="soft"><feGaussianBlur stdDeviation="18"/></filter>
  </defs>
  <rect width="720" height="354" rx="22" fill="url(#bg)"/>
  <circle cx="561.6" cy="120.4" r="113.3" fill="url(#halo)"/>
  <path d="M 57.6 254.9 C 201.6 88.5, 388.8 304.4, 662.4 99.1" fill="none" stroke="#1D1B4F" stroke-opacity="0.16" stroke-width="3"/>
  <polyline points="0.0,161.3 90.0,193.6 180.0,227.3 270.0,219.4 360.0,180.0 450.0,159.4 540.0,183.8 630.0,222.1 720.0,225.5" fill="none" stroke="#6C63FF" stroke-opacity="0.34" stroke-width="4" stroke-linecap="round"/>
  <line x1="502.27" y1="230.52" x2="360.0" y2="243.69" stroke="#6C63FF" stroke-opacity="0.24" stroke-width="2"/><line x1="157.54" y1="127.37" x2="562.46" y2="140.54" stroke="#6C63FF" stroke-opacity="0.24" stroke-width="2"/><line x1="360.0" y1="243.69" x2="217.73" y2="256.86" stroke="#6C63FF" stroke-opacity="0.24" stroke-width="2"/><line x1="562.46" y1="140.54" x2="420.19" y2="153.71" stroke="#6C63FF" stroke-opacity="0.24" stroke-width="2"/><line x1="217.73" y1="256.86" x2="622.66" y2="270.03" stroke="#6C63FF" stroke-opacity="0.24" stroke-width="2"/><line x1="622.66" y1="270.03" x2="480.38" y2="63.72" stroke="#6C63FF" stroke-opacity="0.24" stroke-width="2"/>
  <circle cx="502.27" cy="230.52" r="3" fill="#6C63FF" fill-opacity="0.35"/><circle cx="157.54" cy="127.37" r="4" fill="#6C63FF" fill-opacity="0.40"/><circle cx="360.0" cy="243.69" r="5" fill="#6C63FF" fill-opacity="0.45"/><circle cx="562.46" cy="140.54" r="3" fill="#6C63FF" fill-opacity="0.50"/><circle cx="217.73" cy="256.86" r="4" fill="#6C63FF" fill-opacity="0.35"/><circle cx="420.19" cy="153.71" r="5" fill="#6C63FF" fill-opacity="0.40"/><circle cx="622.66" cy="270.03" r="3" fill="#6C63FF" fill-opacity="0.45"/><circle cx="277.92" cy="166.88" r="4" fill="#6C63FF" fill-opacity="0.50"/><circle cx="480.38" cy="63.72" r="5" fill="#6C63FF" fill-opacity="0.35"/>
  <rect x="54.0" y="42.5" width="129.6" height="63.7" rx="18" fill="#6C63FF" fill-opacity="0.16"/>
  <circle cx="604.8" cy="254.9" r="56.6" fill="#FFFFFF" fill-opacity="0.36" stroke="#1D1B4F" stroke-opacity="0.10"/>
  <text x="57.6" y="311.5" font-family="Inter, Arial, sans-serif" font-size="32" font-weight="700" fill="#1D1B4F" fill-opacity="0.72">INTJ-A</text>
  <text x="57.6" y="351.5" font-family="Inter, Arial, sans-serif" font-size="16" font-weight="500" fill="#1D1B4F" fill-opacity="0.48">trait signal card · A</text>
</svg>
