<svg xmlns="http://www.w3.org/2000/svg" width="1272" height="296" viewBox="0 0 1272 296" role="img" aria-labelledby="title desc">
  <title id="title">INTJ-A Traits axis illustration</title>
  <desc id="desc">Abstract axis map for the INTJ-A MBTI desktop result module.</desc>
  <defs>
    <linearGradient id="bg" x1="0" x2="1" y1="0" y2="1">
      <stop offset="0" stop-color="#DDE1FF" stop-opacity="0.92"/>
      <stop offset="0.55" stop-color="#FFFFFF" stop-opacity="0.96"/>
      <stop offset="1" stop-color="#6C63FF" stop-opacity="0.14"/>
    </linearGradient>
    <radialGradient id="halo" cx="74%" cy="35%" r="48%">
      <stop offset="0" stop-color="#6C63FF" stop-opacity="0.26"/>
      <stop offset="1" stop-color="#6C63FF" stop-opacity="0"/>
    </radialGradient>
    <filter id="soft"><feGaussianBlur stdDeviation="18"/></filter>
  </defs>
  <rect width="1272" height="296" rx="22" fill="url(#bg)"/>
  <circle cx="992.2" cy="100.6" r="94.7" fill="url(#halo)"/>
  <path d="M 101.8 213.1 C 356.2 74.0, 686.9 254.6, 1170.2 82.9" fill="none" stroke="#1D1B4F" stroke-opacity="0.16" stroke-width="3"/>
  <polyline points="0.0,160.3 159.0,134.4 318.0,144.7 477.0,178.1 636.0,192.0 795.0,168.7 954.0,137.9 1113.0,138.9 1272.0,170.4" fill="none" stroke="#6C63FF" stroke-opacity="0.34" stroke-width="4" stroke-linecap="round"/>
  <line x1="626.33" y1="143.2" x2="374.99" y2="154.22" stroke="#6C63FF" stroke-opacity="0.24" stroke-width="2"/><line x1="984.02" y1="56.95" x2="732.67" y2="67.96" stroke="#6C63FF" stroke-opacity="0.24" stroke-width="2"/><line x1="374.99" y1="154.22" x2="1090.36" y2="165.23" stroke="#6C63FF" stroke-opacity="0.24" stroke-width="2"/><line x1="732.67" y1="67.96" x2="481.32" y2="78.97" stroke="#6C63FF" stroke-opacity="0.24" stroke-width="2"/><line x1="481.32" y1="78.97" x2="229.98" y2="89.98" stroke="#6C63FF" stroke-opacity="0.24" stroke-width="2"/><line x1="229.98" y1="89.98" x2="626.33" y2="143.2" stroke="#6C63FF" stroke-opacity="0.24" stroke-width="2"/>
  <circle cx="626.33" cy="143.2" r="3" fill="#6C63FF" fill-opacity="0.35"/><circle cx="984.02" cy="56.95" r="4" fill="#6C63FF" fill-opacity="0.40"/><circle cx="374.99" cy="154.22" r="5" fill="#6C63FF" fill-opacity="0.45"/><circle cx="732.67" cy="67.96" r="3" fill="#6C63FF" fill-opacity="0.50"/><circle cx="1090.36" cy="165.23" r="4" fill="#6C63FF" fill-opacity="0.35"/><circle cx="481.32" cy="78.97" r="5" fill="#6C63FF" fill-opacity="0.40"/><circle cx="839.01" cy="176.24" r="3" fill="#6C63FF" fill-opacity="0.45"/><circle cx="229.98" cy="89.98" r="4" fill="#6C63FF" fill-opacity="0.50"/><circle cx="587.66" cy="187.25" r="5" fill="#6C63FF" fill-opacity="0.35"/>
  <rect x="95.4" y="35.5" width="229.0" height="53.3" rx="18" fill="#6C63FF" fill-opacity="0.16"/>
  <circle cx="1068.5" cy="213.1" r="47.4" fill="#FFFFFF" fill-opacity="0.36" stroke="#1D1B4F" stroke-opacity="0.10"/>
  <text x="101.8" y="260.5" font-family="Inter, Arial, sans-serif" font-size="27" font-weight="700" fill="#1D1B4F" fill-opacity="0.72">INTJ-A</text>
  <text x="101.8" y="294.2" font-family="Inter, Arial, sans-serif" font-size="13" font-weight="500" fill="#1D1B4F" fill-opacity="0.48">axis map · A</text>
</svg>
