<svg xmlns="http://www.w3.org/2000/svg" width="756" height="660" viewBox="0 0 756 660" role="img" aria-labelledby="title desc">
  <title id="title">ESFJ-A Final offer illustration</title>
  <desc id="desc">Abstract report unlock panel for the ESFJ-A MBTI desktop result module.</desc>
  <defs>
    <linearGradient id="bg" x1="0" x2="1" y1="0" y2="1">
      <stop offset="0" stop-color="#FFE8DA" stop-opacity="0.92"/>
      <stop offset="0.55" stop-color="#FFFFFF" stop-opacity="0.96"/>
      <stop offset="1" stop-color="#F9844A" stop-opacity="0.14"/>
    </linearGradient>
    <radialGradient id="halo" cx="74%" cy="35%" r="48%">
      <stop offset="0" stop-color="#F9844A" stop-opacity="0.26"/>
      <stop offset="1" stop-color="#F9844A" stop-opacity="0"/>
    </radialGradient>
    <filter id="soft"><feGaussianBlur stdDeviation="18"/></filter>
  </defs>
  <rect width="756" height="660" rx="22" fill="url(#bg)"/>
  <circle cx="589.7" cy="224.4" r="211.2" fill="url(#halo)"/>
  <path d="M 60.5 475.2 C 211.7 165.0, 408.2 567.6, 695.5 184.8" fill="none" stroke="#4C2615" stroke-opacity="0.16" stroke-width="3"/>
  <polyline points="0.0,428.9 94.5,389.6 189.0,316.4 283.5,302.6 378.0,365.8 472.5,425.5 567.0,405.4 661.5,331.3 756.0,297.6" fill="none" stroke="#F9844A" stroke-opacity="0.34" stroke-width="4" stroke-linecap="round"/>
  <line x1="492.91" y1="405.24" x2="343.53" y2="429.79" stroke="#F9844A" stroke-opacity="0.24" stroke-width="2"/><line x1="130.94" y1="212.92" x2="556.11" y2="237.47" stroke="#F9844A" stroke-opacity="0.24" stroke-width="2"/><line x1="343.53" y1="429.79" x2="194.14" y2="454.34" stroke="#F9844A" stroke-opacity="0.24" stroke-width="2"/><line x1="556.11" y1="237.47" x2="406.73" y2="262.02" stroke="#F9844A" stroke-opacity="0.24" stroke-width="2"/><line x1="194.14" y1="454.34" x2="619.32" y2="478.9" stroke="#F9844A" stroke-opacity="0.24" stroke-width="2"/><line x1="619.32" y1="478.9" x2="469.93" y2="503.45" stroke="#F9844A" stroke-opacity="0.24" stroke-width="2"/>
  <circle cx="492.91" cy="405.24" r="3" fill="#F9844A" fill-opacity="0.35"/><circle cx="130.94" cy="212.92" r="4" fill="#F9844A" fill-opacity="0.40"/><circle cx="343.53" cy="429.79" r="5" fill="#F9844A" fill-opacity="0.45"/><circle cx="556.11" cy="237.47" r="3" fill="#F9844A" fill-opacity="0.50"/><circle cx="194.14" cy="454.34" r="4" fill="#F9844A" fill-opacity="0.35"/><circle cx="406.73" cy="262.02" r="5" fill="#F9844A" fill-opacity="0.40"/><circle cx="619.32" cy="478.9" r="3" fill="#F9844A" fill-opacity="0.45"/><circle cx="257.34" cy="286.57" r="4" fill="#F9844A" fill-opacity="0.50"/><circle cx="469.93" cy="503.45" r="5" fill="#F9844A" fill-opacity="0.35"/>
  <rect x="56.7" y="79.2" width="136.1" height="118.8" rx="18" fill="#F9844A" fill-opacity="0.16"/>
  <circle cx="635.0" cy="475.2" r="105.6" fill="#FFFFFF" fill-opacity="0.36" stroke="#4C2615" stroke-opacity="0.10"/>
  <text x="60.5" y="580.8" font-family="Inter, Arial, sans-serif" font-size="59" font-weight="700" fill="#4C2615" fill-opacity="0.72">ESFJ-A</text>
  <text x="60.5" y="654.5" font-family="Inter, Arial, sans-serif" font-size="30" font-weight="500" fill="#4C2615" fill-opacity="0.48">report unlock panel · A</text>
</svg>
