<svg xmlns="http://www.w3.org/2000/svg" width="1272" height="296" viewBox="0 0 1272 296" role="img" aria-labelledby="title desc">
  <title id="title">ESFJ-A Growth path illustration</title>
  <desc id="desc">Abstract growth rhythm map for the ESFJ-A MBTI desktop result module.</desc>
  <defs>
    <linearGradient id="bg" x1="0" x2="1" y1="0" y2="1">
      <stop offset="0" stop-color="#FFE8DA" stop-opacity="0.92"/>
      <stop offset="0.55" stop-color="#FFFFFF" stop-opacity="0.96"/>
      <stop offset="1" stop-color="#F9844A" stop-opacity="0.14"/>
    </linearGradient>
    <radialGradient id="halo" cx="74%" cy="35%" r="48%">
      <stop offset="0" stop-color="#F9844A" stop-opacity="0.26"/>
      <stop offset="1" stop-color="#F9844A" stop-opacity="0"/>
    </radialGradient>
    <filter id="soft"><feGaussianBlur stdDeviation="18"/></filter>
  </defs>
  <rect width="1272" height="296" rx="22" fill="url(#bg)"/>
  <circle cx="992.2" cy="100.6" r="94.7" fill="url(#halo)"/>
  <path d="M 101.8 213.1 C 356.2 74.0, 686.9 254.6, 1170.2 82.9" fill="none" stroke="#4C2615" stroke-opacity="0.16" stroke-width="3"/>
  <polyline points="0.0,178.3 159.0,144.9 318.0,134.3 477.0,160.0 636.0,189.3 795.0,184.8 954.0,152.2 1113.0,133.2 1272.0,151.9" fill="none" stroke="#F9844A" stroke-opacity="0.34" stroke-width="4" stroke-linecap="round"/>
  <line x1="539.33" y1="126.69" x2="287.98" y2="137.7" stroke="#F9844A" stroke-opacity="0.24" stroke-width="2"/><line x1="897.01" y1="223.95" x2="645.67" y2="234.96" stroke="#F9844A" stroke-opacity="0.24" stroke-width="2"/><line x1="287.98" y1="137.7" x2="1003.35" y2="148.71" stroke="#F9844A" stroke-opacity="0.24" stroke-width="2"/><line x1="645.67" y1="234.96" x2="394.32" y2="62.46" stroke="#F9844A" stroke-opacity="0.24" stroke-width="2"/><line x1="1003.35" y1="148.71" x2="752.01" y2="159.72" stroke="#F9844A" stroke-opacity="0.24" stroke-width="2"/><line x1="752.01" y1="159.72" x2="500.66" y2="170.73" stroke="#F9844A" stroke-opacity="0.24" stroke-width="2"/>
  <circle cx="539.33" cy="126.69" r="3" fill="#F9844A" fill-opacity="0.35"/><circle cx="897.01" cy="223.95" r="4" fill="#F9844A" fill-opacity="0.40"/><circle cx="287.98" cy="137.7" r="5" fill="#F9844A" fill-opacity="0.45"/><circle cx="645.67" cy="234.96" r="3" fill="#F9844A" fill-opacity="0.50"/><circle cx="1003.35" cy="148.71" r="4" fill="#F9844A" fill-opacity="0.35"/><circle cx="394.32" cy="62.46" r="5" fill="#F9844A" fill-opacity="0.40"/><circle cx="752.01" cy="159.72" r="3" fill="#F9844A" fill-opacity="0.45"/><circle cx="1109.69" cy="73.47" r="4" fill="#F9844A" fill-opacity="0.50"/><circle cx="500.66" cy="170.73" r="5" fill="#F9844A" fill-opacity="0.35"/>
  <rect x="95.4" y="35.5" width="229.0" height="53.3" rx="18" fill="#F9844A" fill-opacity="0.16"/>
  <circle cx="1068.5" cy="213.1" r="47.4" fill="#FFFFFF" fill-opacity="0.36" stroke="#4C2615" stroke-opacity="0.10"/>
  <text x="101.8" y="260.5" font-family="Inter, Arial, sans-serif" font-size="27" font-weight="700" fill="#4C2615" fill-opacity="0.72">ESFJ-A</text>
  <text x="101.8" y="294.2" font-family="Inter, Arial, sans-serif" font-size="13" font-weight="500" fill="#4C2615" fill-opacity="0.48">growth rhythm map · A</text>
</svg>
