<svg xmlns="http://www.w3.org/2000/svg" width="708" height="480" viewBox="0 0 708 480" role="img" aria-labelledby="title desc">
  <title id="title">ESFJ-A Hero identity illustration</title>
  <desc id="desc">Abstract identity lattice for the ESFJ-A MBTI desktop result module.</desc>
  <defs>
    <linearGradient id="bg" x1="0" x2="1" y1="0" y2="1">
      <stop offset="0" stop-color="#FFE8DA" stop-opacity="0.92"/>
      <stop offset="0.55" stop-color="#FFFFFF" stop-opacity="0.96"/>
      <stop offset="1" stop-color="#F9844A" stop-opacity="0.14"/>
    </linearGradient>
    <radialGradient id="halo" cx="74%" cy="35%" r="48%">
      <stop offset="0" stop-color="#F9844A" stop-opacity="0.26"/>
      <stop offset="1" stop-color="#F9844A" stop-opacity="0"/>
    </radialGradient>
    <filter id="soft"><feGaussianBlur stdDeviation="18"/></filter>
  </defs>
  <rect width="708" height="480" rx="22" fill="url(#bg)"/>
  <circle cx="552.2" cy="163.2" r="153.6" fill="url(#halo)"/>
  <path d="M 56.6 345.6 C 198.2 120.0, 382.3 412.8, 651.4 134.4" fill="none" stroke="#4C2615" stroke-opacity="0.16" stroke-width="3"/>
  <polyline points="0.0,216.0 88.5,246.5 177.0,299.3 265.5,307.1 354.0,259.9 442.5,218.0 531.0,234.7 619.5,288.8 708.0,311.3" fill="none" stroke="#F9844A" stroke-opacity="0.34" stroke-width="4" stroke-linecap="round"/>
  <line x1="101.1" y1="95.33" x2="499.28" y2="113.18" stroke="#F9844A" stroke-opacity="0.24" stroke-width="2"/><line x1="300.19" y1="253.06" x2="160.29" y2="270.91" stroke="#F9844A" stroke-opacity="0.24" stroke-width="2"/><line x1="499.28" y1="113.18" x2="359.38" y2="131.04" stroke="#F9844A" stroke-opacity="0.24" stroke-width="2"/><line x1="160.29" y1="270.91" x2="558.47" y2="288.77" stroke="#F9844A" stroke-opacity="0.24" stroke-width="2"/><line x1="558.47" y1="288.77" x2="418.57" y2="306.62" stroke="#F9844A" stroke-opacity="0.24" stroke-width="2"/><line x1="418.57" y1="306.62" x2="101.1" y2="95.33" stroke="#F9844A" stroke-opacity="0.24" stroke-width="2"/>
  <circle cx="101.1" cy="95.33" r="3" fill="#F9844A" fill-opacity="0.35"/><circle cx="300.19" cy="253.06" r="4" fill="#F9844A" fill-opacity="0.40"/><circle cx="499.28" cy="113.18" r="5" fill="#F9844A" fill-opacity="0.45"/><circle cx="160.29" cy="270.91" r="3" fill="#F9844A" fill-opacity="0.50"/><circle cx="359.38" cy="131.04" r="4" fill="#F9844A" fill-opacity="0.35"/><circle cx="558.47" cy="288.77" r="5" fill="#F9844A" fill-opacity="0.40"/><circle cx="219.48" cy="148.9" r="3" fill="#F9844A" fill-opacity="0.45"/><circle cx="418.57" cy="306.62" r="4" fill="#F9844A" fill-opacity="0.50"/><circle cx="617.66" cy="166.75" r="5" fill="#F9844A" fill-opacity="0.35"/>
  <rect x="53.1" y="57.6" width="127.4" height="86.4" rx="18" fill="#F9844A" fill-opacity="0.16"/>
  <circle cx="594.7" cy="345.6" r="76.8" fill="#FFFFFF" fill-opacity="0.36" stroke="#4C2615" stroke-opacity="0.10"/>
  <text x="56.6" y="422.4" font-family="Inter, Arial, sans-serif" font-size="43" font-weight="700" fill="#4C2615" fill-opacity="0.72">ESFJ-A</text>
  <text x="56.6" y="476.1" font-family="Inter, Arial, sans-serif" font-size="22" font-weight="500" fill="#4C2615" fill-opacity="0.48">identity lattice · A</text>
</svg>
