<svg xmlns="http://www.w3.org/2000/svg" width="1272" height="296" viewBox="0 0 1272 296" role="img" aria-labelledby="title desc">
  <title id="title">ESFJ-A Relationships illustration</title>
  <desc id="desc">Abstract relationship orbit map for the ESFJ-A MBTI desktop result module.</desc>
  <defs>
    <linearGradient id="bg" x1="0" x2="1" y1="0" y2="1">
      <stop offset="0" stop-color="#FFE8DA" stop-opacity="0.92"/>
      <stop offset="0.55" stop-color="#FFFFFF" stop-opacity="0.96"/>
      <stop offset="1" stop-color="#F9844A" stop-opacity="0.14"/>
    </linearGradient>
    <radialGradient id="halo" cx="74%" cy="35%" r="48%">
      <stop offset="0" stop-color="#F9844A" stop-opacity="0.26"/>
      <stop offset="1" stop-color="#F9844A" stop-opacity="0"/>
    </radialGradient>
    <filter id="soft"><feGaussianBlur stdDeviation="18"/></filter>
  </defs>
  <rect width="1272" height="296" rx="22" fill="url(#bg)"/>
  <circle cx="992.2" cy="100.6" r="94.7" fill="url(#halo)"/>
  <path d="M 101.8 213.1 C 356.2 74.0, 686.9 254.6, 1170.2 82.9" fill="none" stroke="#4C2615" stroke-opacity="0.16" stroke-width="3"/>
  <polyline points="0.0,134.3 159.0,159.8 318.0,189.2 477.0,184.9 636.0,152.4 795.0,133.2 954.0,151.7 1113.0,184.4 1272.0,189.5" fill="none" stroke="#F9844A" stroke-opacity="0.34" stroke-width="4" stroke-linecap="round"/>
  <line x1="984.02" y1="211.11" x2="732.67" y2="222.12" stroke="#F9844A" stroke-opacity="0.24" stroke-width="2"/><line x1="374.99" y1="124.85" x2="1090.36" y2="135.86" stroke="#F9844A" stroke-opacity="0.24" stroke-width="2"/><line x1="732.67" y1="222.12" x2="481.32" y2="233.13" stroke="#F9844A" stroke-opacity="0.24" stroke-width="2"/><line x1="1090.36" y1="135.86" x2="839.01" y2="146.88" stroke="#F9844A" stroke-opacity="0.24" stroke-width="2"/><line x1="481.32" y1="233.13" x2="229.98" y2="60.62" stroke="#F9844A" stroke-opacity="0.24" stroke-width="2"/><line x1="229.98" y1="60.62" x2="945.35" y2="71.63" stroke="#F9844A" stroke-opacity="0.24" stroke-width="2"/>
  <circle cx="984.02" cy="211.11" r="3" fill="#F9844A" fill-opacity="0.35"/><circle cx="374.99" cy="124.85" r="4" fill="#F9844A" fill-opacity="0.40"/><circle cx="732.67" cy="222.12" r="5" fill="#F9844A" fill-opacity="0.45"/><circle cx="1090.36" cy="135.86" r="3" fill="#F9844A" fill-opacity="0.50"/><circle cx="481.32" cy="233.13" r="4" fill="#F9844A" fill-opacity="0.35"/><circle cx="839.01" cy="146.88" r="5" fill="#F9844A" fill-opacity="0.40"/><circle cx="229.98" cy="60.62" r="3" fill="#F9844A" fill-opacity="0.45"/><circle cx="587.66" cy="157.89" r="4" fill="#F9844A" fill-opacity="0.50"/><circle cx="945.35" cy="71.63" r="5" fill="#F9844A" fill-opacity="0.35"/>
  <rect x="95.4" y="35.5" width="229.0" height="53.3" rx="18" fill="#F9844A" fill-opacity="0.16"/>
  <circle cx="1068.5" cy="213.1" r="47.4" fill="#FFFFFF" fill-opacity="0.36" stroke="#4C2615" stroke-opacity="0.10"/>
  <text x="101.8" y="260.5" font-family="Inter, Arial, sans-serif" font-size="27" font-weight="700" fill="#4C2615" fill-opacity="0.72">ESFJ-A</text>
  <text x="101.8" y="294.2" font-family="Inter, Arial, sans-serif" font-size="13" font-weight="500" fill="#4C2615" fill-opacity="0.48">relationship orbit map · A</text>
</svg>
