<svg xmlns="http://www.w3.org/2000/svg" width="720" height="354" viewBox="0 0 720 354" role="img" aria-labelledby="title desc">
  <title id="title">ESFJ-A Traits summary illustration</title>
  <desc id="desc">Abstract trait signal card for the ESFJ-A MBTI desktop result module.</desc>
  <defs>
    <linearGradient id="bg" x1="0" x2="1" y1="0" y2="1">
      <stop offset="0" stop-color="#FFE8DA" stop-opacity="0.92"/>
      <stop offset="0.55" stop-color="#FFFFFF" stop-opacity="0.96"/>
      <stop offset="1" stop-color="#F9844A" stop-opacity="0.14"/>
    </linearGradient>
    <radialGradient id="halo" cx="74%" cy="35%" r="48%">
      <stop offset="0" stop-color="#F9844A" stop-opacity="0.26"/>
      <stop offset="1" stop-color="#F9844A" stop-opacity="0"/>
    </radialGradient>
    <filter id="soft"><feGaussianBlur stdDeviation="18"/></filter>
  </defs>
  <rect width="720" height="354" rx="22" fill="url(#bg)"/>
  <circle cx="561.6" cy="120.4" r="113.3" fill="url(#halo)"/>
  <path d="M 57.6 254.9 C 201.6 88.5, 388.8 304.4, 662.4 99.1" fill="none" stroke="#4C2615" stroke-opacity="0.16" stroke-width="3"/>
  <polyline points="0.0,165.0 90.0,165.9 180.0,203.5 270.0,229.8 360.0,211.4 450.0,171.6 540.0,161.3 630.0,193.6 720.0,227.3" fill="none" stroke="#F9844A" stroke-opacity="0.34" stroke-width="4" stroke-linecap="round"/>
  <line x1="431.14" y1="201.99" x2="288.86" y2="215.16" stroke="#F9844A" stroke-opacity="0.24" stroke-width="2"/><line x1="86.4" y1="98.84" x2="491.33" y2="112.01" stroke="#F9844A" stroke-opacity="0.24" stroke-width="2"/><line x1="288.86" y1="215.16" x2="146.59" y2="228.33" stroke="#F9844A" stroke-opacity="0.24" stroke-width="2"/><line x1="491.33" y1="112.01" x2="349.06" y2="125.17" stroke="#F9844A" stroke-opacity="0.24" stroke-width="2"/><line x1="349.06" y1="125.17" x2="206.78" y2="138.34" stroke="#F9844A" stroke-opacity="0.24" stroke-width="2"/><line x1="206.78" y1="138.34" x2="431.14" y2="201.99" stroke="#F9844A" stroke-opacity="0.24" stroke-width="2"/>
  <circle cx="431.14" cy="201.99" r="3" fill="#F9844A" fill-opacity="0.35"/><circle cx="86.4" cy="98.84" r="4" fill="#F9844A" fill-opacity="0.40"/><circle cx="288.86" cy="215.16" r="5" fill="#F9844A" fill-opacity="0.45"/><circle cx="491.33" cy="112.01" r="3" fill="#F9844A" fill-opacity="0.50"/><circle cx="146.59" cy="228.33" r="4" fill="#F9844A" fill-opacity="0.35"/><circle cx="349.06" cy="125.17" r="5" fill="#F9844A" fill-opacity="0.40"/><circle cx="551.52" cy="241.5" r="3" fill="#F9844A" fill-opacity="0.45"/><circle cx="206.78" cy="138.34" r="4" fill="#F9844A" fill-opacity="0.50"/><circle cx="409.25" cy="254.67" r="5" fill="#F9844A" fill-opacity="0.35"/>
  <rect x="54.0" y="42.5" width="129.6" height="63.7" rx="18" fill="#F9844A" fill-opacity="0.16"/>
  <circle cx="604.8" cy="254.9" r="56.6" fill="#FFFFFF" fill-opacity="0.36" stroke="#4C2615" stroke-opacity="0.10"/>
  <text x="57.6" y="311.5" font-family="Inter, Arial, sans-serif" font-size="32" font-weight="700" fill="#4C2615" fill-opacity="0.72">ESFJ-A</text>
  <text x="57.6" y="351.5" font-family="Inter, Arial, sans-serif" font-size="16" font-weight="500" fill="#4C2615" fill-opacity="0.48">trait signal card · A</text>
</svg>
