<svg xmlns="http://www.w3.org/2000/svg" width="1272" height="296" viewBox="0 0 1272 296" role="img" aria-labelledby="title desc">
  <title id="title">ESFJ-A Traits axis illustration</title>
  <desc id="desc">Abstract axis map for the ESFJ-A MBTI desktop result module.</desc>
  <defs>
    <linearGradient id="bg" x1="0" x2="1" y1="0" y2="1">
      <stop offset="0" stop-color="#FFE8DA" stop-opacity="0.92"/>
      <stop offset="0.55" stop-color="#FFFFFF" stop-opacity="0.96"/>
      <stop offset="1" stop-color="#F9844A" stop-opacity="0.14"/>
    </linearGradient>
    <radialGradient id="halo" cx="74%" cy="35%" r="48%">
      <stop offset="0" stop-color="#F9844A" stop-opacity="0.26"/>
      <stop offset="1" stop-color="#F9844A" stop-opacity="0"/>
    </radialGradient>
    <filter id="soft"><feGaussianBlur stdDeviation="18"/></filter>
  </defs>
  <rect width="1272" height="296" rx="22" fill="url(#bg)"/>
  <circle cx="992.2" cy="100.6" r="94.7" fill="url(#halo)"/>
  <path d="M 101.8 213.1 C 356.2 74.0, 686.9 254.6, 1170.2 82.9" fill="none" stroke="#4C2615" stroke-opacity="0.16" stroke-width="3"/>
  <polyline points="0.0,184.7 159.0,152.2 318.0,133.2 477.0,151.9 636.0,184.5 795.0,189.4 954.0,160.4 1113.0,134.4 1272.0,144.7" fill="none" stroke="#F9844A" stroke-opacity="0.34" stroke-width="4" stroke-linecap="round"/>
  <line x1="500.66" y1="119.35" x2="249.31" y2="130.36" stroke="#F9844A" stroke-opacity="0.24" stroke-width="2"/><line x1="858.35" y1="216.61" x2="607.0" y2="227.62" stroke="#F9844A" stroke-opacity="0.24" stroke-width="2"/><line x1="249.31" y1="130.36" x2="964.68" y2="141.37" stroke="#F9844A" stroke-opacity="0.24" stroke-width="2"/><line x1="607.0" y1="227.62" x2="355.65" y2="55.12" stroke="#F9844A" stroke-opacity="0.24" stroke-width="2"/><line x1="964.68" y1="141.37" x2="713.34" y2="152.38" stroke="#F9844A" stroke-opacity="0.24" stroke-width="2"/><line x1="713.34" y1="152.38" x2="461.99" y2="163.39" stroke="#F9844A" stroke-opacity="0.24" stroke-width="2"/>
  <circle cx="500.66" cy="119.35" r="3" fill="#F9844A" fill-opacity="0.35"/><circle cx="858.35" cy="216.61" r="4" fill="#F9844A" fill-opacity="0.40"/><circle cx="249.31" cy="130.36" r="5" fill="#F9844A" fill-opacity="0.45"/><circle cx="607.0" cy="227.62" r="3" fill="#F9844A" fill-opacity="0.50"/><circle cx="964.68" cy="141.37" r="4" fill="#F9844A" fill-opacity="0.35"/><circle cx="355.65" cy="55.12" r="5" fill="#F9844A" fill-opacity="0.40"/><circle cx="713.34" cy="152.38" r="3" fill="#F9844A" fill-opacity="0.45"/><circle cx="1071.02" cy="66.13" r="4" fill="#F9844A" fill-opacity="0.50"/><circle cx="461.99" cy="163.39" r="5" fill="#F9844A" fill-opacity="0.35"/>
  <rect x="95.4" y="35.5" width="229.0" height="53.3" rx="18" fill="#F9844A" fill-opacity="0.16"/>
  <circle cx="1068.5" cy="213.1" r="47.4" fill="#FFFFFF" fill-opacity="0.36" stroke="#4C2615" stroke-opacity="0.10"/>
  <text x="101.8" y="260.5" font-family="Inter, Arial, sans-serif" font-size="27" font-weight="700" fill="#4C2615" fill-opacity="0.72">ESFJ-A</text>
  <text x="101.8" y="294.2" font-family="Inter, Arial, sans-serif" font-size="13" font-weight="500" fill="#4C2615" fill-opacity="0.48">axis map · A</text>
</svg>
