<svg xmlns="http://www.w3.org/2000/svg" width="1272" height="296" viewBox="0 0 1272 296" role="img" aria-labelledby="title desc">
  <title id="title">INFJ-T Career path illustration</title>
  <desc id="desc">Abstract career path map for the INFJ-T MBTI desktop result module.</desc>
  <defs>
    <linearGradient id="bg" x1="0" x2="1" y1="0" y2="1">
      <stop offset="0" stop-color="#D8F5F0" stop-opacity="0.92"/>
      <stop offset="0.55" stop-color="#FFFFFF" stop-opacity="0.96"/>
      <stop offset="1" stop-color="#2EC4B6" stop-opacity="0.14"/>
    </linearGradient>
    <radialGradient id="halo" cx="74%" cy="35%" r="48%">
      <stop offset="0" stop-color="#2EC4B6" stop-opacity="0.26"/>
      <stop offset="1" stop-color="#2EC4B6" stop-opacity="0"/>
    </radialGradient>
    <filter id="soft"><feGaussianBlur stdDeviation="18"/></filter>
  </defs>
  <rect width="1272" height="296" rx="22" fill="url(#bg)"/>
  <circle cx="992.2" cy="100.6" r="94.7" fill="url(#halo)"/>
  <path d="M 101.8 213.1 C 356.2 74.0, 686.9 254.6, 1170.2 82.9" fill="none" stroke="#0F3D3E" stroke-opacity="0.16" stroke-width="3"/>
  <polyline points="0.0,187.1 159.0,187.3 318.0,156.2 477.0,133.5 636.0,148.2 795.0,181.5 954.0,191.0 1113.0,164.5 1272.0,135.9" fill="none" stroke="#2EC4B6" stroke-opacity="0.34" stroke-width="4" stroke-linecap="round"/>
  <line x1="316.98" y1="84.48" x2="1032.36" y2="95.49" stroke="#2EC4B6" stroke-opacity="0.24" stroke-width="2"/><line x1="674.67" y1="181.74" x2="423.32" y2="192.76" stroke="#2EC4B6" stroke-opacity="0.24" stroke-width="2"/><line x1="1032.36" y1="95.49" x2="781.01" y2="106.5" stroke="#2EC4B6" stroke-opacity="0.24" stroke-width="2"/><line x1="423.32" y1="192.76" x2="171.97" y2="203.77" stroke="#2EC4B6" stroke-opacity="0.24" stroke-width="2"/><line x1="171.97" y1="203.77" x2="887.35" y2="214.78" stroke="#2EC4B6" stroke-opacity="0.24" stroke-width="2"/><line x1="887.35" y1="214.78" x2="316.98" y2="84.48" stroke="#2EC4B6" stroke-opacity="0.24" stroke-width="2"/>
  <circle cx="316.98" cy="84.48" r="3" fill="#2EC4B6" fill-opacity="0.35"/><circle cx="674.67" cy="181.74" r="4" fill="#2EC4B6" fill-opacity="0.40"/><circle cx="1032.36" cy="95.49" r="5" fill="#2EC4B6" fill-opacity="0.45"/><circle cx="423.32" cy="192.76" r="3" fill="#2EC4B6" fill-opacity="0.50"/><circle cx="781.01" cy="106.5" r="4" fill="#2EC4B6" fill-opacity="0.35"/><circle cx="171.97" cy="203.77" r="5" fill="#2EC4B6" fill-opacity="0.40"/><circle cx="529.66" cy="117.51" r="3" fill="#2EC4B6" fill-opacity="0.45"/><circle cx="887.35" cy="214.78" r="4" fill="#2EC4B6" fill-opacity="0.50"/><circle cx="278.31" cy="128.52" r="5" fill="#2EC4B6" fill-opacity="0.35"/>
  <rect x="95.4" y="35.5" width="229.0" height="53.3" rx="18" fill="#2EC4B6" fill-opacity="0.16"/>
  <circle cx="1068.5" cy="213.1" r="47.4" fill="#FFFFFF" fill-opacity="0.36" stroke="#0F3D3E" stroke-opacity="0.10"/>
  <text x="101.8" y="260.5" font-family="Inter, Arial, sans-serif" font-size="27" font-weight="700" fill="#0F3D3E" fill-opacity="0.72">INFJ-T</text>
  <text x="101.8" y="294.2" font-family="Inter, Arial, sans-serif" font-size="13" font-weight="500" fill="#0F3D3E" fill-opacity="0.48">career path map · T</text>
</svg>
