<svg xmlns="http://www.w3.org/2000/svg" width="708" height="480" viewBox="0 0 708 480" role="img" aria-labelledby="title desc">
  <title id="title">INFJ-T Hero identity illustration</title>
  <desc id="desc">Abstract identity lattice for the INFJ-T MBTI desktop result module.</desc>
  <defs>
    <linearGradient id="bg" x1="0" x2="1" y1="0" y2="1">
      <stop offset="0" stop-color="#D8F5F0" stop-opacity="0.92"/>
      <stop offset="0.55" stop-color="#FFFFFF" stop-opacity="0.96"/>
      <stop offset="1" stop-color="#2EC4B6" stop-opacity="0.14"/>
    </linearGradient>
    <radialGradient id="halo" cx="74%" cy="35%" r="48%">
      <stop offset="0" stop-color="#2EC4B6" stop-opacity="0.26"/>
      <stop offset="1" stop-color="#2EC4B6" stop-opacity="0"/>
    </radialGradient>
    <filter id="soft"><feGaussianBlur stdDeviation="18"/></filter>
  </defs>
  <rect width="708" height="480" rx="22" fill="url(#bg)"/>
  <circle cx="552.2" cy="163.2" r="153.6" fill="url(#halo)"/>
  <path d="M 56.6 345.6 C 198.2 120.0, 382.3 412.8, 651.4 134.4" fill="none" stroke="#0F3D3E" stroke-opacity="0.16" stroke-width="3"/>
  <polyline points="0.0,249.7 88.5,301.5 177.0,305.5 265.5,256.6 354.0,217.1 442.5,237.4 531.0,291.6 619.5,310.6 708.0,270.1" fill="none" stroke="#2EC4B6" stroke-opacity="0.34" stroke-width="4" stroke-linecap="round"/>
  <line x1="197.96" y1="148.9" x2="596.14" y2="166.75" stroke="#2EC4B6" stroke-opacity="0.24" stroke-width="2"/><line x1="397.05" y1="306.62" x2="257.15" y2="324.48" stroke="#2EC4B6" stroke-opacity="0.24" stroke-width="2"/><line x1="596.14" y1="166.75" x2="456.24" y2="184.61" stroke="#2EC4B6" stroke-opacity="0.24" stroke-width="2"/><line x1="257.15" y1="324.48" x2="117.24" y2="342.34" stroke="#2EC4B6" stroke-opacity="0.24" stroke-width="2"/><line x1="117.24" y1="342.34" x2="515.42" y2="360.19" stroke="#2EC4B6" stroke-opacity="0.24" stroke-width="2"/><line x1="515.42" y1="360.19" x2="197.96" y2="148.9" stroke="#2EC4B6" stroke-opacity="0.24" stroke-width="2"/>
  <circle cx="197.96" cy="148.9" r="3" fill="#2EC4B6" fill-opacity="0.35"/><circle cx="397.05" cy="306.62" r="4" fill="#2EC4B6" fill-opacity="0.40"/><circle cx="596.14" cy="166.75" r="5" fill="#2EC4B6" fill-opacity="0.45"/><circle cx="257.15" cy="324.48" r="3" fill="#2EC4B6" fill-opacity="0.50"/><circle cx="456.24" cy="184.61" r="4" fill="#2EC4B6" fill-opacity="0.35"/><circle cx="117.24" cy="342.34" r="5" fill="#2EC4B6" fill-opacity="0.40"/><circle cx="316.33" cy="202.46" r="3" fill="#2EC4B6" fill-opacity="0.45"/><circle cx="515.42" cy="360.19" r="4" fill="#2EC4B6" fill-opacity="0.50"/><circle cx="176.43" cy="220.32" r="5" fill="#2EC4B6" fill-opacity="0.35"/>
  <rect x="53.1" y="57.6" width="127.4" height="86.4" rx="18" fill="#2EC4B6" fill-opacity="0.16"/>
  <circle cx="594.7" cy="345.6" r="76.8" fill="#FFFFFF" fill-opacity="0.36" stroke="#0F3D3E" stroke-opacity="0.10"/>
  <text x="56.6" y="422.4" font-family="Inter, Arial, sans-serif" font-size="43" font-weight="700" fill="#0F3D3E" fill-opacity="0.72">INFJ-T</text>
  <text x="56.6" y="476.1" font-family="Inter, Arial, sans-serif" font-size="22" font-weight="500" fill="#0F3D3E" fill-opacity="0.48">identity lattice · T</text>
</svg>
