<svg xmlns="http://www.w3.org/2000/svg" width="720" height="354" viewBox="0 0 720 354" role="img" aria-labelledby="title desc">
  <title id="title">INFJ-T Traits summary illustration</title>
  <desc id="desc">Abstract trait signal card for the INFJ-T MBTI desktop result module.</desc>
  <defs>
    <linearGradient id="bg" x1="0" x2="1" y1="0" y2="1">
      <stop offset="0" stop-color="#D8F5F0" stop-opacity="0.92"/>
      <stop offset="0.55" stop-color="#FFFFFF" stop-opacity="0.96"/>
      <stop offset="1" stop-color="#2EC4B6" stop-opacity="0.14"/>
    </linearGradient>
    <radialGradient id="halo" cx="74%" cy="35%" r="48%">
      <stop offset="0" stop-color="#2EC4B6" stop-opacity="0.26"/>
      <stop offset="1" stop-color="#2EC4B6" stop-opacity="0"/>
    </radialGradient>
    <filter id="soft"><feGaussianBlur stdDeviation="18"/></filter>
  </defs>
  <rect width="720" height="354" rx="22" fill="url(#bg)"/>
  <circle cx="561.6" cy="120.4" r="113.3" fill="url(#halo)"/>
  <path d="M 57.6 254.9 C 201.6 88.5, 388.8 304.4, 662.4 99.1" fill="none" stroke="#0F3D3E" stroke-opacity="0.16" stroke-width="3"/>
  <polyline points="0.0,167.5 90.0,205.9 180.0,230.1 270.0,209.1 360.0,169.8 450.0,162.2 540.0,196.1 630.0,228.2 720.0,217.6" fill="none" stroke="#2EC4B6" stroke-opacity="0.34" stroke-width="4" stroke-linecap="round"/>
  <line x1="529.63" y1="241.5" x2="387.36" y2="254.67" stroke="#2EC4B6" stroke-opacity="0.24" stroke-width="2"/><line x1="184.9" y1="138.34" x2="589.82" y2="151.51" stroke="#2EC4B6" stroke-opacity="0.24" stroke-width="2"/><line x1="387.36" y1="254.67" x2="245.09" y2="267.84" stroke="#2EC4B6" stroke-opacity="0.24" stroke-width="2"/><line x1="589.82" y1="151.51" x2="447.55" y2="164.68" stroke="#2EC4B6" stroke-opacity="0.24" stroke-width="2"/><line x1="447.55" y1="164.68" x2="305.28" y2="177.85" stroke="#2EC4B6" stroke-opacity="0.24" stroke-width="2"/><line x1="305.28" y1="177.85" x2="529.63" y2="241.5" stroke="#2EC4B6" stroke-opacity="0.24" stroke-width="2"/>
  <circle cx="529.63" cy="241.5" r="3" fill="#2EC4B6" fill-opacity="0.35"/><circle cx="184.9" cy="138.34" r="4" fill="#2EC4B6" fill-opacity="0.40"/><circle cx="387.36" cy="254.67" r="5" fill="#2EC4B6" fill-opacity="0.45"/><circle cx="589.82" cy="151.51" r="3" fill="#2EC4B6" fill-opacity="0.50"/><circle cx="245.09" cy="267.84" r="4" fill="#2EC4B6" fill-opacity="0.35"/><circle cx="447.55" cy="164.68" r="5" fill="#2EC4B6" fill-opacity="0.40"/><circle cx="102.82" cy="281.01" r="3" fill="#2EC4B6" fill-opacity="0.45"/><circle cx="305.28" cy="177.85" r="4" fill="#2EC4B6" fill-opacity="0.50"/><circle cx="507.74" cy="74.69" r="5" fill="#2EC4B6" fill-opacity="0.35"/>
  <rect x="54.0" y="42.5" width="129.6" height="63.7" rx="18" fill="#2EC4B6" fill-opacity="0.16"/>
  <circle cx="604.8" cy="254.9" r="56.6" fill="#FFFFFF" fill-opacity="0.36" stroke="#0F3D3E" stroke-opacity="0.10"/>
  <text x="57.6" y="311.5" font-family="Inter, Arial, sans-serif" font-size="32" font-weight="700" fill="#0F3D3E" fill-opacity="0.72">INFJ-T</text>
  <text x="57.6" y="351.5" font-family="Inter, Arial, sans-serif" font-size="16" font-weight="500" fill="#0F3D3E" fill-opacity="0.48">trait signal card · T</text>
</svg>
