<svg xmlns="http://www.w3.org/2000/svg" width="756" height="660" viewBox="0 0 756 660" role="img" aria-labelledby="title desc">
  <title id="title">INFP-T Final offer illustration</title>
  <desc id="desc">Abstract report unlock panel for the INFP-T MBTI desktop result module.</desc>
  <defs>
    <linearGradient id="bg" x1="0" x2="1" y1="0" y2="1">
      <stop offset="0" stop-color="#E1F7E7" stop-opacity="0.92"/>
      <stop offset="0.55" stop-color="#FFFFFF" stop-opacity="0.96"/>
      <stop offset="1" stop-color="#7BD389" stop-opacity="0.14"/>
    </linearGradient>
    <radialGradient id="halo" cx="74%" cy="35%" r="48%">
      <stop offset="0" stop-color="#7BD389" stop-opacity="0.26"/>
      <stop offset="1" stop-color="#7BD389" stop-opacity="0"/>
    </radialGradient>
    <filter id="soft"><feGaussianBlur stdDeviation="18"/></filter>
  </defs>
  <rect width="756" height="660" rx="22" fill="url(#bg)"/>
  <circle cx="589.7" cy="224.4" r="211.2" fill="url(#halo)"/>
  <path d="M 60.5 475.2 C 211.7 165.0, 408.2 567.6, 695.5 184.8" fill="none" stroke="#1E5130" stroke-opacity="0.16" stroke-width="3"/>
  <polyline points="0.0,357.8 94.5,299.8 189.0,322.4 283.5,396.8 378.0,428.1 472.5,376.4 567.0,307.6 661.5,309.5 756.0,379.6" fill="none" stroke="#7BD389" stroke-opacity="0.34" stroke-width="4" stroke-linecap="round"/>
  <line x1="630.81" y1="503.45" x2="481.42" y2="118.8" stroke="#7BD389" stroke-opacity="0.24" stroke-width="2"/><line x1="268.83" y1="311.12" x2="119.45" y2="335.68" stroke="#7BD389" stroke-opacity="0.24" stroke-width="2"/><line x1="481.42" y1="118.8" x2="332.04" y2="143.35" stroke="#7BD389" stroke-opacity="0.24" stroke-width="2"/><line x1="119.45" y1="335.68" x2="544.62" y2="360.23" stroke="#7BD389" stroke-opacity="0.24" stroke-width="2"/><line x1="332.04" y1="143.35" x2="182.65" y2="167.9" stroke="#7BD389" stroke-opacity="0.24" stroke-width="2"/><line x1="182.65" y1="167.9" x2="607.82" y2="192.46" stroke="#7BD389" stroke-opacity="0.24" stroke-width="2"/>
  <circle cx="630.81" cy="503.45" r="3" fill="#7BD389" fill-opacity="0.35"/><circle cx="268.83" cy="311.12" r="4" fill="#7BD389" fill-opacity="0.40"/><circle cx="481.42" cy="118.8" r="5" fill="#7BD389" fill-opacity="0.45"/><circle cx="119.45" cy="335.68" r="3" fill="#7BD389" fill-opacity="0.50"/><circle cx="332.04" cy="143.35" r="4" fill="#7BD389" fill-opacity="0.35"/><circle cx="544.62" cy="360.23" r="5" fill="#7BD389" fill-opacity="0.40"/><circle cx="182.65" cy="167.9" r="3" fill="#7BD389" fill-opacity="0.45"/><circle cx="395.24" cy="384.78" r="4" fill="#7BD389" fill-opacity="0.50"/><circle cx="607.82" cy="192.46" r="5" fill="#7BD389" fill-opacity="0.35"/>
  <rect x="56.7" y="79.2" width="136.1" height="118.8" rx="18" fill="#7BD389" fill-opacity="0.16"/>
  <circle cx="635.0" cy="475.2" r="105.6" fill="#FFFFFF" fill-opacity="0.36" stroke="#1E5130" stroke-opacity="0.10"/>
  <text x="60.5" y="580.8" font-family="Inter, Arial, sans-serif" font-size="59" font-weight="700" fill="#1E5130" fill-opacity="0.72">INFP-T</text>
  <text x="60.5" y="654.5" font-family="Inter, Arial, sans-serif" font-size="30" font-weight="500" fill="#1E5130" fill-opacity="0.48">report unlock panel · T</text>
</svg>
