<svg xmlns="http://www.w3.org/2000/svg" width="1272" height="296" viewBox="0 0 1272 296" role="img" aria-labelledby="title desc">
  <title id="title">INFP-T Traits axis illustration</title>
  <desc id="desc">Abstract axis map for the INFP-T MBTI desktop result module.</desc>
  <defs>
    <linearGradient id="bg" x1="0" x2="1" y1="0" y2="1">
      <stop offset="0" stop-color="#E1F7E7" stop-opacity="0.92"/>
      <stop offset="0.55" stop-color="#FFFFFF" stop-opacity="0.96"/>
      <stop offset="1" stop-color="#7BD389" stop-opacity="0.14"/>
    </linearGradient>
    <radialGradient id="halo" cx="74%" cy="35%" r="48%">
      <stop offset="0" stop-color="#7BD389" stop-opacity="0.26"/>
      <stop offset="1" stop-color="#7BD389" stop-opacity="0"/>
    </radialGradient>
    <filter id="soft"><feGaussianBlur stdDeviation="18"/></filter>
  </defs>
  <rect width="1272" height="296" rx="22" fill="url(#bg)"/>
  <circle cx="992.2" cy="100.6" r="94.7" fill="url(#halo)"/>
  <path d="M 101.8 213.1 C 356.2 74.0, 686.9 254.6, 1170.2 82.9" fill="none" stroke="#1E5130" stroke-opacity="0.16" stroke-width="3"/>
  <polyline points="0.0,140.4 159.0,136.7 318.0,166.3 477.0,191.5 636.0,180.1 795.0,146.7 954.0,133.8 1113.0,157.9 1272.0,188.2" fill="none" stroke="#7BD389" stroke-opacity="0.34" stroke-width="4" stroke-linecap="round"/>
  <line x1="732.67" y1="163.39" x2="481.32" y2="174.4" stroke="#7BD389" stroke-opacity="0.24" stroke-width="2"/><line x1="1090.36" y1="77.14" x2="839.01" y2="88.15" stroke="#7BD389" stroke-opacity="0.24" stroke-width="2"/><line x1="481.32" y1="174.4" x2="229.98" y2="185.41" stroke="#7BD389" stroke-opacity="0.24" stroke-width="2"/><line x1="839.01" y1="88.15" x2="587.66" y2="99.16" stroke="#7BD389" stroke-opacity="0.24" stroke-width="2"/><line x1="229.98" y1="185.41" x2="945.35" y2="196.43" stroke="#7BD389" stroke-opacity="0.24" stroke-width="2"/><line x1="945.35" y1="196.43" x2="694.0" y2="207.44" stroke="#7BD389" stroke-opacity="0.24" stroke-width="2"/>
  <circle cx="732.67" cy="163.39" r="3" fill="#7BD389" fill-opacity="0.35"/><circle cx="1090.36" cy="77.14" r="4" fill="#7BD389" fill-opacity="0.40"/><circle cx="481.32" cy="174.4" r="5" fill="#7BD389" fill-opacity="0.45"/><circle cx="839.01" cy="88.15" r="3" fill="#7BD389" fill-opacity="0.50"/><circle cx="229.98" cy="185.41" r="4" fill="#7BD389" fill-opacity="0.35"/><circle cx="587.66" cy="99.16" r="5" fill="#7BD389" fill-opacity="0.40"/><circle cx="945.35" cy="196.43" r="3" fill="#7BD389" fill-opacity="0.45"/><circle cx="336.32" cy="110.17" r="4" fill="#7BD389" fill-opacity="0.50"/><circle cx="694.0" cy="207.44" r="5" fill="#7BD389" fill-opacity="0.35"/>
  <rect x="95.4" y="35.5" width="229.0" height="53.3" rx="18" fill="#7BD389" fill-opacity="0.16"/>
  <circle cx="1068.5" cy="213.1" r="47.4" fill="#FFFFFF" fill-opacity="0.36" stroke="#1E5130" stroke-opacity="0.10"/>
  <text x="101.8" y="260.5" font-family="Inter, Arial, sans-serif" font-size="27" font-weight="700" fill="#1E5130" fill-opacity="0.72">INFP-T</text>
  <text x="101.8" y="294.2" font-family="Inter, Arial, sans-serif" font-size="13" font-weight="500" fill="#1E5130" fill-opacity="0.48">axis map · T</text>
</svg>
