<svg xmlns="http://www.w3.org/2000/svg" width="1272" height="296" viewBox="0 0 1272 296" role="img" aria-labelledby="title desc">
  <title id="title">ENTP-T Career path illustration</title>
  <desc id="desc">Abstract career path map for the ENTP-T MBTI desktop result module.</desc>
  <defs>
    <linearGradient id="bg" x1="0" x2="1" y1="0" y2="1">
      <stop offset="0" stop-color="#D9F3FF" stop-opacity="0.92"/>
      <stop offset="0.55" stop-color="#FFFFFF" stop-opacity="0.96"/>
      <stop offset="1" stop-color="#00A6FB" stop-opacity="0.14"/>
    </linearGradient>
    <radialGradient id="halo" cx="74%" cy="35%" r="48%">
      <stop offset="0" stop-color="#00A6FB" stop-opacity="0.26"/>
      <stop offset="1" stop-color="#00A6FB" stop-opacity="0"/>
    </radialGradient>
    <filter id="soft"><feGaussianBlur stdDeviation="18"/></filter>
  </defs>
  <rect width="1272" height="296" rx="22" fill="url(#bg)"/>
  <circle cx="992.2" cy="100.6" r="94.7" fill="url(#halo)"/>
  <path d="M 101.8 213.1 C 356.2 74.0, 686.9 254.6, 1170.2 82.9" fill="none" stroke="#073B4C" stroke-opacity="0.16" stroke-width="3"/>
  <polyline points="0.0,188.4 159.0,158.3 318.0,133.9 477.0,146.4 636.0,179.8 795.0,191.5 954.0,166.6 1113.0,136.8 1272.0,140.2" fill="none" stroke="#00A6FB" stroke-opacity="0.34" stroke-width="4" stroke-linecap="round"/>
  <line x1="471.66" y1="113.84" x2="220.31" y2="124.85" stroke="#00A6FB" stroke-opacity="0.24" stroke-width="2"/><line x1="829.34" y1="211.11" x2="578.0" y2="222.12" stroke="#00A6FB" stroke-opacity="0.24" stroke-width="2"/><line x1="220.31" y1="124.85" x2="935.68" y2="135.86" stroke="#00A6FB" stroke-opacity="0.24" stroke-width="2"/><line x1="578.0" y1="222.12" x2="326.65" y2="233.13" stroke="#00A6FB" stroke-opacity="0.24" stroke-width="2"/><line x1="326.65" y1="233.13" x2="1042.02" y2="60.62" stroke="#00A6FB" stroke-opacity="0.24" stroke-width="2"/><line x1="1042.02" y1="60.62" x2="471.66" y2="113.84" stroke="#00A6FB" stroke-opacity="0.24" stroke-width="2"/>
  <circle cx="471.66" cy="113.84" r="3" fill="#00A6FB" fill-opacity="0.35"/><circle cx="829.34" cy="211.11" r="4" fill="#00A6FB" fill-opacity="0.40"/><circle cx="220.31" cy="124.85" r="5" fill="#00A6FB" fill-opacity="0.45"/><circle cx="578.0" cy="222.12" r="3" fill="#00A6FB" fill-opacity="0.50"/><circle cx="935.68" cy="135.86" r="4" fill="#00A6FB" fill-opacity="0.35"/><circle cx="326.65" cy="233.13" r="5" fill="#00A6FB" fill-opacity="0.40"/><circle cx="684.34" cy="146.88" r="3" fill="#00A6FB" fill-opacity="0.45"/><circle cx="1042.02" cy="60.62" r="4" fill="#00A6FB" fill-opacity="0.50"/><circle cx="432.99" cy="157.89" r="5" fill="#00A6FB" fill-opacity="0.35"/>
  <rect x="95.4" y="35.5" width="229.0" height="53.3" rx="18" fill="#00A6FB" fill-opacity="0.16"/>
  <circle cx="1068.5" cy="213.1" r="47.4" fill="#FFFFFF" fill-opacity="0.36" stroke="#073B4C" stroke-opacity="0.10"/>
  <text x="101.8" y="260.5" font-family="Inter, Arial, sans-serif" font-size="27" font-weight="700" fill="#073B4C" fill-opacity="0.72">ENTP-T</text>
  <text x="101.8" y="294.2" font-family="Inter, Arial, sans-serif" font-size="13" font-weight="500" fill="#073B4C" fill-opacity="0.48">career path map · T</text>
</svg>
