<svg xmlns="http://www.w3.org/2000/svg" width="756" height="660" viewBox="0 0 756 660" role="img" aria-labelledby="title desc">
  <title id="title">ENTP-T Final offer illustration</title>
  <desc id="desc">Abstract report unlock panel for the ENTP-T MBTI desktop result module.</desc>
  <defs>
    <linearGradient id="bg" x1="0" x2="1" y1="0" y2="1">
      <stop offset="0" stop-color="#D9F3FF" stop-opacity="0.92"/>
      <stop offset="0.55" stop-color="#FFFFFF" stop-opacity="0.96"/>
      <stop offset="1" stop-color="#00A6FB" stop-opacity="0.14"/>
    </linearGradient>
    <radialGradient id="halo" cx="74%" cy="35%" r="48%">
      <stop offset="0" stop-color="#00A6FB" stop-opacity="0.26"/>
      <stop offset="1" stop-color="#00A6FB" stop-opacity="0"/>
    </radialGradient>
    <filter id="soft"><feGaussianBlur stdDeviation="18"/></filter>
  </defs>
  <rect width="756" height="660" rx="22" fill="url(#bg)"/>
  <circle cx="589.7" cy="224.4" r="211.2" fill="url(#halo)"/>
  <path d="M 60.5 475.2 C 211.7 165.0, 408.2 567.6, 695.5 184.8" fill="none" stroke="#073B4C" stroke-opacity="0.16" stroke-width="3"/>
  <polyline points="0.0,316.4 94.5,302.6 189.0,365.8 283.5,425.5 378.0,405.4 472.5,331.3 567.0,297.6 661.5,347.3 756.0,417.1" fill="none" stroke="#00A6FB" stroke-opacity="0.34" stroke-width="4" stroke-linecap="round"/>
  <line x1="113.7" y1="135.17" x2="538.88" y2="159.72" stroke="#00A6FB" stroke-opacity="0.24" stroke-width="2"/><line x1="326.29" y1="352.04" x2="176.9" y2="376.6" stroke="#00A6FB" stroke-opacity="0.24" stroke-width="2"/><line x1="538.88" y1="159.72" x2="389.49" y2="184.27" stroke="#00A6FB" stroke-opacity="0.24" stroke-width="2"/><line x1="176.9" y1="376.6" x2="602.08" y2="401.15" stroke="#00A6FB" stroke-opacity="0.24" stroke-width="2"/><line x1="389.49" y1="184.27" x2="240.11" y2="208.82" stroke="#00A6FB" stroke-opacity="0.24" stroke-width="2"/><line x1="240.11" y1="208.82" x2="90.72" y2="233.38" stroke="#00A6FB" stroke-opacity="0.24" stroke-width="2"/>
  <circle cx="113.7" cy="135.17" r="3" fill="#00A6FB" fill-opacity="0.35"/><circle cx="326.29" cy="352.04" r="4" fill="#00A6FB" fill-opacity="0.40"/><circle cx="538.88" cy="159.72" r="5" fill="#00A6FB" fill-opacity="0.45"/><circle cx="176.9" cy="376.6" r="3" fill="#00A6FB" fill-opacity="0.50"/><circle cx="389.49" cy="184.27" r="4" fill="#00A6FB" fill-opacity="0.35"/><circle cx="602.08" cy="401.15" r="5" fill="#00A6FB" fill-opacity="0.40"/><circle cx="240.11" cy="208.82" r="3" fill="#00A6FB" fill-opacity="0.45"/><circle cx="452.69" cy="425.7" r="4" fill="#00A6FB" fill-opacity="0.50"/><circle cx="90.72" cy="233.38" r="5" fill="#00A6FB" fill-opacity="0.35"/>
  <rect x="56.7" y="79.2" width="136.1" height="118.8" rx="18" fill="#00A6FB" fill-opacity="0.16"/>
  <circle cx="635.0" cy="475.2" r="105.6" fill="#FFFFFF" fill-opacity="0.36" stroke="#073B4C" stroke-opacity="0.10"/>
  <text x="60.5" y="580.8" font-family="Inter, Arial, sans-serif" font-size="59" font-weight="700" fill="#073B4C" fill-opacity="0.72">ENTP-T</text>
  <text x="60.5" y="654.5" font-family="Inter, Arial, sans-serif" font-size="30" font-weight="500" fill="#073B4C" fill-opacity="0.48">report unlock panel · T</text>
</svg>
