<svg xmlns="http://www.w3.org/2000/svg" width="708" height="480" viewBox="0 0 708 480" role="img" aria-labelledby="title desc">
  <title id="title">ENTP-T Hero identity illustration</title>
  <desc id="desc">Abstract identity lattice for the ENTP-T MBTI desktop result module.</desc>
  <defs>
    <linearGradient id="bg" x1="0" x2="1" y1="0" y2="1">
      <stop offset="0" stop-color="#D9F3FF" stop-opacity="0.92"/>
      <stop offset="0.55" stop-color="#FFFFFF" stop-opacity="0.96"/>
      <stop offset="1" stop-color="#00A6FB" stop-opacity="0.14"/>
    </linearGradient>
    <radialGradient id="halo" cx="74%" cy="35%" r="48%">
      <stop offset="0" stop-color="#00A6FB" stop-opacity="0.26"/>
      <stop offset="1" stop-color="#00A6FB" stop-opacity="0"/>
    </radialGradient>
    <filter id="soft"><feGaussianBlur stdDeviation="18"/></filter>
  </defs>
  <rect width="708" height="480" rx="22" fill="url(#bg)"/>
  <circle cx="552.2" cy="163.2" r="153.6" fill="url(#halo)"/>
  <path d="M 56.6 345.6 C 198.2 120.0, 382.3 412.8, 651.4 134.4" fill="none" stroke="#073B4C" stroke-opacity="0.16" stroke-width="3"/>
  <polyline points="0.0,299.3 88.5,307.1 177.0,259.9 265.5,218.0 354.0,234.7 442.5,288.8 531.0,311.3 619.5,273.5 708.0,223.6" fill="none" stroke="#00A6FB" stroke-opacity="0.34" stroke-width="4" stroke-linecap="round"/>
  <line x1="284.05" y1="196.51" x2="144.15" y2="214.37" stroke="#00A6FB" stroke-opacity="0.24" stroke-width="2"/><line x1="483.14" y1="354.24" x2="343.24" y2="372.1" stroke="#00A6FB" stroke-opacity="0.24" stroke-width="2"/><line x1="144.15" y1="214.37" x2="542.33" y2="232.22" stroke="#00A6FB" stroke-opacity="0.24" stroke-width="2"/><line x1="343.24" y1="372.1" x2="203.34" y2="92.35" stroke="#00A6FB" stroke-opacity="0.24" stroke-width="2"/><line x1="203.34" y1="92.35" x2="601.52" y2="110.21" stroke="#00A6FB" stroke-opacity="0.24" stroke-width="2"/><line x1="601.52" y1="110.21" x2="284.05" y2="196.51" stroke="#00A6FB" stroke-opacity="0.24" stroke-width="2"/>
  <circle cx="284.05" cy="196.51" r="3" fill="#00A6FB" fill-opacity="0.35"/><circle cx="483.14" cy="354.24" r="4" fill="#00A6FB" fill-opacity="0.40"/><circle cx="144.15" cy="214.37" r="5" fill="#00A6FB" fill-opacity="0.45"/><circle cx="343.24" cy="372.1" r="3" fill="#00A6FB" fill-opacity="0.50"/><circle cx="542.33" cy="232.22" r="4" fill="#00A6FB" fill-opacity="0.35"/><circle cx="203.34" cy="92.35" r="5" fill="#00A6FB" fill-opacity="0.40"/><circle cx="402.43" cy="250.08" r="3" fill="#00A6FB" fill-opacity="0.45"/><circle cx="601.52" cy="110.21" r="4" fill="#00A6FB" fill-opacity="0.50"/><circle cx="262.53" cy="267.94" r="5" fill="#00A6FB" fill-opacity="0.35"/>
  <rect x="53.1" y="57.6" width="127.4" height="86.4" rx="18" fill="#00A6FB" fill-opacity="0.16"/>
  <circle cx="594.7" cy="345.6" r="76.8" fill="#FFFFFF" fill-opacity="0.36" stroke="#073B4C" stroke-opacity="0.10"/>
  <text x="56.6" y="422.4" font-family="Inter, Arial, sans-serif" font-size="43" font-weight="700" fill="#073B4C" fill-opacity="0.72">ENTP-T</text>
  <text x="56.6" y="476.1" font-family="Inter, Arial, sans-serif" font-size="22" font-weight="500" fill="#073B4C" fill-opacity="0.48">identity lattice · T</text>
</svg>
