<svg xmlns="http://www.w3.org/2000/svg" width="1272" height="296" viewBox="0 0 1272 296" role="img" aria-labelledby="title desc">
  <title id="title">ENTP-T Relationships illustration</title>
  <desc id="desc">Abstract relationship orbit map for the ENTP-T MBTI desktop result module.</desc>
  <defs>
    <linearGradient id="bg" x1="0" x2="1" y1="0" y2="1">
      <stop offset="0" stop-color="#D9F3FF" stop-opacity="0.92"/>
      <stop offset="0.55" stop-color="#FFFFFF" stop-opacity="0.96"/>
      <stop offset="1" stop-color="#00A6FB" stop-opacity="0.14"/>
    </linearGradient>
    <radialGradient id="halo" cx="74%" cy="35%" r="48%">
      <stop offset="0" stop-color="#00A6FB" stop-opacity="0.26"/>
      <stop offset="1" stop-color="#00A6FB" stop-opacity="0"/>
    </radialGradient>
    <filter id="soft"><feGaussianBlur stdDeviation="18"/></filter>
  </defs>
  <rect width="1272" height="296" rx="22" fill="url(#bg)"/>
  <circle cx="992.2" cy="100.6" r="94.7" fill="url(#halo)"/>
  <path d="M 101.8 213.1 C 356.2 74.0, 686.9 254.6, 1170.2 82.9" fill="none" stroke="#073B4C" stroke-opacity="0.16" stroke-width="3"/>
  <polyline points="0.0,189.2 159.0,184.9 318.0,152.4 477.0,133.2 636.0,151.7 795.0,184.4 954.0,189.5 1113.0,160.6 1272.0,134.5" fill="none" stroke="#00A6FB" stroke-opacity="0.34" stroke-width="4" stroke-linecap="round"/>
  <line x1="345.98" y1="89.98" x2="1061.36" y2="101.0" stroke="#00A6FB" stroke-opacity="0.24" stroke-width="2"/><line x1="703.67" y1="187.25" x2="452.32" y2="198.26" stroke="#00A6FB" stroke-opacity="0.24" stroke-width="2"/><line x1="1061.36" y1="101.0" x2="810.01" y2="112.01" stroke="#00A6FB" stroke-opacity="0.24" stroke-width="2"/><line x1="452.32" y1="198.26" x2="200.98" y2="209.27" stroke="#00A6FB" stroke-opacity="0.24" stroke-width="2"/><line x1="810.01" y1="112.01" x2="558.66" y2="123.02" stroke="#00A6FB" stroke-opacity="0.24" stroke-width="2"/><line x1="558.66" y1="123.02" x2="307.32" y2="134.03" stroke="#00A6FB" stroke-opacity="0.24" stroke-width="2"/>
  <circle cx="345.98" cy="89.98" r="3" fill="#00A6FB" fill-opacity="0.35"/><circle cx="703.67" cy="187.25" r="4" fill="#00A6FB" fill-opacity="0.40"/><circle cx="1061.36" cy="101.0" r="5" fill="#00A6FB" fill-opacity="0.45"/><circle cx="452.32" cy="198.26" r="3" fill="#00A6FB" fill-opacity="0.50"/><circle cx="810.01" cy="112.01" r="4" fill="#00A6FB" fill-opacity="0.35"/><circle cx="200.98" cy="209.27" r="5" fill="#00A6FB" fill-opacity="0.40"/><circle cx="558.66" cy="123.02" r="3" fill="#00A6FB" fill-opacity="0.45"/><circle cx="916.35" cy="220.28" r="4" fill="#00A6FB" fill-opacity="0.50"/><circle cx="307.32" cy="134.03" r="5" fill="#00A6FB" fill-opacity="0.35"/>
  <rect x="95.4" y="35.5" width="229.0" height="53.3" rx="18" fill="#00A6FB" fill-opacity="0.16"/>
  <circle cx="1068.5" cy="213.1" r="47.4" fill="#FFFFFF" fill-opacity="0.36" stroke="#073B4C" stroke-opacity="0.10"/>
  <text x="101.8" y="260.5" font-family="Inter, Arial, sans-serif" font-size="27" font-weight="700" fill="#073B4C" fill-opacity="0.72">ENTP-T</text>
  <text x="101.8" y="294.2" font-family="Inter, Arial, sans-serif" font-size="13" font-weight="500" fill="#073B4C" fill-opacity="0.48">relationship orbit map · T</text>
</svg>
