<svg xmlns="http://www.w3.org/2000/svg" width="720" height="354" viewBox="0 0 720 354" role="img" aria-labelledby="title desc">
  <title id="title">ENTP-T Traits summary illustration</title>
  <desc id="desc">Abstract trait signal card for the ENTP-T MBTI desktop result module.</desc>
  <defs>
    <linearGradient id="bg" x1="0" x2="1" y1="0" y2="1">
      <stop offset="0" stop-color="#D9F3FF" stop-opacity="0.92"/>
      <stop offset="0.55" stop-color="#FFFFFF" stop-opacity="0.96"/>
      <stop offset="1" stop-color="#00A6FB" stop-opacity="0.14"/>
    </linearGradient>
    <radialGradient id="halo" cx="74%" cy="35%" r="48%">
      <stop offset="0" stop-color="#00A6FB" stop-opacity="0.26"/>
      <stop offset="1" stop-color="#00A6FB" stop-opacity="0"/>
    </radialGradient>
    <filter id="soft"><feGaussianBlur stdDeviation="18"/></filter>
  </defs>
  <rect width="720" height="354" rx="22" fill="url(#bg)"/>
  <circle cx="561.6" cy="120.4" r="113.3" fill="url(#halo)"/>
  <path d="M 57.6 254.9 C 201.6 88.5, 388.8 304.4, 662.4 99.1" fill="none" stroke="#073B4C" stroke-opacity="0.16" stroke-width="3"/>
  <polyline points="0.0,203.5 90.0,229.8 180.0,211.4 270.0,171.6 360.0,161.3 450.0,193.6 540.0,227.3 630.0,219.4 720.0,180.0" fill="none" stroke="#00A6FB" stroke-opacity="0.34" stroke-width="4" stroke-linecap="round"/>
  <line x1="617.18" y1="276.62" x2="474.91" y2="70.3" stroke="#00A6FB" stroke-opacity="0.24" stroke-width="2"/><line x1="272.45" y1="173.46" x2="130.18" y2="186.63" stroke="#00A6FB" stroke-opacity="0.24" stroke-width="2"/><line x1="474.91" y1="70.3" x2="332.64" y2="83.47" stroke="#00A6FB" stroke-opacity="0.24" stroke-width="2"/><line x1="130.18" y1="186.63" x2="535.1" y2="199.8" stroke="#00A6FB" stroke-opacity="0.24" stroke-width="2"/><line x1="535.1" y1="199.8" x2="392.83" y2="212.97" stroke="#00A6FB" stroke-opacity="0.24" stroke-width="2"/><line x1="392.83" y1="212.97" x2="617.18" y2="276.62" stroke="#00A6FB" stroke-opacity="0.24" stroke-width="2"/>
  <circle cx="617.18" cy="276.62" r="3" fill="#00A6FB" fill-opacity="0.35"/><circle cx="272.45" cy="173.46" r="4" fill="#00A6FB" fill-opacity="0.40"/><circle cx="474.91" cy="70.3" r="5" fill="#00A6FB" fill-opacity="0.45"/><circle cx="130.18" cy="186.63" r="3" fill="#00A6FB" fill-opacity="0.50"/><circle cx="332.64" cy="83.47" r="4" fill="#00A6FB" fill-opacity="0.35"/><circle cx="535.1" cy="199.8" r="5" fill="#00A6FB" fill-opacity="0.40"/><circle cx="190.37" cy="96.64" r="3" fill="#00A6FB" fill-opacity="0.45"/><circle cx="392.83" cy="212.97" r="4" fill="#00A6FB" fill-opacity="0.50"/><circle cx="595.3" cy="109.81" r="5" fill="#00A6FB" fill-opacity="0.35"/>
  <rect x="54.0" y="42.5" width="129.6" height="63.7" rx="18" fill="#00A6FB" fill-opacity="0.16"/>
  <circle cx="604.8" cy="254.9" r="56.6" fill="#FFFFFF" fill-opacity="0.36" stroke="#073B4C" stroke-opacity="0.10"/>
  <text x="57.6" y="311.5" font-family="Inter, Arial, sans-serif" font-size="32" font-weight="700" fill="#073B4C" fill-opacity="0.72">ENTP-T</text>
  <text x="57.6" y="351.5" font-family="Inter, Arial, sans-serif" font-size="16" font-weight="500" fill="#073B4C" fill-opacity="0.48">trait signal card · T</text>
</svg>
