<svg xmlns="http://www.w3.org/2000/svg" width="1272" height="296" viewBox="0 0 1272 296" role="img" aria-labelledby="title desc">
  <title id="title">INTP-A Career path illustration</title>
  <desc id="desc">Abstract career path map for the INTP-A MBTI desktop result module.</desc>
  <defs>
    <linearGradient id="bg" x1="0" x2="1" y1="0" y2="1">
      <stop offset="0" stop-color="#D9E9FF" stop-opacity="0.92"/>
      <stop offset="0.55" stop-color="#FFFFFF" stop-opacity="0.96"/>
      <stop offset="1" stop-color="#4F8BFF" stop-opacity="0.14"/>
    </linearGradient>
    <radialGradient id="halo" cx="74%" cy="35%" r="48%">
      <stop offset="0" stop-color="#4F8BFF" stop-opacity="0.26"/>
      <stop offset="1" stop-color="#4F8BFF" stop-opacity="0"/>
    </radialGradient>
    <filter id="soft"><feGaussianBlur stdDeviation="18"/></filter>
  </defs>
  <rect width="1272" height="296" rx="22" fill="url(#bg)"/>
  <circle cx="992.2" cy="100.6" r="94.7" fill="url(#halo)"/>
  <path d="M 101.8 213.1 C 356.2 74.0, 686.9 254.6, 1170.2 82.9" fill="none" stroke="#0D284D" stroke-opacity="0.16" stroke-width="3"/>
  <polyline points="0.0,188.3 159.0,186.1 318.0,154.2 477.0,133.3 636.0,150.0 795.0,183.0 954.0,190.3 1113.0,162.5 1272.0,135.1" fill="none" stroke="#4F8BFF" stroke-opacity="0.34" stroke-width="4" stroke-linecap="round"/>
  <line x1="326.65" y1="86.31" x2="1042.02" y2="97.32" stroke="#4F8BFF" stroke-opacity="0.24" stroke-width="2"/><line x1="684.34" y1="183.58" x2="432.99" y2="194.59" stroke="#4F8BFF" stroke-opacity="0.24" stroke-width="2"/><line x1="1042.02" y1="97.32" x2="790.68" y2="108.34" stroke="#4F8BFF" stroke-opacity="0.24" stroke-width="2"/><line x1="432.99" y1="194.59" x2="181.64" y2="205.6" stroke="#4F8BFF" stroke-opacity="0.24" stroke-width="2"/><line x1="790.68" y1="108.34" x2="539.33" y2="119.35" stroke="#4F8BFF" stroke-opacity="0.24" stroke-width="2"/><line x1="539.33" y1="119.35" x2="287.98" y2="130.36" stroke="#4F8BFF" stroke-opacity="0.24" stroke-width="2"/>
  <circle cx="326.65" cy="86.31" r="3" fill="#4F8BFF" fill-opacity="0.35"/><circle cx="684.34" cy="183.58" r="4" fill="#4F8BFF" fill-opacity="0.40"/><circle cx="1042.02" cy="97.32" r="5" fill="#4F8BFF" fill-opacity="0.45"/><circle cx="432.99" cy="194.59" r="3" fill="#4F8BFF" fill-opacity="0.50"/><circle cx="790.68" cy="108.34" r="4" fill="#4F8BFF" fill-opacity="0.35"/><circle cx="181.64" cy="205.6" r="5" fill="#4F8BFF" fill-opacity="0.40"/><circle cx="539.33" cy="119.35" r="3" fill="#4F8BFF" fill-opacity="0.45"/><circle cx="897.01" cy="216.61" r="4" fill="#4F8BFF" fill-opacity="0.50"/><circle cx="287.98" cy="130.36" r="5" fill="#4F8BFF" fill-opacity="0.35"/>
  <rect x="95.4" y="35.5" width="229.0" height="53.3" rx="18" fill="#4F8BFF" fill-opacity="0.16"/>
  <circle cx="1068.5" cy="213.1" r="47.4" fill="#FFFFFF" fill-opacity="0.36" stroke="#0D284D" stroke-opacity="0.10"/>
  <text x="101.8" y="260.5" font-family="Inter, Arial, sans-serif" font-size="27" font-weight="700" fill="#0D284D" fill-opacity="0.72">INTP-A</text>
  <text x="101.8" y="294.2" font-family="Inter, Arial, sans-serif" font-size="13" font-weight="500" fill="#0D284D" fill-opacity="0.48">career path map · A</text>
</svg>
