<svg xmlns="http://www.w3.org/2000/svg" width="756" height="660" viewBox="0 0 756 660" role="img" aria-labelledby="title desc">
  <title id="title">INTP-A Final offer illustration</title>
  <desc id="desc">Abstract report unlock panel for the INTP-A MBTI desktop result module.</desc>
  <defs>
    <linearGradient id="bg" x1="0" x2="1" y1="0" y2="1">
      <stop offset="0" stop-color="#D9E9FF" stop-opacity="0.92"/>
      <stop offset="0.55" stop-color="#FFFFFF" stop-opacity="0.96"/>
      <stop offset="1" stop-color="#4F8BFF" stop-opacity="0.14"/>
    </linearGradient>
    <radialGradient id="halo" cx="74%" cy="35%" r="48%">
      <stop offset="0" stop-color="#4F8BFF" stop-opacity="0.26"/>
      <stop offset="1" stop-color="#4F8BFF" stop-opacity="0"/>
    </radialGradient>
    <filter id="soft"><feGaussianBlur stdDeviation="18"/></filter>
  </defs>
  <rect width="756" height="660" rx="22" fill="url(#bg)"/>
  <circle cx="589.7" cy="224.4" r="211.2" fill="url(#halo)"/>
  <path d="M 60.5 475.2 C 211.7 165.0, 408.2 567.6, 695.5 184.8" fill="none" stroke="#0D284D" stroke-opacity="0.16" stroke-width="3"/>
  <polyline points="0.0,380.9 94.5,310.3 189.0,306.9 283.5,375.1 378.0,427.9 472.5,397.9 567.0,323.4 661.5,299.4 756.0,356.5" fill="none" stroke="#4F8BFF" stroke-opacity="0.34" stroke-width="4" stroke-linecap="round"/>
  <line x1="602.08" y1="482.99" x2="452.69" y2="507.54" stroke="#4F8BFF" stroke-opacity="0.24" stroke-width="2"/><line x1="240.11" y1="290.66" x2="90.72" y2="315.22" stroke="#4F8BFF" stroke-opacity="0.24" stroke-width="2"/><line x1="452.69" y1="507.54" x2="303.31" y2="122.89" stroke="#4F8BFF" stroke-opacity="0.24" stroke-width="2"/><line x1="90.72" y1="315.22" x2="515.89" y2="339.77" stroke="#4F8BFF" stroke-opacity="0.24" stroke-width="2"/><line x1="515.89" y1="339.77" x2="366.51" y2="364.32" stroke="#4F8BFF" stroke-opacity="0.24" stroke-width="2"/><line x1="366.51" y1="364.32" x2="602.08" y2="482.99" stroke="#4F8BFF" stroke-opacity="0.24" stroke-width="2"/>
  <circle cx="602.08" cy="482.99" r="3" fill="#4F8BFF" fill-opacity="0.35"/><circle cx="240.11" cy="290.66" r="4" fill="#4F8BFF" fill-opacity="0.40"/><circle cx="452.69" cy="507.54" r="5" fill="#4F8BFF" fill-opacity="0.45"/><circle cx="90.72" cy="315.22" r="3" fill="#4F8BFF" fill-opacity="0.50"/><circle cx="303.31" cy="122.89" r="4" fill="#4F8BFF" fill-opacity="0.35"/><circle cx="515.89" cy="339.77" r="5" fill="#4F8BFF" fill-opacity="0.40"/><circle cx="153.92" cy="147.44" r="3" fill="#4F8BFF" fill-opacity="0.45"/><circle cx="366.51" cy="364.32" r="4" fill="#4F8BFF" fill-opacity="0.50"/><circle cx="579.1" cy="172.0" r="5" fill="#4F8BFF" fill-opacity="0.35"/>
  <rect x="56.7" y="79.2" width="136.1" height="118.8" rx="18" fill="#4F8BFF" fill-opacity="0.16"/>
  <circle cx="635.0" cy="475.2" r="105.6" fill="#FFFFFF" fill-opacity="0.36" stroke="#0D284D" stroke-opacity="0.10"/>
  <text x="60.5" y="580.8" font-family="Inter, Arial, sans-serif" font-size="59" font-weight="700" fill="#0D284D" fill-opacity="0.72">INTP-A</text>
  <text x="60.5" y="654.5" font-family="Inter, Arial, sans-serif" font-size="30" font-weight="500" fill="#0D284D" fill-opacity="0.48">report unlock panel · A</text>
</svg>
