<svg xmlns="http://www.w3.org/2000/svg" width="1272" height="296" viewBox="0 0 1272 296" role="img" aria-labelledby="title desc">
  <title id="title">INTP-A Growth path illustration</title>
  <desc id="desc">Abstract growth rhythm map for the INTP-A MBTI desktop result module.</desc>
  <defs>
    <linearGradient id="bg" x1="0" x2="1" y1="0" y2="1">
      <stop offset="0" stop-color="#D9E9FF" stop-opacity="0.92"/>
      <stop offset="0.55" stop-color="#FFFFFF" stop-opacity="0.96"/>
      <stop offset="1" stop-color="#4F8BFF" stop-opacity="0.14"/>
    </linearGradient>
    <radialGradient id="halo" cx="74%" cy="35%" r="48%">
      <stop offset="0" stop-color="#4F8BFF" stop-opacity="0.26"/>
      <stop offset="1" stop-color="#4F8BFF" stop-opacity="0"/>
    </radialGradient>
    <filter id="soft"><feGaussianBlur stdDeviation="18"/></filter>
  </defs>
  <rect width="1272" height="296" rx="22" fill="url(#bg)"/>
  <circle cx="992.2" cy="100.6" r="94.7" fill="url(#halo)"/>
  <path d="M 101.8 213.1 C 356.2 74.0, 686.9 254.6, 1170.2 82.9" fill="none" stroke="#0D284D" stroke-opacity="0.16" stroke-width="3"/>
  <polyline points="0.0,141.8 159.0,135.7 318.0,164.2 477.0,190.9 636.0,181.7 795.0,148.5 954.0,133.5 1113.0,155.9 1272.0,187.1" fill="none" stroke="#4F8BFF" stroke-opacity="0.34" stroke-width="4" stroke-linecap="round"/>
  <line x1="723.0" y1="161.56" x2="471.66" y2="172.57" stroke="#4F8BFF" stroke-opacity="0.24" stroke-width="2"/><line x1="1080.69" y1="75.3" x2="829.34" y2="86.31" stroke="#4F8BFF" stroke-opacity="0.24" stroke-width="2"/><line x1="471.66" y1="172.57" x2="220.31" y2="183.58" stroke="#4F8BFF" stroke-opacity="0.24" stroke-width="2"/><line x1="829.34" y1="86.31" x2="578.0" y2="97.32" stroke="#4F8BFF" stroke-opacity="0.24" stroke-width="2"/><line x1="578.0" y1="97.32" x2="326.65" y2="108.34" stroke="#4F8BFF" stroke-opacity="0.24" stroke-width="2"/><line x1="326.65" y1="108.34" x2="723.0" y2="161.56" stroke="#4F8BFF" stroke-opacity="0.24" stroke-width="2"/>
  <circle cx="723.0" cy="161.56" r="3" fill="#4F8BFF" fill-opacity="0.35"/><circle cx="1080.69" cy="75.3" r="4" fill="#4F8BFF" fill-opacity="0.40"/><circle cx="471.66" cy="172.57" r="5" fill="#4F8BFF" fill-opacity="0.45"/><circle cx="829.34" cy="86.31" r="3" fill="#4F8BFF" fill-opacity="0.50"/><circle cx="220.31" cy="183.58" r="4" fill="#4F8BFF" fill-opacity="0.35"/><circle cx="578.0" cy="97.32" r="5" fill="#4F8BFF" fill-opacity="0.40"/><circle cx="935.68" cy="194.59" r="3" fill="#4F8BFF" fill-opacity="0.45"/><circle cx="326.65" cy="108.34" r="4" fill="#4F8BFF" fill-opacity="0.50"/><circle cx="684.34" cy="205.6" r="5" fill="#4F8BFF" fill-opacity="0.35"/>
  <rect x="95.4" y="35.5" width="229.0" height="53.3" rx="18" fill="#4F8BFF" fill-opacity="0.16"/>
  <circle cx="1068.5" cy="213.1" r="47.4" fill="#FFFFFF" fill-opacity="0.36" stroke="#0D284D" stroke-opacity="0.10"/>
  <text x="101.8" y="260.5" font-family="Inter, Arial, sans-serif" font-size="27" font-weight="700" fill="#0D284D" fill-opacity="0.72">INTP-A</text>
  <text x="101.8" y="294.2" font-family="Inter, Arial, sans-serif" font-size="13" font-weight="500" fill="#0D284D" fill-opacity="0.48">growth rhythm map · A</text>
</svg>
