<svg xmlns="http://www.w3.org/2000/svg" width="720" height="354" viewBox="0 0 720 354" role="img" aria-labelledby="title desc">
  <title id="title">INTP-A Traits summary illustration</title>
  <desc id="desc">Abstract trait signal card for the INTP-A MBTI desktop result module.</desc>
  <defs>
    <linearGradient id="bg" x1="0" x2="1" y1="0" y2="1">
      <stop offset="0" stop-color="#D9E9FF" stop-opacity="0.92"/>
      <stop offset="0.55" stop-color="#FFFFFF" stop-opacity="0.96"/>
      <stop offset="1" stop-color="#4F8BFF" stop-opacity="0.14"/>
    </linearGradient>
    <radialGradient id="halo" cx="74%" cy="35%" r="48%">
      <stop offset="0" stop-color="#4F8BFF" stop-opacity="0.26"/>
      <stop offset="1" stop-color="#4F8BFF" stop-opacity="0"/>
    </radialGradient>
    <filter id="soft"><feGaussianBlur stdDeviation="18"/></filter>
  </defs>
  <rect width="720" height="354" rx="22" fill="url(#bg)"/>
  <circle cx="561.6" cy="120.4" r="113.3" fill="url(#halo)"/>
  <path d="M 57.6 254.9 C 201.6 88.5, 388.8 304.4, 662.4 99.1" fill="none" stroke="#0D284D" stroke-opacity="0.16" stroke-width="3"/>
  <polyline points="0.0,169.1 90.0,208.2 180.0,230.1 270.0,206.8 360.0,168.1 450.0,163.3 540.0,198.6 630.0,228.9 720.0,215.6" fill="none" stroke="#4F8BFF" stroke-opacity="0.34" stroke-width="4" stroke-linecap="round"/>
  <line x1="535.1" y1="243.69" x2="392.83" y2="256.86" stroke="#4F8BFF" stroke-opacity="0.24" stroke-width="2"/><line x1="190.37" y1="140.54" x2="595.3" y2="153.71" stroke="#4F8BFF" stroke-opacity="0.24" stroke-width="2"/><line x1="392.83" y1="256.86" x2="250.56" y2="270.03" stroke="#4F8BFF" stroke-opacity="0.24" stroke-width="2"/><line x1="595.3" y1="153.71" x2="453.02" y2="166.88" stroke="#4F8BFF" stroke-opacity="0.24" stroke-width="2"/><line x1="250.56" y1="270.03" x2="108.29" y2="63.72" stroke="#4F8BFF" stroke-opacity="0.24" stroke-width="2"/><line x1="108.29" y1="63.72" x2="513.22" y2="76.89" stroke="#4F8BFF" stroke-opacity="0.24" stroke-width="2"/>
  <circle cx="535.1" cy="243.69" r="3" fill="#4F8BFF" fill-opacity="0.35"/><circle cx="190.37" cy="140.54" r="4" fill="#4F8BFF" fill-opacity="0.40"/><circle cx="392.83" cy="256.86" r="5" fill="#4F8BFF" fill-opacity="0.45"/><circle cx="595.3" cy="153.71" r="3" fill="#4F8BFF" fill-opacity="0.50"/><circle cx="250.56" cy="270.03" r="4" fill="#4F8BFF" fill-opacity="0.35"/><circle cx="453.02" cy="166.88" r="5" fill="#4F8BFF" fill-opacity="0.40"/><circle cx="108.29" cy="63.72" r="3" fill="#4F8BFF" fill-opacity="0.45"/><circle cx="310.75" cy="180.04" r="4" fill="#4F8BFF" fill-opacity="0.50"/><circle cx="513.22" cy="76.89" r="5" fill="#4F8BFF" fill-opacity="0.35"/>
  <rect x="54.0" y="42.5" width="129.6" height="63.7" rx="18" fill="#4F8BFF" fill-opacity="0.16"/>
  <circle cx="604.8" cy="254.9" r="56.6" fill="#FFFFFF" fill-opacity="0.36" stroke="#0D284D" stroke-opacity="0.10"/>
  <text x="57.6" y="311.5" font-family="Inter, Arial, sans-serif" font-size="32" font-weight="700" fill="#0D284D" fill-opacity="0.72">INTP-A</text>
  <text x="57.6" y="351.5" font-family="Inter, Arial, sans-serif" font-size="16" font-weight="500" fill="#0D284D" fill-opacity="0.48">trait signal card · A</text>
</svg>
