<svg xmlns="http://www.w3.org/2000/svg" width="756" height="660" viewBox="0 0 756 660" role="img" aria-labelledby="title desc">
  <title id="title">ENTP-A Final offer illustration</title>
  <desc id="desc">Abstract report unlock panel for the ENTP-A MBTI desktop result module.</desc>
  <defs>
    <linearGradient id="bg" x1="0" x2="1" y1="0" y2="1">
      <stop offset="0" stop-color="#D9F3FF" stop-opacity="0.92"/>
      <stop offset="0.55" stop-color="#FFFFFF" stop-opacity="0.96"/>
      <stop offset="1" stop-color="#00A6FB" stop-opacity="0.14"/>
    </linearGradient>
    <radialGradient id="halo" cx="74%" cy="35%" r="48%">
      <stop offset="0" stop-color="#00A6FB" stop-opacity="0.26"/>
      <stop offset="1" stop-color="#00A6FB" stop-opacity="0"/>
    </radialGradient>
    <filter id="soft"><feGaussianBlur stdDeviation="18"/></filter>
  </defs>
  <rect width="756" height="660" rx="22" fill="url(#bg)"/>
  <circle cx="589.7" cy="224.4" r="211.2" fill="url(#halo)"/>
  <path d="M 60.5 475.2 C 211.7 165.0, 408.2 567.6, 695.5 184.8" fill="none" stroke="#073B4C" stroke-opacity="0.16" stroke-width="3"/>
  <polyline points="0.0,397.9 94.5,323.4 189.0,299.4 283.5,356.5 378.0,421.9 472.5,412.1 567.0,339.7 661.5,297.0 756.0,338.4" fill="none" stroke="#00A6FB" stroke-opacity="0.34" stroke-width="4" stroke-linecap="round"/>
  <line x1="579.1" y1="466.62" x2="429.71" y2="491.17" stroke="#00A6FB" stroke-opacity="0.24" stroke-width="2"/><line x1="217.12" y1="274.3" x2="642.3" y2="298.85" stroke="#00A6FB" stroke-opacity="0.24" stroke-width="2"/><line x1="429.71" y1="491.17" x2="280.32" y2="515.72" stroke="#00A6FB" stroke-opacity="0.24" stroke-width="2"/><line x1="642.3" y1="298.85" x2="492.91" y2="323.4" stroke="#00A6FB" stroke-opacity="0.24" stroke-width="2"/><line x1="492.91" y1="323.4" x2="343.53" y2="347.95" stroke="#00A6FB" stroke-opacity="0.24" stroke-width="2"/><line x1="343.53" y1="347.95" x2="579.1" y2="466.62" stroke="#00A6FB" stroke-opacity="0.24" stroke-width="2"/>
  <circle cx="579.1" cy="466.62" r="3" fill="#00A6FB" fill-opacity="0.35"/><circle cx="217.12" cy="274.3" r="4" fill="#00A6FB" fill-opacity="0.40"/><circle cx="429.71" cy="491.17" r="5" fill="#00A6FB" fill-opacity="0.45"/><circle cx="642.3" cy="298.85" r="3" fill="#00A6FB" fill-opacity="0.50"/><circle cx="280.32" cy="515.72" r="4" fill="#00A6FB" fill-opacity="0.35"/><circle cx="492.91" cy="323.4" r="5" fill="#00A6FB" fill-opacity="0.40"/><circle cx="130.94" cy="131.08" r="3" fill="#00A6FB" fill-opacity="0.45"/><circle cx="343.53" cy="347.95" r="4" fill="#00A6FB" fill-opacity="0.50"/><circle cx="556.11" cy="155.63" r="5" fill="#00A6FB" fill-opacity="0.35"/>
  <rect x="56.7" y="79.2" width="136.1" height="118.8" rx="18" fill="#00A6FB" fill-opacity="0.16"/>
  <circle cx="635.0" cy="475.2" r="105.6" fill="#FFFFFF" fill-opacity="0.36" stroke="#073B4C" stroke-opacity="0.10"/>
  <text x="60.5" y="580.8" font-family="Inter, Arial, sans-serif" font-size="59" font-weight="700" fill="#073B4C" fill-opacity="0.72">ENTP-A</text>
  <text x="60.5" y="654.5" font-family="Inter, Arial, sans-serif" font-size="30" font-weight="500" fill="#073B4C" fill-opacity="0.48">report unlock panel · A</text>
</svg>
