<svg xmlns="http://www.w3.org/2000/svg" width="1272" height="296" viewBox="0 0 1272 296" role="img" aria-labelledby="title desc">
  <title id="title">ENTP-A Growth path illustration</title>
  <desc id="desc">Abstract growth rhythm map for the ENTP-A MBTI desktop result module.</desc>
  <defs>
    <linearGradient id="bg" x1="0" x2="1" y1="0" y2="1">
      <stop offset="0" stop-color="#D9F3FF" stop-opacity="0.92"/>
      <stop offset="0.55" stop-color="#FFFFFF" stop-opacity="0.96"/>
      <stop offset="1" stop-color="#00A6FB" stop-opacity="0.14"/>
    </linearGradient>
    <radialGradient id="halo" cx="74%" cy="35%" r="48%">
      <stop offset="0" stop-color="#00A6FB" stop-opacity="0.26"/>
      <stop offset="1" stop-color="#00A6FB" stop-opacity="0"/>
    </radialGradient>
    <filter id="soft"><feGaussianBlur stdDeviation="18"/></filter>
  </defs>
  <rect width="1272" height="296" rx="22" fill="url(#bg)"/>
  <circle cx="992.2" cy="100.6" r="94.7" fill="url(#halo)"/>
  <path d="M 101.8 213.1 C 356.2 74.0, 686.9 254.6, 1170.2 82.9" fill="none" stroke="#073B4C" stroke-opacity="0.16" stroke-width="3"/>
  <polyline points="0.0,148.4 159.0,133.5 318.0,155.9 477.0,187.1 636.0,187.3 795.0,156.2 954.0,133.5 1113.0,148.1 1272.0,181.5" fill="none" stroke="#00A6FB" stroke-opacity="0.34" stroke-width="4" stroke-linecap="round"/>
  <line x1="684.34" y1="154.22" x2="432.99" y2="165.23" stroke="#00A6FB" stroke-opacity="0.24" stroke-width="2"/><line x1="1042.02" y1="67.96" x2="790.68" y2="78.97" stroke="#00A6FB" stroke-opacity="0.24" stroke-width="2"/><line x1="432.99" y1="165.23" x2="181.64" y2="176.24" stroke="#00A6FB" stroke-opacity="0.24" stroke-width="2"/><line x1="790.68" y1="78.97" x2="539.33" y2="89.98" stroke="#00A6FB" stroke-opacity="0.24" stroke-width="2"/><line x1="539.33" y1="89.98" x2="287.98" y2="101.0" stroke="#00A6FB" stroke-opacity="0.24" stroke-width="2"/><line x1="287.98" y1="101.0" x2="684.34" y2="154.22" stroke="#00A6FB" stroke-opacity="0.24" stroke-width="2"/>
  <circle cx="684.34" cy="154.22" r="3" fill="#00A6FB" fill-opacity="0.35"/><circle cx="1042.02" cy="67.96" r="4" fill="#00A6FB" fill-opacity="0.40"/><circle cx="432.99" cy="165.23" r="5" fill="#00A6FB" fill-opacity="0.45"/><circle cx="790.68" cy="78.97" r="3" fill="#00A6FB" fill-opacity="0.50"/><circle cx="181.64" cy="176.24" r="4" fill="#00A6FB" fill-opacity="0.35"/><circle cx="539.33" cy="89.98" r="5" fill="#00A6FB" fill-opacity="0.40"/><circle cx="897.01" cy="187.25" r="3" fill="#00A6FB" fill-opacity="0.45"/><circle cx="287.98" cy="101.0" r="4" fill="#00A6FB" fill-opacity="0.50"/><circle cx="645.67" cy="198.26" r="5" fill="#00A6FB" fill-opacity="0.35"/>
  <rect x="95.4" y="35.5" width="229.0" height="53.3" rx="18" fill="#00A6FB" fill-opacity="0.16"/>
  <circle cx="1068.5" cy="213.1" r="47.4" fill="#FFFFFF" fill-opacity="0.36" stroke="#073B4C" stroke-opacity="0.10"/>
  <text x="101.8" y="260.5" font-family="Inter, Arial, sans-serif" font-size="27" font-weight="700" fill="#073B4C" fill-opacity="0.72">ENTP-A</text>
  <text x="101.8" y="294.2" font-family="Inter, Arial, sans-serif" font-size="13" font-weight="500" fill="#073B4C" fill-opacity="0.48">growth rhythm map · A</text>
</svg>
