<svg xmlns="http://www.w3.org/2000/svg" width="708" height="480" viewBox="0 0 708 480" role="img" aria-labelledby="title desc">
  <title id="title">ENTP-A Hero identity illustration</title>
  <desc id="desc">Abstract identity lattice for the ENTP-A MBTI desktop result module.</desc>
  <defs>
    <linearGradient id="bg" x1="0" x2="1" y1="0" y2="1">
      <stop offset="0" stop-color="#D9F3FF" stop-opacity="0.92"/>
      <stop offset="0.55" stop-color="#FFFFFF" stop-opacity="0.96"/>
      <stop offset="1" stop-color="#00A6FB" stop-opacity="0.14"/>
    </linearGradient>
    <radialGradient id="halo" cx="74%" cy="35%" r="48%">
      <stop offset="0" stop-color="#00A6FB" stop-opacity="0.26"/>
      <stop offset="1" stop-color="#00A6FB" stop-opacity="0"/>
    </radialGradient>
    <filter id="soft"><feGaussianBlur stdDeviation="18"/></filter>
  </defs>
  <rect width="708" height="480" rx="22" fill="url(#bg)"/>
  <circle cx="552.2" cy="163.2" r="153.6" fill="url(#halo)"/>
  <path d="M 56.6 345.6 C 198.2 120.0, 382.3 412.8, 651.4 134.4" fill="none" stroke="#073B4C" stroke-opacity="0.16" stroke-width="3"/>
  <polyline points="0.0,240.4 88.5,294.4 177.0,309.6 265.5,266.7 354.0,220.3 442.5,229.6 531.0,282.8 619.5,312.0 708.0,280.0" fill="none" stroke="#00A6FB" stroke-opacity="0.34" stroke-width="4" stroke-linecap="round"/>
  <line x1="181.81" y1="139.97" x2="579.99" y2="157.82" stroke="#00A6FB" stroke-opacity="0.24" stroke-width="2"/><line x1="380.9" y1="297.7" x2="241.0" y2="315.55" stroke="#00A6FB" stroke-opacity="0.24" stroke-width="2"/><line x1="579.99" y1="157.82" x2="440.09" y2="175.68" stroke="#00A6FB" stroke-opacity="0.24" stroke-width="2"/><line x1="241.0" y1="315.55" x2="101.1" y2="333.41" stroke="#00A6FB" stroke-opacity="0.24" stroke-width="2"/><line x1="440.09" y1="175.68" x2="300.19" y2="193.54" stroke="#00A6FB" stroke-opacity="0.24" stroke-width="2"/><line x1="300.19" y1="193.54" x2="160.29" y2="211.39" stroke="#00A6FB" stroke-opacity="0.24" stroke-width="2"/>
  <circle cx="181.81" cy="139.97" r="3" fill="#00A6FB" fill-opacity="0.35"/><circle cx="380.9" cy="297.7" r="4" fill="#00A6FB" fill-opacity="0.40"/><circle cx="579.99" cy="157.82" r="5" fill="#00A6FB" fill-opacity="0.45"/><circle cx="241.0" cy="315.55" r="3" fill="#00A6FB" fill-opacity="0.50"/><circle cx="440.09" cy="175.68" r="4" fill="#00A6FB" fill-opacity="0.35"/><circle cx="101.1" cy="333.41" r="5" fill="#00A6FB" fill-opacity="0.40"/><circle cx="300.19" cy="193.54" r="3" fill="#00A6FB" fill-opacity="0.45"/><circle cx="499.28" cy="351.26" r="4" fill="#00A6FB" fill-opacity="0.50"/><circle cx="160.29" cy="211.39" r="5" fill="#00A6FB" fill-opacity="0.35"/>
  <rect x="53.1" y="57.6" width="127.4" height="86.4" rx="18" fill="#00A6FB" fill-opacity="0.16"/>
  <circle cx="594.7" cy="345.6" r="76.8" fill="#FFFFFF" fill-opacity="0.36" stroke="#073B4C" stroke-opacity="0.10"/>
  <text x="56.6" y="422.4" font-family="Inter, Arial, sans-serif" font-size="43" font-weight="700" fill="#073B4C" fill-opacity="0.72">ENTP-A</text>
  <text x="56.6" y="476.1" font-family="Inter, Arial, sans-serif" font-size="22" font-weight="500" fill="#073B4C" fill-opacity="0.48">identity lattice · A</text>
</svg>
