<svg xmlns="http://www.w3.org/2000/svg" width="1272" height="296" viewBox="0 0 1272 296" role="img" aria-labelledby="title desc">
  <title id="title">ENTP-A Relationships illustration</title>
  <desc id="desc">Abstract relationship orbit map for the ENTP-A MBTI desktop result module.</desc>
  <defs>
    <linearGradient id="bg" x1="0" x2="1" y1="0" y2="1">
      <stop offset="0" stop-color="#D9F3FF" stop-opacity="0.92"/>
      <stop offset="0.55" stop-color="#FFFFFF" stop-opacity="0.96"/>
      <stop offset="1" stop-color="#00A6FB" stop-opacity="0.14"/>
    </linearGradient>
    <radialGradient id="halo" cx="74%" cy="35%" r="48%">
      <stop offset="0" stop-color="#00A6FB" stop-opacity="0.26"/>
      <stop offset="1" stop-color="#00A6FB" stop-opacity="0"/>
    </radialGradient>
    <filter id="soft"><feGaussianBlur stdDeviation="18"/></filter>
  </defs>
  <rect width="1272" height="296" rx="22" fill="url(#bg)"/>
  <circle cx="992.2" cy="100.6" r="94.7" fill="url(#halo)"/>
  <path d="M 101.8 213.1 C 356.2 74.0, 686.9 254.6, 1170.2 82.9" fill="none" stroke="#073B4C" stroke-opacity="0.16" stroke-width="3"/>
  <polyline points="0.0,155.7 159.0,187.0 318.0,187.4 477.0,156.4 636.0,133.6 795.0,148.0 954.0,181.3 1113.0,191.0 1272.0,164.8" fill="none" stroke="#00A6FB" stroke-opacity="0.34" stroke-width="4" stroke-linecap="round"/>
  <line x1="162.31" y1="55.12" x2="877.68" y2="66.13" stroke="#00A6FB" stroke-opacity="0.24" stroke-width="2"/><line x1="519.99" y1="152.38" x2="268.65" y2="163.39" stroke="#00A6FB" stroke-opacity="0.24" stroke-width="2"/><line x1="877.68" y1="66.13" x2="626.33" y2="77.14" stroke="#00A6FB" stroke-opacity="0.24" stroke-width="2"/><line x1="268.65" y1="163.39" x2="984.02" y2="174.4" stroke="#00A6FB" stroke-opacity="0.24" stroke-width="2"/><line x1="984.02" y1="174.4" x2="732.67" y2="185.41" stroke="#00A6FB" stroke-opacity="0.24" stroke-width="2"/><line x1="732.67" y1="185.41" x2="162.31" y2="55.12" stroke="#00A6FB" stroke-opacity="0.24" stroke-width="2"/>
  <circle cx="162.31" cy="55.12" r="3" fill="#00A6FB" fill-opacity="0.35"/><circle cx="519.99" cy="152.38" r="4" fill="#00A6FB" fill-opacity="0.40"/><circle cx="877.68" cy="66.13" r="5" fill="#00A6FB" fill-opacity="0.45"/><circle cx="268.65" cy="163.39" r="3" fill="#00A6FB" fill-opacity="0.50"/><circle cx="626.33" cy="77.14" r="4" fill="#00A6FB" fill-opacity="0.35"/><circle cx="984.02" cy="174.4" r="5" fill="#00A6FB" fill-opacity="0.40"/><circle cx="374.99" cy="88.15" r="3" fill="#00A6FB" fill-opacity="0.45"/><circle cx="732.67" cy="185.41" r="4" fill="#00A6FB" fill-opacity="0.50"/><circle cx="1090.36" cy="99.16" r="5" fill="#00A6FB" fill-opacity="0.35"/>
  <rect x="95.4" y="35.5" width="229.0" height="53.3" rx="18" fill="#00A6FB" fill-opacity="0.16"/>
  <circle cx="1068.5" cy="213.1" r="47.4" fill="#FFFFFF" fill-opacity="0.36" stroke="#073B4C" stroke-opacity="0.10"/>
  <text x="101.8" y="260.5" font-family="Inter, Arial, sans-serif" font-size="27" font-weight="700" fill="#073B4C" fill-opacity="0.72">ENTP-A</text>
  <text x="101.8" y="294.2" font-family="Inter, Arial, sans-serif" font-size="13" font-weight="500" fill="#073B4C" fill-opacity="0.48">relationship orbit map · A</text>
</svg>
