<svg xmlns="http://www.w3.org/2000/svg" width="1272" height="296" viewBox="0 0 1272 296" role="img" aria-labelledby="title desc">
  <title id="title">ENTP-A Traits axis illustration</title>
  <desc id="desc">Abstract axis map for the ENTP-A MBTI desktop result module.</desc>
  <defs>
    <linearGradient id="bg" x1="0" x2="1" y1="0" y2="1">
      <stop offset="0" stop-color="#D9F3FF" stop-opacity="0.92"/>
      <stop offset="0.55" stop-color="#FFFFFF" stop-opacity="0.96"/>
      <stop offset="1" stop-color="#00A6FB" stop-opacity="0.14"/>
    </linearGradient>
    <radialGradient id="halo" cx="74%" cy="35%" r="48%">
      <stop offset="0" stop-color="#00A6FB" stop-opacity="0.26"/>
      <stop offset="1" stop-color="#00A6FB" stop-opacity="0"/>
    </radialGradient>
    <filter id="soft"><feGaussianBlur stdDeviation="18"/></filter>
  </defs>
  <rect width="1272" height="296" rx="22" fill="url(#bg)"/>
  <circle cx="992.2" cy="100.6" r="94.7" fill="url(#halo)"/>
  <path d="M 101.8 213.1 C 356.2 74.0, 686.9 254.6, 1170.2 82.9" fill="none" stroke="#073B4C" stroke-opacity="0.16" stroke-width="3"/>
  <polyline points="0.0,156.2 159.0,133.5 318.0,148.2 477.0,181.5 636.0,191.0 795.0,164.5 954.0,135.9 1113.0,141.6 1272.0,174.3" fill="none" stroke="#00A6FB" stroke-opacity="0.34" stroke-width="4" stroke-linecap="round"/>
  <line x1="645.67" y1="146.88" x2="394.32" y2="157.89" stroke="#00A6FB" stroke-opacity="0.24" stroke-width="2"/><line x1="1003.35" y1="60.62" x2="752.01" y2="71.63" stroke="#00A6FB" stroke-opacity="0.24" stroke-width="2"/><line x1="394.32" y1="157.89" x2="1109.69" y2="168.9" stroke="#00A6FB" stroke-opacity="0.24" stroke-width="2"/><line x1="752.01" y1="71.63" x2="500.66" y2="82.64" stroke="#00A6FB" stroke-opacity="0.24" stroke-width="2"/><line x1="500.66" y1="82.64" x2="249.31" y2="93.65" stroke="#00A6FB" stroke-opacity="0.24" stroke-width="2"/><line x1="249.31" y1="93.65" x2="645.67" y2="146.88" stroke="#00A6FB" stroke-opacity="0.24" stroke-width="2"/>
  <circle cx="645.67" cy="146.88" r="3" fill="#00A6FB" fill-opacity="0.35"/><circle cx="1003.35" cy="60.62" r="4" fill="#00A6FB" fill-opacity="0.40"/><circle cx="394.32" cy="157.89" r="5" fill="#00A6FB" fill-opacity="0.45"/><circle cx="752.01" cy="71.63" r="3" fill="#00A6FB" fill-opacity="0.50"/><circle cx="1109.69" cy="168.9" r="4" fill="#00A6FB" fill-opacity="0.35"/><circle cx="500.66" cy="82.64" r="5" fill="#00A6FB" fill-opacity="0.40"/><circle cx="858.35" cy="179.91" r="3" fill="#00A6FB" fill-opacity="0.45"/><circle cx="249.31" cy="93.65" r="4" fill="#00A6FB" fill-opacity="0.50"/><circle cx="607.0" cy="190.92" r="5" fill="#00A6FB" fill-opacity="0.35"/>
  <rect x="95.4" y="35.5" width="229.0" height="53.3" rx="18" fill="#00A6FB" fill-opacity="0.16"/>
  <circle cx="1068.5" cy="213.1" r="47.4" fill="#FFFFFF" fill-opacity="0.36" stroke="#073B4C" stroke-opacity="0.10"/>
  <text x="101.8" y="260.5" font-family="Inter, Arial, sans-serif" font-size="27" font-weight="700" fill="#073B4C" fill-opacity="0.72">ENTP-A</text>
  <text x="101.8" y="294.2" font-family="Inter, Arial, sans-serif" font-size="13" font-weight="500" fill="#073B4C" fill-opacity="0.48">axis map · A</text>
</svg>
