<svg xmlns="http://www.w3.org/2000/svg" width="720" height="354" viewBox="0 0 720 354" role="img" aria-labelledby="title desc">
  <title id="title">ENTP-A Traits summary illustration</title>
  <desc id="desc">Abstract trait signal card for the ENTP-A MBTI desktop result module.</desc>
  <defs>
    <linearGradient id="bg" x1="0" x2="1" y1="0" y2="1">
      <stop offset="0" stop-color="#D9F3FF" stop-opacity="0.92"/>
      <stop offset="0.55" stop-color="#FFFFFF" stop-opacity="0.96"/>
      <stop offset="1" stop-color="#00A6FB" stop-opacity="0.14"/>
    </linearGradient>
    <radialGradient id="halo" cx="74%" cy="35%" r="48%">
      <stop offset="0" stop-color="#00A6FB" stop-opacity="0.26"/>
      <stop offset="1" stop-color="#00A6FB" stop-opacity="0"/>
    </radialGradient>
    <filter id="soft"><feGaussianBlur stdDeviation="18"/></filter>
  </defs>
  <rect width="720" height="354" rx="22" fill="url(#bg)"/>
  <circle cx="561.6" cy="120.4" r="113.3" fill="url(#halo)"/>
  <path d="M 57.6 254.9 C 201.6 88.5, 388.8 304.4, 662.4 99.1" fill="none" stroke="#073B4C" stroke-opacity="0.16" stroke-width="3"/>
  <polyline points="0.0,163.3 90.0,198.6 180.0,228.9 270.0,215.6 360.0,175.6 450.0,160.0 540.0,188.6 630.0,225.0 720.0,222.7" fill="none" stroke="#00A6FB" stroke-opacity="0.34" stroke-width="4" stroke-linecap="round"/>
  <line x1="513.22" y1="234.91" x2="370.94" y2="248.08" stroke="#00A6FB" stroke-opacity="0.24" stroke-width="2"/><line x1="168.48" y1="131.76" x2="573.41" y2="144.93" stroke="#00A6FB" stroke-opacity="0.24" stroke-width="2"/><line x1="370.94" y1="248.08" x2="228.67" y2="261.25" stroke="#00A6FB" stroke-opacity="0.24" stroke-width="2"/><line x1="573.41" y1="144.93" x2="431.14" y2="158.1" stroke="#00A6FB" stroke-opacity="0.24" stroke-width="2"/><line x1="228.67" y1="261.25" x2="86.4" y2="274.42" stroke="#00A6FB" stroke-opacity="0.24" stroke-width="2"/><line x1="86.4" y1="274.42" x2="491.33" y2="68.11" stroke="#00A6FB" stroke-opacity="0.24" stroke-width="2"/>
  <circle cx="513.22" cy="234.91" r="3" fill="#00A6FB" fill-opacity="0.35"/><circle cx="168.48" cy="131.76" r="4" fill="#00A6FB" fill-opacity="0.40"/><circle cx="370.94" cy="248.08" r="5" fill="#00A6FB" fill-opacity="0.45"/><circle cx="573.41" cy="144.93" r="3" fill="#00A6FB" fill-opacity="0.50"/><circle cx="228.67" cy="261.25" r="4" fill="#00A6FB" fill-opacity="0.35"/><circle cx="431.14" cy="158.1" r="5" fill="#00A6FB" fill-opacity="0.40"/><circle cx="86.4" cy="274.42" r="3" fill="#00A6FB" fill-opacity="0.45"/><circle cx="288.86" cy="171.27" r="4" fill="#00A6FB" fill-opacity="0.50"/><circle cx="491.33" cy="68.11" r="5" fill="#00A6FB" fill-opacity="0.35"/>
  <rect x="54.0" y="42.5" width="129.6" height="63.7" rx="18" fill="#00A6FB" fill-opacity="0.16"/>
  <circle cx="604.8" cy="254.9" r="56.6" fill="#FFFFFF" fill-opacity="0.36" stroke="#073B4C" stroke-opacity="0.10"/>
  <text x="57.6" y="311.5" font-family="Inter, Arial, sans-serif" font-size="32" font-weight="700" fill="#073B4C" fill-opacity="0.72">ENTP-A</text>
  <text x="57.6" y="351.5" font-family="Inter, Arial, sans-serif" font-size="16" font-weight="500" fill="#073B4C" fill-opacity="0.48">trait signal card · A</text>
</svg>
