<svg xmlns="http://www.w3.org/2000/svg" width="756" height="660" viewBox="0 0 756 660" role="img" aria-labelledby="title desc">
  <title id="title">INTJ-T Final offer illustration</title>
  <desc id="desc">Abstract report unlock panel for the INTJ-T MBTI desktop result module.</desc>
  <defs>
    <linearGradient id="bg" x1="0" x2="1" y1="0" y2="1">
      <stop offset="0" stop-color="#DDE1FF" stop-opacity="0.92"/>
      <stop offset="0.55" stop-color="#FFFFFF" stop-opacity="0.96"/>
      <stop offset="1" stop-color="#6C63FF" stop-opacity="0.14"/>
    </linearGradient>
    <radialGradient id="halo" cx="74%" cy="35%" r="48%">
      <stop offset="0" stop-color="#6C63FF" stop-opacity="0.26"/>
      <stop offset="1" stop-color="#6C63FF" stop-opacity="0"/>
    </radialGradient>
    <filter id="soft"><feGaussianBlur stdDeviation="18"/></filter>
  </defs>
  <rect width="756" height="660" rx="22" fill="url(#bg)"/>
  <circle cx="589.7" cy="224.4" r="211.2" fill="url(#halo)"/>
  <path d="M 60.5 475.2 C 211.7 165.0, 408.2 567.6, 695.5 184.8" fill="none" stroke="#1D1B4F" stroke-opacity="0.16" stroke-width="3"/>
  <polyline points="0.0,323.4 94.5,299.4 189.0,356.5 283.5,421.9 378.0,412.1 472.5,339.7 567.0,297.0 661.5,338.4 756.0,411.2" fill="none" stroke="#6C63FF" stroke-opacity="0.34" stroke-width="4" stroke-linecap="round"/>
  <line x1="102.21" y1="126.98" x2="527.39" y2="151.54" stroke="#6C63FF" stroke-opacity="0.24" stroke-width="2"/><line x1="314.8" y1="343.86" x2="165.41" y2="368.41" stroke="#6C63FF" stroke-opacity="0.24" stroke-width="2"/><line x1="527.39" y1="151.54" x2="378.0" y2="176.09" stroke="#6C63FF" stroke-opacity="0.24" stroke-width="2"/><line x1="165.41" y1="368.41" x2="590.59" y2="392.96" stroke="#6C63FF" stroke-opacity="0.24" stroke-width="2"/><line x1="378.0" y1="176.09" x2="228.61" y2="200.64" stroke="#6C63FF" stroke-opacity="0.24" stroke-width="2"/><line x1="228.61" y1="200.64" x2="653.79" y2="225.19" stroke="#6C63FF" stroke-opacity="0.24" stroke-width="2"/>
  <circle cx="102.21" cy="126.98" r="3" fill="#6C63FF" fill-opacity="0.35"/><circle cx="314.8" cy="343.86" r="4" fill="#6C63FF" fill-opacity="0.40"/><circle cx="527.39" cy="151.54" r="5" fill="#6C63FF" fill-opacity="0.45"/><circle cx="165.41" cy="368.41" r="3" fill="#6C63FF" fill-opacity="0.50"/><circle cx="378.0" cy="176.09" r="4" fill="#6C63FF" fill-opacity="0.35"/><circle cx="590.59" cy="392.96" r="5" fill="#6C63FF" fill-opacity="0.40"/><circle cx="228.61" cy="200.64" r="3" fill="#6C63FF" fill-opacity="0.45"/><circle cx="441.2" cy="417.52" r="4" fill="#6C63FF" fill-opacity="0.50"/><circle cx="653.79" cy="225.19" r="5" fill="#6C63FF" fill-opacity="0.35"/>
  <rect x="56.7" y="79.2" width="136.1" height="118.8" rx="18" fill="#6C63FF" fill-opacity="0.16"/>
  <circle cx="635.0" cy="475.2" r="105.6" fill="#FFFFFF" fill-opacity="0.36" stroke="#1D1B4F" stroke-opacity="0.10"/>
  <text x="60.5" y="580.8" font-family="Inter, Arial, sans-serif" font-size="59" font-weight="700" fill="#1D1B4F" fill-opacity="0.72">INTJ-T</text>
  <text x="60.5" y="654.5" font-family="Inter, Arial, sans-serif" font-size="30" font-weight="500" fill="#1D1B4F" fill-opacity="0.48">report unlock panel · T</text>
</svg>
