<svg xmlns="http://www.w3.org/2000/svg" width="1272" height="296" viewBox="0 0 1272 296" role="img" aria-labelledby="title desc">
  <title id="title">INTJ-T Growth path illustration</title>
  <desc id="desc">Abstract growth rhythm map for the INTJ-T MBTI desktop result module.</desc>
  <defs>
    <linearGradient id="bg" x1="0" x2="1" y1="0" y2="1">
      <stop offset="0" stop-color="#DDE1FF" stop-opacity="0.92"/>
      <stop offset="0.55" stop-color="#FFFFFF" stop-opacity="0.96"/>
      <stop offset="1" stop-color="#6C63FF" stop-opacity="0.14"/>
    </linearGradient>
    <radialGradient id="halo" cx="74%" cy="35%" r="48%">
      <stop offset="0" stop-color="#6C63FF" stop-opacity="0.26"/>
      <stop offset="1" stop-color="#6C63FF" stop-opacity="0"/>
    </radialGradient>
    <filter id="soft"><feGaussianBlur stdDeviation="18"/></filter>
  </defs>
  <rect width="1272" height="296" rx="22" fill="url(#bg)"/>
  <circle cx="992.2" cy="100.6" r="94.7" fill="url(#halo)"/>
  <path d="M 101.8 213.1 C 356.2 74.0, 686.9 254.6, 1170.2 82.9" fill="none" stroke="#1D1B4F" stroke-opacity="0.16" stroke-width="3"/>
  <polyline points="0.0,133.5 159.0,155.9 318.0,187.1 477.0,187.3 636.0,156.2 795.0,133.5 954.0,148.1 1113.0,181.5 1272.0,191.0" fill="none" stroke="#6C63FF" stroke-opacity="0.34" stroke-width="4" stroke-linecap="round"/>
  <line x1="848.68" y1="185.41" x2="597.33" y2="196.43" stroke="#6C63FF" stroke-opacity="0.24" stroke-width="2"/><line x1="239.64" y1="99.16" x2="955.02" y2="110.17" stroke="#6C63FF" stroke-opacity="0.24" stroke-width="2"/><line x1="597.33" y1="196.43" x2="345.98" y2="207.44" stroke="#6C63FF" stroke-opacity="0.24" stroke-width="2"/><line x1="955.02" y1="110.17" x2="703.67" y2="121.18" stroke="#6C63FF" stroke-opacity="0.24" stroke-width="2"/><line x1="345.98" y1="207.44" x2="1061.36" y2="218.45" stroke="#6C63FF" stroke-opacity="0.24" stroke-width="2"/><line x1="1061.36" y1="218.45" x2="810.01" y2="229.46" stroke="#6C63FF" stroke-opacity="0.24" stroke-width="2"/>
  <circle cx="848.68" cy="185.41" r="3" fill="#6C63FF" fill-opacity="0.35"/><circle cx="239.64" cy="99.16" r="4" fill="#6C63FF" fill-opacity="0.40"/><circle cx="597.33" cy="196.43" r="5" fill="#6C63FF" fill-opacity="0.45"/><circle cx="955.02" cy="110.17" r="3" fill="#6C63FF" fill-opacity="0.50"/><circle cx="345.98" cy="207.44" r="4" fill="#6C63FF" fill-opacity="0.35"/><circle cx="703.67" cy="121.18" r="5" fill="#6C63FF" fill-opacity="0.40"/><circle cx="1061.36" cy="218.45" r="3" fill="#6C63FF" fill-opacity="0.45"/><circle cx="452.32" cy="132.19" r="4" fill="#6C63FF" fill-opacity="0.50"/><circle cx="810.01" cy="229.46" r="5" fill="#6C63FF" fill-opacity="0.35"/>
  <rect x="95.4" y="35.5" width="229.0" height="53.3" rx="18" fill="#6C63FF" fill-opacity="0.16"/>
  <circle cx="1068.5" cy="213.1" r="47.4" fill="#FFFFFF" fill-opacity="0.36" stroke="#1D1B4F" stroke-opacity="0.10"/>
  <text x="101.8" y="260.5" font-family="Inter, Arial, sans-serif" font-size="27" font-weight="700" fill="#1D1B4F" fill-opacity="0.72">INTJ-T</text>
  <text x="101.8" y="294.2" font-family="Inter, Arial, sans-serif" font-size="13" font-weight="500" fill="#1D1B4F" fill-opacity="0.48">growth rhythm map · T</text>
</svg>
