<svg xmlns="http://www.w3.org/2000/svg" width="708" height="480" viewBox="0 0 708 480" role="img" aria-labelledby="title desc">
  <title id="title">INTJ-T Hero identity illustration</title>
  <desc id="desc">Abstract identity lattice for the INTJ-T MBTI desktop result module.</desc>
  <defs>
    <linearGradient id="bg" x1="0" x2="1" y1="0" y2="1">
      <stop offset="0" stop-color="#DDE1FF" stop-opacity="0.92"/>
      <stop offset="0.55" stop-color="#FFFFFF" stop-opacity="0.96"/>
      <stop offset="1" stop-color="#6C63FF" stop-opacity="0.14"/>
    </linearGradient>
    <radialGradient id="halo" cx="74%" cy="35%" r="48%">
      <stop offset="0" stop-color="#6C63FF" stop-opacity="0.26"/>
      <stop offset="1" stop-color="#6C63FF" stop-opacity="0"/>
    </radialGradient>
    <filter id="soft"><feGaussianBlur stdDeviation="18"/></filter>
  </defs>
  <rect width="708" height="480" rx="22" fill="url(#bg)"/>
  <circle cx="552.2" cy="163.2" r="153.6" fill="url(#halo)"/>
  <path d="M 56.6 345.6 C 198.2 120.0, 382.3 412.8, 651.4 134.4" fill="none" stroke="#1D1B4F" stroke-opacity="0.16" stroke-width="3"/>
  <polyline points="0.0,294.4 88.5,309.6 177.0,266.7 265.5,220.3 354.0,229.6 442.5,282.8 531.0,312.0 619.5,280.0 708.0,227.6" fill="none" stroke="#6C63FF" stroke-opacity="0.34" stroke-width="4" stroke-linecap="round"/>
  <line x1="273.29" y1="190.56" x2="133.39" y2="208.42" stroke="#6C63FF" stroke-opacity="0.24" stroke-width="2"/><line x1="472.38" y1="348.29" x2="332.48" y2="366.14" stroke="#6C63FF" stroke-opacity="0.24" stroke-width="2"/><line x1="133.39" y1="208.42" x2="531.57" y2="226.27" stroke="#6C63FF" stroke-opacity="0.24" stroke-width="2"/><line x1="332.48" y1="366.14" x2="192.58" y2="86.4" stroke="#6C63FF" stroke-opacity="0.24" stroke-width="2"/><line x1="192.58" y1="86.4" x2="590.76" y2="104.26" stroke="#6C63FF" stroke-opacity="0.24" stroke-width="2"/><line x1="590.76" y1="104.26" x2="273.29" y2="190.56" stroke="#6C63FF" stroke-opacity="0.24" stroke-width="2"/>
  <circle cx="273.29" cy="190.56" r="3" fill="#6C63FF" fill-opacity="0.35"/><circle cx="472.38" cy="348.29" r="4" fill="#6C63FF" fill-opacity="0.40"/><circle cx="133.39" cy="208.42" r="5" fill="#6C63FF" fill-opacity="0.45"/><circle cx="332.48" cy="366.14" r="3" fill="#6C63FF" fill-opacity="0.50"/><circle cx="531.57" cy="226.27" r="4" fill="#6C63FF" fill-opacity="0.35"/><circle cx="192.58" cy="86.4" r="5" fill="#6C63FF" fill-opacity="0.40"/><circle cx="391.67" cy="244.13" r="3" fill="#6C63FF" fill-opacity="0.45"/><circle cx="590.76" cy="104.26" r="4" fill="#6C63FF" fill-opacity="0.50"/><circle cx="251.76" cy="261.98" r="5" fill="#6C63FF" fill-opacity="0.35"/>
  <rect x="53.1" y="57.6" width="127.4" height="86.4" rx="18" fill="#6C63FF" fill-opacity="0.16"/>
  <circle cx="594.7" cy="345.6" r="76.8" fill="#FFFFFF" fill-opacity="0.36" stroke="#1D1B4F" stroke-opacity="0.10"/>
  <text x="56.6" y="422.4" font-family="Inter, Arial, sans-serif" font-size="43" font-weight="700" fill="#1D1B4F" fill-opacity="0.72">INTJ-T</text>
  <text x="56.6" y="476.1" font-family="Inter, Arial, sans-serif" font-size="22" font-weight="500" fill="#1D1B4F" fill-opacity="0.48">identity lattice · T</text>
</svg>
