<svg xmlns="http://www.w3.org/2000/svg" width="720" height="354" viewBox="0 0 720 354" role="img" aria-labelledby="title desc">
  <title id="title">INTJ-T Traits summary illustration</title>
  <desc id="desc">Abstract trait signal card for the INTJ-T MBTI desktop result module.</desc>
  <defs>
    <linearGradient id="bg" x1="0" x2="1" y1="0" y2="1">
      <stop offset="0" stop-color="#DDE1FF" stop-opacity="0.92"/>
      <stop offset="0.55" stop-color="#FFFFFF" stop-opacity="0.96"/>
      <stop offset="1" stop-color="#6C63FF" stop-opacity="0.14"/>
    </linearGradient>
    <radialGradient id="halo" cx="74%" cy="35%" r="48%">
      <stop offset="0" stop-color="#6C63FF" stop-opacity="0.26"/>
      <stop offset="1" stop-color="#6C63FF" stop-opacity="0"/>
    </radialGradient>
    <filter id="soft"><feGaussianBlur stdDeviation="18"/></filter>
  </defs>
  <rect width="720" height="354" rx="22" fill="url(#bg)"/>
  <circle cx="561.6" cy="120.4" r="113.3" fill="url(#halo)"/>
  <path d="M 57.6 254.9 C 201.6 88.5, 388.8 304.4, 662.4 99.1" fill="none" stroke="#1D1B4F" stroke-opacity="0.16" stroke-width="3"/>
  <polyline points="0.0,198.6 90.0,228.9 180.0,215.6 270.0,175.6 360.0,160.0 450.0,188.6 540.0,225.0 630.0,222.7 720.0,184.7" fill="none" stroke="#6C63FF" stroke-opacity="0.34" stroke-width="4" stroke-linecap="round"/>
  <line x1="606.24" y1="272.23" x2="463.97" y2="65.91" stroke="#6C63FF" stroke-opacity="0.24" stroke-width="2"/><line x1="261.5" y1="169.07" x2="119.23" y2="182.24" stroke="#6C63FF" stroke-opacity="0.24" stroke-width="2"/><line x1="463.97" y1="65.91" x2="321.7" y2="79.08" stroke="#6C63FF" stroke-opacity="0.24" stroke-width="2"/><line x1="119.23" y1="182.24" x2="524.16" y2="195.41" stroke="#6C63FF" stroke-opacity="0.24" stroke-width="2"/><line x1="524.16" y1="195.41" x2="381.89" y2="208.58" stroke="#6C63FF" stroke-opacity="0.24" stroke-width="2"/><line x1="381.89" y1="208.58" x2="606.24" y2="272.23" stroke="#6C63FF" stroke-opacity="0.24" stroke-width="2"/>
  <circle cx="606.24" cy="272.23" r="3" fill="#6C63FF" fill-opacity="0.35"/><circle cx="261.5" cy="169.07" r="4" fill="#6C63FF" fill-opacity="0.40"/><circle cx="463.97" cy="65.91" r="5" fill="#6C63FF" fill-opacity="0.45"/><circle cx="119.23" cy="182.24" r="3" fill="#6C63FF" fill-opacity="0.50"/><circle cx="321.7" cy="79.08" r="4" fill="#6C63FF" fill-opacity="0.35"/><circle cx="524.16" cy="195.41" r="5" fill="#6C63FF" fill-opacity="0.40"/><circle cx="179.42" cy="92.25" r="3" fill="#6C63FF" fill-opacity="0.45"/><circle cx="381.89" cy="208.58" r="4" fill="#6C63FF" fill-opacity="0.50"/><circle cx="584.35" cy="105.42" r="5" fill="#6C63FF" fill-opacity="0.35"/>
  <rect x="54.0" y="42.5" width="129.6" height="63.7" rx="18" fill="#6C63FF" fill-opacity="0.16"/>
  <circle cx="604.8" cy="254.9" r="56.6" fill="#FFFFFF" fill-opacity="0.36" stroke="#1D1B4F" stroke-opacity="0.10"/>
  <text x="57.6" y="311.5" font-family="Inter, Arial, sans-serif" font-size="32" font-weight="700" fill="#1D1B4F" fill-opacity="0.72">INTJ-T</text>
  <text x="57.6" y="351.5" font-family="Inter, Arial, sans-serif" font-size="16" font-weight="500" fill="#1D1B4F" fill-opacity="0.48">trait signal card · T</text>
</svg>
