<svg xmlns="http://www.w3.org/2000/svg" width="1272" height="296" viewBox="0 0 1272 296" role="img" aria-labelledby="title desc">
  <title id="title">INTP-T Career path illustration</title>
  <desc id="desc">Abstract career path map for the INTP-T MBTI desktop result module.</desc>
  <defs>
    <linearGradient id="bg" x1="0" x2="1" y1="0" y2="1">
      <stop offset="0" stop-color="#D9E9FF" stop-opacity="0.92"/>
      <stop offset="0.55" stop-color="#FFFFFF" stop-opacity="0.96"/>
      <stop offset="1" stop-color="#4F8BFF" stop-opacity="0.14"/>
    </linearGradient>
    <radialGradient id="halo" cx="74%" cy="35%" r="48%">
      <stop offset="0" stop-color="#4F8BFF" stop-opacity="0.26"/>
      <stop offset="1" stop-color="#4F8BFF" stop-opacity="0"/>
    </radialGradient>
    <filter id="soft"><feGaussianBlur stdDeviation="18"/></filter>
  </defs>
  <rect width="1272" height="296" rx="22" fill="url(#bg)"/>
  <circle cx="992.2" cy="100.6" r="94.7" fill="url(#halo)"/>
  <path d="M 101.8 213.1 C 356.2 74.0, 686.9 254.6, 1170.2 82.9" fill="none" stroke="#0D284D" stroke-opacity="0.16" stroke-width="3"/>
  <polyline points="0.0,183.3 159.0,150.3 318.0,133.3 477.0,153.9 636.0,185.9 795.0,188.4 954.0,158.3 1113.0,133.9 1272.0,146.4" fill="none" stroke="#4F8BFF" stroke-opacity="0.34" stroke-width="4" stroke-linecap="round"/>
  <line x1="510.33" y1="121.18" x2="258.98" y2="132.19" stroke="#4F8BFF" stroke-opacity="0.24" stroke-width="2"/><line x1="868.01" y1="218.45" x2="616.67" y2="229.46" stroke="#4F8BFF" stroke-opacity="0.24" stroke-width="2"/><line x1="258.98" y1="132.19" x2="974.35" y2="143.2" stroke="#4F8BFF" stroke-opacity="0.24" stroke-width="2"/><line x1="616.67" y1="229.46" x2="365.32" y2="56.95" stroke="#4F8BFF" stroke-opacity="0.24" stroke-width="2"/><line x1="365.32" y1="56.95" x2="1080.69" y2="67.96" stroke="#4F8BFF" stroke-opacity="0.24" stroke-width="2"/><line x1="1080.69" y1="67.96" x2="510.33" y2="121.18" stroke="#4F8BFF" stroke-opacity="0.24" stroke-width="2"/>
  <circle cx="510.33" cy="121.18" r="3" fill="#4F8BFF" fill-opacity="0.35"/><circle cx="868.01" cy="218.45" r="4" fill="#4F8BFF" fill-opacity="0.40"/><circle cx="258.98" cy="132.19" r="5" fill="#4F8BFF" fill-opacity="0.45"/><circle cx="616.67" cy="229.46" r="3" fill="#4F8BFF" fill-opacity="0.50"/><circle cx="974.35" cy="143.2" r="4" fill="#4F8BFF" fill-opacity="0.35"/><circle cx="365.32" cy="56.95" r="5" fill="#4F8BFF" fill-opacity="0.40"/><circle cx="723.0" cy="154.22" r="3" fill="#4F8BFF" fill-opacity="0.45"/><circle cx="1080.69" cy="67.96" r="4" fill="#4F8BFF" fill-opacity="0.50"/><circle cx="471.66" cy="165.23" r="5" fill="#4F8BFF" fill-opacity="0.35"/>
  <rect x="95.4" y="35.5" width="229.0" height="53.3" rx="18" fill="#4F8BFF" fill-opacity="0.16"/>
  <circle cx="1068.5" cy="213.1" r="47.4" fill="#FFFFFF" fill-opacity="0.36" stroke="#0D284D" stroke-opacity="0.10"/>
  <text x="101.8" y="260.5" font-family="Inter, Arial, sans-serif" font-size="27" font-weight="700" fill="#0D284D" fill-opacity="0.72">INTP-T</text>
  <text x="101.8" y="294.2" font-family="Inter, Arial, sans-serif" font-size="13" font-weight="500" fill="#0D284D" fill-opacity="0.48">career path map · T</text>
</svg>
