<svg xmlns="http://www.w3.org/2000/svg" width="756" height="660" viewBox="0 0 756 660" role="img" aria-labelledby="title desc">
  <title id="title">INTP-T Final offer illustration</title>
  <desc id="desc">Abstract report unlock panel for the INTP-T MBTI desktop result module.</desc>
  <defs>
    <linearGradient id="bg" x1="0" x2="1" y1="0" y2="1">
      <stop offset="0" stop-color="#D9E9FF" stop-opacity="0.92"/>
      <stop offset="0.55" stop-color="#FFFFFF" stop-opacity="0.96"/>
      <stop offset="1" stop-color="#4F8BFF" stop-opacity="0.14"/>
    </linearGradient>
    <radialGradient id="halo" cx="74%" cy="35%" r="48%">
      <stop offset="0" stop-color="#4F8BFF" stop-opacity="0.26"/>
      <stop offset="1" stop-color="#4F8BFF" stop-opacity="0"/>
    </radialGradient>
    <filter id="soft"><feGaussianBlur stdDeviation="18"/></filter>
  </defs>
  <rect width="756" height="660" rx="22" fill="url(#bg)"/>
  <circle cx="589.7" cy="224.4" r="211.2" fill="url(#halo)"/>
  <path d="M 60.5 475.2 C 211.7 165.0, 408.2 567.6, 695.5 184.8" fill="none" stroke="#0D284D" stroke-opacity="0.16" stroke-width="3"/>
  <polyline points="0.0,305.2 94.5,312.4 189.0,384.1 283.5,428.9 378.0,389.7 472.5,316.4 567.0,302.6 661.5,365.8 756.0,425.5" fill="none" stroke="#4F8BFF" stroke-opacity="0.34" stroke-width="4" stroke-linecap="round"/>
  <line x1="136.68" y1="151.54" x2="561.86" y2="176.09" stroke="#4F8BFF" stroke-opacity="0.24" stroke-width="2"/><line x1="349.27" y1="368.41" x2="199.89" y2="392.96" stroke="#4F8BFF" stroke-opacity="0.24" stroke-width="2"/><line x1="561.86" y1="176.09" x2="412.47" y2="200.64" stroke="#4F8BFF" stroke-opacity="0.24" stroke-width="2"/><line x1="199.89" y1="392.96" x2="625.06" y2="417.52" stroke="#4F8BFF" stroke-opacity="0.24" stroke-width="2"/><line x1="412.47" y1="200.64" x2="263.09" y2="225.19" stroke="#4F8BFF" stroke-opacity="0.24" stroke-width="2"/><line x1="263.09" y1="225.19" x2="113.7" y2="249.74" stroke="#4F8BFF" stroke-opacity="0.24" stroke-width="2"/>
  <circle cx="136.68" cy="151.54" r="3" fill="#4F8BFF" fill-opacity="0.35"/><circle cx="349.27" cy="368.41" r="4" fill="#4F8BFF" fill-opacity="0.40"/><circle cx="561.86" cy="176.09" r="5" fill="#4F8BFF" fill-opacity="0.45"/><circle cx="199.89" cy="392.96" r="3" fill="#4F8BFF" fill-opacity="0.50"/><circle cx="412.47" cy="200.64" r="4" fill="#4F8BFF" fill-opacity="0.35"/><circle cx="625.06" cy="417.52" r="5" fill="#4F8BFF" fill-opacity="0.40"/><circle cx="263.09" cy="225.19" r="3" fill="#4F8BFF" fill-opacity="0.45"/><circle cx="475.68" cy="442.07" r="4" fill="#4F8BFF" fill-opacity="0.50"/><circle cx="113.7" cy="249.74" r="5" fill="#4F8BFF" fill-opacity="0.35"/>
  <rect x="56.7" y="79.2" width="136.1" height="118.8" rx="18" fill="#4F8BFF" fill-opacity="0.16"/>
  <circle cx="635.0" cy="475.2" r="105.6" fill="#FFFFFF" fill-opacity="0.36" stroke="#0D284D" stroke-opacity="0.10"/>
  <text x="60.5" y="580.8" font-family="Inter, Arial, sans-serif" font-size="59" font-weight="700" fill="#0D284D" fill-opacity="0.72">INTP-T</text>
  <text x="60.5" y="654.5" font-family="Inter, Arial, sans-serif" font-size="30" font-weight="500" fill="#0D284D" fill-opacity="0.48">report unlock panel · T</text>
</svg>
