<svg xmlns="http://www.w3.org/2000/svg" width="1272" height="296" viewBox="0 0 1272 296" role="img" aria-labelledby="title desc">
  <title id="title">INTP-T Growth path illustration</title>
  <desc id="desc">Abstract growth rhythm map for the INTP-T MBTI desktop result module.</desc>
  <defs>
    <linearGradient id="bg" x1="0" x2="1" y1="0" y2="1">
      <stop offset="0" stop-color="#D9E9FF" stop-opacity="0.92"/>
      <stop offset="0.55" stop-color="#FFFFFF" stop-opacity="0.96"/>
      <stop offset="1" stop-color="#4F8BFF" stop-opacity="0.14"/>
    </linearGradient>
    <radialGradient id="halo" cx="74%" cy="35%" r="48%">
      <stop offset="0" stop-color="#4F8BFF" stop-opacity="0.26"/>
      <stop offset="1" stop-color="#4F8BFF" stop-opacity="0"/>
    </radialGradient>
    <filter id="soft"><feGaussianBlur stdDeviation="18"/></filter>
  </defs>
  <rect width="1272" height="296" rx="22" fill="url(#bg)"/>
  <circle cx="992.2" cy="100.6" r="94.7" fill="url(#halo)"/>
  <path d="M 101.8 213.1 C 356.2 74.0, 686.9 254.6, 1170.2 82.9" fill="none" stroke="#0D284D" stroke-opacity="0.16" stroke-width="3"/>
  <polyline points="0.0,137.7 159.0,168.3 318.0,191.9 477.0,178.4 636.0,145.0 795.0,134.3 954.0,160.0 1113.0,189.3 1272.0,184.8" fill="none" stroke="#4F8BFF" stroke-opacity="0.34" stroke-width="4" stroke-linecap="round"/>
  <line x1="906.68" y1="196.43" x2="655.33" y2="207.44" stroke="#4F8BFF" stroke-opacity="0.24" stroke-width="2"/><line x1="297.65" y1="110.17" x2="1013.02" y2="121.18" stroke="#4F8BFF" stroke-opacity="0.24" stroke-width="2"/><line x1="655.33" y1="207.44" x2="403.99" y2="218.45" stroke="#4F8BFF" stroke-opacity="0.24" stroke-width="2"/><line x1="1013.02" y1="121.18" x2="761.67" y2="132.19" stroke="#4F8BFF" stroke-opacity="0.24" stroke-width="2"/><line x1="403.99" y1="218.45" x2="152.64" y2="229.46" stroke="#4F8BFF" stroke-opacity="0.24" stroke-width="2"/><line x1="152.64" y1="229.46" x2="868.01" y2="56.95" stroke="#4F8BFF" stroke-opacity="0.24" stroke-width="2"/>
  <circle cx="906.68" cy="196.43" r="3" fill="#4F8BFF" fill-opacity="0.35"/><circle cx="297.65" cy="110.17" r="4" fill="#4F8BFF" fill-opacity="0.40"/><circle cx="655.33" cy="207.44" r="5" fill="#4F8BFF" fill-opacity="0.45"/><circle cx="1013.02" cy="121.18" r="3" fill="#4F8BFF" fill-opacity="0.50"/><circle cx="403.99" cy="218.45" r="4" fill="#4F8BFF" fill-opacity="0.35"/><circle cx="761.67" cy="132.19" r="5" fill="#4F8BFF" fill-opacity="0.40"/><circle cx="152.64" cy="229.46" r="3" fill="#4F8BFF" fill-opacity="0.45"/><circle cx="510.33" cy="143.2" r="4" fill="#4F8BFF" fill-opacity="0.50"/><circle cx="868.01" cy="56.95" r="5" fill="#4F8BFF" fill-opacity="0.35"/>
  <rect x="95.4" y="35.5" width="229.0" height="53.3" rx="18" fill="#4F8BFF" fill-opacity="0.16"/>
  <circle cx="1068.5" cy="213.1" r="47.4" fill="#FFFFFF" fill-opacity="0.36" stroke="#0D284D" stroke-opacity="0.10"/>
  <text x="101.8" y="260.5" font-family="Inter, Arial, sans-serif" font-size="27" font-weight="700" fill="#0D284D" fill-opacity="0.72">INTP-T</text>
  <text x="101.8" y="294.2" font-family="Inter, Arial, sans-serif" font-size="13" font-weight="500" fill="#0D284D" fill-opacity="0.48">growth rhythm map · T</text>
</svg>
