<svg xmlns="http://www.w3.org/2000/svg" width="708" height="480" viewBox="0 0 708 480" role="img" aria-labelledby="title desc">
  <title id="title">INTP-T Hero identity illustration</title>
  <desc id="desc">Abstract identity lattice for the INTP-T MBTI desktop result module.</desc>
  <defs>
    <linearGradient id="bg" x1="0" x2="1" y1="0" y2="1">
      <stop offset="0" stop-color="#D9E9FF" stop-opacity="0.92"/>
      <stop offset="0.55" stop-color="#FFFFFF" stop-opacity="0.96"/>
      <stop offset="1" stop-color="#4F8BFF" stop-opacity="0.14"/>
    </linearGradient>
    <radialGradient id="halo" cx="74%" cy="35%" r="48%">
      <stop offset="0" stop-color="#4F8BFF" stop-opacity="0.26"/>
      <stop offset="1" stop-color="#4F8BFF" stop-opacity="0"/>
    </radialGradient>
    <filter id="soft"><feGaussianBlur stdDeviation="18"/></filter>
  </defs>
  <rect width="708" height="480" rx="22" fill="url(#bg)"/>
  <circle cx="552.2" cy="163.2" r="153.6" fill="url(#halo)"/>
  <path d="M 56.6 345.6 C 198.2 120.0, 382.3 412.8, 651.4 134.4" fill="none" stroke="#0D284D" stroke-opacity="0.16" stroke-width="3"/>
  <polyline points="0.0,307.0 88.5,299.5 177.0,246.8 265.5,216.0 354.0,246.4 442.5,299.3 531.0,307.1 619.5,260.0 708.0,218.0" fill="none" stroke="#4F8BFF" stroke-opacity="0.34" stroke-width="4" stroke-linecap="round"/>
  <line x1="305.57" y1="208.42" x2="165.67" y2="226.27" stroke="#4F8BFF" stroke-opacity="0.24" stroke-width="2"/><line x1="504.66" y1="366.14" x2="364.76" y2="86.4" stroke="#4F8BFF" stroke-opacity="0.24" stroke-width="2"/><line x1="165.67" y1="226.27" x2="563.85" y2="244.13" stroke="#4F8BFF" stroke-opacity="0.24" stroke-width="2"/><line x1="364.76" y1="86.4" x2="224.86" y2="104.26" stroke="#4F8BFF" stroke-opacity="0.24" stroke-width="2"/><line x1="224.86" y1="104.26" x2="84.96" y2="122.11" stroke="#4F8BFF" stroke-opacity="0.24" stroke-width="2"/><line x1="84.96" y1="122.11" x2="305.57" y2="208.42" stroke="#4F8BFF" stroke-opacity="0.24" stroke-width="2"/>
  <circle cx="305.57" cy="208.42" r="3" fill="#4F8BFF" fill-opacity="0.35"/><circle cx="504.66" cy="366.14" r="4" fill="#4F8BFF" fill-opacity="0.40"/><circle cx="165.67" cy="226.27" r="5" fill="#4F8BFF" fill-opacity="0.45"/><circle cx="364.76" cy="86.4" r="3" fill="#4F8BFF" fill-opacity="0.50"/><circle cx="563.85" cy="244.13" r="4" fill="#4F8BFF" fill-opacity="0.35"/><circle cx="224.86" cy="104.26" r="5" fill="#4F8BFF" fill-opacity="0.40"/><circle cx="423.95" cy="261.98" r="3" fill="#4F8BFF" fill-opacity="0.45"/><circle cx="84.96" cy="122.11" r="4" fill="#4F8BFF" fill-opacity="0.50"/><circle cx="284.05" cy="279.84" r="5" fill="#4F8BFF" fill-opacity="0.35"/>
  <rect x="53.1" y="57.6" width="127.4" height="86.4" rx="18" fill="#4F8BFF" fill-opacity="0.16"/>
  <circle cx="594.7" cy="345.6" r="76.8" fill="#FFFFFF" fill-opacity="0.36" stroke="#0D284D" stroke-opacity="0.10"/>
  <text x="56.6" y="422.4" font-family="Inter, Arial, sans-serif" font-size="43" font-weight="700" fill="#0D284D" fill-opacity="0.72">INTP-T</text>
  <text x="56.6" y="476.1" font-family="Inter, Arial, sans-serif" font-size="22" font-weight="500" fill="#0D284D" fill-opacity="0.48">identity lattice · T</text>
</svg>
