<svg xmlns="http://www.w3.org/2000/svg" width="1272" height="296" viewBox="0 0 1272 296" role="img" aria-labelledby="title desc">
  <title id="title">INTP-T Relationships illustration</title>
  <desc id="desc">Abstract relationship orbit map for the INTP-T MBTI desktop result module.</desc>
  <defs>
    <linearGradient id="bg" x1="0" x2="1" y1="0" y2="1">
      <stop offset="0" stop-color="#D9E9FF" stop-opacity="0.92"/>
      <stop offset="0.55" stop-color="#FFFFFF" stop-opacity="0.96"/>
      <stop offset="1" stop-color="#4F8BFF" stop-opacity="0.14"/>
    </linearGradient>
    <radialGradient id="halo" cx="74%" cy="35%" r="48%">
      <stop offset="0" stop-color="#4F8BFF" stop-opacity="0.26"/>
      <stop offset="1" stop-color="#4F8BFF" stop-opacity="0"/>
    </radialGradient>
    <filter id="soft"><feGaussianBlur stdDeviation="18"/></filter>
  </defs>
  <rect width="1272" height="296" rx="22" fill="url(#bg)"/>
  <circle cx="992.2" cy="100.6" r="94.7" fill="url(#halo)"/>
  <path d="M 101.8 213.1 C 356.2 74.0, 686.9 254.6, 1170.2 82.9" fill="none" stroke="#0D284D" stroke-opacity="0.16" stroke-width="3"/>
  <polyline points="0.0,191.9 159.0,178.5 318.0,145.1 477.0,134.3 636.0,159.8 795.0,189.2 954.0,184.9 1113.0,152.5 1272.0,133.2" fill="none" stroke="#4F8BFF" stroke-opacity="0.34" stroke-width="4" stroke-linecap="round"/>
  <line x1="384.65" y1="97.32" x2="1100.03" y2="108.34" stroke="#4F8BFF" stroke-opacity="0.24" stroke-width="2"/><line x1="742.34" y1="194.59" x2="490.99" y2="205.6" stroke="#4F8BFF" stroke-opacity="0.24" stroke-width="2"/><line x1="1100.03" y1="108.34" x2="848.68" y2="119.35" stroke="#4F8BFF" stroke-opacity="0.24" stroke-width="2"/><line x1="490.99" y1="205.6" x2="239.64" y2="216.61" stroke="#4F8BFF" stroke-opacity="0.24" stroke-width="2"/><line x1="848.68" y1="119.35" x2="597.33" y2="130.36" stroke="#4F8BFF" stroke-opacity="0.24" stroke-width="2"/><line x1="597.33" y1="130.36" x2="345.98" y2="141.37" stroke="#4F8BFF" stroke-opacity="0.24" stroke-width="2"/>
  <circle cx="384.65" cy="97.32" r="3" fill="#4F8BFF" fill-opacity="0.35"/><circle cx="742.34" cy="194.59" r="4" fill="#4F8BFF" fill-opacity="0.40"/><circle cx="1100.03" cy="108.34" r="5" fill="#4F8BFF" fill-opacity="0.45"/><circle cx="490.99" cy="205.6" r="3" fill="#4F8BFF" fill-opacity="0.50"/><circle cx="848.68" cy="119.35" r="4" fill="#4F8BFF" fill-opacity="0.35"/><circle cx="239.64" cy="216.61" r="5" fill="#4F8BFF" fill-opacity="0.40"/><circle cx="597.33" cy="130.36" r="3" fill="#4F8BFF" fill-opacity="0.45"/><circle cx="955.02" cy="227.62" r="4" fill="#4F8BFF" fill-opacity="0.50"/><circle cx="345.98" cy="141.37" r="5" fill="#4F8BFF" fill-opacity="0.35"/>
  <rect x="95.4" y="35.5" width="229.0" height="53.3" rx="18" fill="#4F8BFF" fill-opacity="0.16"/>
  <circle cx="1068.5" cy="213.1" r="47.4" fill="#FFFFFF" fill-opacity="0.36" stroke="#0D284D" stroke-opacity="0.10"/>
  <text x="101.8" y="260.5" font-family="Inter, Arial, sans-serif" font-size="27" font-weight="700" fill="#0D284D" fill-opacity="0.72">INTP-T</text>
  <text x="101.8" y="294.2" font-family="Inter, Arial, sans-serif" font-size="13" font-weight="500" fill="#0D284D" fill-opacity="0.48">relationship orbit map · T</text>
</svg>
