<svg xmlns="http://www.w3.org/2000/svg" width="720" height="354" viewBox="0 0 720 354" role="img" aria-labelledby="title desc">
  <title id="title">INTP-T Traits summary illustration</title>
  <desc id="desc">Abstract trait signal card for the INTP-T MBTI desktop result module.</desc>
  <defs>
    <linearGradient id="bg" x1="0" x2="1" y1="0" y2="1">
      <stop offset="0" stop-color="#D9E9FF" stop-opacity="0.92"/>
      <stop offset="0.55" stop-color="#FFFFFF" stop-opacity="0.96"/>
      <stop offset="1" stop-color="#4F8BFF" stop-opacity="0.14"/>
    </linearGradient>
    <radialGradient id="halo" cx="74%" cy="35%" r="48%">
      <stop offset="0" stop-color="#4F8BFF" stop-opacity="0.26"/>
      <stop offset="1" stop-color="#4F8BFF" stop-opacity="0"/>
    </radialGradient>
    <filter id="soft"><feGaussianBlur stdDeviation="18"/></filter>
  </defs>
  <rect width="720" height="354" rx="22" fill="url(#bg)"/>
  <circle cx="561.6" cy="120.4" r="113.3" fill="url(#halo)"/>
  <path d="M 57.6 254.9 C 201.6 88.5, 388.8 304.4, 662.4 99.1" fill="none" stroke="#0D284D" stroke-opacity="0.16" stroke-width="3"/>
  <polyline points="0.0,212.7 90.0,229.6 180.0,202.0 270.0,165.1 360.0,165.9 450.0,203.5 540.0,229.8 630.0,211.4 720.0,171.6" fill="none" stroke="#4F8BFF" stroke-opacity="0.34" stroke-width="4" stroke-linecap="round"/>
  <line x1="91.87" y1="65.91" x2="496.8" y2="79.08" stroke="#4F8BFF" stroke-opacity="0.24" stroke-width="2"/><line x1="294.34" y1="182.24" x2="152.06" y2="195.41" stroke="#4F8BFF" stroke-opacity="0.24" stroke-width="2"/><line x1="496.8" y1="79.08" x2="354.53" y2="92.25" stroke="#4F8BFF" stroke-opacity="0.24" stroke-width="2"/><line x1="152.06" y1="195.41" x2="556.99" y2="208.58" stroke="#4F8BFF" stroke-opacity="0.24" stroke-width="2"/><line x1="556.99" y1="208.58" x2="414.72" y2="221.75" stroke="#4F8BFF" stroke-opacity="0.24" stroke-width="2"/><line x1="414.72" y1="221.75" x2="91.87" y2="65.91" stroke="#4F8BFF" stroke-opacity="0.24" stroke-width="2"/>
  <circle cx="91.87" cy="65.91" r="3" fill="#4F8BFF" fill-opacity="0.35"/><circle cx="294.34" cy="182.24" r="4" fill="#4F8BFF" fill-opacity="0.40"/><circle cx="496.8" cy="79.08" r="5" fill="#4F8BFF" fill-opacity="0.45"/><circle cx="152.06" cy="195.41" r="3" fill="#4F8BFF" fill-opacity="0.50"/><circle cx="354.53" cy="92.25" r="4" fill="#4F8BFF" fill-opacity="0.35"/><circle cx="556.99" cy="208.58" r="5" fill="#4F8BFF" fill-opacity="0.40"/><circle cx="212.26" cy="105.42" r="3" fill="#4F8BFF" fill-opacity="0.45"/><circle cx="414.72" cy="221.75" r="4" fill="#4F8BFF" fill-opacity="0.50"/><circle cx="617.18" cy="118.59" r="5" fill="#4F8BFF" fill-opacity="0.35"/>
  <rect x="54.0" y="42.5" width="129.6" height="63.7" rx="18" fill="#4F8BFF" fill-opacity="0.16"/>
  <circle cx="604.8" cy="254.9" r="56.6" fill="#FFFFFF" fill-opacity="0.36" stroke="#0D284D" stroke-opacity="0.10"/>
  <text x="57.6" y="311.5" font-family="Inter, Arial, sans-serif" font-size="32" font-weight="700" fill="#0D284D" fill-opacity="0.72">INTP-T</text>
  <text x="57.6" y="351.5" font-family="Inter, Arial, sans-serif" font-size="16" font-weight="500" fill="#0D284D" fill-opacity="0.48">trait signal card · T</text>
</svg>
