<svg xmlns="http://www.w3.org/2000/svg" width="1272" height="296" viewBox="0 0 1272 296" role="img" aria-labelledby="title desc">
  <title id="title">INTP-T Traits axis illustration</title>
  <desc id="desc">Abstract axis map for the INTP-T MBTI desktop result module.</desc>
  <defs>
    <linearGradient id="bg" x1="0" x2="1" y1="0" y2="1">
      <stop offset="0" stop-color="#D9E9FF" stop-opacity="0.92"/>
      <stop offset="0.55" stop-color="#FFFFFF" stop-opacity="0.96"/>
      <stop offset="1" stop-color="#4F8BFF" stop-opacity="0.14"/>
    </linearGradient>
    <radialGradient id="halo" cx="74%" cy="35%" r="48%">
      <stop offset="0" stop-color="#4F8BFF" stop-opacity="0.26"/>
      <stop offset="1" stop-color="#4F8BFF" stop-opacity="0"/>
    </radialGradient>
    <filter id="soft"><feGaussianBlur stdDeviation="18"/></filter>
  </defs>
  <rect width="1272" height="296" rx="22" fill="url(#bg)"/>
  <circle cx="992.2" cy="100.6" r="94.7" fill="url(#halo)"/>
  <path d="M 101.8 213.1 C 356.2 74.0, 686.9 254.6, 1170.2 82.9" fill="none" stroke="#0D284D" stroke-opacity="0.16" stroke-width="3"/>
  <polyline points="0.0,134.3 159.0,160.0 318.0,189.3 477.0,184.8 636.0,152.2 795.0,133.2 954.0,151.9 1113.0,184.5 1272.0,189.4" fill="none" stroke="#4F8BFF" stroke-opacity="0.34" stroke-width="4" stroke-linecap="round"/>
  <line x1="868.01" y1="189.08" x2="616.67" y2="200.1" stroke="#4F8BFF" stroke-opacity="0.24" stroke-width="2"/><line x1="258.98" y1="102.83" x2="974.35" y2="113.84" stroke="#4F8BFF" stroke-opacity="0.24" stroke-width="2"/><line x1="616.67" y1="200.1" x2="365.32" y2="211.11" stroke="#4F8BFF" stroke-opacity="0.24" stroke-width="2"/><line x1="974.35" y1="113.84" x2="723.0" y2="124.85" stroke="#4F8BFF" stroke-opacity="0.24" stroke-width="2"/><line x1="365.32" y1="211.11" x2="1080.69" y2="222.12" stroke="#4F8BFF" stroke-opacity="0.24" stroke-width="2"/><line x1="1080.69" y1="222.12" x2="829.34" y2="233.13" stroke="#4F8BFF" stroke-opacity="0.24" stroke-width="2"/>
  <circle cx="868.01" cy="189.08" r="3" fill="#4F8BFF" fill-opacity="0.35"/><circle cx="258.98" cy="102.83" r="4" fill="#4F8BFF" fill-opacity="0.40"/><circle cx="616.67" cy="200.1" r="5" fill="#4F8BFF" fill-opacity="0.45"/><circle cx="974.35" cy="113.84" r="3" fill="#4F8BFF" fill-opacity="0.50"/><circle cx="365.32" cy="211.11" r="4" fill="#4F8BFF" fill-opacity="0.35"/><circle cx="723.0" cy="124.85" r="5" fill="#4F8BFF" fill-opacity="0.40"/><circle cx="1080.69" cy="222.12" r="3" fill="#4F8BFF" fill-opacity="0.45"/><circle cx="471.66" cy="135.86" r="4" fill="#4F8BFF" fill-opacity="0.50"/><circle cx="829.34" cy="233.13" r="5" fill="#4F8BFF" fill-opacity="0.35"/>
  <rect x="95.4" y="35.5" width="229.0" height="53.3" rx="18" fill="#4F8BFF" fill-opacity="0.16"/>
  <circle cx="1068.5" cy="213.1" r="47.4" fill="#FFFFFF" fill-opacity="0.36" stroke="#0D284D" stroke-opacity="0.10"/>
  <text x="101.8" y="260.5" font-family="Inter, Arial, sans-serif" font-size="27" font-weight="700" fill="#0D284D" fill-opacity="0.72">INTP-T</text>
  <text x="101.8" y="294.2" font-family="Inter, Arial, sans-serif" font-size="13" font-weight="500" fill="#0D284D" fill-opacity="0.48">axis map · T</text>
</svg>
