<svg xmlns="http://www.w3.org/2000/svg" width="1272" height="296" viewBox="0 0 1272 296" role="img" aria-labelledby="title desc">
  <title id="title">ISFP-A Career path illustration</title>
  <desc id="desc">Abstract career path map for the ISFP-A MBTI desktop result module.</desc>
  <defs>
    <linearGradient id="bg" x1="0" x2="1" y1="0" y2="1">
      <stop offset="0" stop-color="#EAF7DD" stop-opacity="0.92"/>
      <stop offset="0.55" stop-color="#FFFFFF" stop-opacity="0.96"/>
      <stop offset="1" stop-color="#90BE6D" stop-opacity="0.14"/>
    </linearGradient>
    <radialGradient id="halo" cx="74%" cy="35%" r="48%">
      <stop offset="0" stop-color="#90BE6D" stop-opacity="0.26"/>
      <stop offset="1" stop-color="#90BE6D" stop-opacity="0"/>
    </radialGradient>
    <filter id="soft"><feGaussianBlur stdDeviation="18"/></filter>
  </defs>
  <rect width="1272" height="296" rx="22" fill="url(#bg)"/>
  <circle cx="992.2" cy="100.6" r="94.7" fill="url(#halo)"/>
  <path d="M 101.8 213.1 C 356.2 74.0, 686.9 254.6, 1170.2 82.9" fill="none" stroke="#2C421D" stroke-opacity="0.16" stroke-width="3"/>
  <polyline points="0.0,174.4 159.0,192.4 318.0,172.7 477.0,140.4 636.0,136.7 795.0,166.3 954.0,191.5 1113.0,180.1 1272.0,146.7" fill="none" stroke="#90BE6D" stroke-opacity="0.34" stroke-width="4" stroke-linecap="round"/>
  <line x1="239.64" y1="69.8" x2="955.02" y2="80.81" stroke="#90BE6D" stroke-opacity="0.24" stroke-width="2"/><line x1="597.33" y1="167.06" x2="345.98" y2="178.07" stroke="#90BE6D" stroke-opacity="0.24" stroke-width="2"/><line x1="955.02" y1="80.81" x2="703.67" y2="91.82" stroke="#90BE6D" stroke-opacity="0.24" stroke-width="2"/><line x1="345.98" y1="178.07" x2="1061.36" y2="189.08" stroke="#90BE6D" stroke-opacity="0.24" stroke-width="2"/><line x1="1061.36" y1="189.08" x2="810.01" y2="200.1" stroke="#90BE6D" stroke-opacity="0.24" stroke-width="2"/><line x1="810.01" y1="200.1" x2="239.64" y2="69.8" stroke="#90BE6D" stroke-opacity="0.24" stroke-width="2"/>
  <circle cx="239.64" cy="69.8" r="3" fill="#90BE6D" fill-opacity="0.35"/><circle cx="597.33" cy="167.06" r="4" fill="#90BE6D" fill-opacity="0.40"/><circle cx="955.02" cy="80.81" r="5" fill="#90BE6D" fill-opacity="0.45"/><circle cx="345.98" cy="178.07" r="3" fill="#90BE6D" fill-opacity="0.50"/><circle cx="703.67" cy="91.82" r="4" fill="#90BE6D" fill-opacity="0.35"/><circle cx="1061.36" cy="189.08" r="5" fill="#90BE6D" fill-opacity="0.40"/><circle cx="452.32" cy="102.83" r="3" fill="#90BE6D" fill-opacity="0.45"/><circle cx="810.01" cy="200.1" r="4" fill="#90BE6D" fill-opacity="0.50"/><circle cx="200.98" cy="113.84" r="5" fill="#90BE6D" fill-opacity="0.35"/>
  <rect x="95.4" y="35.5" width="229.0" height="53.3" rx="18" fill="#90BE6D" fill-opacity="0.16"/>
  <circle cx="1068.5" cy="213.1" r="47.4" fill="#FFFFFF" fill-opacity="0.36" stroke="#2C421D" stroke-opacity="0.10"/>
  <text x="101.8" y="260.5" font-family="Inter, Arial, sans-serif" font-size="27" font-weight="700" fill="#2C421D" fill-opacity="0.72">ISFP-A</text>
  <text x="101.8" y="294.2" font-family="Inter, Arial, sans-serif" font-size="13" font-weight="500" fill="#2C421D" fill-opacity="0.48">career path map · A</text>
</svg>
