<svg xmlns="http://www.w3.org/2000/svg" width="756" height="660" viewBox="0 0 756 660" role="img" aria-labelledby="title desc">
  <title id="title">ISFP-A Final offer illustration</title>
  <desc id="desc">Abstract report unlock panel for the ISFP-A MBTI desktop result module.</desc>
  <defs>
    <linearGradient id="bg" x1="0" x2="1" y1="0" y2="1">
      <stop offset="0" stop-color="#EAF7DD" stop-opacity="0.92"/>
      <stop offset="0.55" stop-color="#FFFFFF" stop-opacity="0.96"/>
      <stop offset="1" stop-color="#90BE6D" stop-opacity="0.14"/>
    </linearGradient>
    <radialGradient id="halo" cx="74%" cy="35%" r="48%">
      <stop offset="0" stop-color="#90BE6D" stop-opacity="0.26"/>
      <stop offset="1" stop-color="#90BE6D" stop-opacity="0"/>
    </radialGradient>
    <filter id="soft"><feGaussianBlur stdDeviation="18"/></filter>
  </defs>
  <rect width="756" height="660" rx="22" fill="url(#bg)"/>
  <circle cx="589.7" cy="224.4" r="211.2" fill="url(#halo)"/>
  <path d="M 60.5 475.2 C 211.7 165.0, 408.2 567.6, 695.5 184.8" fill="none" stroke="#2C421D" stroke-opacity="0.16" stroke-width="3"/>
  <polyline points="0.0,415.1 94.5,344.1 189.0,297.2 283.5,334.2 378.0,407.9 472.5,424.3 567.0,362.5 661.5,301.3 756.0,318.8" fill="none" stroke="#90BE6D" stroke-opacity="0.34" stroke-width="4" stroke-linecap="round"/>
  <line x1="550.37" y1="446.16" x2="400.98" y2="470.71" stroke="#90BE6D" stroke-opacity="0.24" stroke-width="2"/><line x1="188.4" y1="253.84" x2="613.57" y2="278.39" stroke="#90BE6D" stroke-opacity="0.24" stroke-width="2"/><line x1="400.98" y1="470.71" x2="251.6" y2="495.26" stroke="#90BE6D" stroke-opacity="0.24" stroke-width="2"/><line x1="613.57" y1="278.39" x2="464.18" y2="302.94" stroke="#90BE6D" stroke-opacity="0.24" stroke-width="2"/><line x1="251.6" y1="495.26" x2="102.21" y2="519.82" stroke="#90BE6D" stroke-opacity="0.24" stroke-width="2"/><line x1="102.21" y1="519.82" x2="527.39" y2="135.17" stroke="#90BE6D" stroke-opacity="0.24" stroke-width="2"/>
  <circle cx="550.37" cy="446.16" r="3" fill="#90BE6D" fill-opacity="0.35"/><circle cx="188.4" cy="253.84" r="4" fill="#90BE6D" fill-opacity="0.40"/><circle cx="400.98" cy="470.71" r="5" fill="#90BE6D" fill-opacity="0.45"/><circle cx="613.57" cy="278.39" r="3" fill="#90BE6D" fill-opacity="0.50"/><circle cx="251.6" cy="495.26" r="4" fill="#90BE6D" fill-opacity="0.35"/><circle cx="464.18" cy="302.94" r="5" fill="#90BE6D" fill-opacity="0.40"/><circle cx="102.21" cy="519.82" r="3" fill="#90BE6D" fill-opacity="0.45"/><circle cx="314.8" cy="327.49" r="4" fill="#90BE6D" fill-opacity="0.50"/><circle cx="527.39" cy="135.17" r="5" fill="#90BE6D" fill-opacity="0.35"/>
  <rect x="56.7" y="79.2" width="136.1" height="118.8" rx="18" fill="#90BE6D" fill-opacity="0.16"/>
  <circle cx="635.0" cy="475.2" r="105.6" fill="#FFFFFF" fill-opacity="0.36" stroke="#2C421D" stroke-opacity="0.10"/>
  <text x="60.5" y="580.8" font-family="Inter, Arial, sans-serif" font-size="59" font-weight="700" fill="#2C421D" fill-opacity="0.72">ISFP-A</text>
  <text x="60.5" y="654.5" font-family="Inter, Arial, sans-serif" font-size="30" font-weight="500" fill="#2C421D" fill-opacity="0.48">report unlock panel · A</text>
</svg>
