<svg xmlns="http://www.w3.org/2000/svg" width="708" height="480" viewBox="0 0 708 480" role="img" aria-labelledby="title desc">
  <title id="title">ISFP-A Hero identity illustration</title>
  <desc id="desc">Abstract identity lattice for the ISFP-A MBTI desktop result module.</desc>
  <defs>
    <linearGradient id="bg" x1="0" x2="1" y1="0" y2="1">
      <stop offset="0" stop-color="#EAF7DD" stop-opacity="0.92"/>
      <stop offset="0.55" stop-color="#FFFFFF" stop-opacity="0.96"/>
      <stop offset="1" stop-color="#90BE6D" stop-opacity="0.14"/>
    </linearGradient>
    <radialGradient id="halo" cx="74%" cy="35%" r="48%">
      <stop offset="0" stop-color="#90BE6D" stop-opacity="0.26"/>
      <stop offset="1" stop-color="#90BE6D" stop-opacity="0"/>
    </radialGradient>
    <filter id="soft"><feGaussianBlur stdDeviation="18"/></filter>
  </defs>
  <rect width="708" height="480" rx="22" fill="url(#bg)"/>
  <circle cx="552.2" cy="163.2" r="153.6" fill="url(#halo)"/>
  <path d="M 56.6 345.6 C 198.2 120.0, 382.3 412.8, 651.4 134.4" fill="none" stroke="#2C421D" stroke-opacity="0.16" stroke-width="3"/>
  <polyline points="0.0,227.4 88.5,279.7 177.0,312.0 265.5,283.1 354.0,229.9 442.5,220.2 531.0,266.3 619.5,309.5 708.0,294.7" fill="none" stroke="#90BE6D" stroke-opacity="0.34" stroke-width="4" stroke-linecap="round"/>
  <line x1="154.91" y1="125.09" x2="553.09" y2="142.94" stroke="#90BE6D" stroke-opacity="0.24" stroke-width="2"/><line x1="354.0" y1="282.82" x2="214.1" y2="300.67" stroke="#90BE6D" stroke-opacity="0.24" stroke-width="2"/><line x1="553.09" y1="142.94" x2="413.19" y2="160.8" stroke="#90BE6D" stroke-opacity="0.24" stroke-width="2"/><line x1="214.1" y1="300.67" x2="612.28" y2="318.53" stroke="#90BE6D" stroke-opacity="0.24" stroke-width="2"/><line x1="612.28" y1="318.53" x2="472.38" y2="336.38" stroke="#90BE6D" stroke-opacity="0.24" stroke-width="2"/><line x1="472.38" y1="336.38" x2="154.91" y2="125.09" stroke="#90BE6D" stroke-opacity="0.24" stroke-width="2"/>
  <circle cx="154.91" cy="125.09" r="3" fill="#90BE6D" fill-opacity="0.35"/><circle cx="354.0" cy="282.82" r="4" fill="#90BE6D" fill-opacity="0.40"/><circle cx="553.09" cy="142.94" r="5" fill="#90BE6D" fill-opacity="0.45"/><circle cx="214.1" cy="300.67" r="3" fill="#90BE6D" fill-opacity="0.50"/><circle cx="413.19" cy="160.8" r="4" fill="#90BE6D" fill-opacity="0.35"/><circle cx="612.28" cy="318.53" r="5" fill="#90BE6D" fill-opacity="0.40"/><circle cx="273.29" cy="178.66" r="3" fill="#90BE6D" fill-opacity="0.45"/><circle cx="472.38" cy="336.38" r="4" fill="#90BE6D" fill-opacity="0.50"/><circle cx="133.39" cy="196.51" r="5" fill="#90BE6D" fill-opacity="0.35"/>
  <rect x="53.1" y="57.6" width="127.4" height="86.4" rx="18" fill="#90BE6D" fill-opacity="0.16"/>
  <circle cx="594.7" cy="345.6" r="76.8" fill="#FFFFFF" fill-opacity="0.36" stroke="#2C421D" stroke-opacity="0.10"/>
  <text x="56.6" y="422.4" font-family="Inter, Arial, sans-serif" font-size="43" font-weight="700" fill="#2C421D" fill-opacity="0.72">ISFP-A</text>
  <text x="56.6" y="476.1" font-family="Inter, Arial, sans-serif" font-size="22" font-weight="500" fill="#2C421D" fill-opacity="0.48">identity lattice · A</text>
</svg>
