<svg xmlns="http://www.w3.org/2000/svg" width="1272" height="296" viewBox="0 0 1272 296" role="img" aria-labelledby="title desc">
  <title id="title">ISFP-A Relationships illustration</title>
  <desc id="desc">Abstract relationship orbit map for the ISFP-A MBTI desktop result module.</desc>
  <defs>
    <linearGradient id="bg" x1="0" x2="1" y1="0" y2="1">
      <stop offset="0" stop-color="#EAF7DD" stop-opacity="0.92"/>
      <stop offset="0.55" stop-color="#FFFFFF" stop-opacity="0.96"/>
      <stop offset="1" stop-color="#90BE6D" stop-opacity="0.14"/>
    </linearGradient>
    <radialGradient id="halo" cx="74%" cy="35%" r="48%">
      <stop offset="0" stop-color="#90BE6D" stop-opacity="0.26"/>
      <stop offset="1" stop-color="#90BE6D" stop-opacity="0"/>
    </radialGradient>
    <filter id="soft"><feGaussianBlur stdDeviation="18"/></filter>
  </defs>
  <rect width="1272" height="296" rx="22" fill="url(#bg)"/>
  <circle cx="992.2" cy="100.6" r="94.7" fill="url(#halo)"/>
  <path d="M 101.8 213.1 C 356.2 74.0, 686.9 254.6, 1170.2 82.9" fill="none" stroke="#2C421D" stroke-opacity="0.16" stroke-width="3"/>
  <polyline points="0.0,146.2 159.0,179.6 318.0,191.6 477.0,166.8 636.0,136.9 795.0,140.0 954.0,172.2 1113.0,192.4 1272.0,174.9" fill="none" stroke="#90BE6D" stroke-opacity="0.34" stroke-width="4" stroke-linecap="round"/>
  <line x1="1080.69" y1="229.46" x2="829.34" y2="56.95" stroke="#90BE6D" stroke-opacity="0.24" stroke-width="2"/><line x1="471.66" y1="143.2" x2="220.31" y2="154.22" stroke="#90BE6D" stroke-opacity="0.24" stroke-width="2"/><line x1="829.34" y1="56.95" x2="578.0" y2="67.96" stroke="#90BE6D" stroke-opacity="0.24" stroke-width="2"/><line x1="220.31" y1="154.22" x2="935.68" y2="165.23" stroke="#90BE6D" stroke-opacity="0.24" stroke-width="2"/><line x1="578.0" y1="67.96" x2="326.65" y2="78.97" stroke="#90BE6D" stroke-opacity="0.24" stroke-width="2"/><line x1="326.65" y1="78.97" x2="1042.02" y2="89.98" stroke="#90BE6D" stroke-opacity="0.24" stroke-width="2"/>
  <circle cx="1080.69" cy="229.46" r="3" fill="#90BE6D" fill-opacity="0.35"/><circle cx="471.66" cy="143.2" r="4" fill="#90BE6D" fill-opacity="0.40"/><circle cx="829.34" cy="56.95" r="5" fill="#90BE6D" fill-opacity="0.45"/><circle cx="220.31" cy="154.22" r="3" fill="#90BE6D" fill-opacity="0.50"/><circle cx="578.0" cy="67.96" r="4" fill="#90BE6D" fill-opacity="0.35"/><circle cx="935.68" cy="165.23" r="5" fill="#90BE6D" fill-opacity="0.40"/><circle cx="326.65" cy="78.97" r="3" fill="#90BE6D" fill-opacity="0.45"/><circle cx="684.34" cy="176.24" r="4" fill="#90BE6D" fill-opacity="0.50"/><circle cx="1042.02" cy="89.98" r="5" fill="#90BE6D" fill-opacity="0.35"/>
  <rect x="95.4" y="35.5" width="229.0" height="53.3" rx="18" fill="#90BE6D" fill-opacity="0.16"/>
  <circle cx="1068.5" cy="213.1" r="47.4" fill="#FFFFFF" fill-opacity="0.36" stroke="#2C421D" stroke-opacity="0.10"/>
  <text x="101.8" y="260.5" font-family="Inter, Arial, sans-serif" font-size="27" font-weight="700" fill="#2C421D" fill-opacity="0.72">ISFP-A</text>
  <text x="101.8" y="294.2" font-family="Inter, Arial, sans-serif" font-size="13" font-weight="500" fill="#2C421D" fill-opacity="0.48">relationship orbit map · A</text>
</svg>
