<svg xmlns="http://www.w3.org/2000/svg" width="1272" height="296" viewBox="0 0 1272 296" role="img" aria-labelledby="title desc">
  <title id="title">ISFP-A Traits axis illustration</title>
  <desc id="desc">Abstract axis map for the ISFP-A MBTI desktop result module.</desc>
  <defs>
    <linearGradient id="bg" x1="0" x2="1" y1="0" y2="1">
      <stop offset="0" stop-color="#EAF7DD" stop-opacity="0.92"/>
      <stop offset="0.55" stop-color="#FFFFFF" stop-opacity="0.96"/>
      <stop offset="1" stop-color="#90BE6D" stop-opacity="0.14"/>
    </linearGradient>
    <radialGradient id="halo" cx="74%" cy="35%" r="48%">
      <stop offset="0" stop-color="#90BE6D" stop-opacity="0.26"/>
      <stop offset="1" stop-color="#90BE6D" stop-opacity="0"/>
    </radialGradient>
    <filter id="soft"><feGaussianBlur stdDeviation="18"/></filter>
  </defs>
  <rect width="1272" height="296" rx="22" fill="url(#bg)"/>
  <circle cx="992.2" cy="100.6" r="94.7" fill="url(#halo)"/>
  <path d="M 101.8 213.1 C 356.2 74.0, 686.9 254.6, 1170.2 82.9" fill="none" stroke="#2C421D" stroke-opacity="0.16" stroke-width="3"/>
  <polyline points="0.0,166.6 159.0,136.8 318.0,140.2 477.0,172.4 636.0,192.4 795.0,174.7 954.0,141.8 1113.0,135.7 1272.0,164.2" fill="none" stroke="#90BE6D" stroke-opacity="0.34" stroke-width="4" stroke-linecap="round"/>
  <line x1="597.33" y1="137.7" x2="345.98" y2="148.71" stroke="#90BE6D" stroke-opacity="0.24" stroke-width="2"/><line x1="955.02" y1="234.96" x2="703.67" y2="62.46" stroke="#90BE6D" stroke-opacity="0.24" stroke-width="2"/><line x1="345.98" y1="148.71" x2="1061.36" y2="159.72" stroke="#90BE6D" stroke-opacity="0.24" stroke-width="2"/><line x1="703.67" y1="62.46" x2="452.32" y2="73.47" stroke="#90BE6D" stroke-opacity="0.24" stroke-width="2"/><line x1="1061.36" y1="159.72" x2="810.01" y2="170.73" stroke="#90BE6D" stroke-opacity="0.24" stroke-width="2"/><line x1="810.01" y1="170.73" x2="558.66" y2="181.74" stroke="#90BE6D" stroke-opacity="0.24" stroke-width="2"/>
  <circle cx="597.33" cy="137.7" r="3" fill="#90BE6D" fill-opacity="0.35"/><circle cx="955.02" cy="234.96" r="4" fill="#90BE6D" fill-opacity="0.40"/><circle cx="345.98" cy="148.71" r="5" fill="#90BE6D" fill-opacity="0.45"/><circle cx="703.67" cy="62.46" r="3" fill="#90BE6D" fill-opacity="0.50"/><circle cx="1061.36" cy="159.72" r="4" fill="#90BE6D" fill-opacity="0.35"/><circle cx="452.32" cy="73.47" r="5" fill="#90BE6D" fill-opacity="0.40"/><circle cx="810.01" cy="170.73" r="3" fill="#90BE6D" fill-opacity="0.45"/><circle cx="200.98" cy="84.48" r="4" fill="#90BE6D" fill-opacity="0.50"/><circle cx="558.66" cy="181.74" r="5" fill="#90BE6D" fill-opacity="0.35"/>
  <rect x="95.4" y="35.5" width="229.0" height="53.3" rx="18" fill="#90BE6D" fill-opacity="0.16"/>
  <circle cx="1068.5" cy="213.1" r="47.4" fill="#FFFFFF" fill-opacity="0.36" stroke="#2C421D" stroke-opacity="0.10"/>
  <text x="101.8" y="260.5" font-family="Inter, Arial, sans-serif" font-size="27" font-weight="700" fill="#2C421D" fill-opacity="0.72">ISFP-A</text>
  <text x="101.8" y="294.2" font-family="Inter, Arial, sans-serif" font-size="13" font-weight="500" fill="#2C421D" fill-opacity="0.48">axis map · A</text>
</svg>
