<svg xmlns="http://www.w3.org/2000/svg" width="720" height="354" viewBox="0 0 720 354" role="img" aria-labelledby="title desc">
  <title id="title">ISFP-A Traits summary illustration</title>
  <desc id="desc">Abstract trait signal card for the ISFP-A MBTI desktop result module.</desc>
  <defs>
    <linearGradient id="bg" x1="0" x2="1" y1="0" y2="1">
      <stop offset="0" stop-color="#EAF7DD" stop-opacity="0.92"/>
      <stop offset="0.55" stop-color="#FFFFFF" stop-opacity="0.96"/>
      <stop offset="1" stop-color="#90BE6D" stop-opacity="0.14"/>
    </linearGradient>
    <radialGradient id="halo" cx="74%" cy="35%" r="48%">
      <stop offset="0" stop-color="#90BE6D" stop-opacity="0.26"/>
      <stop offset="1" stop-color="#90BE6D" stop-opacity="0"/>
    </radialGradient>
    <filter id="soft"><feGaussianBlur stdDeviation="18"/></filter>
  </defs>
  <rect width="720" height="354" rx="22" fill="url(#bg)"/>
  <circle cx="561.6" cy="120.4" r="113.3" fill="url(#halo)"/>
  <path d="M 57.6 254.9 C 201.6 88.5, 388.8 304.4, 662.4 99.1" fill="none" stroke="#2C421D" stroke-opacity="0.16" stroke-width="3"/>
  <polyline points="0.0,159.6 90.0,186.2 180.0,223.6 270.0,224.2 360.0,187.1 450.0,159.7 540.0,176.9 630.0,216.8 720.0,228.5" fill="none" stroke="#90BE6D" stroke-opacity="0.34" stroke-width="4" stroke-linecap="round"/>
  <line x1="485.86" y1="223.94" x2="343.58" y2="237.11" stroke="#90BE6D" stroke-opacity="0.24" stroke-width="2"/><line x1="141.12" y1="120.78" x2="546.05" y2="133.95" stroke="#90BE6D" stroke-opacity="0.24" stroke-width="2"/><line x1="343.58" y1="237.11" x2="201.31" y2="250.28" stroke="#90BE6D" stroke-opacity="0.24" stroke-width="2"/><line x1="546.05" y1="133.95" x2="403.78" y2="147.12" stroke="#90BE6D" stroke-opacity="0.24" stroke-width="2"/><line x1="403.78" y1="147.12" x2="261.5" y2="160.29" stroke="#90BE6D" stroke-opacity="0.24" stroke-width="2"/><line x1="261.5" y1="160.29" x2="485.86" y2="223.94" stroke="#90BE6D" stroke-opacity="0.24" stroke-width="2"/>
  <circle cx="485.86" cy="223.94" r="3" fill="#90BE6D" fill-opacity="0.35"/><circle cx="141.12" cy="120.78" r="4" fill="#90BE6D" fill-opacity="0.40"/><circle cx="343.58" cy="237.11" r="5" fill="#90BE6D" fill-opacity="0.45"/><circle cx="546.05" cy="133.95" r="3" fill="#90BE6D" fill-opacity="0.50"/><circle cx="201.31" cy="250.28" r="4" fill="#90BE6D" fill-opacity="0.35"/><circle cx="403.78" cy="147.12" r="5" fill="#90BE6D" fill-opacity="0.40"/><circle cx="606.24" cy="263.45" r="3" fill="#90BE6D" fill-opacity="0.45"/><circle cx="261.5" cy="160.29" r="4" fill="#90BE6D" fill-opacity="0.50"/><circle cx="463.97" cy="276.62" r="5" fill="#90BE6D" fill-opacity="0.35"/>
  <rect x="54.0" y="42.5" width="129.6" height="63.7" rx="18" fill="#90BE6D" fill-opacity="0.16"/>
  <circle cx="604.8" cy="254.9" r="56.6" fill="#FFFFFF" fill-opacity="0.36" stroke="#2C421D" stroke-opacity="0.10"/>
  <text x="57.6" y="311.5" font-family="Inter, Arial, sans-serif" font-size="32" font-weight="700" fill="#2C421D" fill-opacity="0.72">ISFP-A</text>
  <text x="57.6" y="351.5" font-family="Inter, Arial, sans-serif" font-size="16" font-weight="500" fill="#2C421D" fill-opacity="0.48">trait signal card · A</text>
</svg>
