<svg xmlns="http://www.w3.org/2000/svg" width="756" height="660" viewBox="0 0 756 660" role="img" aria-labelledby="title desc">
  <title id="title">ISTP-T Final offer illustration</title>
  <desc id="desc">Abstract report unlock panel for the ISTP-T MBTI desktop result module.</desc>
  <defs>
    <linearGradient id="bg" x1="0" x2="1" y1="0" y2="1">
      <stop offset="0" stop-color="#D8EEF6" stop-opacity="0.92"/>
      <stop offset="0.55" stop-color="#FFFFFF" stop-opacity="0.96"/>
      <stop offset="1" stop-color="#277DA1" stop-opacity="0.14"/>
    </linearGradient>
    <radialGradient id="halo" cx="74%" cy="35%" r="48%">
      <stop offset="0" stop-color="#277DA1" stop-opacity="0.26"/>
      <stop offset="1" stop-color="#277DA1" stop-opacity="0"/>
    </radialGradient>
    <filter id="soft"><feGaussianBlur stdDeviation="18"/></filter>
  </defs>
  <rect width="756" height="660" rx="22" fill="url(#bg)"/>
  <circle cx="589.7" cy="224.4" r="211.2" fill="url(#halo)"/>
  <path d="M 60.5 475.2 C 211.7 165.0, 408.2 567.6, 695.5 184.8" fill="none" stroke="#0E3140" stroke-opacity="0.16" stroke-width="3"/>
  <polyline points="0.0,297.7 94.5,330.1 189.0,404.4 283.5,425.9 378.0,367.2 472.5,303.1 567.0,315.4 661.5,388.4 756.0,429.0" fill="none" stroke="#277DA1" stroke-opacity="0.34" stroke-width="4" stroke-linecap="round"/>
  <line x1="165.41" y1="172.0" x2="590.59" y2="196.55" stroke="#277DA1" stroke-opacity="0.24" stroke-width="2"/><line x1="378.0" y1="388.87" x2="228.61" y2="413.42" stroke="#277DA1" stroke-opacity="0.24" stroke-width="2"/><line x1="590.59" y1="196.55" x2="441.2" y2="221.1" stroke="#277DA1" stroke-opacity="0.24" stroke-width="2"/><line x1="228.61" y1="413.42" x2="653.79" y2="437.98" stroke="#277DA1" stroke-opacity="0.24" stroke-width="2"/><line x1="653.79" y1="437.98" x2="504.4" y2="462.53" stroke="#277DA1" stroke-opacity="0.24" stroke-width="2"/><line x1="504.4" y1="462.53" x2="165.41" y2="172.0" stroke="#277DA1" stroke-opacity="0.24" stroke-width="2"/>
  <circle cx="165.41" cy="172.0" r="3" fill="#277DA1" fill-opacity="0.35"/><circle cx="378.0" cy="388.87" r="4" fill="#277DA1" fill-opacity="0.40"/><circle cx="590.59" cy="196.55" r="5" fill="#277DA1" fill-opacity="0.45"/><circle cx="228.61" cy="413.42" r="3" fill="#277DA1" fill-opacity="0.50"/><circle cx="441.2" cy="221.1" r="4" fill="#277DA1" fill-opacity="0.35"/><circle cx="653.79" cy="437.98" r="5" fill="#277DA1" fill-opacity="0.40"/><circle cx="291.82" cy="245.65" r="3" fill="#277DA1" fill-opacity="0.45"/><circle cx="504.4" cy="462.53" r="4" fill="#277DA1" fill-opacity="0.50"/><circle cx="142.43" cy="270.2" r="5" fill="#277DA1" fill-opacity="0.35"/>
  <rect x="56.7" y="79.2" width="136.1" height="118.8" rx="18" fill="#277DA1" fill-opacity="0.16"/>
  <circle cx="635.0" cy="475.2" r="105.6" fill="#FFFFFF" fill-opacity="0.36" stroke="#0E3140" stroke-opacity="0.10"/>
  <text x="60.5" y="580.8" font-family="Inter, Arial, sans-serif" font-size="59" font-weight="700" fill="#0E3140" fill-opacity="0.72">ISTP-T</text>
  <text x="60.5" y="654.5" font-family="Inter, Arial, sans-serif" font-size="30" font-weight="500" fill="#0E3140" fill-opacity="0.48">report unlock panel · T</text>
</svg>
