<svg xmlns="http://www.w3.org/2000/svg" width="1272" height="296" viewBox="0 0 1272 296" role="img" aria-labelledby="title desc">
  <title id="title">ISTP-T Growth path illustration</title>
  <desc id="desc">Abstract growth rhythm map for the ISTP-T MBTI desktop result module.</desc>
  <defs>
    <linearGradient id="bg" x1="0" x2="1" y1="0" y2="1">
      <stop offset="0" stop-color="#D8EEF6" stop-opacity="0.92"/>
      <stop offset="0.55" stop-color="#FFFFFF" stop-opacity="0.96"/>
      <stop offset="1" stop-color="#277DA1" stop-opacity="0.14"/>
    </linearGradient>
    <radialGradient id="halo" cx="74%" cy="35%" r="48%">
      <stop offset="0" stop-color="#277DA1" stop-opacity="0.26"/>
      <stop offset="1" stop-color="#277DA1" stop-opacity="0"/>
    </radialGradient>
    <filter id="soft"><feGaussianBlur stdDeviation="18"/></filter>
  </defs>
  <rect width="1272" height="296" rx="22" fill="url(#bg)"/>
  <circle cx="992.2" cy="100.6" r="94.7" fill="url(#halo)"/>
  <path d="M 101.8 213.1 C 356.2 74.0, 686.9 254.6, 1170.2 82.9" fill="none" stroke="#0E3140" stroke-opacity="0.16" stroke-width="3"/>
  <polyline points="0.0,144.7 159.0,178.1 318.0,192.0 477.0,168.7 636.0,137.9 795.0,138.9 954.0,170.4 1113.0,192.2 1272.0,176.6" fill="none" stroke="#277DA1" stroke-opacity="0.34" stroke-width="4" stroke-linecap="round"/>
  <line x1="955.02" y1="205.6" x2="703.67" y2="216.61" stroke="#277DA1" stroke-opacity="0.24" stroke-width="2"/><line x1="345.98" y1="119.35" x2="1061.36" y2="130.36" stroke="#277DA1" stroke-opacity="0.24" stroke-width="2"/><line x1="703.67" y1="216.61" x2="452.32" y2="227.62" stroke="#277DA1" stroke-opacity="0.24" stroke-width="2"/><line x1="1061.36" y1="130.36" x2="810.01" y2="141.37" stroke="#277DA1" stroke-opacity="0.24" stroke-width="2"/><line x1="810.01" y1="141.37" x2="558.66" y2="152.38" stroke="#277DA1" stroke-opacity="0.24" stroke-width="2"/><line x1="558.66" y1="152.38" x2="955.02" y2="205.6" stroke="#277DA1" stroke-opacity="0.24" stroke-width="2"/>
  <circle cx="955.02" cy="205.6" r="3" fill="#277DA1" fill-opacity="0.35"/><circle cx="345.98" cy="119.35" r="4" fill="#277DA1" fill-opacity="0.40"/><circle cx="703.67" cy="216.61" r="5" fill="#277DA1" fill-opacity="0.45"/><circle cx="1061.36" cy="130.36" r="3" fill="#277DA1" fill-opacity="0.50"/><circle cx="452.32" cy="227.62" r="4" fill="#277DA1" fill-opacity="0.35"/><circle cx="810.01" cy="141.37" r="5" fill="#277DA1" fill-opacity="0.40"/><circle cx="200.98" cy="55.12" r="3" fill="#277DA1" fill-opacity="0.45"/><circle cx="558.66" cy="152.38" r="4" fill="#277DA1" fill-opacity="0.50"/><circle cx="916.35" cy="66.13" r="5" fill="#277DA1" fill-opacity="0.35"/>
  <rect x="95.4" y="35.5" width="229.0" height="53.3" rx="18" fill="#277DA1" fill-opacity="0.16"/>
  <circle cx="1068.5" cy="213.1" r="47.4" fill="#FFFFFF" fill-opacity="0.36" stroke="#0E3140" stroke-opacity="0.10"/>
  <text x="101.8" y="260.5" font-family="Inter, Arial, sans-serif" font-size="27" font-weight="700" fill="#0E3140" fill-opacity="0.72">ISTP-T</text>
  <text x="101.8" y="294.2" font-family="Inter, Arial, sans-serif" font-size="13" font-weight="500" fill="#0E3140" fill-opacity="0.48">growth rhythm map · T</text>
</svg>
