<svg xmlns="http://www.w3.org/2000/svg" width="708" height="480" viewBox="0 0 708 480" role="img" aria-labelledby="title desc">
  <title id="title">ISTP-T Hero identity illustration</title>
  <desc id="desc">Abstract identity lattice for the ISTP-T MBTI desktop result module.</desc>
  <defs>
    <linearGradient id="bg" x1="0" x2="1" y1="0" y2="1">
      <stop offset="0" stop-color="#D8EEF6" stop-opacity="0.92"/>
      <stop offset="0.55" stop-color="#FFFFFF" stop-opacity="0.96"/>
      <stop offset="1" stop-color="#277DA1" stop-opacity="0.14"/>
    </linearGradient>
    <radialGradient id="halo" cx="74%" cy="35%" r="48%">
      <stop offset="0" stop-color="#277DA1" stop-opacity="0.26"/>
      <stop offset="1" stop-color="#277DA1" stop-opacity="0"/>
    </radialGradient>
    <filter id="soft"><feGaussianBlur stdDeviation="18"/></filter>
  </defs>
  <rect width="708" height="480" rx="22" fill="url(#bg)"/>
  <circle cx="552.2" cy="163.2" r="153.6" fill="url(#halo)"/>
  <path d="M 56.6 345.6 C 198.2 120.0, 382.3 412.8, 651.4 134.4" fill="none" stroke="#0E3140" stroke-opacity="0.16" stroke-width="3"/>
  <polyline points="0.0,311.7 88.5,286.2 177.0,232.4 265.5,218.9 354.0,263.0 442.5,308.4 531.0,297.2 619.5,243.7 708.0,216.1" fill="none" stroke="#277DA1" stroke-opacity="0.34" stroke-width="4" stroke-linecap="round"/>
  <line x1="332.48" y1="223.3" x2="192.58" y2="241.15" stroke="#277DA1" stroke-opacity="0.24" stroke-width="2"/><line x1="531.57" y1="381.02" x2="391.67" y2="101.28" stroke="#277DA1" stroke-opacity="0.24" stroke-width="2"/><line x1="192.58" y1="241.15" x2="590.76" y2="259.01" stroke="#277DA1" stroke-opacity="0.24" stroke-width="2"/><line x1="391.67" y1="101.28" x2="251.76" y2="119.14" stroke="#277DA1" stroke-opacity="0.24" stroke-width="2"/><line x1="590.76" y1="259.01" x2="450.85" y2="276.86" stroke="#277DA1" stroke-opacity="0.24" stroke-width="2"/><line x1="450.85" y1="276.86" x2="310.95" y2="294.72" stroke="#277DA1" stroke-opacity="0.24" stroke-width="2"/>
  <circle cx="332.48" cy="223.3" r="3" fill="#277DA1" fill-opacity="0.35"/><circle cx="531.57" cy="381.02" r="4" fill="#277DA1" fill-opacity="0.40"/><circle cx="192.58" cy="241.15" r="5" fill="#277DA1" fill-opacity="0.45"/><circle cx="391.67" cy="101.28" r="3" fill="#277DA1" fill-opacity="0.50"/><circle cx="590.76" cy="259.01" r="4" fill="#277DA1" fill-opacity="0.35"/><circle cx="251.76" cy="119.14" r="5" fill="#277DA1" fill-opacity="0.40"/><circle cx="450.85" cy="276.86" r="3" fill="#277DA1" fill-opacity="0.45"/><circle cx="111.86" cy="136.99" r="4" fill="#277DA1" fill-opacity="0.50"/><circle cx="310.95" cy="294.72" r="5" fill="#277DA1" fill-opacity="0.35"/>
  <rect x="53.1" y="57.6" width="127.4" height="86.4" rx="18" fill="#277DA1" fill-opacity="0.16"/>
  <circle cx="594.7" cy="345.6" r="76.8" fill="#FFFFFF" fill-opacity="0.36" stroke="#0E3140" stroke-opacity="0.10"/>
  <text x="56.6" y="422.4" font-family="Inter, Arial, sans-serif" font-size="43" font-weight="700" fill="#0E3140" fill-opacity="0.72">ISTP-T</text>
  <text x="56.6" y="476.1" font-family="Inter, Arial, sans-serif" font-size="22" font-weight="500" fill="#0E3140" fill-opacity="0.48">identity lattice · T</text>
</svg>
