<svg xmlns="http://www.w3.org/2000/svg" width="720" height="354" viewBox="0 0 720 354" role="img" aria-labelledby="title desc">
  <title id="title">ISTP-T Traits summary illustration</title>
  <desc id="desc">Abstract trait signal card for the ISTP-T MBTI desktop result module.</desc>
  <defs>
    <linearGradient id="bg" x1="0" x2="1" y1="0" y2="1">
      <stop offset="0" stop-color="#D8EEF6" stop-opacity="0.92"/>
      <stop offset="0.55" stop-color="#FFFFFF" stop-opacity="0.96"/>
      <stop offset="1" stop-color="#277DA1" stop-opacity="0.14"/>
    </linearGradient>
    <radialGradient id="halo" cx="74%" cy="35%" r="48%">
      <stop offset="0" stop-color="#277DA1" stop-opacity="0.26"/>
      <stop offset="1" stop-color="#277DA1" stop-opacity="0"/>
    </radialGradient>
    <filter id="soft"><feGaussianBlur stdDeviation="18"/></filter>
  </defs>
  <rect width="720" height="354" rx="22" fill="url(#bg)"/>
  <circle cx="561.6" cy="120.4" r="113.3" fill="url(#halo)"/>
  <path d="M 57.6 254.9 C 201.6 88.5, 388.8 304.4, 662.4 99.1" fill="none" stroke="#0E3140" stroke-opacity="0.16" stroke-width="3"/>
  <polyline points="0.0,222.1 90.0,225.5 180.0,189.6 270.0,160.2 360.0,174.8 450.0,214.8 540.0,229.1 630.0,199.6 720.0,163.8" fill="none" stroke="#277DA1" stroke-opacity="0.34" stroke-width="4" stroke-linecap="round"/>
  <line x1="119.23" y1="76.89" x2="524.16" y2="90.06" stroke="#277DA1" stroke-opacity="0.24" stroke-width="2"/><line x1="321.7" y1="193.21" x2="179.42" y2="206.38" stroke="#277DA1" stroke-opacity="0.24" stroke-width="2"/><line x1="524.16" y1="90.06" x2="381.89" y2="103.23" stroke="#277DA1" stroke-opacity="0.24" stroke-width="2"/><line x1="179.42" y1="206.38" x2="584.35" y2="219.55" stroke="#277DA1" stroke-opacity="0.24" stroke-width="2"/><line x1="381.89" y1="103.23" x2="239.62" y2="116.4" stroke="#277DA1" stroke-opacity="0.24" stroke-width="2"/><line x1="239.62" y1="116.4" x2="97.34" y2="129.56" stroke="#277DA1" stroke-opacity="0.24" stroke-width="2"/>
  <circle cx="119.23" cy="76.89" r="3" fill="#277DA1" fill-opacity="0.35"/><circle cx="321.7" cy="193.21" r="4" fill="#277DA1" fill-opacity="0.40"/><circle cx="524.16" cy="90.06" r="5" fill="#277DA1" fill-opacity="0.45"/><circle cx="179.42" cy="206.38" r="3" fill="#277DA1" fill-opacity="0.50"/><circle cx="381.89" cy="103.23" r="4" fill="#277DA1" fill-opacity="0.35"/><circle cx="584.35" cy="219.55" r="5" fill="#277DA1" fill-opacity="0.40"/><circle cx="239.62" cy="116.4" r="3" fill="#277DA1" fill-opacity="0.45"/><circle cx="442.08" cy="232.72" r="4" fill="#277DA1" fill-opacity="0.50"/><circle cx="97.34" cy="129.56" r="5" fill="#277DA1" fill-opacity="0.35"/>
  <rect x="54.0" y="42.5" width="129.6" height="63.7" rx="18" fill="#277DA1" fill-opacity="0.16"/>
  <circle cx="604.8" cy="254.9" r="56.6" fill="#FFFFFF" fill-opacity="0.36" stroke="#0E3140" stroke-opacity="0.10"/>
  <text x="57.6" y="311.5" font-family="Inter, Arial, sans-serif" font-size="32" font-weight="700" fill="#0E3140" fill-opacity="0.72">ISTP-T</text>
  <text x="57.6" y="351.5" font-family="Inter, Arial, sans-serif" font-size="16" font-weight="500" fill="#0E3140" fill-opacity="0.48">trait signal card · T</text>
</svg>
