<svg xmlns="http://www.w3.org/2000/svg" width="1272" height="296" viewBox="0 0 1272 296" role="img" aria-labelledby="title desc">
  <title id="title">ENFP-T Relationships illustration</title>
  <desc id="desc">Abstract relationship orbit map for the ENFP-T MBTI desktop result module.</desc>
  <defs>
    <linearGradient id="bg" x1="0" x2="1" y1="0" y2="1">
      <stop offset="0" stop-color="#FFF0C2" stop-opacity="0.92"/>
      <stop offset="0.55" stop-color="#FFFFFF" stop-opacity="0.96"/>
      <stop offset="1" stop-color="#FFB703" stop-opacity="0.14"/>
    </linearGradient>
    <radialGradient id="halo" cx="74%" cy="35%" r="48%">
      <stop offset="0" stop-color="#FFB703" stop-opacity="0.26"/>
      <stop offset="1" stop-color="#FFB703" stop-opacity="0"/>
    </radialGradient>
    <filter id="soft"><feGaussianBlur stdDeviation="18"/></filter>
  </defs>
  <rect width="1272" height="296" rx="22" fill="url(#bg)"/>
  <circle cx="992.2" cy="100.6" r="94.7" fill="url(#halo)"/>
  <path d="M 101.8 213.1 C 356.2 74.0, 686.9 254.6, 1170.2 82.9" fill="none" stroke="#493606" stroke-opacity="0.16" stroke-width="3"/>
  <polyline points="0.0,166.1 159.0,191.4 318.0,180.2 477.0,146.8 636.0,133.8 795.0,157.7 954.0,188.1 1113.0,186.2 1272.0,154.4" fill="none" stroke="#FFB703" stroke-opacity="0.34" stroke-width="4" stroke-linecap="round"/>
  <line x1="210.64" y1="64.29" x2="926.02" y2="75.3" stroke="#FFB703" stroke-opacity="0.24" stroke-width="2"/><line x1="568.33" y1="161.56" x2="316.98" y2="172.57" stroke="#FFB703" stroke-opacity="0.24" stroke-width="2"/><line x1="926.02" y1="75.3" x2="674.67" y2="86.31" stroke="#FFB703" stroke-opacity="0.24" stroke-width="2"/><line x1="316.98" y1="172.57" x2="1032.36" y2="183.58" stroke="#FFB703" stroke-opacity="0.24" stroke-width="2"/><line x1="674.67" y1="86.31" x2="423.32" y2="97.32" stroke="#FFB703" stroke-opacity="0.24" stroke-width="2"/><line x1="423.32" y1="97.32" x2="171.97" y2="108.34" stroke="#FFB703" stroke-opacity="0.24" stroke-width="2"/>
  <circle cx="210.64" cy="64.29" r="3" fill="#FFB703" fill-opacity="0.35"/><circle cx="568.33" cy="161.56" r="4" fill="#FFB703" fill-opacity="0.40"/><circle cx="926.02" cy="75.3" r="5" fill="#FFB703" fill-opacity="0.45"/><circle cx="316.98" cy="172.57" r="3" fill="#FFB703" fill-opacity="0.50"/><circle cx="674.67" cy="86.31" r="4" fill="#FFB703" fill-opacity="0.35"/><circle cx="1032.36" cy="183.58" r="5" fill="#FFB703" fill-opacity="0.40"/><circle cx="423.32" cy="97.32" r="3" fill="#FFB703" fill-opacity="0.45"/><circle cx="781.01" cy="194.59" r="4" fill="#FFB703" fill-opacity="0.50"/><circle cx="171.97" cy="108.34" r="5" fill="#FFB703" fill-opacity="0.35"/>
  <rect x="95.4" y="35.5" width="229.0" height="53.3" rx="18" fill="#FFB703" fill-opacity="0.16"/>
  <circle cx="1068.5" cy="213.1" r="47.4" fill="#FFFFFF" fill-opacity="0.36" stroke="#493606" stroke-opacity="0.10"/>
  <text x="101.8" y="260.5" font-family="Inter, Arial, sans-serif" font-size="27" font-weight="700" fill="#493606" fill-opacity="0.72">ENFP-T</text>
  <text x="101.8" y="294.2" font-family="Inter, Arial, sans-serif" font-size="13" font-weight="500" fill="#493606" fill-opacity="0.48">relationship orbit map · T</text>
</svg>
