<svg xmlns="http://www.w3.org/2000/svg" width="1272" height="296" viewBox="0 0 1272 296" role="img" aria-labelledby="title desc">
  <title id="title">ENFP-T Traits axis illustration</title>
  <desc id="desc">Abstract axis map for the ENFP-T MBTI desktop result module.</desc>
  <defs>
    <linearGradient id="bg" x1="0" x2="1" y1="0" y2="1">
      <stop offset="0" stop-color="#FFF0C2" stop-opacity="0.92"/>
      <stop offset="0.55" stop-color="#FFFFFF" stop-opacity="0.96"/>
      <stop offset="1" stop-color="#FFB703" stop-opacity="0.14"/>
    </linearGradient>
    <radialGradient id="halo" cx="74%" cy="35%" r="48%">
      <stop offset="0" stop-color="#FFB703" stop-opacity="0.26"/>
      <stop offset="1" stop-color="#FFB703" stop-opacity="0"/>
    </radialGradient>
    <filter id="soft"><feGaussianBlur stdDeviation="18"/></filter>
  </defs>
  <rect width="1272" height="296" rx="22" fill="url(#bg)"/>
  <circle cx="992.2" cy="100.6" r="94.7" fill="url(#halo)"/>
  <path d="M 101.8 213.1 C 356.2 74.0, 686.9 254.6, 1170.2 82.9" fill="none" stroke="#493606" stroke-opacity="0.16" stroke-width="3"/>
  <polyline points="0.0,146.7 159.0,133.8 318.0,158.0 477.0,188.3 636.0,186.1 795.0,154.2 954.0,133.3 1113.0,150.0 1272.0,183.0" fill="none" stroke="#FFB703" stroke-opacity="0.34" stroke-width="4" stroke-linecap="round"/>
  <line x1="694.0" y1="156.05" x2="442.66" y2="167.06" stroke="#FFB703" stroke-opacity="0.24" stroke-width="2"/><line x1="1051.69" y1="69.8" x2="800.34" y2="80.81" stroke="#FFB703" stroke-opacity="0.24" stroke-width="2"/><line x1="442.66" y1="167.06" x2="191.31" y2="178.07" stroke="#FFB703" stroke-opacity="0.24" stroke-width="2"/><line x1="800.34" y1="80.81" x2="549.0" y2="91.82" stroke="#FFB703" stroke-opacity="0.24" stroke-width="2"/><line x1="191.31" y1="178.07" x2="906.68" y2="189.08" stroke="#FFB703" stroke-opacity="0.24" stroke-width="2"/><line x1="906.68" y1="189.08" x2="655.33" y2="200.1" stroke="#FFB703" stroke-opacity="0.24" stroke-width="2"/>
  <circle cx="694.0" cy="156.05" r="3" fill="#FFB703" fill-opacity="0.35"/><circle cx="1051.69" cy="69.8" r="4" fill="#FFB703" fill-opacity="0.40"/><circle cx="442.66" cy="167.06" r="5" fill="#FFB703" fill-opacity="0.45"/><circle cx="800.34" cy="80.81" r="3" fill="#FFB703" fill-opacity="0.50"/><circle cx="191.31" cy="178.07" r="4" fill="#FFB703" fill-opacity="0.35"/><circle cx="549.0" cy="91.82" r="5" fill="#FFB703" fill-opacity="0.40"/><circle cx="906.68" cy="189.08" r="3" fill="#FFB703" fill-opacity="0.45"/><circle cx="297.65" cy="102.83" r="4" fill="#FFB703" fill-opacity="0.50"/><circle cx="655.33" cy="200.1" r="5" fill="#FFB703" fill-opacity="0.35"/>
  <rect x="95.4" y="35.5" width="229.0" height="53.3" rx="18" fill="#FFB703" fill-opacity="0.16"/>
  <circle cx="1068.5" cy="213.1" r="47.4" fill="#FFFFFF" fill-opacity="0.36" stroke="#493606" stroke-opacity="0.10"/>
  <text x="101.8" y="260.5" font-family="Inter, Arial, sans-serif" font-size="27" font-weight="700" fill="#493606" fill-opacity="0.72">ENFP-T</text>
  <text x="101.8" y="294.2" font-family="Inter, Arial, sans-serif" font-size="13" font-weight="500" fill="#493606" fill-opacity="0.48">axis map · T</text>
</svg>
