<svg xmlns="http://www.w3.org/2000/svg" width="720" height="354" viewBox="0 0 720 354" role="img" aria-labelledby="title desc">
  <title id="title">ENFP-T Traits summary illustration</title>
  <desc id="desc">Abstract trait signal card for the ENFP-T MBTI desktop result module.</desc>
  <defs>
    <linearGradient id="bg" x1="0" x2="1" y1="0" y2="1">
      <stop offset="0" stop-color="#FFF0C2" stop-opacity="0.92"/>
      <stop offset="0.55" stop-color="#FFFFFF" stop-opacity="0.96"/>
      <stop offset="1" stop-color="#FFB703" stop-opacity="0.14"/>
    </linearGradient>
    <radialGradient id="halo" cx="74%" cy="35%" r="48%">
      <stop offset="0" stop-color="#FFB703" stop-opacity="0.26"/>
      <stop offset="1" stop-color="#FFB703" stop-opacity="0"/>
    </radialGradient>
    <filter id="soft"><feGaussianBlur stdDeviation="18"/></filter>
  </defs>
  <rect width="720" height="354" rx="22" fill="url(#bg)"/>
  <circle cx="561.6" cy="120.4" r="113.3" fill="url(#halo)"/>
  <path d="M 57.6 254.9 C 201.6 88.5, 388.8 304.4, 662.4 99.1" fill="none" stroke="#493606" stroke-opacity="0.16" stroke-width="3"/>
  <polyline points="0.0,170.9 90.0,210.5 180.0,229.9 270.0,204.4 360.0,166.5 450.0,164.5 540.0,201.0 630.0,229.5 720.0,213.5" fill="none" stroke="#FFB703" stroke-opacity="0.34" stroke-width="4" stroke-linecap="round"/>
  <line x1="540.58" y1="245.89" x2="398.3" y2="259.06" stroke="#FFB703" stroke-opacity="0.24" stroke-width="2"/><line x1="195.84" y1="142.73" x2="600.77" y2="155.9" stroke="#FFB703" stroke-opacity="0.24" stroke-width="2"/><line x1="398.3" y1="259.06" x2="256.03" y2="272.23" stroke="#FFB703" stroke-opacity="0.24" stroke-width="2"/><line x1="600.77" y1="155.9" x2="458.5" y2="169.07" stroke="#FFB703" stroke-opacity="0.24" stroke-width="2"/><line x1="458.5" y1="169.07" x2="316.22" y2="182.24" stroke="#FFB703" stroke-opacity="0.24" stroke-width="2"/><line x1="316.22" y1="182.24" x2="540.58" y2="245.89" stroke="#FFB703" stroke-opacity="0.24" stroke-width="2"/>
  <circle cx="540.58" cy="245.89" r="3" fill="#FFB703" fill-opacity="0.35"/><circle cx="195.84" cy="142.73" r="4" fill="#FFB703" fill-opacity="0.40"/><circle cx="398.3" cy="259.06" r="5" fill="#FFB703" fill-opacity="0.45"/><circle cx="600.77" cy="155.9" r="3" fill="#FFB703" fill-opacity="0.50"/><circle cx="256.03" cy="272.23" r="4" fill="#FFB703" fill-opacity="0.35"/><circle cx="458.5" cy="169.07" r="5" fill="#FFB703" fill-opacity="0.40"/><circle cx="113.76" cy="65.91" r="3" fill="#FFB703" fill-opacity="0.45"/><circle cx="316.22" cy="182.24" r="4" fill="#FFB703" fill-opacity="0.50"/><circle cx="518.69" cy="79.08" r="5" fill="#FFB703" fill-opacity="0.35"/>
  <rect x="54.0" y="42.5" width="129.6" height="63.7" rx="18" fill="#FFB703" fill-opacity="0.16"/>
  <circle cx="604.8" cy="254.9" r="56.6" fill="#FFFFFF" fill-opacity="0.36" stroke="#493606" stroke-opacity="0.10"/>
  <text x="57.6" y="311.5" font-family="Inter, Arial, sans-serif" font-size="32" font-weight="700" fill="#493606" fill-opacity="0.72">ENFP-T</text>
  <text x="57.6" y="351.5" font-family="Inter, Arial, sans-serif" font-size="16" font-weight="500" fill="#493606" fill-opacity="0.48">trait signal card · T</text>
</svg>
