<svg xmlns="http://www.w3.org/2000/svg" width="756" height="660" viewBox="0 0 756 660" role="img" aria-labelledby="title desc">
  <title id="title">ISTJ-T Final offer illustration</title>
  <desc id="desc">Abstract report unlock panel for the ISTJ-T MBTI desktop result module.</desc>
  <defs>
    <linearGradient id="bg" x1="0" x2="1" y1="0" y2="1">
      <stop offset="0" stop-color="#DFEAF0" stop-opacity="0.92"/>
      <stop offset="0.55" stop-color="#FFFFFF" stop-opacity="0.96"/>
      <stop offset="1" stop-color="#577590" stop-opacity="0.14"/>
    </linearGradient>
    <radialGradient id="halo" cx="74%" cy="35%" r="48%">
      <stop offset="0" stop-color="#577590" stop-opacity="0.26"/>
      <stop offset="1" stop-color="#577590" stop-opacity="0"/>
    </radialGradient>
    <filter id="soft"><feGaussianBlur stdDeviation="18"/></filter>
  </defs>
  <rect width="756" height="660" rx="22" fill="url(#bg)"/>
  <circle cx="589.7" cy="224.4" r="211.2" fill="url(#halo)"/>
  <path d="M 60.5 475.2 C 211.7 165.0, 408.2 567.6, 695.5 184.8" fill="none" stroke="#1E2F3A" stroke-opacity="0.16" stroke-width="3"/>
  <polyline points="0.0,307.6 94.5,309.5 189.0,379.6 283.5,428.6 378.0,393.9 472.5,319.8 567.0,300.8 661.5,361.1 756.0,423.8" fill="none" stroke="#577590" stroke-opacity="0.34" stroke-width="4" stroke-linecap="round"/>
  <line x1="130.94" y1="147.44" x2="556.11" y2="172.0" stroke="#577590" stroke-opacity="0.24" stroke-width="2"/><line x1="343.53" y1="364.32" x2="194.14" y2="388.87" stroke="#577590" stroke-opacity="0.24" stroke-width="2"/><line x1="556.11" y1="172.0" x2="406.73" y2="196.55" stroke="#577590" stroke-opacity="0.24" stroke-width="2"/><line x1="194.14" y1="388.87" x2="619.32" y2="413.42" stroke="#577590" stroke-opacity="0.24" stroke-width="2"/><line x1="619.32" y1="413.42" x2="469.93" y2="437.98" stroke="#577590" stroke-opacity="0.24" stroke-width="2"/><line x1="469.93" y1="437.98" x2="130.94" y2="147.44" stroke="#577590" stroke-opacity="0.24" stroke-width="2"/>
  <circle cx="130.94" cy="147.44" r="3" fill="#577590" fill-opacity="0.35"/><circle cx="343.53" cy="364.32" r="4" fill="#577590" fill-opacity="0.40"/><circle cx="556.11" cy="172.0" r="5" fill="#577590" fill-opacity="0.45"/><circle cx="194.14" cy="388.87" r="3" fill="#577590" fill-opacity="0.50"/><circle cx="406.73" cy="196.55" r="4" fill="#577590" fill-opacity="0.35"/><circle cx="619.32" cy="413.42" r="5" fill="#577590" fill-opacity="0.40"/><circle cx="257.34" cy="221.1" r="3" fill="#577590" fill-opacity="0.45"/><circle cx="469.93" cy="437.98" r="4" fill="#577590" fill-opacity="0.50"/><circle cx="107.96" cy="245.65" r="5" fill="#577590" fill-opacity="0.35"/>
  <rect x="56.7" y="79.2" width="136.1" height="118.8" rx="18" fill="#577590" fill-opacity="0.16"/>
  <circle cx="635.0" cy="475.2" r="105.6" fill="#FFFFFF" fill-opacity="0.36" stroke="#1E2F3A" stroke-opacity="0.10"/>
  <text x="60.5" y="580.8" font-family="Inter, Arial, sans-serif" font-size="59" font-weight="700" fill="#1E2F3A" fill-opacity="0.72">ISTJ-T</text>
  <text x="60.5" y="654.5" font-family="Inter, Arial, sans-serif" font-size="30" font-weight="500" fill="#1E2F3A" fill-opacity="0.48">report unlock panel · T</text>
</svg>
