<svg xmlns="http://www.w3.org/2000/svg" width="708" height="480" viewBox="0 0 708 480" role="img" aria-labelledby="title desc">
  <title id="title">ISTJ-T Hero identity illustration</title>
  <desc id="desc">Abstract identity lattice for the ISTJ-T MBTI desktop result module.</desc>
  <defs>
    <linearGradient id="bg" x1="0" x2="1" y1="0" y2="1">
      <stop offset="0" stop-color="#DFEAF0" stop-opacity="0.92"/>
      <stop offset="0.55" stop-color="#FFFFFF" stop-opacity="0.96"/>
      <stop offset="1" stop-color="#577590" stop-opacity="0.14"/>
    </linearGradient>
    <radialGradient id="halo" cx="74%" cy="35%" r="48%">
      <stop offset="0" stop-color="#577590" stop-opacity="0.26"/>
      <stop offset="1" stop-color="#577590" stop-opacity="0"/>
    </radialGradient>
    <filter id="soft"><feGaussianBlur stdDeviation="18"/></filter>
  </defs>
  <rect width="708" height="480" rx="22" fill="url(#bg)"/>
  <circle cx="552.2" cy="163.2" r="153.6" fill="url(#halo)"/>
  <path d="M 56.6 345.6 C 198.2 120.0, 382.3 412.8, 651.4 134.4" fill="none" stroke="#1E2F3A" stroke-opacity="0.16" stroke-width="3"/>
  <polyline points="0.0,305.3 88.5,301.7 177.0,250.0 265.5,216.1 354.0,243.3 442.5,296.9 531.0,308.5 619.5,263.4 708.0,219.0" fill="none" stroke="#577590" stroke-opacity="0.34" stroke-width="4" stroke-linecap="round"/>
  <line x1="300.19" y1="205.44" x2="160.29" y2="223.3" stroke="#577590" stroke-opacity="0.24" stroke-width="2"/><line x1="499.28" y1="363.17" x2="359.38" y2="381.02" stroke="#577590" stroke-opacity="0.24" stroke-width="2"/><line x1="160.29" y1="223.3" x2="558.47" y2="241.15" stroke="#577590" stroke-opacity="0.24" stroke-width="2"/><line x1="359.38" y1="381.02" x2="219.48" y2="101.28" stroke="#577590" stroke-opacity="0.24" stroke-width="2"/><line x1="558.47" y1="241.15" x2="418.57" y2="259.01" stroke="#577590" stroke-opacity="0.24" stroke-width="2"/><line x1="418.57" y1="259.01" x2="278.67" y2="276.86" stroke="#577590" stroke-opacity="0.24" stroke-width="2"/>
  <circle cx="300.19" cy="205.44" r="3" fill="#577590" fill-opacity="0.35"/><circle cx="499.28" cy="363.17" r="4" fill="#577590" fill-opacity="0.40"/><circle cx="160.29" cy="223.3" r="5" fill="#577590" fill-opacity="0.45"/><circle cx="359.38" cy="381.02" r="3" fill="#577590" fill-opacity="0.50"/><circle cx="558.47" cy="241.15" r="4" fill="#577590" fill-opacity="0.35"/><circle cx="219.48" cy="101.28" r="5" fill="#577590" fill-opacity="0.40"/><circle cx="418.57" cy="259.01" r="3" fill="#577590" fill-opacity="0.45"/><circle cx="617.66" cy="119.14" r="4" fill="#577590" fill-opacity="0.50"/><circle cx="278.67" cy="276.86" r="5" fill="#577590" fill-opacity="0.35"/>
  <rect x="53.1" y="57.6" width="127.4" height="86.4" rx="18" fill="#577590" fill-opacity="0.16"/>
  <circle cx="594.7" cy="345.6" r="76.8" fill="#FFFFFF" fill-opacity="0.36" stroke="#1E2F3A" stroke-opacity="0.10"/>
  <text x="56.6" y="422.4" font-family="Inter, Arial, sans-serif" font-size="43" font-weight="700" fill="#1E2F3A" fill-opacity="0.72">ISTJ-T</text>
  <text x="56.6" y="476.1" font-family="Inter, Arial, sans-serif" font-size="22" font-weight="500" fill="#1E2F3A" fill-opacity="0.48">identity lattice · T</text>
</svg>
