<svg xmlns="http://www.w3.org/2000/svg" width="720" height="354" viewBox="0 0 720 354" role="img" aria-labelledby="title desc">
  <title id="title">ISTJ-T Traits summary illustration</title>
  <desc id="desc">Abstract trait signal card for the ISTJ-T MBTI desktop result module.</desc>
  <defs>
    <linearGradient id="bg" x1="0" x2="1" y1="0" y2="1">
      <stop offset="0" stop-color="#DFEAF0" stop-opacity="0.92"/>
      <stop offset="0.55" stop-color="#FFFFFF" stop-opacity="0.96"/>
      <stop offset="1" stop-color="#577590" stop-opacity="0.14"/>
    </linearGradient>
    <radialGradient id="halo" cx="74%" cy="35%" r="48%">
      <stop offset="0" stop-color="#577590" stop-opacity="0.26"/>
      <stop offset="1" stop-color="#577590" stop-opacity="0"/>
    </radialGradient>
    <filter id="soft"><feGaussianBlur stdDeviation="18"/></filter>
  </defs>
  <rect width="720" height="354" rx="22" fill="url(#bg)"/>
  <circle cx="561.6" cy="120.4" r="113.3" fill="url(#halo)"/>
  <path d="M 57.6 254.9 C 201.6 88.5, 388.8 304.4, 662.4 99.1" fill="none" stroke="#1E2F3A" stroke-opacity="0.16" stroke-width="3"/>
  <polyline points="0.0,210.5 90.0,229.9 180.0,204.4 270.0,166.5 360.0,164.5 450.0,201.0 540.0,229.5 630.0,213.5 720.0,173.6" fill="none" stroke="#577590" stroke-opacity="0.34" stroke-width="4" stroke-linecap="round"/>
  <line x1="86.4" y1="63.72" x2="491.33" y2="76.89" stroke="#577590" stroke-opacity="0.24" stroke-width="2"/><line x1="288.86" y1="180.04" x2="146.59" y2="193.21" stroke="#577590" stroke-opacity="0.24" stroke-width="2"/><line x1="491.33" y1="76.89" x2="349.06" y2="90.06" stroke="#577590" stroke-opacity="0.24" stroke-width="2"/><line x1="146.59" y1="193.21" x2="551.52" y2="206.38" stroke="#577590" stroke-opacity="0.24" stroke-width="2"/><line x1="349.06" y1="90.06" x2="206.78" y2="103.23" stroke="#577590" stroke-opacity="0.24" stroke-width="2"/><line x1="206.78" y1="103.23" x2="611.71" y2="116.4" stroke="#577590" stroke-opacity="0.24" stroke-width="2"/>
  <circle cx="86.4" cy="63.72" r="3" fill="#577590" fill-opacity="0.35"/><circle cx="288.86" cy="180.04" r="4" fill="#577590" fill-opacity="0.40"/><circle cx="491.33" cy="76.89" r="5" fill="#577590" fill-opacity="0.45"/><circle cx="146.59" cy="193.21" r="3" fill="#577590" fill-opacity="0.50"/><circle cx="349.06" cy="90.06" r="4" fill="#577590" fill-opacity="0.35"/><circle cx="551.52" cy="206.38" r="5" fill="#577590" fill-opacity="0.40"/><circle cx="206.78" cy="103.23" r="3" fill="#577590" fill-opacity="0.45"/><circle cx="409.25" cy="219.55" r="4" fill="#577590" fill-opacity="0.50"/><circle cx="611.71" cy="116.4" r="5" fill="#577590" fill-opacity="0.35"/>
  <rect x="54.0" y="42.5" width="129.6" height="63.7" rx="18" fill="#577590" fill-opacity="0.16"/>
  <circle cx="604.8" cy="254.9" r="56.6" fill="#FFFFFF" fill-opacity="0.36" stroke="#1E2F3A" stroke-opacity="0.10"/>
  <text x="57.6" y="311.5" font-family="Inter, Arial, sans-serif" font-size="32" font-weight="700" fill="#1E2F3A" fill-opacity="0.72">ISTJ-T</text>
  <text x="57.6" y="351.5" font-family="Inter, Arial, sans-serif" font-size="16" font-weight="500" fill="#1E2F3A" fill-opacity="0.48">trait signal card · T</text>
</svg>
