<svg xmlns="http://www.w3.org/2000/svg" width="1272" height="296" viewBox="0 0 1272 296" role="img" aria-labelledby="title desc">
  <title id="title">ENTJ-T Career path illustration</title>
  <desc id="desc">Abstract career path map for the ENTJ-T MBTI desktop result module.</desc>
  <defs>
    <linearGradient id="bg" x1="0" x2="1" y1="0" y2="1">
      <stop offset="0" stop-color="#ECDFFF" stop-opacity="0.92"/>
      <stop offset="0.55" stop-color="#FFFFFF" stop-opacity="0.96"/>
      <stop offset="1" stop-color="#9B5DE5" stop-opacity="0.14"/>
    </linearGradient>
    <radialGradient id="halo" cx="74%" cy="35%" r="48%">
      <stop offset="0" stop-color="#9B5DE5" stop-opacity="0.26"/>
      <stop offset="1" stop-color="#9B5DE5" stop-opacity="0"/>
    </radialGradient>
    <filter id="soft"><feGaussianBlur stdDeviation="18"/></filter>
  </defs>
  <rect width="1272" height="296" rx="22" fill="url(#bg)"/>
  <circle cx="992.2" cy="100.6" r="94.7" fill="url(#halo)"/>
  <path d="M 101.8 213.1 C 356.2 74.0, 686.9 254.6, 1170.2 82.9" fill="none" stroke="#2A174E" stroke-opacity="0.16" stroke-width="3"/>
  <polyline points="0.0,192.2 159.0,170.7 318.0,139.1 477.0,137.7 636.0,168.3 795.0,191.9 954.0,178.4 1113.0,145.0 1272.0,134.3" fill="none" stroke="#9B5DE5" stroke-opacity="0.34" stroke-width="4" stroke-linecap="round"/>
  <line x1="413.65" y1="102.83" x2="162.31" y2="113.84" stroke="#9B5DE5" stroke-opacity="0.24" stroke-width="2"/><line x1="771.34" y1="200.1" x2="519.99" y2="211.11" stroke="#9B5DE5" stroke-opacity="0.24" stroke-width="2"/><line x1="162.31" y1="113.84" x2="877.68" y2="124.85" stroke="#9B5DE5" stroke-opacity="0.24" stroke-width="2"/><line x1="519.99" y1="211.11" x2="268.65" y2="222.12" stroke="#9B5DE5" stroke-opacity="0.24" stroke-width="2"/><line x1="268.65" y1="222.12" x2="984.02" y2="233.13" stroke="#9B5DE5" stroke-opacity="0.24" stroke-width="2"/><line x1="984.02" y1="233.13" x2="413.65" y2="102.83" stroke="#9B5DE5" stroke-opacity="0.24" stroke-width="2"/>
  <circle cx="413.65" cy="102.83" r="3" fill="#9B5DE5" fill-opacity="0.35"/><circle cx="771.34" cy="200.1" r="4" fill="#9B5DE5" fill-opacity="0.40"/><circle cx="162.31" cy="113.84" r="5" fill="#9B5DE5" fill-opacity="0.45"/><circle cx="519.99" cy="211.11" r="3" fill="#9B5DE5" fill-opacity="0.50"/><circle cx="877.68" cy="124.85" r="4" fill="#9B5DE5" fill-opacity="0.35"/><circle cx="268.65" cy="222.12" r="5" fill="#9B5DE5" fill-opacity="0.40"/><circle cx="626.33" cy="135.86" r="3" fill="#9B5DE5" fill-opacity="0.45"/><circle cx="984.02" cy="233.13" r="4" fill="#9B5DE5" fill-opacity="0.50"/><circle cx="374.99" cy="146.88" r="5" fill="#9B5DE5" fill-opacity="0.35"/>
  <rect x="95.4" y="35.5" width="229.0" height="53.3" rx="18" fill="#9B5DE5" fill-opacity="0.16"/>
  <circle cx="1068.5" cy="213.1" r="47.4" fill="#FFFFFF" fill-opacity="0.36" stroke="#2A174E" stroke-opacity="0.10"/>
  <text x="101.8" y="260.5" font-family="Inter, Arial, sans-serif" font-size="27" font-weight="700" fill="#2A174E" fill-opacity="0.72">ENTJ-T</text>
  <text x="101.8" y="294.2" font-family="Inter, Arial, sans-serif" font-size="13" font-weight="500" fill="#2A174E" fill-opacity="0.48">career path map · T</text>
</svg>
