<svg xmlns="http://www.w3.org/2000/svg" width="756" height="660" viewBox="0 0 756 660" role="img" aria-labelledby="title desc">
  <title id="title">ENTJ-T Final offer illustration</title>
  <desc id="desc">Abstract report unlock panel for the ENTJ-T MBTI desktop result module.</desc>
  <defs>
    <linearGradient id="bg" x1="0" x2="1" y1="0" y2="1">
      <stop offset="0" stop-color="#ECDFFF" stop-opacity="0.92"/>
      <stop offset="0.55" stop-color="#FFFFFF" stop-opacity="0.96"/>
      <stop offset="1" stop-color="#9B5DE5" stop-opacity="0.14"/>
    </linearGradient>
    <radialGradient id="halo" cx="74%" cy="35%" r="48%">
      <stop offset="0" stop-color="#9B5DE5" stop-opacity="0.26"/>
      <stop offset="1" stop-color="#9B5DE5" stop-opacity="0"/>
    </radialGradient>
    <filter id="soft"><feGaussianBlur stdDeviation="18"/></filter>
  </defs>
  <rect width="756" height="660" rx="22" fill="url(#bg)"/>
  <circle cx="589.7" cy="224.4" r="211.2" fill="url(#halo)"/>
  <path d="M 60.5 475.2 C 211.7 165.0, 408.2 567.6, 695.5 184.8" fill="none" stroke="#2A174E" stroke-opacity="0.16" stroke-width="3"/>
  <polyline points="0.0,339.7 94.5,297.0 189.0,338.5 283.5,411.2 378.0,422.5 472.5,357.9 567.0,299.8 661.5,322.3 756.0,396.7" fill="none" stroke="#9B5DE5" stroke-opacity="0.34" stroke-width="4" stroke-linecap="round"/>
  <line x1="653.79" y1="519.82" x2="504.4" y2="135.17" stroke="#9B5DE5" stroke-opacity="0.24" stroke-width="2"/><line x1="291.82" y1="327.49" x2="142.43" y2="352.04" stroke="#9B5DE5" stroke-opacity="0.24" stroke-width="2"/><line x1="504.4" y1="135.17" x2="355.02" y2="159.72" stroke="#9B5DE5" stroke-opacity="0.24" stroke-width="2"/><line x1="142.43" y1="352.04" x2="567.6" y2="376.6" stroke="#9B5DE5" stroke-opacity="0.24" stroke-width="2"/><line x1="355.02" y1="159.72" x2="205.63" y2="184.27" stroke="#9B5DE5" stroke-opacity="0.24" stroke-width="2"/><line x1="205.63" y1="184.27" x2="630.81" y2="208.82" stroke="#9B5DE5" stroke-opacity="0.24" stroke-width="2"/>
  <circle cx="653.79" cy="519.82" r="3" fill="#9B5DE5" fill-opacity="0.35"/><circle cx="291.82" cy="327.49" r="4" fill="#9B5DE5" fill-opacity="0.40"/><circle cx="504.4" cy="135.17" r="5" fill="#9B5DE5" fill-opacity="0.45"/><circle cx="142.43" cy="352.04" r="3" fill="#9B5DE5" fill-opacity="0.50"/><circle cx="355.02" cy="159.72" r="4" fill="#9B5DE5" fill-opacity="0.35"/><circle cx="567.6" cy="376.6" r="5" fill="#9B5DE5" fill-opacity="0.40"/><circle cx="205.63" cy="184.27" r="3" fill="#9B5DE5" fill-opacity="0.45"/><circle cx="418.22" cy="401.15" r="4" fill="#9B5DE5" fill-opacity="0.50"/><circle cx="630.81" cy="208.82" r="5" fill="#9B5DE5" fill-opacity="0.35"/>
  <rect x="56.7" y="79.2" width="136.1" height="118.8" rx="18" fill="#9B5DE5" fill-opacity="0.16"/>
  <circle cx="635.0" cy="475.2" r="105.6" fill="#FFFFFF" fill-opacity="0.36" stroke="#2A174E" stroke-opacity="0.10"/>
  <text x="60.5" y="580.8" font-family="Inter, Arial, sans-serif" font-size="59" font-weight="700" fill="#2A174E" fill-opacity="0.72">ENTJ-T</text>
  <text x="60.5" y="654.5" font-family="Inter, Arial, sans-serif" font-size="30" font-weight="500" fill="#2A174E" fill-opacity="0.48">report unlock panel · T</text>
</svg>
