<svg xmlns="http://www.w3.org/2000/svg" width="708" height="480" viewBox="0 0 708 480" role="img" aria-labelledby="title desc">
  <title id="title">ENTJ-T Hero identity illustration</title>
  <desc id="desc">Abstract identity lattice for the ENTJ-T MBTI desktop result module.</desc>
  <defs>
    <linearGradient id="bg" x1="0" x2="1" y1="0" y2="1">
      <stop offset="0" stop-color="#ECDFFF" stop-opacity="0.92"/>
      <stop offset="0.55" stop-color="#FFFFFF" stop-opacity="0.96"/>
      <stop offset="1" stop-color="#9B5DE5" stop-opacity="0.14"/>
    </linearGradient>
    <radialGradient id="halo" cx="74%" cy="35%" r="48%">
      <stop offset="0" stop-color="#9B5DE5" stop-opacity="0.26"/>
      <stop offset="1" stop-color="#9B5DE5" stop-opacity="0"/>
    </radialGradient>
    <filter id="soft"><feGaussianBlur stdDeviation="18"/></filter>
  </defs>
  <rect width="708" height="480" rx="22" fill="url(#bg)"/>
  <circle cx="552.2" cy="163.2" r="153.6" fill="url(#halo)"/>
  <path d="M 56.6 345.6 C 198.2 120.0, 382.3 412.8, 651.4 134.4" fill="none" stroke="#2A174E" stroke-opacity="0.16" stroke-width="3"/>
  <polyline points="0.0,282.8 88.5,312.0 177.0,280.0 265.5,227.6 354.0,221.7 442.5,269.7 531.0,310.5 619.5,292.0 708.0,237.8" fill="none" stroke="#9B5DE5" stroke-opacity="0.34" stroke-width="4" stroke-linecap="round"/>
  <line x1="251.76" y1="178.66" x2="111.86" y2="196.51" stroke="#9B5DE5" stroke-opacity="0.24" stroke-width="2"/><line x1="450.85" y1="336.38" x2="310.95" y2="354.24" stroke="#9B5DE5" stroke-opacity="0.24" stroke-width="2"/><line x1="111.86" y1="196.51" x2="510.04" y2="214.37" stroke="#9B5DE5" stroke-opacity="0.24" stroke-width="2"/><line x1="310.95" y1="354.24" x2="171.05" y2="372.1" stroke="#9B5DE5" stroke-opacity="0.24" stroke-width="2"/><line x1="171.05" y1="372.1" x2="569.23" y2="92.35" stroke="#9B5DE5" stroke-opacity="0.24" stroke-width="2"/><line x1="569.23" y1="92.35" x2="251.76" y2="178.66" stroke="#9B5DE5" stroke-opacity="0.24" stroke-width="2"/>
  <circle cx="251.76" cy="178.66" r="3" fill="#9B5DE5" fill-opacity="0.35"/><circle cx="450.85" cy="336.38" r="4" fill="#9B5DE5" fill-opacity="0.40"/><circle cx="111.86" cy="196.51" r="5" fill="#9B5DE5" fill-opacity="0.45"/><circle cx="310.95" cy="354.24" r="3" fill="#9B5DE5" fill-opacity="0.50"/><circle cx="510.04" cy="214.37" r="4" fill="#9B5DE5" fill-opacity="0.35"/><circle cx="171.05" cy="372.1" r="5" fill="#9B5DE5" fill-opacity="0.40"/><circle cx="370.14" cy="232.22" r="3" fill="#9B5DE5" fill-opacity="0.45"/><circle cx="569.23" cy="92.35" r="4" fill="#9B5DE5" fill-opacity="0.50"/><circle cx="230.24" cy="250.08" r="5" fill="#9B5DE5" fill-opacity="0.35"/>
  <rect x="53.1" y="57.6" width="127.4" height="86.4" rx="18" fill="#9B5DE5" fill-opacity="0.16"/>
  <circle cx="594.7" cy="345.6" r="76.8" fill="#FFFFFF" fill-opacity="0.36" stroke="#2A174E" stroke-opacity="0.10"/>
  <text x="56.6" y="422.4" font-family="Inter, Arial, sans-serif" font-size="43" font-weight="700" fill="#2A174E" fill-opacity="0.72">ENTJ-T</text>
  <text x="56.6" y="476.1" font-family="Inter, Arial, sans-serif" font-size="22" font-weight="500" fill="#2A174E" fill-opacity="0.48">identity lattice · T</text>
</svg>
