<svg xmlns="http://www.w3.org/2000/svg" width="720" height="354" viewBox="0 0 720 354" role="img" aria-labelledby="title desc">
  <title id="title">ENTJ-T Traits summary illustration</title>
  <desc id="desc">Abstract trait signal card for the ENTJ-T MBTI desktop result module.</desc>
  <defs>
    <linearGradient id="bg" x1="0" x2="1" y1="0" y2="1">
      <stop offset="0" stop-color="#ECDFFF" stop-opacity="0.92"/>
      <stop offset="0.55" stop-color="#FFFFFF" stop-opacity="0.96"/>
      <stop offset="1" stop-color="#9B5DE5" stop-opacity="0.14"/>
    </linearGradient>
    <radialGradient id="halo" cx="74%" cy="35%" r="48%">
      <stop offset="0" stop-color="#9B5DE5" stop-opacity="0.26"/>
      <stop offset="1" stop-color="#9B5DE5" stop-opacity="0"/>
    </radialGradient>
    <filter id="soft"><feGaussianBlur stdDeviation="18"/></filter>
  </defs>
  <rect width="720" height="354" rx="22" fill="url(#bg)"/>
  <circle cx="561.6" cy="120.4" r="113.3" fill="url(#halo)"/>
  <path d="M 57.6 254.9 C 201.6 88.5, 388.8 304.4, 662.4 99.1" fill="none" stroke="#2A174E" stroke-opacity="0.16" stroke-width="3"/>
  <polyline points="0.0,188.6 90.0,225.0 180.0,222.7 270.0,184.7 360.0,159.4 450.0,179.1 540.0,218.7 630.0,227.7 720.0,194.6" fill="none" stroke="#9B5DE5" stroke-opacity="0.34" stroke-width="4" stroke-linecap="round"/>
  <line x1="584.35" y1="263.45" x2="442.08" y2="276.62" stroke="#9B5DE5" stroke-opacity="0.24" stroke-width="2"/><line x1="239.62" y1="160.29" x2="97.34" y2="173.46" stroke="#9B5DE5" stroke-opacity="0.24" stroke-width="2"/><line x1="442.08" y1="276.62" x2="299.81" y2="70.3" stroke="#9B5DE5" stroke-opacity="0.24" stroke-width="2"/><line x1="97.34" y1="173.46" x2="502.27" y2="186.63" stroke="#9B5DE5" stroke-opacity="0.24" stroke-width="2"/><line x1="502.27" y1="186.63" x2="360.0" y2="199.8" stroke="#9B5DE5" stroke-opacity="0.24" stroke-width="2"/><line x1="360.0" y1="199.8" x2="584.35" y2="263.45" stroke="#9B5DE5" stroke-opacity="0.24" stroke-width="2"/>
  <circle cx="584.35" cy="263.45" r="3" fill="#9B5DE5" fill-opacity="0.35"/><circle cx="239.62" cy="160.29" r="4" fill="#9B5DE5" fill-opacity="0.40"/><circle cx="442.08" cy="276.62" r="5" fill="#9B5DE5" fill-opacity="0.45"/><circle cx="97.34" cy="173.46" r="3" fill="#9B5DE5" fill-opacity="0.50"/><circle cx="299.81" cy="70.3" r="4" fill="#9B5DE5" fill-opacity="0.35"/><circle cx="502.27" cy="186.63" r="5" fill="#9B5DE5" fill-opacity="0.40"/><circle cx="157.54" cy="83.47" r="3" fill="#9B5DE5" fill-opacity="0.45"/><circle cx="360.0" cy="199.8" r="4" fill="#9B5DE5" fill-opacity="0.50"/><circle cx="562.46" cy="96.64" r="5" fill="#9B5DE5" fill-opacity="0.35"/>
  <rect x="54.0" y="42.5" width="129.6" height="63.7" rx="18" fill="#9B5DE5" fill-opacity="0.16"/>
  <circle cx="604.8" cy="254.9" r="56.6" fill="#FFFFFF" fill-opacity="0.36" stroke="#2A174E" stroke-opacity="0.10"/>
  <text x="57.6" y="311.5" font-family="Inter, Arial, sans-serif" font-size="32" font-weight="700" fill="#2A174E" fill-opacity="0.72">ENTJ-T</text>
  <text x="57.6" y="351.5" font-family="Inter, Arial, sans-serif" font-size="16" font-weight="500" fill="#2A174E" fill-opacity="0.48">trait signal card · T</text>
</svg>
