<svg xmlns="http://www.w3.org/2000/svg" width="1272" height="296" viewBox="0 0 1272 296" role="img" aria-labelledby="title desc">
  <title id="title">ENTJ-T Traits axis illustration</title>
  <desc id="desc">Abstract axis map for the ENTJ-T MBTI desktop result module.</desc>
  <defs>
    <linearGradient id="bg" x1="0" x2="1" y1="0" y2="1">
      <stop offset="0" stop-color="#ECDFFF" stop-opacity="0.92"/>
      <stop offset="0.55" stop-color="#FFFFFF" stop-opacity="0.96"/>
      <stop offset="1" stop-color="#9B5DE5" stop-opacity="0.14"/>
    </linearGradient>
    <radialGradient id="halo" cx="74%" cy="35%" r="48%">
      <stop offset="0" stop-color="#9B5DE5" stop-opacity="0.26"/>
      <stop offset="1" stop-color="#9B5DE5" stop-opacity="0"/>
    </radialGradient>
    <filter id="soft"><feGaussianBlur stdDeviation="18"/></filter>
  </defs>
  <rect width="1272" height="296" rx="22" fill="url(#bg)"/>
  <circle cx="992.2" cy="100.6" r="94.7" fill="url(#halo)"/>
  <path d="M 101.8 213.1 C 356.2 74.0, 686.9 254.6, 1170.2 82.9" fill="none" stroke="#2A174E" stroke-opacity="0.16" stroke-width="3"/>
  <polyline points="0.0,135.9 159.0,141.6 318.0,174.3 477.0,192.4 636.0,172.7 795.0,140.4 954.0,136.7 1113.0,166.3 1272.0,191.5" fill="none" stroke="#9B5DE5" stroke-opacity="0.34" stroke-width="4" stroke-linecap="round"/>
  <line x1="771.34" y1="170.73" x2="519.99" y2="181.74" stroke="#9B5DE5" stroke-opacity="0.24" stroke-width="2"/><line x1="162.31" y1="84.48" x2="877.68" y2="95.49" stroke="#9B5DE5" stroke-opacity="0.24" stroke-width="2"/><line x1="519.99" y1="181.74" x2="268.65" y2="192.76" stroke="#9B5DE5" stroke-opacity="0.24" stroke-width="2"/><line x1="877.68" y1="95.49" x2="626.33" y2="106.5" stroke="#9B5DE5" stroke-opacity="0.24" stroke-width="2"/><line x1="268.65" y1="192.76" x2="984.02" y2="203.77" stroke="#9B5DE5" stroke-opacity="0.24" stroke-width="2"/><line x1="984.02" y1="203.77" x2="732.67" y2="214.78" stroke="#9B5DE5" stroke-opacity="0.24" stroke-width="2"/>
  <circle cx="771.34" cy="170.73" r="3" fill="#9B5DE5" fill-opacity="0.35"/><circle cx="162.31" cy="84.48" r="4" fill="#9B5DE5" fill-opacity="0.40"/><circle cx="519.99" cy="181.74" r="5" fill="#9B5DE5" fill-opacity="0.45"/><circle cx="877.68" cy="95.49" r="3" fill="#9B5DE5" fill-opacity="0.50"/><circle cx="268.65" cy="192.76" r="4" fill="#9B5DE5" fill-opacity="0.35"/><circle cx="626.33" cy="106.5" r="5" fill="#9B5DE5" fill-opacity="0.40"/><circle cx="984.02" cy="203.77" r="3" fill="#9B5DE5" fill-opacity="0.45"/><circle cx="374.99" cy="117.51" r="4" fill="#9B5DE5" fill-opacity="0.50"/><circle cx="732.67" cy="214.78" r="5" fill="#9B5DE5" fill-opacity="0.35"/>
  <rect x="95.4" y="35.5" width="229.0" height="53.3" rx="18" fill="#9B5DE5" fill-opacity="0.16"/>
  <circle cx="1068.5" cy="213.1" r="47.4" fill="#FFFFFF" fill-opacity="0.36" stroke="#2A174E" stroke-opacity="0.10"/>
  <text x="101.8" y="260.5" font-family="Inter, Arial, sans-serif" font-size="27" font-weight="700" fill="#2A174E" fill-opacity="0.72">ENTJ-T</text>
  <text x="101.8" y="294.2" font-family="Inter, Arial, sans-serif" font-size="13" font-weight="500" fill="#2A174E" fill-opacity="0.48">axis map · T</text>
</svg>
