<svg xmlns="http://www.w3.org/2000/svg" width="756" height="660" viewBox="0 0 756 660" role="img" aria-labelledby="title desc">
  <title id="title">INFP-A Final offer illustration</title>
  <desc id="desc">Abstract report unlock panel for the INFP-A MBTI desktop result module.</desc>
  <defs>
    <linearGradient id="bg" x1="0" x2="1" y1="0" y2="1">
      <stop offset="0" stop-color="#E1F7E7" stop-opacity="0.92"/>
      <stop offset="0.55" stop-color="#FFFFFF" stop-opacity="0.96"/>
      <stop offset="1" stop-color="#7BD389" stop-opacity="0.14"/>
    </linearGradient>
    <radialGradient id="halo" cx="74%" cy="35%" r="48%">
      <stop offset="0" stop-color="#7BD389" stop-opacity="0.26"/>
      <stop offset="1" stop-color="#7BD389" stop-opacity="0"/>
    </radialGradient>
    <filter id="soft"><feGaussianBlur stdDeviation="18"/></filter>
  </defs>
  <rect width="756" height="660" rx="22" fill="url(#bg)"/>
  <circle cx="589.7" cy="224.4" r="211.2" fill="url(#halo)"/>
  <path d="M 60.5 475.2 C 211.7 165.0, 408.2 567.6, 695.5 184.8" fill="none" stroke="#1E5130" stroke-opacity="0.16" stroke-width="3"/>
  <polyline points="0.0,425.9 94.5,367.1 189.0,303.1 283.5,315.5 378.0,388.5 472.5,429.0 567.0,385.4 661.5,313.2 756.0,304.6" fill="none" stroke="#7BD389" stroke-opacity="0.34" stroke-width="4" stroke-linecap="round"/>
  <line x1="521.64" y1="425.7" x2="372.25" y2="450.25" stroke="#7BD389" stroke-opacity="0.24" stroke-width="2"/><line x1="159.67" y1="233.38" x2="584.84" y2="257.93" stroke="#7BD389" stroke-opacity="0.24" stroke-width="2"/><line x1="372.25" y1="450.25" x2="222.87" y2="474.8" stroke="#7BD389" stroke-opacity="0.24" stroke-width="2"/><line x1="584.84" y1="257.93" x2="435.46" y2="282.48" stroke="#7BD389" stroke-opacity="0.24" stroke-width="2"/><line x1="435.46" y1="282.48" x2="286.07" y2="307.03" stroke="#7BD389" stroke-opacity="0.24" stroke-width="2"/><line x1="286.07" y1="307.03" x2="521.64" y2="425.7" stroke="#7BD389" stroke-opacity="0.24" stroke-width="2"/>
  <circle cx="521.64" cy="425.7" r="3" fill="#7BD389" fill-opacity="0.35"/><circle cx="159.67" cy="233.38" r="4" fill="#7BD389" fill-opacity="0.40"/><circle cx="372.25" cy="450.25" r="5" fill="#7BD389" fill-opacity="0.45"/><circle cx="584.84" cy="257.93" r="3" fill="#7BD389" fill-opacity="0.50"/><circle cx="222.87" cy="474.8" r="4" fill="#7BD389" fill-opacity="0.35"/><circle cx="435.46" cy="282.48" r="5" fill="#7BD389" fill-opacity="0.40"/><circle cx="648.04" cy="499.36" r="3" fill="#7BD389" fill-opacity="0.45"/><circle cx="286.07" cy="307.03" r="4" fill="#7BD389" fill-opacity="0.50"/><circle cx="498.66" cy="523.91" r="5" fill="#7BD389" fill-opacity="0.35"/>
  <rect x="56.7" y="79.2" width="136.1" height="118.8" rx="18" fill="#7BD389" fill-opacity="0.16"/>
  <circle cx="635.0" cy="475.2" r="105.6" fill="#FFFFFF" fill-opacity="0.36" stroke="#1E5130" stroke-opacity="0.10"/>
  <text x="60.5" y="580.8" font-family="Inter, Arial, sans-serif" font-size="59" font-weight="700" fill="#1E5130" fill-opacity="0.72">INFP-A</text>
  <text x="60.5" y="654.5" font-family="Inter, Arial, sans-serif" font-size="30" font-weight="500" fill="#1E5130" fill-opacity="0.48">report unlock panel · A</text>
</svg>
