<svg xmlns="http://www.w3.org/2000/svg" width="708" height="480" viewBox="0 0 708 480" role="img" aria-labelledby="title desc">
  <title id="title">INFP-A Hero identity illustration</title>
  <desc id="desc">Abstract identity lattice for the INFP-A MBTI desktop result module.</desc>
  <defs>
    <linearGradient id="bg" x1="0" x2="1" y1="0" y2="1">
      <stop offset="0" stop-color="#E1F7E7" stop-opacity="0.92"/>
      <stop offset="0.55" stop-color="#FFFFFF" stop-opacity="0.96"/>
      <stop offset="1" stop-color="#7BD389" stop-opacity="0.14"/>
    </linearGradient>
    <radialGradient id="halo" cx="74%" cy="35%" r="48%">
      <stop offset="0" stop-color="#7BD389" stop-opacity="0.26"/>
      <stop offset="1" stop-color="#7BD389" stop-opacity="0"/>
    </radialGradient>
    <filter id="soft"><feGaussianBlur stdDeviation="18"/></filter>
  </defs>
  <rect width="708" height="480" rx="22" fill="url(#bg)"/>
  <circle cx="552.2" cy="163.2" r="153.6" fill="url(#halo)"/>
  <path d="M 56.6 345.6 C 198.2 120.0, 382.3 412.8, 651.4 134.4" fill="none" stroke="#1E5130" stroke-opacity="0.16" stroke-width="3"/>
  <polyline points="0.0,218.9 88.5,263.0 177.0,308.4 265.5,297.2 354.0,243.7 442.5,216.1 531.0,249.6 619.5,301.5 708.0,305.5" fill="none" stroke="#7BD389" stroke-opacity="0.34" stroke-width="4" stroke-linecap="round"/>
  <line x1="128.01" y1="110.21" x2="526.19" y2="128.06" stroke="#7BD389" stroke-opacity="0.24" stroke-width="2"/><line x1="327.1" y1="267.94" x2="187.2" y2="285.79" stroke="#7BD389" stroke-opacity="0.24" stroke-width="2"/><line x1="526.19" y1="128.06" x2="386.28" y2="145.92" stroke="#7BD389" stroke-opacity="0.24" stroke-width="2"/><line x1="187.2" y1="285.79" x2="585.37" y2="303.65" stroke="#7BD389" stroke-opacity="0.24" stroke-width="2"/><line x1="386.28" y1="145.92" x2="246.38" y2="163.78" stroke="#7BD389" stroke-opacity="0.24" stroke-width="2"/><line x1="246.38" y1="163.78" x2="106.48" y2="181.63" stroke="#7BD389" stroke-opacity="0.24" stroke-width="2"/>
  <circle cx="128.01" cy="110.21" r="3" fill="#7BD389" fill-opacity="0.35"/><circle cx="327.1" cy="267.94" r="4" fill="#7BD389" fill-opacity="0.40"/><circle cx="526.19" cy="128.06" r="5" fill="#7BD389" fill-opacity="0.45"/><circle cx="187.2" cy="285.79" r="3" fill="#7BD389" fill-opacity="0.50"/><circle cx="386.28" cy="145.92" r="4" fill="#7BD389" fill-opacity="0.35"/><circle cx="585.37" cy="303.65" r="5" fill="#7BD389" fill-opacity="0.40"/><circle cx="246.38" cy="163.78" r="3" fill="#7BD389" fill-opacity="0.45"/><circle cx="445.47" cy="321.5" r="4" fill="#7BD389" fill-opacity="0.50"/><circle cx="106.48" cy="181.63" r="5" fill="#7BD389" fill-opacity="0.35"/>
  <rect x="53.1" y="57.6" width="127.4" height="86.4" rx="18" fill="#7BD389" fill-opacity="0.16"/>
  <circle cx="594.7" cy="345.6" r="76.8" fill="#FFFFFF" fill-opacity="0.36" stroke="#1E5130" stroke-opacity="0.10"/>
  <text x="56.6" y="422.4" font-family="Inter, Arial, sans-serif" font-size="43" font-weight="700" fill="#1E5130" fill-opacity="0.72">INFP-A</text>
  <text x="56.6" y="476.1" font-family="Inter, Arial, sans-serif" font-size="22" font-weight="500" fill="#1E5130" fill-opacity="0.48">identity lattice · A</text>
</svg>
