<svg xmlns="http://www.w3.org/2000/svg" width="720" height="354" viewBox="0 0 720 354" role="img" aria-labelledby="title desc">
  <title id="title">INFP-A Traits summary illustration</title>
  <desc id="desc">Abstract trait signal card for the INFP-A MBTI desktop result module.</desc>
  <defs>
    <linearGradient id="bg" x1="0" x2="1" y1="0" y2="1">
      <stop offset="0" stop-color="#E1F7E7" stop-opacity="0.92"/>
      <stop offset="0.55" stop-color="#FFFFFF" stop-opacity="0.96"/>
      <stop offset="1" stop-color="#7BD389" stop-opacity="0.14"/>
    </linearGradient>
    <radialGradient id="halo" cx="74%" cy="35%" r="48%">
      <stop offset="0" stop-color="#7BD389" stop-opacity="0.26"/>
      <stop offset="1" stop-color="#7BD389" stop-opacity="0"/>
    </radialGradient>
    <filter id="soft"><feGaussianBlur stdDeviation="18"/></filter>
  </defs>
  <rect width="720" height="354" rx="22" fill="url(#bg)"/>
  <circle cx="561.6" cy="120.4" r="113.3" fill="url(#halo)"/>
  <path d="M 57.6 254.9 C 201.6 88.5, 388.8 304.4, 662.4 99.1" fill="none" stroke="#1E5130" stroke-opacity="0.16" stroke-width="3"/>
  <polyline points="0.0,160.2 90.0,174.8 180.0,214.8 270.0,229.1 360.0,199.5 450.0,163.8 540.0,167.4 630.0,205.9 720.0,230.1" fill="none" stroke="#7BD389" stroke-opacity="0.34" stroke-width="4" stroke-linecap="round"/>
  <line x1="458.5" y1="212.97" x2="316.22" y2="226.14" stroke="#7BD389" stroke-opacity="0.24" stroke-width="2"/><line x1="113.76" y1="109.81" x2="518.69" y2="122.98" stroke="#7BD389" stroke-opacity="0.24" stroke-width="2"/><line x1="316.22" y1="226.14" x2="173.95" y2="239.3" stroke="#7BD389" stroke-opacity="0.24" stroke-width="2"/><line x1="518.69" y1="122.98" x2="376.42" y2="136.15" stroke="#7BD389" stroke-opacity="0.24" stroke-width="2"/><line x1="173.95" y1="239.3" x2="578.88" y2="252.47" stroke="#7BD389" stroke-opacity="0.24" stroke-width="2"/><line x1="578.88" y1="252.47" x2="436.61" y2="265.64" stroke="#7BD389" stroke-opacity="0.24" stroke-width="2"/>
  <circle cx="458.5" cy="212.97" r="3" fill="#7BD389" fill-opacity="0.35"/><circle cx="113.76" cy="109.81" r="4" fill="#7BD389" fill-opacity="0.40"/><circle cx="316.22" cy="226.14" r="5" fill="#7BD389" fill-opacity="0.45"/><circle cx="518.69" cy="122.98" r="3" fill="#7BD389" fill-opacity="0.50"/><circle cx="173.95" cy="239.3" r="4" fill="#7BD389" fill-opacity="0.35"/><circle cx="376.42" cy="136.15" r="5" fill="#7BD389" fill-opacity="0.40"/><circle cx="578.88" cy="252.47" r="3" fill="#7BD389" fill-opacity="0.45"/><circle cx="234.14" cy="149.32" r="4" fill="#7BD389" fill-opacity="0.50"/><circle cx="436.61" cy="265.64" r="5" fill="#7BD389" fill-opacity="0.35"/>
  <rect x="54.0" y="42.5" width="129.6" height="63.7" rx="18" fill="#7BD389" fill-opacity="0.16"/>
  <circle cx="604.8" cy="254.9" r="56.6" fill="#FFFFFF" fill-opacity="0.36" stroke="#1E5130" stroke-opacity="0.10"/>
  <text x="57.6" y="311.5" font-family="Inter, Arial, sans-serif" font-size="32" font-weight="700" fill="#1E5130" fill-opacity="0.72">INFP-A</text>
  <text x="57.6" y="351.5" font-family="Inter, Arial, sans-serif" font-size="16" font-weight="500" fill="#1E5130" fill-opacity="0.48">trait signal card · A</text>
</svg>
