<svg xmlns="http://www.w3.org/2000/svg" width="756" height="660" viewBox="0 0 756 660" role="img" aria-labelledby="title desc">
  <title id="title">ENTJ-A Final offer illustration</title>
  <desc id="desc">Abstract report unlock panel for the ENTJ-A MBTI desktop result module.</desc>
  <defs>
    <linearGradient id="bg" x1="0" x2="1" y1="0" y2="1">
      <stop offset="0" stop-color="#ECDFFF" stop-opacity="0.92"/>
      <stop offset="0.55" stop-color="#FFFFFF" stop-opacity="0.96"/>
      <stop offset="1" stop-color="#9B5DE5" stop-opacity="0.14"/>
    </linearGradient>
    <radialGradient id="halo" cx="74%" cy="35%" r="48%">
      <stop offset="0" stop-color="#9B5DE5" stop-opacity="0.26"/>
      <stop offset="1" stop-color="#9B5DE5" stop-opacity="0"/>
    </radialGradient>
    <filter id="soft"><feGaussianBlur stdDeviation="18"/></filter>
  </defs>
  <rect width="756" height="660" rx="22" fill="url(#bg)"/>
  <circle cx="589.7" cy="224.4" r="211.2" fill="url(#halo)"/>
  <path d="M 60.5 475.2 C 211.7 165.0, 408.2 567.6, 695.5 184.8" fill="none" stroke="#2A174E" stroke-opacity="0.16" stroke-width="3"/>
  <polyline points="0.0,417.8 94.5,348.6 189.0,297.7 283.5,330.1 378.0,404.4 472.5,425.9 567.0,367.2 661.5,303.1 756.0,315.4" fill="none" stroke="#9B5DE5" stroke-opacity="0.34" stroke-width="4" stroke-linecap="round"/>
  <line x1="544.62" y1="442.07" x2="395.24" y2="466.62" stroke="#9B5DE5" stroke-opacity="0.24" stroke-width="2"/><line x1="182.65" y1="249.74" x2="607.82" y2="274.3" stroke="#9B5DE5" stroke-opacity="0.24" stroke-width="2"/><line x1="395.24" y1="466.62" x2="245.85" y2="491.17" stroke="#9B5DE5" stroke-opacity="0.24" stroke-width="2"/><line x1="607.82" y1="274.3" x2="458.44" y2="298.85" stroke="#9B5DE5" stroke-opacity="0.24" stroke-width="2"/><line x1="458.44" y1="298.85" x2="309.05" y2="323.4" stroke="#9B5DE5" stroke-opacity="0.24" stroke-width="2"/><line x1="309.05" y1="323.4" x2="544.62" y2="442.07" stroke="#9B5DE5" stroke-opacity="0.24" stroke-width="2"/>
  <circle cx="544.62" cy="442.07" r="3" fill="#9B5DE5" fill-opacity="0.35"/><circle cx="182.65" cy="249.74" r="4" fill="#9B5DE5" fill-opacity="0.40"/><circle cx="395.24" cy="466.62" r="5" fill="#9B5DE5" fill-opacity="0.45"/><circle cx="607.82" cy="274.3" r="3" fill="#9B5DE5" fill-opacity="0.50"/><circle cx="245.85" cy="491.17" r="4" fill="#9B5DE5" fill-opacity="0.35"/><circle cx="458.44" cy="298.85" r="5" fill="#9B5DE5" fill-opacity="0.40"/><circle cx="96.47" cy="515.72" r="3" fill="#9B5DE5" fill-opacity="0.45"/><circle cx="309.05" cy="323.4" r="4" fill="#9B5DE5" fill-opacity="0.50"/><circle cx="521.64" cy="131.08" r="5" fill="#9B5DE5" fill-opacity="0.35"/>
  <rect x="56.7" y="79.2" width="136.1" height="118.8" rx="18" fill="#9B5DE5" fill-opacity="0.16"/>
  <circle cx="635.0" cy="475.2" r="105.6" fill="#FFFFFF" fill-opacity="0.36" stroke="#2A174E" stroke-opacity="0.10"/>
  <text x="60.5" y="580.8" font-family="Inter, Arial, sans-serif" font-size="59" font-weight="700" fill="#2A174E" fill-opacity="0.72">ENTJ-A</text>
  <text x="60.5" y="654.5" font-family="Inter, Arial, sans-serif" font-size="30" font-weight="500" fill="#2A174E" fill-opacity="0.48">report unlock panel · A</text>
</svg>
