<svg xmlns="http://www.w3.org/2000/svg" width="708" height="480" viewBox="0 0 708 480" role="img" aria-labelledby="title desc">
  <title id="title">ENTJ-A Hero identity illustration</title>
  <desc id="desc">Abstract identity lattice for the ENTJ-A MBTI desktop result module.</desc>
  <defs>
    <linearGradient id="bg" x1="0" x2="1" y1="0" y2="1">
      <stop offset="0" stop-color="#ECDFFF" stop-opacity="0.92"/>
      <stop offset="0.55" stop-color="#FFFFFF" stop-opacity="0.96"/>
      <stop offset="1" stop-color="#9B5DE5" stop-opacity="0.14"/>
    </linearGradient>
    <radialGradient id="halo" cx="74%" cy="35%" r="48%">
      <stop offset="0" stop-color="#9B5DE5" stop-opacity="0.26"/>
      <stop offset="1" stop-color="#9B5DE5" stop-opacity="0"/>
    </radialGradient>
    <filter id="soft"><feGaussianBlur stdDeviation="18"/></filter>
  </defs>
  <rect width="708" height="480" rx="22" fill="url(#bg)"/>
  <circle cx="552.2" cy="163.2" r="153.6" fill="url(#halo)"/>
  <path d="M 56.6 345.6 C 198.2 120.0, 382.3 412.8, 651.4 134.4" fill="none" stroke="#2A174E" stroke-opacity="0.16" stroke-width="3"/>
  <polyline points="0.0,225.3 88.5,276.4 177.0,311.7 265.5,286.2 354.0,232.4 442.5,218.9 531.0,263.0 619.5,308.4 708.0,297.2" fill="none" stroke="#9B5DE5" stroke-opacity="0.34" stroke-width="4" stroke-linecap="round"/>
  <line x1="149.53" y1="122.11" x2="547.71" y2="139.97" stroke="#9B5DE5" stroke-opacity="0.24" stroke-width="2"/><line x1="348.62" y1="279.84" x2="208.72" y2="297.7" stroke="#9B5DE5" stroke-opacity="0.24" stroke-width="2"/><line x1="547.71" y1="139.97" x2="407.81" y2="157.82" stroke="#9B5DE5" stroke-opacity="0.24" stroke-width="2"/><line x1="208.72" y1="297.7" x2="606.9" y2="315.55" stroke="#9B5DE5" stroke-opacity="0.24" stroke-width="2"/><line x1="407.81" y1="157.82" x2="267.91" y2="175.68" stroke="#9B5DE5" stroke-opacity="0.24" stroke-width="2"/><line x1="267.91" y1="175.68" x2="128.01" y2="193.54" stroke="#9B5DE5" stroke-opacity="0.24" stroke-width="2"/>
  <circle cx="149.53" cy="122.11" r="3" fill="#9B5DE5" fill-opacity="0.35"/><circle cx="348.62" cy="279.84" r="4" fill="#9B5DE5" fill-opacity="0.40"/><circle cx="547.71" cy="139.97" r="5" fill="#9B5DE5" fill-opacity="0.45"/><circle cx="208.72" cy="297.7" r="3" fill="#9B5DE5" fill-opacity="0.50"/><circle cx="407.81" cy="157.82" r="4" fill="#9B5DE5" fill-opacity="0.35"/><circle cx="606.9" cy="315.55" r="5" fill="#9B5DE5" fill-opacity="0.40"/><circle cx="267.91" cy="175.68" r="3" fill="#9B5DE5" fill-opacity="0.45"/><circle cx="467.0" cy="333.41" r="4" fill="#9B5DE5" fill-opacity="0.50"/><circle cx="128.01" cy="193.54" r="5" fill="#9B5DE5" fill-opacity="0.35"/>
  <rect x="53.1" y="57.6" width="127.4" height="86.4" rx="18" fill="#9B5DE5" fill-opacity="0.16"/>
  <circle cx="594.7" cy="345.6" r="76.8" fill="#FFFFFF" fill-opacity="0.36" stroke="#2A174E" stroke-opacity="0.10"/>
  <text x="56.6" y="422.4" font-family="Inter, Arial, sans-serif" font-size="43" font-weight="700" fill="#2A174E" fill-opacity="0.72">ENTJ-A</text>
  <text x="56.6" y="476.1" font-family="Inter, Arial, sans-serif" font-size="22" font-weight="500" fill="#2A174E" fill-opacity="0.48">identity lattice · A</text>
</svg>
