<svg xmlns="http://www.w3.org/2000/svg" width="1272" height="296" viewBox="0 0 1272 296" role="img" aria-labelledby="title desc">
  <title id="title">ENTJ-A Relationships illustration</title>
  <desc id="desc">Abstract relationship orbit map for the ENTJ-A MBTI desktop result module.</desc>
  <defs>
    <linearGradient id="bg" x1="0" x2="1" y1="0" y2="1">
      <stop offset="0" stop-color="#ECDFFF" stop-opacity="0.92"/>
      <stop offset="0.55" stop-color="#FFFFFF" stop-opacity="0.96"/>
      <stop offset="1" stop-color="#9B5DE5" stop-opacity="0.14"/>
    </linearGradient>
    <radialGradient id="halo" cx="74%" cy="35%" r="48%">
      <stop offset="0" stop-color="#9B5DE5" stop-opacity="0.26"/>
      <stop offset="1" stop-color="#9B5DE5" stop-opacity="0"/>
    </radialGradient>
    <filter id="soft"><feGaussianBlur stdDeviation="18"/></filter>
  </defs>
  <rect width="1272" height="296" rx="22" fill="url(#bg)"/>
  <circle cx="992.2" cy="100.6" r="94.7" fill="url(#halo)"/>
  <path d="M 101.8 213.1 C 356.2 74.0, 686.9 254.6, 1170.2 82.9" fill="none" stroke="#2A174E" stroke-opacity="0.16" stroke-width="3"/>
  <polyline points="0.0,144.5 159.0,177.9 318.0,192.0 477.0,168.9 636.0,138.0 795.0,138.7 954.0,170.2 1113.0,192.2 1272.0,176.7" fill="none" stroke="#9B5DE5" stroke-opacity="0.34" stroke-width="4" stroke-linecap="round"/>
  <line x1="1071.02" y1="227.62" x2="819.68" y2="55.12" stroke="#9B5DE5" stroke-opacity="0.24" stroke-width="2"/><line x1="461.99" y1="141.37" x2="210.64" y2="152.38" stroke="#9B5DE5" stroke-opacity="0.24" stroke-width="2"/><line x1="819.68" y1="55.12" x2="568.33" y2="66.13" stroke="#9B5DE5" stroke-opacity="0.24" stroke-width="2"/><line x1="210.64" y1="152.38" x2="926.02" y2="163.39" stroke="#9B5DE5" stroke-opacity="0.24" stroke-width="2"/><line x1="926.02" y1="163.39" x2="674.67" y2="174.4" stroke="#9B5DE5" stroke-opacity="0.24" stroke-width="2"/><line x1="674.67" y1="174.4" x2="1071.02" y2="227.62" stroke="#9B5DE5" stroke-opacity="0.24" stroke-width="2"/>
  <circle cx="1071.02" cy="227.62" r="3" fill="#9B5DE5" fill-opacity="0.35"/><circle cx="461.99" cy="141.37" r="4" fill="#9B5DE5" fill-opacity="0.40"/><circle cx="819.68" cy="55.12" r="5" fill="#9B5DE5" fill-opacity="0.45"/><circle cx="210.64" cy="152.38" r="3" fill="#9B5DE5" fill-opacity="0.50"/><circle cx="568.33" cy="66.13" r="4" fill="#9B5DE5" fill-opacity="0.35"/><circle cx="926.02" cy="163.39" r="5" fill="#9B5DE5" fill-opacity="0.40"/><circle cx="316.98" cy="77.14" r="3" fill="#9B5DE5" fill-opacity="0.45"/><circle cx="674.67" cy="174.4" r="4" fill="#9B5DE5" fill-opacity="0.50"/><circle cx="1032.36" cy="88.15" r="5" fill="#9B5DE5" fill-opacity="0.35"/>
  <rect x="95.4" y="35.5" width="229.0" height="53.3" rx="18" fill="#9B5DE5" fill-opacity="0.16"/>
  <circle cx="1068.5" cy="213.1" r="47.4" fill="#FFFFFF" fill-opacity="0.36" stroke="#2A174E" stroke-opacity="0.10"/>
  <text x="101.8" y="260.5" font-family="Inter, Arial, sans-serif" font-size="27" font-weight="700" fill="#2A174E" fill-opacity="0.72">ENTJ-A</text>
  <text x="101.8" y="294.2" font-family="Inter, Arial, sans-serif" font-size="13" font-weight="500" fill="#2A174E" fill-opacity="0.48">relationship orbit map · A</text>
</svg>
