<svg xmlns="http://www.w3.org/2000/svg" width="1272" height="296" viewBox="0 0 1272 296" role="img" aria-labelledby="title desc">
  <title id="title">ENTJ-A Traits axis illustration</title>
  <desc id="desc">Abstract axis map for the ENTJ-A MBTI desktop result module.</desc>
  <defs>
    <linearGradient id="bg" x1="0" x2="1" y1="0" y2="1">
      <stop offset="0" stop-color="#ECDFFF" stop-opacity="0.92"/>
      <stop offset="0.55" stop-color="#FFFFFF" stop-opacity="0.96"/>
      <stop offset="1" stop-color="#9B5DE5" stop-opacity="0.14"/>
    </linearGradient>
    <radialGradient id="halo" cx="74%" cy="35%" r="48%">
      <stop offset="0" stop-color="#9B5DE5" stop-opacity="0.26"/>
      <stop offset="1" stop-color="#9B5DE5" stop-opacity="0"/>
    </radialGradient>
    <filter id="soft"><feGaussianBlur stdDeviation="18"/></filter>
  </defs>
  <rect width="1272" height="296" rx="22" fill="url(#bg)"/>
  <circle cx="992.2" cy="100.6" r="94.7" fill="url(#halo)"/>
  <path d="M 101.8 213.1 C 356.2 74.0, 686.9 254.6, 1170.2 82.9" fill="none" stroke="#2A174E" stroke-opacity="0.16" stroke-width="3"/>
  <polyline points="0.0,168.7 159.0,137.9 318.0,138.9 477.0,170.4 636.0,192.2 795.0,176.5 954.0,143.3 1113.0,135.0 1272.0,162.1" fill="none" stroke="#9B5DE5" stroke-opacity="0.34" stroke-width="4" stroke-linecap="round"/>
  <line x1="587.66" y1="135.86" x2="336.32" y2="146.88" stroke="#9B5DE5" stroke-opacity="0.24" stroke-width="2"/><line x1="945.35" y1="233.13" x2="694.0" y2="60.62" stroke="#9B5DE5" stroke-opacity="0.24" stroke-width="2"/><line x1="336.32" y1="146.88" x2="1051.69" y2="157.89" stroke="#9B5DE5" stroke-opacity="0.24" stroke-width="2"/><line x1="694.0" y1="60.62" x2="442.66" y2="71.63" stroke="#9B5DE5" stroke-opacity="0.24" stroke-width="2"/><line x1="442.66" y1="71.63" x2="191.31" y2="82.64" stroke="#9B5DE5" stroke-opacity="0.24" stroke-width="2"/><line x1="191.31" y1="82.64" x2="587.66" y2="135.86" stroke="#9B5DE5" stroke-opacity="0.24" stroke-width="2"/>
  <circle cx="587.66" cy="135.86" r="3" fill="#9B5DE5" fill-opacity="0.35"/><circle cx="945.35" cy="233.13" r="4" fill="#9B5DE5" fill-opacity="0.40"/><circle cx="336.32" cy="146.88" r="5" fill="#9B5DE5" fill-opacity="0.45"/><circle cx="694.0" cy="60.62" r="3" fill="#9B5DE5" fill-opacity="0.50"/><circle cx="1051.69" cy="157.89" r="4" fill="#9B5DE5" fill-opacity="0.35"/><circle cx="442.66" cy="71.63" r="5" fill="#9B5DE5" fill-opacity="0.40"/><circle cx="800.34" cy="168.9" r="3" fill="#9B5DE5" fill-opacity="0.45"/><circle cx="191.31" cy="82.64" r="4" fill="#9B5DE5" fill-opacity="0.50"/><circle cx="549.0" cy="179.91" r="5" fill="#9B5DE5" fill-opacity="0.35"/>
  <rect x="95.4" y="35.5" width="229.0" height="53.3" rx="18" fill="#9B5DE5" fill-opacity="0.16"/>
  <circle cx="1068.5" cy="213.1" r="47.4" fill="#FFFFFF" fill-opacity="0.36" stroke="#2A174E" stroke-opacity="0.10"/>
  <text x="101.8" y="260.5" font-family="Inter, Arial, sans-serif" font-size="27" font-weight="700" fill="#2A174E" fill-opacity="0.72">ENTJ-A</text>
  <text x="101.8" y="294.2" font-family="Inter, Arial, sans-serif" font-size="13" font-weight="500" fill="#2A174E" fill-opacity="0.48">axis map · A</text>
</svg>
