<svg xmlns="http://www.w3.org/2000/svg" width="720" height="354" viewBox="0 0 720 354" role="img" aria-labelledby="title desc">
  <title id="title">ENTJ-A Traits summary illustration</title>
  <desc id="desc">Abstract trait signal card for the ENTJ-A MBTI desktop result module.</desc>
  <defs>
    <linearGradient id="bg" x1="0" x2="1" y1="0" y2="1">
      <stop offset="0" stop-color="#ECDFFF" stop-opacity="0.92"/>
      <stop offset="0.55" stop-color="#FFFFFF" stop-opacity="0.96"/>
      <stop offset="1" stop-color="#9B5DE5" stop-opacity="0.14"/>
    </linearGradient>
    <radialGradient id="halo" cx="74%" cy="35%" r="48%">
      <stop offset="0" stop-color="#9B5DE5" stop-opacity="0.26"/>
      <stop offset="1" stop-color="#9B5DE5" stop-opacity="0"/>
    </radialGradient>
    <filter id="soft"><feGaussianBlur stdDeviation="18"/></filter>
  </defs>
  <rect width="720" height="354" rx="22" fill="url(#bg)"/>
  <circle cx="561.6" cy="120.4" r="113.3" fill="url(#halo)"/>
  <path d="M 57.6 254.9 C 201.6 88.5, 388.8 304.4, 662.4 99.1" fill="none" stroke="#2A174E" stroke-opacity="0.16" stroke-width="3"/>
  <polyline points="0.0,159.4 90.0,183.8 180.0,222.1 270.0,225.5 360.0,189.6 450.0,160.2 540.0,174.8 630.0,214.8 720.0,229.1" fill="none" stroke="#9B5DE5" stroke-opacity="0.34" stroke-width="4" stroke-linecap="round"/>
  <line x1="480.38" y1="221.75" x2="338.11" y2="234.91" stroke="#9B5DE5" stroke-opacity="0.24" stroke-width="2"/><line x1="135.65" y1="118.59" x2="540.58" y2="131.76" stroke="#9B5DE5" stroke-opacity="0.24" stroke-width="2"/><line x1="338.11" y1="234.91" x2="195.84" y2="248.08" stroke="#9B5DE5" stroke-opacity="0.24" stroke-width="2"/><line x1="540.58" y1="131.76" x2="398.3" y2="144.93" stroke="#9B5DE5" stroke-opacity="0.24" stroke-width="2"/><line x1="195.84" y1="248.08" x2="600.77" y2="261.25" stroke="#9B5DE5" stroke-opacity="0.24" stroke-width="2"/><line x1="600.77" y1="261.25" x2="458.5" y2="274.42" stroke="#9B5DE5" stroke-opacity="0.24" stroke-width="2"/>
  <circle cx="480.38" cy="221.75" r="3" fill="#9B5DE5" fill-opacity="0.35"/><circle cx="135.65" cy="118.59" r="4" fill="#9B5DE5" fill-opacity="0.40"/><circle cx="338.11" cy="234.91" r="5" fill="#9B5DE5" fill-opacity="0.45"/><circle cx="540.58" cy="131.76" r="3" fill="#9B5DE5" fill-opacity="0.50"/><circle cx="195.84" cy="248.08" r="4" fill="#9B5DE5" fill-opacity="0.35"/><circle cx="398.3" cy="144.93" r="5" fill="#9B5DE5" fill-opacity="0.40"/><circle cx="600.77" cy="261.25" r="3" fill="#9B5DE5" fill-opacity="0.45"/><circle cx="256.03" cy="158.1" r="4" fill="#9B5DE5" fill-opacity="0.50"/><circle cx="458.5" cy="274.42" r="5" fill="#9B5DE5" fill-opacity="0.35"/>
  <rect x="54.0" y="42.5" width="129.6" height="63.7" rx="18" fill="#9B5DE5" fill-opacity="0.16"/>
  <circle cx="604.8" cy="254.9" r="56.6" fill="#FFFFFF" fill-opacity="0.36" stroke="#2A174E" stroke-opacity="0.10"/>
  <text x="57.6" y="311.5" font-family="Inter, Arial, sans-serif" font-size="32" font-weight="700" fill="#2A174E" fill-opacity="0.72">ENTJ-A</text>
  <text x="57.6" y="351.5" font-family="Inter, Arial, sans-serif" font-size="16" font-weight="500" fill="#2A174E" fill-opacity="0.48">trait signal card · A</text>
</svg>
