<svg xmlns="http://www.w3.org/2000/svg" width="756" height="660" viewBox="0 0 756 660" role="img" aria-labelledby="title desc">
  <title id="title">ESFP-A Final offer illustration</title>
  <desc id="desc">Abstract report unlock panel for the ESFP-A MBTI desktop result module.</desc>
  <defs>
    <linearGradient id="bg" x1="0" x2="1" y1="0" y2="1">
      <stop offset="0" stop-color="#FFF2C5" stop-opacity="0.92"/>
      <stop offset="0.55" stop-color="#FFFFFF" stop-opacity="0.96"/>
      <stop offset="1" stop-color="#F9C74F" stop-opacity="0.14"/>
    </linearGradient>
    <radialGradient id="halo" cx="74%" cy="35%" r="48%">
      <stop offset="0" stop-color="#F9C74F" stop-opacity="0.26"/>
      <stop offset="1" stop-color="#F9C74F" stop-opacity="0"/>
    </radialGradient>
    <filter id="soft"><feGaussianBlur stdDeviation="18"/></filter>
  </defs>
  <rect width="756" height="660" rx="22" fill="url(#bg)"/>
  <circle cx="589.7" cy="224.4" r="211.2" fill="url(#halo)"/>
  <path d="M 60.5 475.2 C 211.7 165.0, 408.2 567.6, 695.5 184.8" fill="none" stroke="#47370C" stroke-opacity="0.16" stroke-width="3"/>
  <polyline points="0.0,424.3 94.5,362.5 189.0,301.3 283.5,318.8 378.0,392.7 472.5,428.7 567.0,380.9 661.5,310.3 756.0,306.9" fill="none" stroke="#F9C74F" stroke-opacity="0.34" stroke-width="4" stroke-linecap="round"/>
  <line x1="527.39" y1="429.79" x2="378.0" y2="454.34" stroke="#F9C74F" stroke-opacity="0.24" stroke-width="2"/><line x1="165.41" y1="237.47" x2="590.59" y2="262.02" stroke="#F9C74F" stroke-opacity="0.24" stroke-width="2"/><line x1="378.0" y1="454.34" x2="228.61" y2="478.9" stroke="#F9C74F" stroke-opacity="0.24" stroke-width="2"/><line x1="590.59" y1="262.02" x2="441.2" y2="286.57" stroke="#F9C74F" stroke-opacity="0.24" stroke-width="2"/><line x1="228.61" y1="478.9" x2="653.79" y2="503.45" stroke="#F9C74F" stroke-opacity="0.24" stroke-width="2"/><line x1="653.79" y1="503.45" x2="504.4" y2="118.8" stroke="#F9C74F" stroke-opacity="0.24" stroke-width="2"/>
  <circle cx="527.39" cy="429.79" r="3" fill="#F9C74F" fill-opacity="0.35"/><circle cx="165.41" cy="237.47" r="4" fill="#F9C74F" fill-opacity="0.40"/><circle cx="378.0" cy="454.34" r="5" fill="#F9C74F" fill-opacity="0.45"/><circle cx="590.59" cy="262.02" r="3" fill="#F9C74F" fill-opacity="0.50"/><circle cx="228.61" cy="478.9" r="4" fill="#F9C74F" fill-opacity="0.35"/><circle cx="441.2" cy="286.57" r="5" fill="#F9C74F" fill-opacity="0.40"/><circle cx="653.79" cy="503.45" r="3" fill="#F9C74F" fill-opacity="0.45"/><circle cx="291.82" cy="311.12" r="4" fill="#F9C74F" fill-opacity="0.50"/><circle cx="504.4" cy="118.8" r="5" fill="#F9C74F" fill-opacity="0.35"/>
  <rect x="56.7" y="79.2" width="136.1" height="118.8" rx="18" fill="#F9C74F" fill-opacity="0.16"/>
  <circle cx="635.0" cy="475.2" r="105.6" fill="#FFFFFF" fill-opacity="0.36" stroke="#47370C" stroke-opacity="0.10"/>
  <text x="60.5" y="580.8" font-family="Inter, Arial, sans-serif" font-size="59" font-weight="700" fill="#47370C" fill-opacity="0.72">ESFP-A</text>
  <text x="60.5" y="654.5" font-family="Inter, Arial, sans-serif" font-size="30" font-weight="500" fill="#47370C" fill-opacity="0.48">report unlock panel · A</text>
</svg>
