<svg xmlns="http://www.w3.org/2000/svg" width="708" height="480" viewBox="0 0 708 480" role="img" aria-labelledby="title desc">
  <title id="title">ESFP-A Hero identity illustration</title>
  <desc id="desc">Abstract identity lattice for the ESFP-A MBTI desktop result module.</desc>
  <defs>
    <linearGradient id="bg" x1="0" x2="1" y1="0" y2="1">
      <stop offset="0" stop-color="#FFF2C5" stop-opacity="0.92"/>
      <stop offset="0.55" stop-color="#FFFFFF" stop-opacity="0.96"/>
      <stop offset="1" stop-color="#F9C74F" stop-opacity="0.14"/>
    </linearGradient>
    <radialGradient id="halo" cx="74%" cy="35%" r="48%">
      <stop offset="0" stop-color="#F9C74F" stop-opacity="0.26"/>
      <stop offset="1" stop-color="#F9C74F" stop-opacity="0"/>
    </radialGradient>
    <filter id="soft"><feGaussianBlur stdDeviation="18"/></filter>
  </defs>
  <rect width="708" height="480" rx="22" fill="url(#bg)"/>
  <circle cx="552.2" cy="163.2" r="153.6" fill="url(#halo)"/>
  <path d="M 56.6 345.6 C 198.2 120.0, 382.3 412.8, 651.4 134.4" fill="none" stroke="#47370C" stroke-opacity="0.16" stroke-width="3"/>
  <polyline points="0.0,220.2 88.5,266.4 177.0,309.5 265.5,294.6 354.0,240.6 442.5,216.5 531.0,252.9 619.5,303.5 708.0,303.7" fill="none" stroke="#F9C74F" stroke-opacity="0.34" stroke-width="4" stroke-linecap="round"/>
  <line x1="133.39" y1="113.18" x2="531.57" y2="131.04" stroke="#F9C74F" stroke-opacity="0.24" stroke-width="2"/><line x1="332.48" y1="270.91" x2="192.58" y2="288.77" stroke="#F9C74F" stroke-opacity="0.24" stroke-width="2"/><line x1="531.57" y1="131.04" x2="391.67" y2="148.9" stroke="#F9C74F" stroke-opacity="0.24" stroke-width="2"/><line x1="192.58" y1="288.77" x2="590.76" y2="306.62" stroke="#F9C74F" stroke-opacity="0.24" stroke-width="2"/><line x1="590.76" y1="306.62" x2="450.85" y2="324.48" stroke="#F9C74F" stroke-opacity="0.24" stroke-width="2"/><line x1="450.85" y1="324.48" x2="133.39" y2="113.18" stroke="#F9C74F" stroke-opacity="0.24" stroke-width="2"/>
  <circle cx="133.39" cy="113.18" r="3" fill="#F9C74F" fill-opacity="0.35"/><circle cx="332.48" cy="270.91" r="4" fill="#F9C74F" fill-opacity="0.40"/><circle cx="531.57" cy="131.04" r="5" fill="#F9C74F" fill-opacity="0.45"/><circle cx="192.58" cy="288.77" r="3" fill="#F9C74F" fill-opacity="0.50"/><circle cx="391.67" cy="148.9" r="4" fill="#F9C74F" fill-opacity="0.35"/><circle cx="590.76" cy="306.62" r="5" fill="#F9C74F" fill-opacity="0.40"/><circle cx="251.76" cy="166.75" r="3" fill="#F9C74F" fill-opacity="0.45"/><circle cx="450.85" cy="324.48" r="4" fill="#F9C74F" fill-opacity="0.50"/><circle cx="111.86" cy="184.61" r="5" fill="#F9C74F" fill-opacity="0.35"/>
  <rect x="53.1" y="57.6" width="127.4" height="86.4" rx="18" fill="#F9C74F" fill-opacity="0.16"/>
  <circle cx="594.7" cy="345.6" r="76.8" fill="#FFFFFF" fill-opacity="0.36" stroke="#47370C" stroke-opacity="0.10"/>
  <text x="56.6" y="422.4" font-family="Inter, Arial, sans-serif" font-size="43" font-weight="700" fill="#47370C" fill-opacity="0.72">ESFP-A</text>
  <text x="56.6" y="476.1" font-family="Inter, Arial, sans-serif" font-size="22" font-weight="500" fill="#47370C" fill-opacity="0.48">identity lattice · A</text>
</svg>
