<svg xmlns="http://www.w3.org/2000/svg" width="1272" height="296" viewBox="0 0 1272 296" role="img" aria-labelledby="title desc">
  <title id="title">ESFP-A Relationships illustration</title>
  <desc id="desc">Abstract relationship orbit map for the ESFP-A MBTI desktop result module.</desc>
  <defs>
    <linearGradient id="bg" x1="0" x2="1" y1="0" y2="1">
      <stop offset="0" stop-color="#FFF2C5" stop-opacity="0.92"/>
      <stop offset="0.55" stop-color="#FFFFFF" stop-opacity="0.96"/>
      <stop offset="1" stop-color="#F9C74F" stop-opacity="0.14"/>
    </linearGradient>
    <radialGradient id="halo" cx="74%" cy="35%" r="48%">
      <stop offset="0" stop-color="#F9C74F" stop-opacity="0.26"/>
      <stop offset="1" stop-color="#F9C74F" stop-opacity="0"/>
    </radialGradient>
    <filter id="soft"><feGaussianBlur stdDeviation="18"/></filter>
  </defs>
  <rect width="1272" height="296" rx="22" fill="url(#bg)"/>
  <circle cx="992.2" cy="100.6" r="94.7" fill="url(#halo)"/>
  <path d="M 101.8 213.1 C 356.2 74.0, 686.9 254.6, 1170.2 82.9" fill="none" stroke="#47370C" stroke-opacity="0.16" stroke-width="3"/>
  <polyline points="0.0,140.0 159.0,172.2 318.0,192.4 477.0,174.8 636.0,142.0 795.0,135.7 954.0,164.0 1113.0,190.8 1272.0,181.9" fill="none" stroke="#F9C74F" stroke-opacity="0.34" stroke-width="4" stroke-linecap="round"/>
  <line x1="1042.02" y1="222.12" x2="790.68" y2="233.13" stroke="#F9C74F" stroke-opacity="0.24" stroke-width="2"/><line x1="432.99" y1="135.86" x2="181.64" y2="146.88" stroke="#F9C74F" stroke-opacity="0.24" stroke-width="2"/><line x1="790.68" y1="233.13" x2="539.33" y2="60.62" stroke="#F9C74F" stroke-opacity="0.24" stroke-width="2"/><line x1="181.64" y1="146.88" x2="897.01" y2="157.89" stroke="#F9C74F" stroke-opacity="0.24" stroke-width="2"/><line x1="539.33" y1="60.62" x2="287.98" y2="71.63" stroke="#F9C74F" stroke-opacity="0.24" stroke-width="2"/><line x1="287.98" y1="71.63" x2="1003.35" y2="82.64" stroke="#F9C74F" stroke-opacity="0.24" stroke-width="2"/>
  <circle cx="1042.02" cy="222.12" r="3" fill="#F9C74F" fill-opacity="0.35"/><circle cx="432.99" cy="135.86" r="4" fill="#F9C74F" fill-opacity="0.40"/><circle cx="790.68" cy="233.13" r="5" fill="#F9C74F" fill-opacity="0.45"/><circle cx="181.64" cy="146.88" r="3" fill="#F9C74F" fill-opacity="0.50"/><circle cx="539.33" cy="60.62" r="4" fill="#F9C74F" fill-opacity="0.35"/><circle cx="897.01" cy="157.89" r="5" fill="#F9C74F" fill-opacity="0.40"/><circle cx="287.98" cy="71.63" r="3" fill="#F9C74F" fill-opacity="0.45"/><circle cx="645.67" cy="168.9" r="4" fill="#F9C74F" fill-opacity="0.50"/><circle cx="1003.35" cy="82.64" r="5" fill="#F9C74F" fill-opacity="0.35"/>
  <rect x="95.4" y="35.5" width="229.0" height="53.3" rx="18" fill="#F9C74F" fill-opacity="0.16"/>
  <circle cx="1068.5" cy="213.1" r="47.4" fill="#FFFFFF" fill-opacity="0.36" stroke="#47370C" stroke-opacity="0.10"/>
  <text x="101.8" y="260.5" font-family="Inter, Arial, sans-serif" font-size="27" font-weight="700" fill="#47370C" fill-opacity="0.72">ESFP-A</text>
  <text x="101.8" y="294.2" font-family="Inter, Arial, sans-serif" font-size="13" font-weight="500" fill="#47370C" fill-opacity="0.48">relationship orbit map · A</text>
</svg>
