<svg xmlns="http://www.w3.org/2000/svg" width="720" height="354" viewBox="0 0 720 354" role="img" aria-labelledby="title desc">
  <title id="title">ESFP-A Traits summary illustration</title>
  <desc id="desc">Abstract trait signal card for the ESFP-A MBTI desktop result module.</desc>
  <defs>
    <linearGradient id="bg" x1="0" x2="1" y1="0" y2="1">
      <stop offset="0" stop-color="#FFF2C5" stop-opacity="0.92"/>
      <stop offset="0.55" stop-color="#FFFFFF" stop-opacity="0.96"/>
      <stop offset="1" stop-color="#F9C74F" stop-opacity="0.14"/>
    </linearGradient>
    <radialGradient id="halo" cx="74%" cy="35%" r="48%">
      <stop offset="0" stop-color="#F9C74F" stop-opacity="0.26"/>
      <stop offset="1" stop-color="#F9C74F" stop-opacity="0"/>
    </radialGradient>
    <filter id="soft"><feGaussianBlur stdDeviation="18"/></filter>
  </defs>
  <rect width="720" height="354" rx="22" fill="url(#bg)"/>
  <circle cx="561.6" cy="120.4" r="113.3" fill="url(#halo)"/>
  <path d="M 57.6 254.9 C 201.6 88.5, 388.8 304.4, 662.4 99.1" fill="none" stroke="#47370C" stroke-opacity="0.16" stroke-width="3"/>
  <polyline points="0.0,159.7 90.0,177.0 180.0,216.8 270.0,228.5 360.0,197.1 450.0,162.6 540.0,169.1 630.0,208.2 720.0,230.1" fill="none" stroke="#F9C74F" stroke-opacity="0.34" stroke-width="4" stroke-linecap="round"/>
  <line x1="463.97" y1="215.16" x2="321.7" y2="228.33" stroke="#F9C74F" stroke-opacity="0.24" stroke-width="2"/><line x1="119.23" y1="112.01" x2="524.16" y2="125.17" stroke="#F9C74F" stroke-opacity="0.24" stroke-width="2"/><line x1="321.7" y1="228.33" x2="179.42" y2="241.5" stroke="#F9C74F" stroke-opacity="0.24" stroke-width="2"/><line x1="524.16" y1="125.17" x2="381.89" y2="138.34" stroke="#F9C74F" stroke-opacity="0.24" stroke-width="2"/><line x1="381.89" y1="138.34" x2="239.62" y2="151.51" stroke="#F9C74F" stroke-opacity="0.24" stroke-width="2"/><line x1="239.62" y1="151.51" x2="463.97" y2="215.16" stroke="#F9C74F" stroke-opacity="0.24" stroke-width="2"/>
  <circle cx="463.97" cy="215.16" r="3" fill="#F9C74F" fill-opacity="0.35"/><circle cx="119.23" cy="112.01" r="4" fill="#F9C74F" fill-opacity="0.40"/><circle cx="321.7" cy="228.33" r="5" fill="#F9C74F" fill-opacity="0.45"/><circle cx="524.16" cy="125.17" r="3" fill="#F9C74F" fill-opacity="0.50"/><circle cx="179.42" cy="241.5" r="4" fill="#F9C74F" fill-opacity="0.35"/><circle cx="381.89" cy="138.34" r="5" fill="#F9C74F" fill-opacity="0.40"/><circle cx="584.35" cy="254.67" r="3" fill="#F9C74F" fill-opacity="0.45"/><circle cx="239.62" cy="151.51" r="4" fill="#F9C74F" fill-opacity="0.50"/><circle cx="442.08" cy="267.84" r="5" fill="#F9C74F" fill-opacity="0.35"/>
  <rect x="54.0" y="42.5" width="129.6" height="63.7" rx="18" fill="#F9C74F" fill-opacity="0.16"/>
  <circle cx="604.8" cy="254.9" r="56.6" fill="#FFFFFF" fill-opacity="0.36" stroke="#47370C" stroke-opacity="0.10"/>
  <text x="57.6" y="311.5" font-family="Inter, Arial, sans-serif" font-size="32" font-weight="700" fill="#47370C" fill-opacity="0.72">ESFP-A</text>
  <text x="57.6" y="351.5" font-family="Inter, Arial, sans-serif" font-size="16" font-weight="500" fill="#47370C" fill-opacity="0.48">trait signal card · A</text>
</svg>
