<svg xmlns="http://www.w3.org/2000/svg" width="1272" height="296" viewBox="0 0 1272 296" role="img" aria-labelledby="title desc">
  <title id="title">INFJ-A Career path illustration</title>
  <desc id="desc">Abstract career path map for the INFJ-A MBTI desktop result module.</desc>
  <defs>
    <linearGradient id="bg" x1="0" x2="1" y1="0" y2="1">
      <stop offset="0" stop-color="#D8F5F0" stop-opacity="0.92"/>
      <stop offset="0.55" stop-color="#FFFFFF" stop-opacity="0.96"/>
      <stop offset="1" stop-color="#2EC4B6" stop-opacity="0.14"/>
    </linearGradient>
    <radialGradient id="halo" cx="74%" cy="35%" r="48%">
      <stop offset="0" stop-color="#2EC4B6" stop-opacity="0.26"/>
      <stop offset="1" stop-color="#2EC4B6" stop-opacity="0"/>
    </radialGradient>
    <filter id="soft"><feGaussianBlur stdDeviation="18"/></filter>
  </defs>
  <rect width="1272" height="296" rx="22" fill="url(#bg)"/>
  <circle cx="992.2" cy="100.6" r="94.7" fill="url(#halo)"/>
  <path d="M 101.8 213.1 C 356.2 74.0, 686.9 254.6, 1170.2 82.9" fill="none" stroke="#0F3D3E" stroke-opacity="0.16" stroke-width="3"/>
  <polyline points="0.0,151.9 159.0,184.5 318.0,189.4 477.0,160.3 636.0,134.4 795.0,144.7 954.0,178.1 1113.0,192.0 1272.0,168.7" fill="none" stroke="#2EC4B6" stroke-opacity="0.34" stroke-width="4" stroke-linecap="round"/>
  <line x1="1100.03" y1="233.13" x2="848.68" y2="60.62" stroke="#2EC4B6" stroke-opacity="0.24" stroke-width="2"/><line x1="490.99" y1="146.88" x2="239.64" y2="157.89" stroke="#2EC4B6" stroke-opacity="0.24" stroke-width="2"/><line x1="848.68" y1="60.62" x2="597.33" y2="71.63" stroke="#2EC4B6" stroke-opacity="0.24" stroke-width="2"/><line x1="239.64" y1="157.89" x2="955.02" y2="168.9" stroke="#2EC4B6" stroke-opacity="0.24" stroke-width="2"/><line x1="597.33" y1="71.63" x2="345.98" y2="82.64" stroke="#2EC4B6" stroke-opacity="0.24" stroke-width="2"/><line x1="345.98" y1="82.64" x2="1061.36" y2="93.65" stroke="#2EC4B6" stroke-opacity="0.24" stroke-width="2"/>
  <circle cx="1100.03" cy="233.13" r="3" fill="#2EC4B6" fill-opacity="0.35"/><circle cx="490.99" cy="146.88" r="4" fill="#2EC4B6" fill-opacity="0.40"/><circle cx="848.68" cy="60.62" r="5" fill="#2EC4B6" fill-opacity="0.45"/><circle cx="239.64" cy="157.89" r="3" fill="#2EC4B6" fill-opacity="0.50"/><circle cx="597.33" cy="71.63" r="4" fill="#2EC4B6" fill-opacity="0.35"/><circle cx="955.02" cy="168.9" r="5" fill="#2EC4B6" fill-opacity="0.40"/><circle cx="345.98" cy="82.64" r="3" fill="#2EC4B6" fill-opacity="0.45"/><circle cx="703.67" cy="179.91" r="4" fill="#2EC4B6" fill-opacity="0.50"/><circle cx="1061.36" cy="93.65" r="5" fill="#2EC4B6" fill-opacity="0.35"/>
  <rect x="95.4" y="35.5" width="229.0" height="53.3" rx="18" fill="#2EC4B6" fill-opacity="0.16"/>
  <circle cx="1068.5" cy="213.1" r="47.4" fill="#FFFFFF" fill-opacity="0.36" stroke="#0F3D3E" stroke-opacity="0.10"/>
  <text x="101.8" y="260.5" font-family="Inter, Arial, sans-serif" font-size="27" font-weight="700" fill="#0F3D3E" fill-opacity="0.72">INFJ-A</text>
  <text x="101.8" y="294.2" font-family="Inter, Arial, sans-serif" font-size="13" font-weight="500" fill="#0F3D3E" fill-opacity="0.48">career path map · A</text>
</svg>
