<svg xmlns="http://www.w3.org/2000/svg" width="756" height="660" viewBox="0 0 756 660" role="img" aria-labelledby="title desc">
  <title id="title">INFJ-A Final offer illustration</title>
  <desc id="desc">Abstract report unlock panel for the INFJ-A MBTI desktop result module.</desc>
  <defs>
    <linearGradient id="bg" x1="0" x2="1" y1="0" y2="1">
      <stop offset="0" stop-color="#D8F5F0" stop-opacity="0.92"/>
      <stop offset="0.55" stop-color="#FFFFFF" stop-opacity="0.96"/>
      <stop offset="1" stop-color="#2EC4B6" stop-opacity="0.14"/>
    </linearGradient>
    <radialGradient id="halo" cx="74%" cy="35%" r="48%">
      <stop offset="0" stop-color="#2EC4B6" stop-opacity="0.26"/>
      <stop offset="1" stop-color="#2EC4B6" stop-opacity="0"/>
    </radialGradient>
    <filter id="soft"><feGaussianBlur stdDeviation="18"/></filter>
  </defs>
  <rect width="756" height="660" rx="22" fill="url(#bg)"/>
  <circle cx="589.7" cy="224.4" r="211.2" fill="url(#halo)"/>
  <path d="M 60.5 475.2 C 211.7 165.0, 408.2 567.6, 695.5 184.8" fill="none" stroke="#0F3D3E" stroke-opacity="0.16" stroke-width="3"/>
  <polyline points="0.0,428.6 94.5,393.8 189.0,319.8 283.5,300.9 378.0,361.2 472.5,423.8 567.0,408.9 661.5,335.4 756.0,297.1" fill="none" stroke="#2EC4B6" stroke-opacity="0.34" stroke-width="4" stroke-linecap="round"/>
  <line x1="487.17" y1="401.15" x2="337.78" y2="425.7" stroke="#2EC4B6" stroke-opacity="0.24" stroke-width="2"/><line x1="125.19" y1="208.82" x2="550.37" y2="233.38" stroke="#2EC4B6" stroke-opacity="0.24" stroke-width="2"/><line x1="337.78" y1="425.7" x2="188.4" y2="450.25" stroke="#2EC4B6" stroke-opacity="0.24" stroke-width="2"/><line x1="550.37" y1="233.38" x2="400.98" y2="257.93" stroke="#2EC4B6" stroke-opacity="0.24" stroke-width="2"/><line x1="400.98" y1="257.93" x2="251.6" y2="282.48" stroke="#2EC4B6" stroke-opacity="0.24" stroke-width="2"/><line x1="251.6" y1="282.48" x2="487.17" y2="401.15" stroke="#2EC4B6" stroke-opacity="0.24" stroke-width="2"/>
  <circle cx="487.17" cy="401.15" r="3" fill="#2EC4B6" fill-opacity="0.35"/><circle cx="125.19" cy="208.82" r="4" fill="#2EC4B6" fill-opacity="0.40"/><circle cx="337.78" cy="425.7" r="5" fill="#2EC4B6" fill-opacity="0.45"/><circle cx="550.37" cy="233.38" r="3" fill="#2EC4B6" fill-opacity="0.50"/><circle cx="188.4" cy="450.25" r="4" fill="#2EC4B6" fill-opacity="0.35"/><circle cx="400.98" cy="257.93" r="5" fill="#2EC4B6" fill-opacity="0.40"/><circle cx="613.57" cy="474.8" r="3" fill="#2EC4B6" fill-opacity="0.45"/><circle cx="251.6" cy="282.48" r="4" fill="#2EC4B6" fill-opacity="0.50"/><circle cx="464.18" cy="499.36" r="5" fill="#2EC4B6" fill-opacity="0.35"/>
  <rect x="56.7" y="79.2" width="136.1" height="118.8" rx="18" fill="#2EC4B6" fill-opacity="0.16"/>
  <circle cx="635.0" cy="475.2" r="105.6" fill="#FFFFFF" fill-opacity="0.36" stroke="#0F3D3E" stroke-opacity="0.10"/>
  <text x="60.5" y="580.8" font-family="Inter, Arial, sans-serif" font-size="59" font-weight="700" fill="#0F3D3E" fill-opacity="0.72">INFJ-A</text>
  <text x="60.5" y="654.5" font-family="Inter, Arial, sans-serif" font-size="30" font-weight="500" fill="#0F3D3E" fill-opacity="0.48">report unlock panel · A</text>
</svg>
