<svg xmlns="http://www.w3.org/2000/svg" width="1272" height="296" viewBox="0 0 1272 296" role="img" aria-labelledby="title desc">
  <title id="title">INFJ-A Growth path illustration</title>
  <desc id="desc">Abstract growth rhythm map for the INFJ-A MBTI desktop result module.</desc>
  <defs>
    <linearGradient id="bg" x1="0" x2="1" y1="0" y2="1">
      <stop offset="0" stop-color="#D8F5F0" stop-opacity="0.92"/>
      <stop offset="0.55" stop-color="#FFFFFF" stop-opacity="0.96"/>
      <stop offset="1" stop-color="#2EC4B6" stop-opacity="0.14"/>
    </linearGradient>
    <radialGradient id="halo" cx="74%" cy="35%" r="48%">
      <stop offset="0" stop-color="#2EC4B6" stop-opacity="0.26"/>
      <stop offset="1" stop-color="#2EC4B6" stop-opacity="0"/>
    </radialGradient>
    <filter id="soft"><feGaussianBlur stdDeviation="18"/></filter>
  </defs>
  <rect width="1272" height="296" rx="22" fill="url(#bg)"/>
  <circle cx="992.2" cy="100.6" r="94.7" fill="url(#halo)"/>
  <path d="M 101.8 213.1 C 356.2 74.0, 686.9 254.6, 1170.2 82.9" fill="none" stroke="#0F3D3E" stroke-opacity="0.16" stroke-width="3"/>
  <polyline points="0.0,180.1 159.0,146.7 318.0,133.8 477.0,158.0 636.0,188.3 795.0,186.1 954.0,154.2 1113.0,133.3 1272.0,150.0" fill="none" stroke="#2EC4B6" stroke-opacity="0.34" stroke-width="4" stroke-linecap="round"/>
  <line x1="529.66" y1="124.85" x2="278.31" y2="135.86" stroke="#2EC4B6" stroke-opacity="0.24" stroke-width="2"/><line x1="887.35" y1="222.12" x2="636.0" y2="233.13" stroke="#2EC4B6" stroke-opacity="0.24" stroke-width="2"/><line x1="278.31" y1="135.86" x2="993.69" y2="146.88" stroke="#2EC4B6" stroke-opacity="0.24" stroke-width="2"/><line x1="636.0" y1="233.13" x2="384.65" y2="60.62" stroke="#2EC4B6" stroke-opacity="0.24" stroke-width="2"/><line x1="384.65" y1="60.62" x2="1100.03" y2="71.63" stroke="#2EC4B6" stroke-opacity="0.24" stroke-width="2"/><line x1="1100.03" y1="71.63" x2="529.66" y2="124.85" stroke="#2EC4B6" stroke-opacity="0.24" stroke-width="2"/>
  <circle cx="529.66" cy="124.85" r="3" fill="#2EC4B6" fill-opacity="0.35"/><circle cx="887.35" cy="222.12" r="4" fill="#2EC4B6" fill-opacity="0.40"/><circle cx="278.31" cy="135.86" r="5" fill="#2EC4B6" fill-opacity="0.45"/><circle cx="636.0" cy="233.13" r="3" fill="#2EC4B6" fill-opacity="0.50"/><circle cx="993.69" cy="146.88" r="4" fill="#2EC4B6" fill-opacity="0.35"/><circle cx="384.65" cy="60.62" r="5" fill="#2EC4B6" fill-opacity="0.40"/><circle cx="742.34" cy="157.89" r="3" fill="#2EC4B6" fill-opacity="0.45"/><circle cx="1100.03" cy="71.63" r="4" fill="#2EC4B6" fill-opacity="0.50"/><circle cx="490.99" cy="168.9" r="5" fill="#2EC4B6" fill-opacity="0.35"/>
  <rect x="95.4" y="35.5" width="229.0" height="53.3" rx="18" fill="#2EC4B6" fill-opacity="0.16"/>
  <circle cx="1068.5" cy="213.1" r="47.4" fill="#FFFFFF" fill-opacity="0.36" stroke="#0F3D3E" stroke-opacity="0.10"/>
  <text x="101.8" y="260.5" font-family="Inter, Arial, sans-serif" font-size="27" font-weight="700" fill="#0F3D3E" fill-opacity="0.72">INFJ-A</text>
  <text x="101.8" y="294.2" font-family="Inter, Arial, sans-serif" font-size="13" font-weight="500" fill="#0F3D3E" fill-opacity="0.48">growth rhythm map · A</text>
</svg>
