<svg xmlns="http://www.w3.org/2000/svg" width="708" height="480" viewBox="0 0 708 480" role="img" aria-labelledby="title desc">
  <title id="title">INFJ-A Hero identity illustration</title>
  <desc id="desc">Abstract identity lattice for the INFJ-A MBTI desktop result module.</desc>
  <defs>
    <linearGradient id="bg" x1="0" x2="1" y1="0" y2="1">
      <stop offset="0" stop-color="#D8F5F0" stop-opacity="0.92"/>
      <stop offset="0.55" stop-color="#FFFFFF" stop-opacity="0.96"/>
      <stop offset="1" stop-color="#2EC4B6" stop-opacity="0.14"/>
    </linearGradient>
    <radialGradient id="halo" cx="74%" cy="35%" r="48%">
      <stop offset="0" stop-color="#2EC4B6" stop-opacity="0.26"/>
      <stop offset="1" stop-color="#2EC4B6" stop-opacity="0"/>
    </radialGradient>
    <filter id="soft"><feGaussianBlur stdDeviation="18"/></filter>
  </defs>
  <rect width="708" height="480" rx="22" fill="url(#bg)"/>
  <circle cx="552.2" cy="163.2" r="153.6" fill="url(#halo)"/>
  <path d="M 56.6 345.6 C 198.2 120.0, 382.3 412.8, 651.4 134.4" fill="none" stroke="#0F3D3E" stroke-opacity="0.16" stroke-width="3"/>
  <polyline points="0.0,216.1 88.5,243.4 177.0,296.9 265.5,308.5 354.0,263.3 442.5,219.0 531.0,232.1 619.5,285.8 708.0,311.8" fill="none" stroke="#2EC4B6" stroke-opacity="0.34" stroke-width="4" stroke-linecap="round"/>
  <line x1="95.72" y1="92.35" x2="493.9" y2="110.21" stroke="#2EC4B6" stroke-opacity="0.24" stroke-width="2"/><line x1="294.81" y1="250.08" x2="154.91" y2="267.94" stroke="#2EC4B6" stroke-opacity="0.24" stroke-width="2"/><line x1="493.9" y1="110.21" x2="354.0" y2="128.06" stroke="#2EC4B6" stroke-opacity="0.24" stroke-width="2"/><line x1="154.91" y1="267.94" x2="553.09" y2="285.79" stroke="#2EC4B6" stroke-opacity="0.24" stroke-width="2"/><line x1="354.0" y1="128.06" x2="214.1" y2="145.92" stroke="#2EC4B6" stroke-opacity="0.24" stroke-width="2"/><line x1="214.1" y1="145.92" x2="612.28" y2="163.78" stroke="#2EC4B6" stroke-opacity="0.24" stroke-width="2"/>
  <circle cx="95.72" cy="92.35" r="3" fill="#2EC4B6" fill-opacity="0.35"/><circle cx="294.81" cy="250.08" r="4" fill="#2EC4B6" fill-opacity="0.40"/><circle cx="493.9" cy="110.21" r="5" fill="#2EC4B6" fill-opacity="0.45"/><circle cx="154.91" cy="267.94" r="3" fill="#2EC4B6" fill-opacity="0.50"/><circle cx="354.0" cy="128.06" r="4" fill="#2EC4B6" fill-opacity="0.35"/><circle cx="553.09" cy="285.79" r="5" fill="#2EC4B6" fill-opacity="0.40"/><circle cx="214.1" cy="145.92" r="3" fill="#2EC4B6" fill-opacity="0.45"/><circle cx="413.19" cy="303.65" r="4" fill="#2EC4B6" fill-opacity="0.50"/><circle cx="612.28" cy="163.78" r="5" fill="#2EC4B6" fill-opacity="0.35"/>
  <rect x="53.1" y="57.6" width="127.4" height="86.4" rx="18" fill="#2EC4B6" fill-opacity="0.16"/>
  <circle cx="594.7" cy="345.6" r="76.8" fill="#FFFFFF" fill-opacity="0.36" stroke="#0F3D3E" stroke-opacity="0.10"/>
  <text x="56.6" y="422.4" font-family="Inter, Arial, sans-serif" font-size="43" font-weight="700" fill="#0F3D3E" fill-opacity="0.72">INFJ-A</text>
  <text x="56.6" y="476.1" font-family="Inter, Arial, sans-serif" font-size="22" font-weight="500" fill="#0F3D3E" fill-opacity="0.48">identity lattice · A</text>
</svg>
