<svg xmlns="http://www.w3.org/2000/svg" width="1272" height="296" viewBox="0 0 1272 296" role="img" aria-labelledby="title desc">
  <title id="title">INFJ-A Relationships illustration</title>
  <desc id="desc">Abstract relationship orbit map for the INFJ-A MBTI desktop result module.</desc>
  <defs>
    <linearGradient id="bg" x1="0" x2="1" y1="0" y2="1">
      <stop offset="0" stop-color="#D8F5F0" stop-opacity="0.92"/>
      <stop offset="0.55" stop-color="#FFFFFF" stop-opacity="0.96"/>
      <stop offset="1" stop-color="#2EC4B6" stop-opacity="0.14"/>
    </linearGradient>
    <radialGradient id="halo" cx="74%" cy="35%" r="48%">
      <stop offset="0" stop-color="#2EC4B6" stop-opacity="0.26"/>
      <stop offset="1" stop-color="#2EC4B6" stop-opacity="0"/>
    </radialGradient>
    <filter id="soft"><feGaussianBlur stdDeviation="18"/></filter>
  </defs>
  <rect width="1272" height="296" rx="22" fill="url(#bg)"/>
  <circle cx="992.2" cy="100.6" r="94.7" fill="url(#halo)"/>
  <path d="M 101.8 213.1 C 356.2 74.0, 686.9 254.6, 1170.2 82.9" fill="none" stroke="#0F3D3E" stroke-opacity="0.16" stroke-width="3"/>
  <polyline points="0.0,133.8 159.0,157.8 318.0,188.2 477.0,186.2 636.0,154.4 795.0,133.3 954.0,149.8 1113.0,182.9 1272.0,190.3" fill="none" stroke="#2EC4B6" stroke-opacity="0.34" stroke-width="4" stroke-linecap="round"/>
  <line x1="974.35" y1="209.27" x2="723.0" y2="220.28" stroke="#2EC4B6" stroke-opacity="0.24" stroke-width="2"/><line x1="365.32" y1="123.02" x2="1080.69" y2="134.03" stroke="#2EC4B6" stroke-opacity="0.24" stroke-width="2"/><line x1="723.0" y1="220.28" x2="471.66" y2="231.29" stroke="#2EC4B6" stroke-opacity="0.24" stroke-width="2"/><line x1="1080.69" y1="134.03" x2="829.34" y2="145.04" stroke="#2EC4B6" stroke-opacity="0.24" stroke-width="2"/><line x1="829.34" y1="145.04" x2="578.0" y2="156.05" stroke="#2EC4B6" stroke-opacity="0.24" stroke-width="2"/><line x1="578.0" y1="156.05" x2="974.35" y2="209.27" stroke="#2EC4B6" stroke-opacity="0.24" stroke-width="2"/>
  <circle cx="974.35" cy="209.27" r="3" fill="#2EC4B6" fill-opacity="0.35"/><circle cx="365.32" cy="123.02" r="4" fill="#2EC4B6" fill-opacity="0.40"/><circle cx="723.0" cy="220.28" r="5" fill="#2EC4B6" fill-opacity="0.45"/><circle cx="1080.69" cy="134.03" r="3" fill="#2EC4B6" fill-opacity="0.50"/><circle cx="471.66" cy="231.29" r="4" fill="#2EC4B6" fill-opacity="0.35"/><circle cx="829.34" cy="145.04" r="5" fill="#2EC4B6" fill-opacity="0.40"/><circle cx="220.31" cy="58.79" r="3" fill="#2EC4B6" fill-opacity="0.45"/><circle cx="578.0" cy="156.05" r="4" fill="#2EC4B6" fill-opacity="0.50"/><circle cx="935.68" cy="69.8" r="5" fill="#2EC4B6" fill-opacity="0.35"/>
  <rect x="95.4" y="35.5" width="229.0" height="53.3" rx="18" fill="#2EC4B6" fill-opacity="0.16"/>
  <circle cx="1068.5" cy="213.1" r="47.4" fill="#FFFFFF" fill-opacity="0.36" stroke="#0F3D3E" stroke-opacity="0.10"/>
  <text x="101.8" y="260.5" font-family="Inter, Arial, sans-serif" font-size="27" font-weight="700" fill="#0F3D3E" fill-opacity="0.72">INFJ-A</text>
  <text x="101.8" y="294.2" font-family="Inter, Arial, sans-serif" font-size="13" font-weight="500" fill="#0F3D3E" fill-opacity="0.48">relationship orbit map · A</text>
</svg>
