<svg xmlns="http://www.w3.org/2000/svg" width="720" height="354" viewBox="0 0 720 354" role="img" aria-labelledby="title desc">
  <title id="title">INFJ-A Traits summary illustration</title>
  <desc id="desc">Abstract trait signal card for the INFJ-A MBTI desktop result module.</desc>
  <defs>
    <linearGradient id="bg" x1="0" x2="1" y1="0" y2="1">
      <stop offset="0" stop-color="#D8F5F0" stop-opacity="0.92"/>
      <stop offset="0.55" stop-color="#FFFFFF" stop-opacity="0.96"/>
      <stop offset="1" stop-color="#2EC4B6" stop-opacity="0.14"/>
    </linearGradient>
    <radialGradient id="halo" cx="74%" cy="35%" r="48%">
      <stop offset="0" stop-color="#2EC4B6" stop-opacity="0.26"/>
      <stop offset="1" stop-color="#2EC4B6" stop-opacity="0"/>
    </radialGradient>
    <filter id="soft"><feGaussianBlur stdDeviation="18"/></filter>
  </defs>
  <rect width="720" height="354" rx="22" fill="url(#bg)"/>
  <circle cx="561.6" cy="120.4" r="113.3" fill="url(#halo)"/>
  <path d="M 57.6 254.9 C 201.6 88.5, 388.8 304.4, 662.4 99.1" fill="none" stroke="#0F3D3E" stroke-opacity="0.16" stroke-width="3"/>
  <polyline points="0.0,166.5 90.0,164.6 180.0,201.1 270.0,229.5 360.0,213.5 450.0,173.6 540.0,160.6 630.0,191.1 720.0,226.2" fill="none" stroke="#2EC4B6" stroke-opacity="0.34" stroke-width="4" stroke-linecap="round"/>
  <line x1="425.66" y1="199.8" x2="283.39" y2="212.97" stroke="#2EC4B6" stroke-opacity="0.24" stroke-width="2"/><line x1="628.13" y1="96.64" x2="485.86" y2="109.81" stroke="#2EC4B6" stroke-opacity="0.24" stroke-width="2"/><line x1="283.39" y1="212.97" x2="141.12" y2="226.14" stroke="#2EC4B6" stroke-opacity="0.24" stroke-width="2"/><line x1="485.86" y1="109.81" x2="343.58" y2="122.98" stroke="#2EC4B6" stroke-opacity="0.24" stroke-width="2"/><line x1="141.12" y1="226.14" x2="546.05" y2="239.3" stroke="#2EC4B6" stroke-opacity="0.24" stroke-width="2"/><line x1="546.05" y1="239.3" x2="403.78" y2="252.47" stroke="#2EC4B6" stroke-opacity="0.24" stroke-width="2"/>
  <circle cx="425.66" cy="199.8" r="3" fill="#2EC4B6" fill-opacity="0.35"/><circle cx="628.13" cy="96.64" r="4" fill="#2EC4B6" fill-opacity="0.40"/><circle cx="283.39" cy="212.97" r="5" fill="#2EC4B6" fill-opacity="0.45"/><circle cx="485.86" cy="109.81" r="3" fill="#2EC4B6" fill-opacity="0.50"/><circle cx="141.12" cy="226.14" r="4" fill="#2EC4B6" fill-opacity="0.35"/><circle cx="343.58" cy="122.98" r="5" fill="#2EC4B6" fill-opacity="0.40"/><circle cx="546.05" cy="239.3" r="3" fill="#2EC4B6" fill-opacity="0.45"/><circle cx="201.31" cy="136.15" r="4" fill="#2EC4B6" fill-opacity="0.50"/><circle cx="403.78" cy="252.47" r="5" fill="#2EC4B6" fill-opacity="0.35"/>
  <rect x="54.0" y="42.5" width="129.6" height="63.7" rx="18" fill="#2EC4B6" fill-opacity="0.16"/>
  <circle cx="604.8" cy="254.9" r="56.6" fill="#FFFFFF" fill-opacity="0.36" stroke="#0F3D3E" stroke-opacity="0.10"/>
  <text x="57.6" y="311.5" font-family="Inter, Arial, sans-serif" font-size="32" font-weight="700" fill="#0F3D3E" fill-opacity="0.72">INFJ-A</text>
  <text x="57.6" y="351.5" font-family="Inter, Arial, sans-serif" font-size="16" font-weight="500" fill="#0F3D3E" fill-opacity="0.48">trait signal card · A</text>
</svg>
