<svg xmlns="http://www.w3.org/2000/svg" width="1272" height="296" viewBox="0 0 1272 296" role="img" aria-labelledby="title desc">
  <title id="title">ISFJ-A Career path illustration</title>
  <desc id="desc">Abstract career path map for the ISFJ-A MBTI desktop result module.</desc>
  <defs>
    <linearGradient id="bg" x1="0" x2="1" y1="0" y2="1">
      <stop offset="0" stop-color="#DEF3EC" stop-opacity="0.92"/>
      <stop offset="0.55" stop-color="#FFFFFF" stop-opacity="0.96"/>
      <stop offset="1" stop-color="#43AA8B" stop-opacity="0.14"/>
    </linearGradient>
    <radialGradient id="halo" cx="74%" cy="35%" r="48%">
      <stop offset="0" stop-color="#43AA8B" stop-opacity="0.26"/>
      <stop offset="1" stop-color="#43AA8B" stop-opacity="0"/>
    </radialGradient>
    <filter id="soft"><feGaussianBlur stdDeviation="18"/></filter>
  </defs>
  <rect width="1272" height="296" rx="22" fill="url(#bg)"/>
  <circle cx="992.2" cy="100.6" r="94.7" fill="url(#halo)"/>
  <path d="M 101.8 213.1 C 356.2 74.0, 686.9 254.6, 1170.2 82.9" fill="none" stroke="#143B31" stroke-opacity="0.16" stroke-width="3"/>
  <polyline points="0.0,162.1 159.0,190.1 318.0,183.3 477.0,150.3 636.0,133.3 795.0,153.9 954.0,185.9 1113.0,188.4 1272.0,158.3" fill="none" stroke="#43AA8B" stroke-opacity="0.34" stroke-width="4" stroke-linecap="round"/>
  <line x1="181.64" y1="58.79" x2="897.01" y2="69.8" stroke="#43AA8B" stroke-opacity="0.24" stroke-width="2"/><line x1="539.33" y1="156.05" x2="287.98" y2="167.06" stroke="#43AA8B" stroke-opacity="0.24" stroke-width="2"/><line x1="897.01" y1="69.8" x2="645.67" y2="80.81" stroke="#43AA8B" stroke-opacity="0.24" stroke-width="2"/><line x1="287.98" y1="167.06" x2="1003.35" y2="178.07" stroke="#43AA8B" stroke-opacity="0.24" stroke-width="2"/><line x1="1003.35" y1="178.07" x2="752.01" y2="189.08" stroke="#43AA8B" stroke-opacity="0.24" stroke-width="2"/><line x1="752.01" y1="189.08" x2="181.64" y2="58.79" stroke="#43AA8B" stroke-opacity="0.24" stroke-width="2"/>
  <circle cx="181.64" cy="58.79" r="3" fill="#43AA8B" fill-opacity="0.35"/><circle cx="539.33" cy="156.05" r="4" fill="#43AA8B" fill-opacity="0.40"/><circle cx="897.01" cy="69.8" r="5" fill="#43AA8B" fill-opacity="0.45"/><circle cx="287.98" cy="167.06" r="3" fill="#43AA8B" fill-opacity="0.50"/><circle cx="645.67" cy="80.81" r="4" fill="#43AA8B" fill-opacity="0.35"/><circle cx="1003.35" cy="178.07" r="5" fill="#43AA8B" fill-opacity="0.40"/><circle cx="394.32" cy="91.82" r="3" fill="#43AA8B" fill-opacity="0.45"/><circle cx="752.01" cy="189.08" r="4" fill="#43AA8B" fill-opacity="0.50"/><circle cx="1109.69" cy="102.83" r="5" fill="#43AA8B" fill-opacity="0.35"/>
  <rect x="95.4" y="35.5" width="229.0" height="53.3" rx="18" fill="#43AA8B" fill-opacity="0.16"/>
  <circle cx="1068.5" cy="213.1" r="47.4" fill="#FFFFFF" fill-opacity="0.36" stroke="#143B31" stroke-opacity="0.10"/>
  <text x="101.8" y="260.5" font-family="Inter, Arial, sans-serif" font-size="27" font-weight="700" fill="#143B31" fill-opacity="0.72">ISFJ-A</text>
  <text x="101.8" y="294.2" font-family="Inter, Arial, sans-serif" font-size="13" font-weight="500" fill="#143B31" fill-opacity="0.48">career path map · A</text>
</svg>
