<svg xmlns="http://www.w3.org/2000/svg" width="756" height="660" viewBox="0 0 756 660" role="img" aria-labelledby="title desc">
  <title id="title">ISFJ-A Final offer illustration</title>
  <desc id="desc">Abstract report unlock panel for the ISFJ-A MBTI desktop result module.</desc>
  <defs>
    <linearGradient id="bg" x1="0" x2="1" y1="0" y2="1">
      <stop offset="0" stop-color="#DEF3EC" stop-opacity="0.92"/>
      <stop offset="0.55" stop-color="#FFFFFF" stop-opacity="0.96"/>
      <stop offset="1" stop-color="#43AA8B" stop-opacity="0.14"/>
    </linearGradient>
    <radialGradient id="halo" cx="74%" cy="35%" r="48%">
      <stop offset="0" stop-color="#43AA8B" stop-opacity="0.26"/>
      <stop offset="1" stop-color="#43AA8B" stop-opacity="0"/>
    </radialGradient>
    <filter id="soft"><feGaussianBlur stdDeviation="18"/></filter>
  </defs>
  <rect width="756" height="660" rx="22" fill="url(#bg)"/>
  <circle cx="589.7" cy="224.4" r="211.2" fill="url(#halo)"/>
  <path d="M 60.5 475.2 C 211.7 165.0, 408.2 567.6, 695.5 184.8" fill="none" stroke="#143B31" stroke-opacity="0.16" stroke-width="3"/>
  <polyline points="0.0,427.1 94.5,371.7 189.0,305.2 283.5,312.4 378.0,384.1 472.5,428.9 567.0,389.7 661.5,316.4 756.0,302.6" fill="none" stroke="#43AA8B" stroke-opacity="0.34" stroke-width="4" stroke-linecap="round"/>
  <line x1="515.89" y1="421.61" x2="366.51" y2="446.16" stroke="#43AA8B" stroke-opacity="0.24" stroke-width="2"/><line x1="153.92" y1="229.28" x2="579.1" y2="253.84" stroke="#43AA8B" stroke-opacity="0.24" stroke-width="2"/><line x1="366.51" y1="446.16" x2="217.12" y2="470.71" stroke="#43AA8B" stroke-opacity="0.24" stroke-width="2"/><line x1="579.1" y1="253.84" x2="429.71" y2="278.39" stroke="#43AA8B" stroke-opacity="0.24" stroke-width="2"/><line x1="217.12" y1="470.71" x2="642.3" y2="495.26" stroke="#43AA8B" stroke-opacity="0.24" stroke-width="2"/><line x1="642.3" y1="495.26" x2="492.91" y2="519.82" stroke="#43AA8B" stroke-opacity="0.24" stroke-width="2"/>
  <circle cx="515.89" cy="421.61" r="3" fill="#43AA8B" fill-opacity="0.35"/><circle cx="153.92" cy="229.28" r="4" fill="#43AA8B" fill-opacity="0.40"/><circle cx="366.51" cy="446.16" r="5" fill="#43AA8B" fill-opacity="0.45"/><circle cx="579.1" cy="253.84" r="3" fill="#43AA8B" fill-opacity="0.50"/><circle cx="217.12" cy="470.71" r="4" fill="#43AA8B" fill-opacity="0.35"/><circle cx="429.71" cy="278.39" r="5" fill="#43AA8B" fill-opacity="0.40"/><circle cx="642.3" cy="495.26" r="3" fill="#43AA8B" fill-opacity="0.45"/><circle cx="280.32" cy="302.94" r="4" fill="#43AA8B" fill-opacity="0.50"/><circle cx="492.91" cy="519.82" r="5" fill="#43AA8B" fill-opacity="0.35"/>
  <rect x="56.7" y="79.2" width="136.1" height="118.8" rx="18" fill="#43AA8B" fill-opacity="0.16"/>
  <circle cx="635.0" cy="475.2" r="105.6" fill="#FFFFFF" fill-opacity="0.36" stroke="#143B31" stroke-opacity="0.10"/>
  <text x="60.5" y="580.8" font-family="Inter, Arial, sans-serif" font-size="59" font-weight="700" fill="#143B31" fill-opacity="0.72">ISFJ-A</text>
  <text x="60.5" y="654.5" font-family="Inter, Arial, sans-serif" font-size="30" font-weight="500" fill="#143B31" fill-opacity="0.48">report unlock panel · A</text>
</svg>
