<svg xmlns="http://www.w3.org/2000/svg" width="708" height="480" viewBox="0 0 708 480" role="img" aria-labelledby="title desc">
  <title id="title">ISFJ-A Hero identity illustration</title>
  <desc id="desc">Abstract identity lattice for the ISFJ-A MBTI desktop result module.</desc>
  <defs>
    <linearGradient id="bg" x1="0" x2="1" y1="0" y2="1">
      <stop offset="0" stop-color="#DEF3EC" stop-opacity="0.92"/>
      <stop offset="0.55" stop-color="#FFFFFF" stop-opacity="0.96"/>
      <stop offset="1" stop-color="#43AA8B" stop-opacity="0.14"/>
    </linearGradient>
    <radialGradient id="halo" cx="74%" cy="35%" r="48%">
      <stop offset="0" stop-color="#43AA8B" stop-opacity="0.26"/>
      <stop offset="1" stop-color="#43AA8B" stop-opacity="0"/>
    </radialGradient>
    <filter id="soft"><feGaussianBlur stdDeviation="18"/></filter>
  </defs>
  <rect width="708" height="480" rx="22" fill="url(#bg)"/>
  <circle cx="552.2" cy="163.2" r="153.6" fill="url(#halo)"/>
  <path d="M 56.6 345.6 C 198.2 120.0, 382.3 412.8, 651.4 134.4" fill="none" stroke="#143B31" stroke-opacity="0.16" stroke-width="3"/>
  <polyline points="0.0,217.9 88.5,259.6 177.0,307.0 265.5,299.5 354.0,246.8 442.5,216.0 531.0,246.4 619.5,299.3 708.0,307.1" fill="none" stroke="#43AA8B" stroke-opacity="0.34" stroke-width="4" stroke-linecap="round"/>
  <line x1="122.63" y1="107.23" x2="520.8" y2="125.09" stroke="#43AA8B" stroke-opacity="0.24" stroke-width="2"/><line x1="321.72" y1="264.96" x2="181.81" y2="282.82" stroke="#43AA8B" stroke-opacity="0.24" stroke-width="2"/><line x1="520.8" y1="125.09" x2="380.9" y2="142.94" stroke="#43AA8B" stroke-opacity="0.24" stroke-width="2"/><line x1="181.81" y1="282.82" x2="579.99" y2="300.67" stroke="#43AA8B" stroke-opacity="0.24" stroke-width="2"/><line x1="579.99" y1="300.67" x2="440.09" y2="318.53" stroke="#43AA8B" stroke-opacity="0.24" stroke-width="2"/><line x1="440.09" y1="318.53" x2="122.63" y2="107.23" stroke="#43AA8B" stroke-opacity="0.24" stroke-width="2"/>
  <circle cx="122.63" cy="107.23" r="3" fill="#43AA8B" fill-opacity="0.35"/><circle cx="321.72" cy="264.96" r="4" fill="#43AA8B" fill-opacity="0.40"/><circle cx="520.8" cy="125.09" r="5" fill="#43AA8B" fill-opacity="0.45"/><circle cx="181.81" cy="282.82" r="3" fill="#43AA8B" fill-opacity="0.50"/><circle cx="380.9" cy="142.94" r="4" fill="#43AA8B" fill-opacity="0.35"/><circle cx="579.99" cy="300.67" r="5" fill="#43AA8B" fill-opacity="0.40"/><circle cx="241.0" cy="160.8" r="3" fill="#43AA8B" fill-opacity="0.45"/><circle cx="440.09" cy="318.53" r="4" fill="#43AA8B" fill-opacity="0.50"/><circle cx="101.1" cy="178.66" r="5" fill="#43AA8B" fill-opacity="0.35"/>
  <rect x="53.1" y="57.6" width="127.4" height="86.4" rx="18" fill="#43AA8B" fill-opacity="0.16"/>
  <circle cx="594.7" cy="345.6" r="76.8" fill="#FFFFFF" fill-opacity="0.36" stroke="#143B31" stroke-opacity="0.10"/>
  <text x="56.6" y="422.4" font-family="Inter, Arial, sans-serif" font-size="43" font-weight="700" fill="#143B31" fill-opacity="0.72">ISFJ-A</text>
  <text x="56.6" y="476.1" font-family="Inter, Arial, sans-serif" font-size="22" font-weight="500" fill="#143B31" fill-opacity="0.48">identity lattice · A</text>
</svg>
