<svg xmlns="http://www.w3.org/2000/svg" width="1272" height="296" viewBox="0 0 1272 296" role="img" aria-labelledby="title desc">
  <title id="title">ISFJ-A Relationships illustration</title>
  <desc id="desc">Abstract relationship orbit map for the ISFJ-A MBTI desktop result module.</desc>
  <defs>
    <linearGradient id="bg" x1="0" x2="1" y1="0" y2="1">
      <stop offset="0" stop-color="#DEF3EC" stop-opacity="0.92"/>
      <stop offset="0.55" stop-color="#FFFFFF" stop-opacity="0.96"/>
      <stop offset="1" stop-color="#43AA8B" stop-opacity="0.14"/>
    </linearGradient>
    <radialGradient id="halo" cx="74%" cy="35%" r="48%">
      <stop offset="0" stop-color="#43AA8B" stop-opacity="0.26"/>
      <stop offset="1" stop-color="#43AA8B" stop-opacity="0"/>
    </radialGradient>
    <filter id="soft"><feGaussianBlur stdDeviation="18"/></filter>
  </defs>
  <rect width="1272" height="296" rx="22" fill="url(#bg)"/>
  <circle cx="992.2" cy="100.6" r="94.7" fill="url(#halo)"/>
  <path d="M 101.8 213.1 C 356.2 74.0, 686.9 254.6, 1170.2 82.9" fill="none" stroke="#143B31" stroke-opacity="0.16" stroke-width="3"/>
  <polyline points="0.0,137.6 159.0,168.2 318.0,191.9 477.0,178.5 636.0,145.1 795.0,134.3 954.0,159.8 1113.0,189.2 1272.0,184.9" fill="none" stroke="#43AA8B" stroke-opacity="0.34" stroke-width="4" stroke-linecap="round"/>
  <line x1="1022.69" y1="218.45" x2="771.34" y2="229.46" stroke="#43AA8B" stroke-opacity="0.24" stroke-width="2"/><line x1="413.65" y1="132.19" x2="162.31" y2="143.2" stroke="#43AA8B" stroke-opacity="0.24" stroke-width="2"/><line x1="771.34" y1="229.46" x2="519.99" y2="56.95" stroke="#43AA8B" stroke-opacity="0.24" stroke-width="2"/><line x1="162.31" y1="143.2" x2="877.68" y2="154.22" stroke="#43AA8B" stroke-opacity="0.24" stroke-width="2"/><line x1="519.99" y1="56.95" x2="268.65" y2="67.96" stroke="#43AA8B" stroke-opacity="0.24" stroke-width="2"/><line x1="268.65" y1="67.96" x2="984.02" y2="78.97" stroke="#43AA8B" stroke-opacity="0.24" stroke-width="2"/>
  <circle cx="1022.69" cy="218.45" r="3" fill="#43AA8B" fill-opacity="0.35"/><circle cx="413.65" cy="132.19" r="4" fill="#43AA8B" fill-opacity="0.40"/><circle cx="771.34" cy="229.46" r="5" fill="#43AA8B" fill-opacity="0.45"/><circle cx="162.31" cy="143.2" r="3" fill="#43AA8B" fill-opacity="0.50"/><circle cx="519.99" cy="56.95" r="4" fill="#43AA8B" fill-opacity="0.35"/><circle cx="877.68" cy="154.22" r="5" fill="#43AA8B" fill-opacity="0.40"/><circle cx="268.65" cy="67.96" r="3" fill="#43AA8B" fill-opacity="0.45"/><circle cx="626.33" cy="165.23" r="4" fill="#43AA8B" fill-opacity="0.50"/><circle cx="984.02" cy="78.97" r="5" fill="#43AA8B" fill-opacity="0.35"/>
  <rect x="95.4" y="35.5" width="229.0" height="53.3" rx="18" fill="#43AA8B" fill-opacity="0.16"/>
  <circle cx="1068.5" cy="213.1" r="47.4" fill="#FFFFFF" fill-opacity="0.36" stroke="#143B31" stroke-opacity="0.10"/>
  <text x="101.8" y="260.5" font-family="Inter, Arial, sans-serif" font-size="27" font-weight="700" fill="#143B31" fill-opacity="0.72">ISFJ-A</text>
  <text x="101.8" y="294.2" font-family="Inter, Arial, sans-serif" font-size="13" font-weight="500" fill="#143B31" fill-opacity="0.48">relationship orbit map · A</text>
</svg>
