<svg xmlns="http://www.w3.org/2000/svg" width="720" height="354" viewBox="0 0 720 354" role="img" aria-labelledby="title desc">
  <title id="title">ISFJ-A Traits summary illustration</title>
  <desc id="desc">Abstract trait signal card for the ISFJ-A MBTI desktop result module.</desc>
  <defs>
    <linearGradient id="bg" x1="0" x2="1" y1="0" y2="1">
      <stop offset="0" stop-color="#DEF3EC" stop-opacity="0.92"/>
      <stop offset="0.55" stop-color="#FFFFFF" stop-opacity="0.96"/>
      <stop offset="1" stop-color="#43AA8B" stop-opacity="0.14"/>
    </linearGradient>
    <radialGradient id="halo" cx="74%" cy="35%" r="48%">
      <stop offset="0" stop-color="#43AA8B" stop-opacity="0.26"/>
      <stop offset="1" stop-color="#43AA8B" stop-opacity="0"/>
    </radialGradient>
    <filter id="soft"><feGaussianBlur stdDeviation="18"/></filter>
  </defs>
  <rect width="720" height="354" rx="22" fill="url(#bg)"/>
  <circle cx="561.6" cy="120.4" r="113.3" fill="url(#halo)"/>
  <path d="M 57.6 254.9 C 201.6 88.5, 388.8 304.4, 662.4 99.1" fill="none" stroke="#143B31" stroke-opacity="0.16" stroke-width="3"/>
  <polyline points="0.0,160.8 90.0,172.8 180.0,212.7 270.0,229.6 360.0,202.0 450.0,165.1 540.0,165.9 630.0,203.5 720.0,229.8" fill="none" stroke="#43AA8B" stroke-opacity="0.34" stroke-width="4" stroke-linecap="round"/>
  <line x1="453.02" y1="210.77" x2="310.75" y2="223.94" stroke="#43AA8B" stroke-opacity="0.24" stroke-width="2"/><line x1="108.29" y1="107.62" x2="513.22" y2="120.78" stroke="#43AA8B" stroke-opacity="0.24" stroke-width="2"/><line x1="310.75" y1="223.94" x2="168.48" y2="237.11" stroke="#43AA8B" stroke-opacity="0.24" stroke-width="2"/><line x1="513.22" y1="120.78" x2="370.94" y2="133.95" stroke="#43AA8B" stroke-opacity="0.24" stroke-width="2"/><line x1="370.94" y1="133.95" x2="228.67" y2="147.12" stroke="#43AA8B" stroke-opacity="0.24" stroke-width="2"/><line x1="228.67" y1="147.12" x2="453.02" y2="210.77" stroke="#43AA8B" stroke-opacity="0.24" stroke-width="2"/>
  <circle cx="453.02" cy="210.77" r="3" fill="#43AA8B" fill-opacity="0.35"/><circle cx="108.29" cy="107.62" r="4" fill="#43AA8B" fill-opacity="0.40"/><circle cx="310.75" cy="223.94" r="5" fill="#43AA8B" fill-opacity="0.45"/><circle cx="513.22" cy="120.78" r="3" fill="#43AA8B" fill-opacity="0.50"/><circle cx="168.48" cy="237.11" r="4" fill="#43AA8B" fill-opacity="0.35"/><circle cx="370.94" cy="133.95" r="5" fill="#43AA8B" fill-opacity="0.40"/><circle cx="573.41" cy="250.28" r="3" fill="#43AA8B" fill-opacity="0.45"/><circle cx="228.67" cy="147.12" r="4" fill="#43AA8B" fill-opacity="0.50"/><circle cx="431.14" cy="263.45" r="5" fill="#43AA8B" fill-opacity="0.35"/>
  <rect x="54.0" y="42.5" width="129.6" height="63.7" rx="18" fill="#43AA8B" fill-opacity="0.16"/>
  <circle cx="604.8" cy="254.9" r="56.6" fill="#FFFFFF" fill-opacity="0.36" stroke="#143B31" stroke-opacity="0.10"/>
  <text x="57.6" y="311.5" font-family="Inter, Arial, sans-serif" font-size="32" font-weight="700" fill="#143B31" fill-opacity="0.72">ISFJ-A</text>
  <text x="57.6" y="351.5" font-family="Inter, Arial, sans-serif" font-size="16" font-weight="500" fill="#143B31" fill-opacity="0.48">trait signal card · A</text>
</svg>
