<svg xmlns="http://www.w3.org/2000/svg" width="1272" height="296" viewBox="0 0 1272 296" role="img" aria-labelledby="title desc">
  <title id="title">ESTJ-A Career path illustration</title>
  <desc id="desc">Abstract career path map for the ESTJ-A MBTI desktop result module.</desc>
  <defs>
    <linearGradient id="bg" x1="0" x2="1" y1="0" y2="1">
      <stop offset="0" stop-color="#FFE1D0" stop-opacity="0.92"/>
      <stop offset="0.55" stop-color="#FFFFFF" stop-opacity="0.96"/>
      <stop offset="1" stop-color="#F3722C" stop-opacity="0.14"/>
    </linearGradient>
    <radialGradient id="halo" cx="74%" cy="35%" r="48%">
      <stop offset="0" stop-color="#F3722C" stop-opacity="0.26"/>
      <stop offset="1" stop-color="#F3722C" stop-opacity="0"/>
    </radialGradient>
    <filter id="soft"><feGaussianBlur stdDeviation="18"/></filter>
  </defs>
  <rect width="1272" height="296" rx="22" fill="url(#bg)"/>
  <circle cx="992.2" cy="100.6" r="94.7" fill="url(#halo)"/>
  <path d="M 101.8 213.1 C 356.2 74.0, 686.9 254.6, 1170.2 82.9" fill="none" stroke="#4A210B" stroke-opacity="0.16" stroke-width="3"/>
  <polyline points="0.0,181.5 159.0,191.0 318.0,164.5 477.0,135.9 636.0,141.6 795.0,174.3 954.0,192.4 1113.0,172.7 1272.0,140.4" fill="none" stroke="#F3722C" stroke-opacity="0.34" stroke-width="4" stroke-linecap="round"/>
  <line x1="278.31" y1="77.14" x2="993.69" y2="88.15" stroke="#F3722C" stroke-opacity="0.24" stroke-width="2"/><line x1="636.0" y1="174.4" x2="384.65" y2="185.41" stroke="#F3722C" stroke-opacity="0.24" stroke-width="2"/><line x1="993.69" y1="88.15" x2="742.34" y2="99.16" stroke="#F3722C" stroke-opacity="0.24" stroke-width="2"/><line x1="384.65" y1="185.41" x2="1100.03" y2="196.43" stroke="#F3722C" stroke-opacity="0.24" stroke-width="2"/><line x1="1100.03" y1="196.43" x2="848.68" y2="207.44" stroke="#F3722C" stroke-opacity="0.24" stroke-width="2"/><line x1="848.68" y1="207.44" x2="278.31" y2="77.14" stroke="#F3722C" stroke-opacity="0.24" stroke-width="2"/>
  <circle cx="278.31" cy="77.14" r="3" fill="#F3722C" fill-opacity="0.35"/><circle cx="636.0" cy="174.4" r="4" fill="#F3722C" fill-opacity="0.40"/><circle cx="993.69" cy="88.15" r="5" fill="#F3722C" fill-opacity="0.45"/><circle cx="384.65" cy="185.41" r="3" fill="#F3722C" fill-opacity="0.50"/><circle cx="742.34" cy="99.16" r="4" fill="#F3722C" fill-opacity="0.35"/><circle cx="1100.03" cy="196.43" r="5" fill="#F3722C" fill-opacity="0.40"/><circle cx="490.99" cy="110.17" r="3" fill="#F3722C" fill-opacity="0.45"/><circle cx="848.68" cy="207.44" r="4" fill="#F3722C" fill-opacity="0.50"/><circle cx="239.64" cy="121.18" r="5" fill="#F3722C" fill-opacity="0.35"/>
  <rect x="95.4" y="35.5" width="229.0" height="53.3" rx="18" fill="#F3722C" fill-opacity="0.16"/>
  <circle cx="1068.5" cy="213.1" r="47.4" fill="#FFFFFF" fill-opacity="0.36" stroke="#4A210B" stroke-opacity="0.10"/>
  <text x="101.8" y="260.5" font-family="Inter, Arial, sans-serif" font-size="27" font-weight="700" fill="#4A210B" fill-opacity="0.72">ESTJ-A</text>
  <text x="101.8" y="294.2" font-family="Inter, Arial, sans-serif" font-size="13" font-weight="500" fill="#4A210B" fill-opacity="0.48">career path map · A</text>
</svg>
