<svg xmlns="http://www.w3.org/2000/svg" width="756" height="660" viewBox="0 0 756 660" role="img" aria-labelledby="title desc">
  <title id="title">ESTJ-A Final offer illustration</title>
  <desc id="desc">Abstract report unlock panel for the ESTJ-A MBTI desktop result module.</desc>
  <defs>
    <linearGradient id="bg" x1="0" x2="1" y1="0" y2="1">
      <stop offset="0" stop-color="#FFE1D0" stop-opacity="0.92"/>
      <stop offset="0.55" stop-color="#FFFFFF" stop-opacity="0.96"/>
      <stop offset="1" stop-color="#F3722C" stop-opacity="0.14"/>
    </linearGradient>
    <radialGradient id="halo" cx="74%" cy="35%" r="48%">
      <stop offset="0" stop-color="#F3722C" stop-opacity="0.26"/>
      <stop offset="1" stop-color="#F3722C" stop-opacity="0"/>
    </radialGradient>
    <filter id="soft"><feGaussianBlur stdDeviation="18"/></filter>
  </defs>
  <rect width="756" height="660" rx="22" fill="url(#bg)"/>
  <circle cx="589.7" cy="224.4" r="211.2" fill="url(#halo)"/>
  <path d="M 60.5 475.2 C 211.7 165.0, 408.2 567.6, 695.5 184.8" fill="none" stroke="#4A210B" stroke-opacity="0.16" stroke-width="3"/>
  <polyline points="0.0,401.7 94.5,327.2 189.0,298.3 283.5,351.9 378.0,419.6 472.5,415.1 567.0,344.1 661.5,297.2 756.0,334.2" fill="none" stroke="#F3722C" stroke-opacity="0.34" stroke-width="4" stroke-linecap="round"/>
  <line x1="573.35" y1="462.53" x2="423.96" y2="487.08" stroke="#F3722C" stroke-opacity="0.24" stroke-width="2"/><line x1="211.38" y1="270.2" x2="636.55" y2="294.76" stroke="#F3722C" stroke-opacity="0.24" stroke-width="2"/><line x1="423.96" y1="487.08" x2="274.58" y2="511.63" stroke="#F3722C" stroke-opacity="0.24" stroke-width="2"/><line x1="636.55" y1="294.76" x2="487.17" y2="319.31" stroke="#F3722C" stroke-opacity="0.24" stroke-width="2"/><line x1="274.58" y1="511.63" x2="125.19" y2="126.98" stroke="#F3722C" stroke-opacity="0.24" stroke-width="2"/><line x1="125.19" y1="126.98" x2="550.37" y2="151.54" stroke="#F3722C" stroke-opacity="0.24" stroke-width="2"/>
  <circle cx="573.35" cy="462.53" r="3" fill="#F3722C" fill-opacity="0.35"/><circle cx="211.38" cy="270.2" r="4" fill="#F3722C" fill-opacity="0.40"/><circle cx="423.96" cy="487.08" r="5" fill="#F3722C" fill-opacity="0.45"/><circle cx="636.55" cy="294.76" r="3" fill="#F3722C" fill-opacity="0.50"/><circle cx="274.58" cy="511.63" r="4" fill="#F3722C" fill-opacity="0.35"/><circle cx="487.17" cy="319.31" r="5" fill="#F3722C" fill-opacity="0.40"/><circle cx="125.19" cy="126.98" r="3" fill="#F3722C" fill-opacity="0.45"/><circle cx="337.78" cy="343.86" r="4" fill="#F3722C" fill-opacity="0.50"/><circle cx="550.37" cy="151.54" r="5" fill="#F3722C" fill-opacity="0.35"/>
  <rect x="56.7" y="79.2" width="136.1" height="118.8" rx="18" fill="#F3722C" fill-opacity="0.16"/>
  <circle cx="635.0" cy="475.2" r="105.6" fill="#FFFFFF" fill-opacity="0.36" stroke="#4A210B" stroke-opacity="0.10"/>
  <text x="60.5" y="580.8" font-family="Inter, Arial, sans-serif" font-size="59" font-weight="700" fill="#4A210B" fill-opacity="0.72">ESTJ-A</text>
  <text x="60.5" y="654.5" font-family="Inter, Arial, sans-serif" font-size="30" font-weight="500" fill="#4A210B" fill-opacity="0.48">report unlock panel · A</text>
</svg>
