<svg xmlns="http://www.w3.org/2000/svg" width="1272" height="296" viewBox="0 0 1272 296" role="img" aria-labelledby="title desc">
  <title id="title">ESTJ-A Relationships illustration</title>
  <desc id="desc">Abstract relationship orbit map for the ESTJ-A MBTI desktop result module.</desc>
  <defs>
    <linearGradient id="bg" x1="0" x2="1" y1="0" y2="1">
      <stop offset="0" stop-color="#FFE1D0" stop-opacity="0.92"/>
      <stop offset="0.55" stop-color="#FFFFFF" stop-opacity="0.96"/>
      <stop offset="1" stop-color="#F3722C" stop-opacity="0.14"/>
    </linearGradient>
    <radialGradient id="halo" cx="74%" cy="35%" r="48%">
      <stop offset="0" stop-color="#F3722C" stop-opacity="0.26"/>
      <stop offset="1" stop-color="#F3722C" stop-opacity="0"/>
    </radialGradient>
    <filter id="soft"><feGaussianBlur stdDeviation="18"/></filter>
  </defs>
  <rect width="1272" height="296" rx="22" fill="url(#bg)"/>
  <circle cx="992.2" cy="100.6" r="94.7" fill="url(#halo)"/>
  <path d="M 101.8 213.1 C 356.2 74.0, 686.9 254.6, 1170.2 82.9" fill="none" stroke="#4A210B" stroke-opacity="0.16" stroke-width="3"/>
  <polyline points="0.0,153.7 159.0,185.8 318.0,188.5 477.0,158.5 636.0,133.9 795.0,146.2 954.0,179.6 1113.0,191.6 1272.0,166.8" fill="none" stroke="#F3722C" stroke-opacity="0.34" stroke-width="4" stroke-linecap="round"/>
  <line x1="152.64" y1="53.28" x2="868.01" y2="64.29" stroke="#F3722C" stroke-opacity="0.24" stroke-width="2"/><line x1="510.33" y1="150.55" x2="258.98" y2="161.56" stroke="#F3722C" stroke-opacity="0.24" stroke-width="2"/><line x1="868.01" y1="64.29" x2="616.67" y2="75.3" stroke="#F3722C" stroke-opacity="0.24" stroke-width="2"/><line x1="258.98" y1="161.56" x2="974.35" y2="172.57" stroke="#F3722C" stroke-opacity="0.24" stroke-width="2"/><line x1="616.67" y1="75.3" x2="365.32" y2="86.31" stroke="#F3722C" stroke-opacity="0.24" stroke-width="2"/><line x1="365.32" y1="86.31" x2="1080.69" y2="97.32" stroke="#F3722C" stroke-opacity="0.24" stroke-width="2"/>
  <circle cx="152.64" cy="53.28" r="3" fill="#F3722C" fill-opacity="0.35"/><circle cx="510.33" cy="150.55" r="4" fill="#F3722C" fill-opacity="0.40"/><circle cx="868.01" cy="64.29" r="5" fill="#F3722C" fill-opacity="0.45"/><circle cx="258.98" cy="161.56" r="3" fill="#F3722C" fill-opacity="0.50"/><circle cx="616.67" cy="75.3" r="4" fill="#F3722C" fill-opacity="0.35"/><circle cx="974.35" cy="172.57" r="5" fill="#F3722C" fill-opacity="0.40"/><circle cx="365.32" cy="86.31" r="3" fill="#F3722C" fill-opacity="0.45"/><circle cx="723.0" cy="183.58" r="4" fill="#F3722C" fill-opacity="0.50"/><circle cx="1080.69" cy="97.32" r="5" fill="#F3722C" fill-opacity="0.35"/>
  <rect x="95.4" y="35.5" width="229.0" height="53.3" rx="18" fill="#F3722C" fill-opacity="0.16"/>
  <circle cx="1068.5" cy="213.1" r="47.4" fill="#FFFFFF" fill-opacity="0.36" stroke="#4A210B" stroke-opacity="0.10"/>
  <text x="101.8" y="260.5" font-family="Inter, Arial, sans-serif" font-size="27" font-weight="700" fill="#4A210B" fill-opacity="0.72">ESTJ-A</text>
  <text x="101.8" y="294.2" font-family="Inter, Arial, sans-serif" font-size="13" font-weight="500" fill="#4A210B" fill-opacity="0.48">relationship orbit map · A</text>
</svg>
