<svg xmlns="http://www.w3.org/2000/svg" width="756" height="660" viewBox="0 0 756 660" role="img" aria-labelledby="title desc">
  <title id="title">ESFP-T Final offer illustration</title>
  <desc id="desc">Abstract report unlock panel for the ESFP-T MBTI desktop result module.</desc>
  <defs>
    <linearGradient id="bg" x1="0" x2="1" y1="0" y2="1">
      <stop offset="0" stop-color="#FFF2C5" stop-opacity="0.92"/>
      <stop offset="0.55" stop-color="#FFFFFF" stop-opacity="0.96"/>
      <stop offset="1" stop-color="#F9C74F" stop-opacity="0.14"/>
    </linearGradient>
    <radialGradient id="halo" cx="74%" cy="35%" r="48%">
      <stop offset="0" stop-color="#F9C74F" stop-opacity="0.26"/>
      <stop offset="1" stop-color="#F9C74F" stop-opacity="0"/>
    </radialGradient>
    <filter id="soft"><feGaussianBlur stdDeviation="18"/></filter>
  </defs>
  <rect width="756" height="660" rx="22" fill="url(#bg)"/>
  <circle cx="589.7" cy="224.4" r="211.2" fill="url(#halo)"/>
  <path d="M 60.5 475.2 C 211.7 165.0, 408.2 567.6, 695.5 184.8" fill="none" stroke="#47370C" stroke-opacity="0.16" stroke-width="3"/>
  <polyline points="0.0,353.2 94.5,298.6 189.0,326.2 283.5,400.7 378.0,427.2 472.5,371.8 567.0,305.2 661.5,312.3 756.0,384.1" fill="none" stroke="#F9C74F" stroke-opacity="0.34" stroke-width="4" stroke-linecap="round"/>
  <line x1="636.55" y1="507.54" x2="487.17" y2="122.89" stroke="#F9C74F" stroke-opacity="0.24" stroke-width="2"/><line x1="274.58" y1="315.22" x2="125.19" y2="339.77" stroke="#F9C74F" stroke-opacity="0.24" stroke-width="2"/><line x1="487.17" y1="122.89" x2="337.78" y2="147.44" stroke="#F9C74F" stroke-opacity="0.24" stroke-width="2"/><line x1="125.19" y1="339.77" x2="550.37" y2="364.32" stroke="#F9C74F" stroke-opacity="0.24" stroke-width="2"/><line x1="550.37" y1="364.32" x2="400.98" y2="388.87" stroke="#F9C74F" stroke-opacity="0.24" stroke-width="2"/><line x1="400.98" y1="388.87" x2="636.55" y2="507.54" stroke="#F9C74F" stroke-opacity="0.24" stroke-width="2"/>
  <circle cx="636.55" cy="507.54" r="3" fill="#F9C74F" fill-opacity="0.35"/><circle cx="274.58" cy="315.22" r="4" fill="#F9C74F" fill-opacity="0.40"/><circle cx="487.17" cy="122.89" r="5" fill="#F9C74F" fill-opacity="0.45"/><circle cx="125.19" cy="339.77" r="3" fill="#F9C74F" fill-opacity="0.50"/><circle cx="337.78" cy="147.44" r="4" fill="#F9C74F" fill-opacity="0.35"/><circle cx="550.37" cy="364.32" r="5" fill="#F9C74F" fill-opacity="0.40"/><circle cx="188.4" cy="172.0" r="3" fill="#F9C74F" fill-opacity="0.45"/><circle cx="400.98" cy="388.87" r="4" fill="#F9C74F" fill-opacity="0.50"/><circle cx="613.57" cy="196.55" r="5" fill="#F9C74F" fill-opacity="0.35"/>
  <rect x="56.7" y="79.2" width="136.1" height="118.8" rx="18" fill="#F9C74F" fill-opacity="0.16"/>
  <circle cx="635.0" cy="475.2" r="105.6" fill="#FFFFFF" fill-opacity="0.36" stroke="#47370C" stroke-opacity="0.10"/>
  <text x="60.5" y="580.8" font-family="Inter, Arial, sans-serif" font-size="59" font-weight="700" fill="#47370C" fill-opacity="0.72">ESFP-T</text>
  <text x="60.5" y="654.5" font-family="Inter, Arial, sans-serif" font-size="30" font-weight="500" fill="#47370C" fill-opacity="0.48">report unlock panel · T</text>
</svg>
