<svg xmlns="http://www.w3.org/2000/svg" width="708" height="480" viewBox="0 0 708 480" role="img" aria-labelledby="title desc">
  <title id="title">ESFP-T Hero identity illustration</title>
  <desc id="desc">Abstract identity lattice for the ESFP-T MBTI desktop result module.</desc>
  <defs>
    <linearGradient id="bg" x1="0" x2="1" y1="0" y2="1">
      <stop offset="0" stop-color="#FFF2C5" stop-opacity="0.92"/>
      <stop offset="0.55" stop-color="#FFFFFF" stop-opacity="0.96"/>
      <stop offset="1" stop-color="#F9C74F" stop-opacity="0.14"/>
    </linearGradient>
    <radialGradient id="halo" cx="74%" cy="35%" r="48%">
      <stop offset="0" stop-color="#F9C74F" stop-opacity="0.26"/>
      <stop offset="1" stop-color="#F9C74F" stop-opacity="0"/>
    </radialGradient>
    <filter id="soft"><feGaussianBlur stdDeviation="18"/></filter>
  </defs>
  <rect width="708" height="480" rx="22" fill="url(#bg)"/>
  <circle cx="552.2" cy="163.2" r="153.6" fill="url(#halo)"/>
  <path d="M 56.6 345.6 C 198.2 120.0, 382.3 412.8, 651.4 134.4" fill="none" stroke="#47370C" stroke-opacity="0.16" stroke-width="3"/>
  <polyline points="0.0,273.1 88.5,311.2 177.0,289.1 265.5,235.0 354.0,217.9 442.5,259.6 531.0,306.9 619.5,299.5 708.0,246.8" fill="none" stroke="#F9C74F" stroke-opacity="0.34" stroke-width="4" stroke-linecap="round"/>
  <line x1="235.62" y1="169.73" x2="95.72" y2="187.58" stroke="#F9C74F" stroke-opacity="0.24" stroke-width="2"/><line x1="434.71" y1="327.46" x2="294.81" y2="345.31" stroke="#F9C74F" stroke-opacity="0.24" stroke-width="2"/><line x1="95.72" y1="187.58" x2="493.9" y2="205.44" stroke="#F9C74F" stroke-opacity="0.24" stroke-width="2"/><line x1="294.81" y1="345.31" x2="154.91" y2="363.17" stroke="#F9C74F" stroke-opacity="0.24" stroke-width="2"/><line x1="493.9" y1="205.44" x2="354.0" y2="223.3" stroke="#F9C74F" stroke-opacity="0.24" stroke-width="2"/><line x1="354.0" y1="223.3" x2="214.1" y2="241.15" stroke="#F9C74F" stroke-opacity="0.24" stroke-width="2"/>
  <circle cx="235.62" cy="169.73" r="3" fill="#F9C74F" fill-opacity="0.35"/><circle cx="434.71" cy="327.46" r="4" fill="#F9C74F" fill-opacity="0.40"/><circle cx="95.72" cy="187.58" r="5" fill="#F9C74F" fill-opacity="0.45"/><circle cx="294.81" cy="345.31" r="3" fill="#F9C74F" fill-opacity="0.50"/><circle cx="493.9" cy="205.44" r="4" fill="#F9C74F" fill-opacity="0.35"/><circle cx="154.91" cy="363.17" r="5" fill="#F9C74F" fill-opacity="0.40"/><circle cx="354.0" cy="223.3" r="3" fill="#F9C74F" fill-opacity="0.45"/><circle cx="553.09" cy="381.02" r="4" fill="#F9C74F" fill-opacity="0.50"/><circle cx="214.1" cy="241.15" r="5" fill="#F9C74F" fill-opacity="0.35"/>
  <rect x="53.1" y="57.6" width="127.4" height="86.4" rx="18" fill="#F9C74F" fill-opacity="0.16"/>
  <circle cx="594.7" cy="345.6" r="76.8" fill="#FFFFFF" fill-opacity="0.36" stroke="#47370C" stroke-opacity="0.10"/>
  <text x="56.6" y="422.4" font-family="Inter, Arial, sans-serif" font-size="43" font-weight="700" fill="#47370C" fill-opacity="0.72">ESFP-T</text>
  <text x="56.6" y="476.1" font-family="Inter, Arial, sans-serif" font-size="22" font-weight="500" fill="#47370C" fill-opacity="0.48">identity lattice · T</text>
</svg>
