<svg xmlns="http://www.w3.org/2000/svg" width="720" height="354" viewBox="0 0 720 354" role="img" aria-labelledby="title desc">
  <title id="title">ESFP-T Traits summary illustration</title>
  <desc id="desc">Abstract trait signal card for the ESFP-T MBTI desktop result module.</desc>
  <defs>
    <linearGradient id="bg" x1="0" x2="1" y1="0" y2="1">
      <stop offset="0" stop-color="#FFF2C5" stop-opacity="0.92"/>
      <stop offset="0.55" stop-color="#FFFFFF" stop-opacity="0.96"/>
      <stop offset="1" stop-color="#F9C74F" stop-opacity="0.14"/>
    </linearGradient>
    <radialGradient id="halo" cx="74%" cy="35%" r="48%">
      <stop offset="0" stop-color="#F9C74F" stop-opacity="0.26"/>
      <stop offset="1" stop-color="#F9C74F" stop-opacity="0"/>
    </radialGradient>
    <filter id="soft"><feGaussianBlur stdDeviation="18"/></filter>
  </defs>
  <rect width="720" height="354" rx="22" fill="url(#bg)"/>
  <circle cx="561.6" cy="120.4" r="113.3" fill="url(#halo)"/>
  <path d="M 57.6 254.9 C 201.6 88.5, 388.8 304.4, 662.4 99.1" fill="none" stroke="#47370C" stroke-opacity="0.16" stroke-width="3"/>
  <polyline points="0.0,181.4 90.0,220.5 180.0,226.6 270.0,192.1 360.0,160.8 450.0,172.8 540.0,212.7 630.0,229.6 720.0,202.0" fill="none" stroke="#F9C74F" stroke-opacity="0.34" stroke-width="4" stroke-linecap="round"/>
  <line x1="567.94" y1="256.86" x2="425.66" y2="270.03" stroke="#F9C74F" stroke-opacity="0.24" stroke-width="2"/><line x1="223.2" y1="153.71" x2="628.13" y2="166.88" stroke="#F9C74F" stroke-opacity="0.24" stroke-width="2"/><line x1="425.66" y1="270.03" x2="283.39" y2="63.72" stroke="#F9C74F" stroke-opacity="0.24" stroke-width="2"/><line x1="628.13" y1="166.88" x2="485.86" y2="180.04" stroke="#F9C74F" stroke-opacity="0.24" stroke-width="2"/><line x1="283.39" y1="63.72" x2="141.12" y2="76.89" stroke="#F9C74F" stroke-opacity="0.24" stroke-width="2"/><line x1="141.12" y1="76.89" x2="546.05" y2="90.06" stroke="#F9C74F" stroke-opacity="0.24" stroke-width="2"/>
  <circle cx="567.94" cy="256.86" r="3" fill="#F9C74F" fill-opacity="0.35"/><circle cx="223.2" cy="153.71" r="4" fill="#F9C74F" fill-opacity="0.40"/><circle cx="425.66" cy="270.03" r="5" fill="#F9C74F" fill-opacity="0.45"/><circle cx="628.13" cy="166.88" r="3" fill="#F9C74F" fill-opacity="0.50"/><circle cx="283.39" cy="63.72" r="4" fill="#F9C74F" fill-opacity="0.35"/><circle cx="485.86" cy="180.04" r="5" fill="#F9C74F" fill-opacity="0.40"/><circle cx="141.12" cy="76.89" r="3" fill="#F9C74F" fill-opacity="0.45"/><circle cx="343.58" cy="193.21" r="4" fill="#F9C74F" fill-opacity="0.50"/><circle cx="546.05" cy="90.06" r="5" fill="#F9C74F" fill-opacity="0.35"/>
  <rect x="54.0" y="42.5" width="129.6" height="63.7" rx="18" fill="#F9C74F" fill-opacity="0.16"/>
  <circle cx="604.8" cy="254.9" r="56.6" fill="#FFFFFF" fill-opacity="0.36" stroke="#47370C" stroke-opacity="0.10"/>
  <text x="57.6" y="311.5" font-family="Inter, Arial, sans-serif" font-size="32" font-weight="700" fill="#47370C" fill-opacity="0.72">ESFP-T</text>
  <text x="57.6" y="351.5" font-family="Inter, Arial, sans-serif" font-size="16" font-weight="500" fill="#47370C" fill-opacity="0.48">trait signal card · T</text>
</svg>
