<svg xmlns="http://www.w3.org/2000/svg" width="1272" height="296" viewBox="0 0 1272 296" role="img" aria-labelledby="title desc">
  <title id="title">ESFP-T Traits axis illustration</title>
  <desc id="desc">Abstract axis map for the ESFP-T MBTI desktop result module.</desc>
  <defs>
    <linearGradient id="bg" x1="0" x2="1" y1="0" y2="1">
      <stop offset="0" stop-color="#FFF2C5" stop-opacity="0.92"/>
      <stop offset="0.55" stop-color="#FFFFFF" stop-opacity="0.96"/>
      <stop offset="1" stop-color="#F9C74F" stop-opacity="0.14"/>
    </linearGradient>
    <radialGradient id="halo" cx="74%" cy="35%" r="48%">
      <stop offset="0" stop-color="#F9C74F" stop-opacity="0.26"/>
      <stop offset="1" stop-color="#F9C74F" stop-opacity="0"/>
    </radialGradient>
    <filter id="soft"><feGaussianBlur stdDeviation="18"/></filter>
  </defs>
  <rect width="1272" height="296" rx="22" fill="url(#bg)"/>
  <circle cx="992.2" cy="100.6" r="94.7" fill="url(#halo)"/>
  <path d="M 101.8 213.1 C 356.2 74.0, 686.9 254.6, 1170.2 82.9" fill="none" stroke="#47370C" stroke-opacity="0.16" stroke-width="3"/>
  <polyline points="0.0,139.1 159.0,137.7 318.0,168.3 477.0,191.9 636.0,178.4 795.0,145.0 954.0,134.3 1113.0,160.0 1272.0,189.3" fill="none" stroke="#F9C74F" stroke-opacity="0.34" stroke-width="4" stroke-linecap="round"/>
  <line x1="742.34" y1="165.23" x2="490.99" y2="176.24" stroke="#F9C74F" stroke-opacity="0.24" stroke-width="2"/><line x1="1100.03" y1="78.97" x2="848.68" y2="89.98" stroke="#F9C74F" stroke-opacity="0.24" stroke-width="2"/><line x1="490.99" y1="176.24" x2="239.64" y2="187.25" stroke="#F9C74F" stroke-opacity="0.24" stroke-width="2"/><line x1="848.68" y1="89.98" x2="597.33" y2="101.0" stroke="#F9C74F" stroke-opacity="0.24" stroke-width="2"/><line x1="597.33" y1="101.0" x2="345.98" y2="112.01" stroke="#F9C74F" stroke-opacity="0.24" stroke-width="2"/><line x1="345.98" y1="112.01" x2="742.34" y2="165.23" stroke="#F9C74F" stroke-opacity="0.24" stroke-width="2"/>
  <circle cx="742.34" cy="165.23" r="3" fill="#F9C74F" fill-opacity="0.35"/><circle cx="1100.03" cy="78.97" r="4" fill="#F9C74F" fill-opacity="0.40"/><circle cx="490.99" cy="176.24" r="5" fill="#F9C74F" fill-opacity="0.45"/><circle cx="848.68" cy="89.98" r="3" fill="#F9C74F" fill-opacity="0.50"/><circle cx="239.64" cy="187.25" r="4" fill="#F9C74F" fill-opacity="0.35"/><circle cx="597.33" cy="101.0" r="5" fill="#F9C74F" fill-opacity="0.40"/><circle cx="955.02" cy="198.26" r="3" fill="#F9C74F" fill-opacity="0.45"/><circle cx="345.98" cy="112.01" r="4" fill="#F9C74F" fill-opacity="0.50"/><circle cx="703.67" cy="209.27" r="5" fill="#F9C74F" fill-opacity="0.35"/>
  <rect x="95.4" y="35.5" width="229.0" height="53.3" rx="18" fill="#F9C74F" fill-opacity="0.16"/>
  <circle cx="1068.5" cy="213.1" r="47.4" fill="#FFFFFF" fill-opacity="0.36" stroke="#47370C" stroke-opacity="0.10"/>
  <text x="101.8" y="260.5" font-family="Inter, Arial, sans-serif" font-size="27" font-weight="700" fill="#47370C" fill-opacity="0.72">ESFP-T</text>
  <text x="101.8" y="294.2" font-family="Inter, Arial, sans-serif" font-size="13" font-weight="500" fill="#47370C" fill-opacity="0.48">axis map · T</text>
</svg>
