<svg xmlns="http://www.w3.org/2000/svg" width="1272" height="296" viewBox="0 0 1272 296" role="img" aria-labelledby="title desc">
  <title id="title">ISFJ-T Career path illustration</title>
  <desc id="desc">Abstract career path map for the ISFJ-T MBTI desktop result module.</desc>
  <defs>
    <linearGradient id="bg" x1="0" x2="1" y1="0" y2="1">
      <stop offset="0" stop-color="#DEF3EC" stop-opacity="0.92"/>
      <stop offset="0.55" stop-color="#FFFFFF" stop-opacity="0.96"/>
      <stop offset="1" stop-color="#43AA8B" stop-opacity="0.14"/>
    </linearGradient>
    <radialGradient id="halo" cx="74%" cy="35%" r="48%">
      <stop offset="0" stop-color="#43AA8B" stop-opacity="0.26"/>
      <stop offset="1" stop-color="#43AA8B" stop-opacity="0"/>
    </radialGradient>
    <filter id="soft"><feGaussianBlur stdDeviation="18"/></filter>
  </defs>
  <rect width="1272" height="296" rx="22" fill="url(#bg)"/>
  <circle cx="992.2" cy="100.6" r="94.7" fill="url(#halo)"/>
  <path d="M 101.8 213.1 C 356.2 74.0, 686.9 254.6, 1170.2 82.9" fill="none" stroke="#143B31" stroke-opacity="0.16" stroke-width="3"/>
  <polyline points="0.0,191.5 159.0,180.1 318.0,146.7 477.0,133.8 636.0,158.0 795.0,188.3 954.0,186.1 1113.0,154.2 1272.0,133.3" fill="none" stroke="#43AA8B" stroke-opacity="0.34" stroke-width="4" stroke-linecap="round"/>
  <line x1="365.32" y1="93.65" x2="1080.69" y2="104.67" stroke="#43AA8B" stroke-opacity="0.24" stroke-width="2"/><line x1="723.0" y1="190.92" x2="471.66" y2="201.93" stroke="#43AA8B" stroke-opacity="0.24" stroke-width="2"/><line x1="1080.69" y1="104.67" x2="829.34" y2="115.68" stroke="#43AA8B" stroke-opacity="0.24" stroke-width="2"/><line x1="471.66" y1="201.93" x2="220.31" y2="212.94" stroke="#43AA8B" stroke-opacity="0.24" stroke-width="2"/><line x1="829.34" y1="115.68" x2="578.0" y2="126.69" stroke="#43AA8B" stroke-opacity="0.24" stroke-width="2"/><line x1="578.0" y1="126.69" x2="326.65" y2="137.7" stroke="#43AA8B" stroke-opacity="0.24" stroke-width="2"/>
  <circle cx="365.32" cy="93.65" r="3" fill="#43AA8B" fill-opacity="0.35"/><circle cx="723.0" cy="190.92" r="4" fill="#43AA8B" fill-opacity="0.40"/><circle cx="1080.69" cy="104.67" r="5" fill="#43AA8B" fill-opacity="0.45"/><circle cx="471.66" cy="201.93" r="3" fill="#43AA8B" fill-opacity="0.50"/><circle cx="829.34" cy="115.68" r="4" fill="#43AA8B" fill-opacity="0.35"/><circle cx="220.31" cy="212.94" r="5" fill="#43AA8B" fill-opacity="0.40"/><circle cx="578.0" cy="126.69" r="3" fill="#43AA8B" fill-opacity="0.45"/><circle cx="935.68" cy="223.95" r="4" fill="#43AA8B" fill-opacity="0.50"/><circle cx="326.65" cy="137.7" r="5" fill="#43AA8B" fill-opacity="0.35"/>
  <rect x="95.4" y="35.5" width="229.0" height="53.3" rx="18" fill="#43AA8B" fill-opacity="0.16"/>
  <circle cx="1068.5" cy="213.1" r="47.4" fill="#FFFFFF" fill-opacity="0.36" stroke="#143B31" stroke-opacity="0.10"/>
  <text x="101.8" y="260.5" font-family="Inter, Arial, sans-serif" font-size="27" font-weight="700" fill="#143B31" fill-opacity="0.72">ISFJ-T</text>
  <text x="101.8" y="294.2" font-family="Inter, Arial, sans-serif" font-size="13" font-weight="500" fill="#143B31" fill-opacity="0.48">career path map · T</text>
</svg>
