<svg xmlns="http://www.w3.org/2000/svg" width="756" height="660" viewBox="0 0 756 660" role="img" aria-labelledby="title desc">
  <title id="title">ISFJ-T Final offer illustration</title>
  <desc id="desc">Abstract report unlock panel for the ISFJ-T MBTI desktop result module.</desc>
  <defs>
    <linearGradient id="bg" x1="0" x2="1" y1="0" y2="1">
      <stop offset="0" stop-color="#DEF3EC" stop-opacity="0.92"/>
      <stop offset="0.55" stop-color="#FFFFFF" stop-opacity="0.96"/>
      <stop offset="1" stop-color="#43AA8B" stop-opacity="0.14"/>
    </linearGradient>
    <radialGradient id="halo" cx="74%" cy="35%" r="48%">
      <stop offset="0" stop-color="#43AA8B" stop-opacity="0.26"/>
      <stop offset="1" stop-color="#43AA8B" stop-opacity="0"/>
    </radialGradient>
    <filter id="soft"><feGaussianBlur stdDeviation="18"/></filter>
  </defs>
  <rect width="756" height="660" rx="22" fill="url(#bg)"/>
  <circle cx="589.7" cy="224.4" r="211.2" fill="url(#halo)"/>
  <path d="M 60.5 475.2 C 211.7 165.0, 408.2 567.6, 695.5 184.8" fill="none" stroke="#143B31" stroke-opacity="0.16" stroke-width="3"/>
  <polyline points="0.0,362.5 94.5,301.3 189.0,318.8 283.5,392.7 378.0,428.7 472.5,380.9 567.0,310.3 661.5,306.9 756.0,375.0" fill="none" stroke="#43AA8B" stroke-opacity="0.34" stroke-width="4" stroke-linecap="round"/>
  <line x1="625.06" y1="499.36" x2="475.68" y2="523.91" stroke="#43AA8B" stroke-opacity="0.24" stroke-width="2"/><line x1="263.09" y1="307.03" x2="113.7" y2="331.58" stroke="#43AA8B" stroke-opacity="0.24" stroke-width="2"/><line x1="475.68" y1="523.91" x2="326.29" y2="139.26" stroke="#43AA8B" stroke-opacity="0.24" stroke-width="2"/><line x1="113.7" y1="331.58" x2="538.88" y2="356.14" stroke="#43AA8B" stroke-opacity="0.24" stroke-width="2"/><line x1="538.88" y1="356.14" x2="389.49" y2="380.69" stroke="#43AA8B" stroke-opacity="0.24" stroke-width="2"/><line x1="389.49" y1="380.69" x2="625.06" y2="499.36" stroke="#43AA8B" stroke-opacity="0.24" stroke-width="2"/>
  <circle cx="625.06" cy="499.36" r="3" fill="#43AA8B" fill-opacity="0.35"/><circle cx="263.09" cy="307.03" r="4" fill="#43AA8B" fill-opacity="0.40"/><circle cx="475.68" cy="523.91" r="5" fill="#43AA8B" fill-opacity="0.45"/><circle cx="113.7" cy="331.58" r="3" fill="#43AA8B" fill-opacity="0.50"/><circle cx="326.29" cy="139.26" r="4" fill="#43AA8B" fill-opacity="0.35"/><circle cx="538.88" cy="356.14" r="5" fill="#43AA8B" fill-opacity="0.40"/><circle cx="176.9" cy="163.81" r="3" fill="#43AA8B" fill-opacity="0.45"/><circle cx="389.49" cy="380.69" r="4" fill="#43AA8B" fill-opacity="0.50"/><circle cx="602.08" cy="188.36" r="5" fill="#43AA8B" fill-opacity="0.35"/>
  <rect x="56.7" y="79.2" width="136.1" height="118.8" rx="18" fill="#43AA8B" fill-opacity="0.16"/>
  <circle cx="635.0" cy="475.2" r="105.6" fill="#FFFFFF" fill-opacity="0.36" stroke="#143B31" stroke-opacity="0.10"/>
  <text x="60.5" y="580.8" font-family="Inter, Arial, sans-serif" font-size="59" font-weight="700" fill="#143B31" fill-opacity="0.72">ISFJ-T</text>
  <text x="60.5" y="654.5" font-family="Inter, Arial, sans-serif" font-size="30" font-weight="500" fill="#143B31" fill-opacity="0.48">report unlock panel · T</text>
</svg>
