<svg xmlns="http://www.w3.org/2000/svg" width="1272" height="296" viewBox="0 0 1272 296" role="img" aria-labelledby="title desc">
  <title id="title">ISFJ-T Growth path illustration</title>
  <desc id="desc">Abstract growth rhythm map for the ISFJ-T MBTI desktop result module.</desc>
  <defs>
    <linearGradient id="bg" x1="0" x2="1" y1="0" y2="1">
      <stop offset="0" stop-color="#DEF3EC" stop-opacity="0.92"/>
      <stop offset="0.55" stop-color="#FFFFFF" stop-opacity="0.96"/>
      <stop offset="1" stop-color="#43AA8B" stop-opacity="0.14"/>
    </linearGradient>
    <radialGradient id="halo" cx="74%" cy="35%" r="48%">
      <stop offset="0" stop-color="#43AA8B" stop-opacity="0.26"/>
      <stop offset="1" stop-color="#43AA8B" stop-opacity="0"/>
    </radialGradient>
    <filter id="soft"><feGaussianBlur stdDeviation="18"/></filter>
  </defs>
  <rect width="1272" height="296" rx="22" fill="url(#bg)"/>
  <circle cx="992.2" cy="100.6" r="94.7" fill="url(#halo)"/>
  <path d="M 101.8 213.1 C 356.2 74.0, 686.9 254.6, 1170.2 82.9" fill="none" stroke="#143B31" stroke-opacity="0.16" stroke-width="3"/>
  <polyline points="0.0,136.8 159.0,140.2 318.0,172.4 477.0,192.4 636.0,174.7 795.0,141.8 954.0,135.7 1113.0,164.2 1272.0,190.9" fill="none" stroke="#43AA8B" stroke-opacity="0.34" stroke-width="4" stroke-linecap="round"/>
  <line x1="761.67" y1="168.9" x2="510.33" y2="179.91" stroke="#43AA8B" stroke-opacity="0.24" stroke-width="2"/><line x1="152.64" y1="82.64" x2="868.01" y2="93.65" stroke="#43AA8B" stroke-opacity="0.24" stroke-width="2"/><line x1="510.33" y1="179.91" x2="258.98" y2="190.92" stroke="#43AA8B" stroke-opacity="0.24" stroke-width="2"/><line x1="868.01" y1="93.65" x2="616.67" y2="104.67" stroke="#43AA8B" stroke-opacity="0.24" stroke-width="2"/><line x1="616.67" y1="104.67" x2="365.32" y2="115.68" stroke="#43AA8B" stroke-opacity="0.24" stroke-width="2"/><line x1="365.32" y1="115.68" x2="761.67" y2="168.9" stroke="#43AA8B" stroke-opacity="0.24" stroke-width="2"/>
  <circle cx="761.67" cy="168.9" r="3" fill="#43AA8B" fill-opacity="0.35"/><circle cx="152.64" cy="82.64" r="4" fill="#43AA8B" fill-opacity="0.40"/><circle cx="510.33" cy="179.91" r="5" fill="#43AA8B" fill-opacity="0.45"/><circle cx="868.01" cy="93.65" r="3" fill="#43AA8B" fill-opacity="0.50"/><circle cx="258.98" cy="190.92" r="4" fill="#43AA8B" fill-opacity="0.35"/><circle cx="616.67" cy="104.67" r="5" fill="#43AA8B" fill-opacity="0.40"/><circle cx="974.35" cy="201.93" r="3" fill="#43AA8B" fill-opacity="0.45"/><circle cx="365.32" cy="115.68" r="4" fill="#43AA8B" fill-opacity="0.50"/><circle cx="723.0" cy="212.94" r="5" fill="#43AA8B" fill-opacity="0.35"/>
  <rect x="95.4" y="35.5" width="229.0" height="53.3" rx="18" fill="#43AA8B" fill-opacity="0.16"/>
  <circle cx="1068.5" cy="213.1" r="47.4" fill="#FFFFFF" fill-opacity="0.36" stroke="#143B31" stroke-opacity="0.10"/>
  <text x="101.8" y="260.5" font-family="Inter, Arial, sans-serif" font-size="27" font-weight="700" fill="#143B31" fill-opacity="0.72">ISFJ-T</text>
  <text x="101.8" y="294.2" font-family="Inter, Arial, sans-serif" font-size="13" font-weight="500" fill="#143B31" fill-opacity="0.48">growth rhythm map · T</text>
</svg>
