<svg xmlns="http://www.w3.org/2000/svg" width="708" height="480" viewBox="0 0 708 480" role="img" aria-labelledby="title desc">
  <title id="title">ISFJ-T Hero identity illustration</title>
  <desc id="desc">Abstract identity lattice for the ISFJ-T MBTI desktop result module.</desc>
  <defs>
    <linearGradient id="bg" x1="0" x2="1" y1="0" y2="1">
      <stop offset="0" stop-color="#DEF3EC" stop-opacity="0.92"/>
      <stop offset="0.55" stop-color="#FFFFFF" stop-opacity="0.96"/>
      <stop offset="1" stop-color="#43AA8B" stop-opacity="0.14"/>
    </linearGradient>
    <radialGradient id="halo" cx="74%" cy="35%" r="48%">
      <stop offset="0" stop-color="#43AA8B" stop-opacity="0.26"/>
      <stop offset="1" stop-color="#43AA8B" stop-opacity="0"/>
    </radialGradient>
    <filter id="soft"><feGaussianBlur stdDeviation="18"/></filter>
  </defs>
  <rect width="708" height="480" rx="22" fill="url(#bg)"/>
  <circle cx="552.2" cy="163.2" r="153.6" fill="url(#halo)"/>
  <path d="M 56.6 345.6 C 198.2 120.0, 382.3 412.8, 651.4 134.4" fill="none" stroke="#143B31" stroke-opacity="0.16" stroke-width="3"/>
  <polyline points="0.0,266.4 88.5,309.5 177.0,294.6 265.5,240.6 354.0,216.5 442.5,252.9 531.0,303.5 619.5,303.7 708.0,253.3" fill="none" stroke="#43AA8B" stroke-opacity="0.34" stroke-width="4" stroke-linecap="round"/>
  <line x1="224.86" y1="163.78" x2="84.96" y2="181.63" stroke="#43AA8B" stroke-opacity="0.24" stroke-width="2"/><line x1="423.95" y1="321.5" x2="284.05" y2="339.36" stroke="#43AA8B" stroke-opacity="0.24" stroke-width="2"/><line x1="84.96" y1="181.63" x2="483.14" y2="199.49" stroke="#43AA8B" stroke-opacity="0.24" stroke-width="2"/><line x1="284.05" y1="339.36" x2="144.15" y2="357.22" stroke="#43AA8B" stroke-opacity="0.24" stroke-width="2"/><line x1="483.14" y1="199.49" x2="343.24" y2="217.34" stroke="#43AA8B" stroke-opacity="0.24" stroke-width="2"/><line x1="343.24" y1="217.34" x2="203.34" y2="235.2" stroke="#43AA8B" stroke-opacity="0.24" stroke-width="2"/>
  <circle cx="224.86" cy="163.78" r="3" fill="#43AA8B" fill-opacity="0.35"/><circle cx="423.95" cy="321.5" r="4" fill="#43AA8B" fill-opacity="0.40"/><circle cx="84.96" cy="181.63" r="5" fill="#43AA8B" fill-opacity="0.45"/><circle cx="284.05" cy="339.36" r="3" fill="#43AA8B" fill-opacity="0.50"/><circle cx="483.14" cy="199.49" r="4" fill="#43AA8B" fill-opacity="0.35"/><circle cx="144.15" cy="357.22" r="5" fill="#43AA8B" fill-opacity="0.40"/><circle cx="343.24" cy="217.34" r="3" fill="#43AA8B" fill-opacity="0.45"/><circle cx="542.33" cy="375.07" r="4" fill="#43AA8B" fill-opacity="0.50"/><circle cx="203.34" cy="235.2" r="5" fill="#43AA8B" fill-opacity="0.35"/>
  <rect x="53.1" y="57.6" width="127.4" height="86.4" rx="18" fill="#43AA8B" fill-opacity="0.16"/>
  <circle cx="594.7" cy="345.6" r="76.8" fill="#FFFFFF" fill-opacity="0.36" stroke="#143B31" stroke-opacity="0.10"/>
  <text x="56.6" y="422.4" font-family="Inter, Arial, sans-serif" font-size="43" font-weight="700" fill="#143B31" fill-opacity="0.72">ISFJ-T</text>
  <text x="56.6" y="476.1" font-family="Inter, Arial, sans-serif" font-size="22" font-weight="500" fill="#143B31" fill-opacity="0.48">identity lattice · T</text>
</svg>
