<svg xmlns="http://www.w3.org/2000/svg" width="720" height="354" viewBox="0 0 720 354" role="img" aria-labelledby="title desc">
  <title id="title">ISFJ-T Traits summary illustration</title>
  <desc id="desc">Abstract trait signal card for the ISFJ-T MBTI desktop result module.</desc>
  <defs>
    <linearGradient id="bg" x1="0" x2="1" y1="0" y2="1">
      <stop offset="0" stop-color="#DEF3EC" stop-opacity="0.92"/>
      <stop offset="0.55" stop-color="#FFFFFF" stop-opacity="0.96"/>
      <stop offset="1" stop-color="#43AA8B" stop-opacity="0.14"/>
    </linearGradient>
    <radialGradient id="halo" cx="74%" cy="35%" r="48%">
      <stop offset="0" stop-color="#43AA8B" stop-opacity="0.26"/>
      <stop offset="1" stop-color="#43AA8B" stop-opacity="0"/>
    </radialGradient>
    <filter id="soft"><feGaussianBlur stdDeviation="18"/></filter>
  </defs>
  <rect width="720" height="354" rx="22" fill="url(#bg)"/>
  <circle cx="561.6" cy="120.4" r="113.3" fill="url(#halo)"/>
  <path d="M 57.6 254.9 C 201.6 88.5, 388.8 304.4, 662.4 99.1" fill="none" stroke="#143B31" stroke-opacity="0.16" stroke-width="3"/>
  <polyline points="0.0,177.0 90.0,216.8 180.0,228.5 270.0,197.1 360.0,162.6 450.0,169.1 540.0,208.2 630.0,230.1 720.0,206.8" fill="none" stroke="#43AA8B" stroke-opacity="0.34" stroke-width="4" stroke-linecap="round"/>
  <line x1="556.99" y1="252.47" x2="414.72" y2="265.64" stroke="#43AA8B" stroke-opacity="0.24" stroke-width="2"/><line x1="212.26" y1="149.32" x2="617.18" y2="162.49" stroke="#43AA8B" stroke-opacity="0.24" stroke-width="2"/><line x1="414.72" y1="265.64" x2="272.45" y2="278.81" stroke="#43AA8B" stroke-opacity="0.24" stroke-width="2"/><line x1="617.18" y1="162.49" x2="474.91" y2="175.65" stroke="#43AA8B" stroke-opacity="0.24" stroke-width="2"/><line x1="272.45" y1="278.81" x2="130.18" y2="72.5" stroke="#43AA8B" stroke-opacity="0.24" stroke-width="2"/><line x1="130.18" y1="72.5" x2="535.1" y2="85.67" stroke="#43AA8B" stroke-opacity="0.24" stroke-width="2"/>
  <circle cx="556.99" cy="252.47" r="3" fill="#43AA8B" fill-opacity="0.35"/><circle cx="212.26" cy="149.32" r="4" fill="#43AA8B" fill-opacity="0.40"/><circle cx="414.72" cy="265.64" r="5" fill="#43AA8B" fill-opacity="0.45"/><circle cx="617.18" cy="162.49" r="3" fill="#43AA8B" fill-opacity="0.50"/><circle cx="272.45" cy="278.81" r="4" fill="#43AA8B" fill-opacity="0.35"/><circle cx="474.91" cy="175.65" r="5" fill="#43AA8B" fill-opacity="0.40"/><circle cx="130.18" cy="72.5" r="3" fill="#43AA8B" fill-opacity="0.45"/><circle cx="332.64" cy="188.82" r="4" fill="#43AA8B" fill-opacity="0.50"/><circle cx="535.1" cy="85.67" r="5" fill="#43AA8B" fill-opacity="0.35"/>
  <rect x="54.0" y="42.5" width="129.6" height="63.7" rx="18" fill="#43AA8B" fill-opacity="0.16"/>
  <circle cx="604.8" cy="254.9" r="56.6" fill="#FFFFFF" fill-opacity="0.36" stroke="#143B31" stroke-opacity="0.10"/>
  <text x="57.6" y="311.5" font-family="Inter, Arial, sans-serif" font-size="32" font-weight="700" fill="#143B31" fill-opacity="0.72">ISFJ-T</text>
  <text x="57.6" y="351.5" font-family="Inter, Arial, sans-serif" font-size="16" font-weight="500" fill="#143B31" fill-opacity="0.48">trait signal card · T</text>
</svg>
