<svg xmlns="http://www.w3.org/2000/svg" width="756" height="660" viewBox="0 0 756 660" role="img" aria-labelledby="title desc">
  <title id="title">ENFP-A Final offer illustration</title>
  <desc id="desc">Abstract report unlock panel for the ENFP-A MBTI desktop result module.</desc>
  <defs>
    <linearGradient id="bg" x1="0" x2="1" y1="0" y2="1">
      <stop offset="0" stop-color="#FFF0C2" stop-opacity="0.92"/>
      <stop offset="0.55" stop-color="#FFFFFF" stop-opacity="0.96"/>
      <stop offset="1" stop-color="#FFB703" stop-opacity="0.14"/>
    </linearGradient>
    <radialGradient id="halo" cx="74%" cy="35%" r="48%">
      <stop offset="0" stop-color="#FFB703" stop-opacity="0.26"/>
      <stop offset="1" stop-color="#FFB703" stop-opacity="0"/>
    </radialGradient>
    <filter id="soft"><feGaussianBlur stdDeviation="18"/></filter>
  </defs>
  <rect width="756" height="660" rx="22" fill="url(#bg)"/>
  <circle cx="589.7" cy="224.4" r="211.2" fill="url(#halo)"/>
  <path d="M 60.5 475.2 C 211.7 165.0, 408.2 567.6, 695.5 184.8" fill="none" stroke="#493606" stroke-opacity="0.16" stroke-width="3"/>
  <polyline points="0.0,429.0 94.5,385.3 189.0,313.2 283.5,304.6 378.0,370.5 472.5,426.8 567.0,401.8 661.5,327.3 756.0,298.3" fill="none" stroke="#FFB703" stroke-opacity="0.34" stroke-width="4" stroke-linecap="round"/>
  <line x1="498.66" y1="409.33" x2="349.27" y2="433.88" stroke="#FFB703" stroke-opacity="0.24" stroke-width="2"/><line x1="136.68" y1="217.01" x2="561.86" y2="241.56" stroke="#FFB703" stroke-opacity="0.24" stroke-width="2"/><line x1="349.27" y1="433.88" x2="199.89" y2="458.44" stroke="#FFB703" stroke-opacity="0.24" stroke-width="2"/><line x1="561.86" y1="241.56" x2="412.47" y2="266.11" stroke="#FFB703" stroke-opacity="0.24" stroke-width="2"/><line x1="412.47" y1="266.11" x2="263.09" y2="290.66" stroke="#FFB703" stroke-opacity="0.24" stroke-width="2"/><line x1="263.09" y1="290.66" x2="498.66" y2="409.33" stroke="#FFB703" stroke-opacity="0.24" stroke-width="2"/>
  <circle cx="498.66" cy="409.33" r="3" fill="#FFB703" fill-opacity="0.35"/><circle cx="136.68" cy="217.01" r="4" fill="#FFB703" fill-opacity="0.40"/><circle cx="349.27" cy="433.88" r="5" fill="#FFB703" fill-opacity="0.45"/><circle cx="561.86" cy="241.56" r="3" fill="#FFB703" fill-opacity="0.50"/><circle cx="199.89" cy="458.44" r="4" fill="#FFB703" fill-opacity="0.35"/><circle cx="412.47" cy="266.11" r="5" fill="#FFB703" fill-opacity="0.40"/><circle cx="625.06" cy="482.99" r="3" fill="#FFB703" fill-opacity="0.45"/><circle cx="263.09" cy="290.66" r="4" fill="#FFB703" fill-opacity="0.50"/><circle cx="475.68" cy="507.54" r="5" fill="#FFB703" fill-opacity="0.35"/>
  <rect x="56.7" y="79.2" width="136.1" height="118.8" rx="18" fill="#FFB703" fill-opacity="0.16"/>
  <circle cx="635.0" cy="475.2" r="105.6" fill="#FFFFFF" fill-opacity="0.36" stroke="#493606" stroke-opacity="0.10"/>
  <text x="60.5" y="580.8" font-family="Inter, Arial, sans-serif" font-size="59" font-weight="700" fill="#493606" fill-opacity="0.72">ENFP-A</text>
  <text x="60.5" y="654.5" font-family="Inter, Arial, sans-serif" font-size="30" font-weight="500" fill="#493606" fill-opacity="0.48">report unlock panel · A</text>
</svg>
