<svg xmlns="http://www.w3.org/2000/svg" width="1272" height="296" viewBox="0 0 1272 296" role="img" aria-labelledby="title desc">
  <title id="title">ENFP-A Growth path illustration</title>
  <desc id="desc">Abstract growth rhythm map for the ENFP-A MBTI desktop result module.</desc>
  <defs>
    <linearGradient id="bg" x1="0" x2="1" y1="0" y2="1">
      <stop offset="0" stop-color="#FFF0C2" stop-opacity="0.92"/>
      <stop offset="0.55" stop-color="#FFFFFF" stop-opacity="0.96"/>
      <stop offset="1" stop-color="#FFB703" stop-opacity="0.14"/>
    </linearGradient>
    <radialGradient id="halo" cx="74%" cy="35%" r="48%">
      <stop offset="0" stop-color="#FFB703" stop-opacity="0.26"/>
      <stop offset="1" stop-color="#FFB703" stop-opacity="0"/>
    </radialGradient>
    <filter id="soft"><feGaussianBlur stdDeviation="18"/></filter>
  </defs>
  <rect width="1272" height="296" rx="22" fill="url(#bg)"/>
  <circle cx="992.2" cy="100.6" r="94.7" fill="url(#halo)"/>
  <path d="M 101.8 213.1 C 356.2 74.0, 686.9 254.6, 1170.2 82.9" fill="none" stroke="#493606" stroke-opacity="0.16" stroke-width="3"/>
  <polyline points="0.0,176.5 159.0,143.3 318.0,135.0 477.0,162.1 636.0,190.1 795.0,183.3 954.0,150.3 1113.0,133.3 1272.0,153.9" fill="none" stroke="#FFB703" stroke-opacity="0.34" stroke-width="4" stroke-linecap="round"/>
  <line x1="549.0" y1="128.52" x2="297.65" y2="139.53" stroke="#FFB703" stroke-opacity="0.24" stroke-width="2"/><line x1="906.68" y1="225.79" x2="655.33" y2="53.28" stroke="#FFB703" stroke-opacity="0.24" stroke-width="2"/><line x1="297.65" y1="139.53" x2="1013.02" y2="150.55" stroke="#FFB703" stroke-opacity="0.24" stroke-width="2"/><line x1="655.33" y1="53.28" x2="403.99" y2="64.29" stroke="#FFB703" stroke-opacity="0.24" stroke-width="2"/><line x1="403.99" y1="64.29" x2="152.64" y2="75.3" stroke="#FFB703" stroke-opacity="0.24" stroke-width="2"/><line x1="152.64" y1="75.3" x2="549.0" y2="128.52" stroke="#FFB703" stroke-opacity="0.24" stroke-width="2"/>
  <circle cx="549.0" cy="128.52" r="3" fill="#FFB703" fill-opacity="0.35"/><circle cx="906.68" cy="225.79" r="4" fill="#FFB703" fill-opacity="0.40"/><circle cx="297.65" cy="139.53" r="5" fill="#FFB703" fill-opacity="0.45"/><circle cx="655.33" cy="53.28" r="3" fill="#FFB703" fill-opacity="0.50"/><circle cx="1013.02" cy="150.55" r="4" fill="#FFB703" fill-opacity="0.35"/><circle cx="403.99" cy="64.29" r="5" fill="#FFB703" fill-opacity="0.40"/><circle cx="761.67" cy="161.56" r="3" fill="#FFB703" fill-opacity="0.45"/><circle cx="152.64" cy="75.3" r="4" fill="#FFB703" fill-opacity="0.50"/><circle cx="510.33" cy="172.57" r="5" fill="#FFB703" fill-opacity="0.35"/>
  <rect x="95.4" y="35.5" width="229.0" height="53.3" rx="18" fill="#FFB703" fill-opacity="0.16"/>
  <circle cx="1068.5" cy="213.1" r="47.4" fill="#FFFFFF" fill-opacity="0.36" stroke="#493606" stroke-opacity="0.10"/>
  <text x="101.8" y="260.5" font-family="Inter, Arial, sans-serif" font-size="27" font-weight="700" fill="#493606" fill-opacity="0.72">ENFP-A</text>
  <text x="101.8" y="294.2" font-family="Inter, Arial, sans-serif" font-size="13" font-weight="500" fill="#493606" fill-opacity="0.48">growth rhythm map · A</text>
</svg>
