<svg xmlns="http://www.w3.org/2000/svg" width="708" height="480" viewBox="0 0 708 480" role="img" aria-labelledby="title desc">
  <title id="title">ENFP-A Hero identity illustration</title>
  <desc id="desc">Abstract identity lattice for the ENFP-A MBTI desktop result module.</desc>
  <defs>
    <linearGradient id="bg" x1="0" x2="1" y1="0" y2="1">
      <stop offset="0" stop-color="#FFF0C2" stop-opacity="0.92"/>
      <stop offset="0.55" stop-color="#FFFFFF" stop-opacity="0.96"/>
      <stop offset="1" stop-color="#FFB703" stop-opacity="0.14"/>
    </linearGradient>
    <radialGradient id="halo" cx="74%" cy="35%" r="48%">
      <stop offset="0" stop-color="#FFB703" stop-opacity="0.26"/>
      <stop offset="1" stop-color="#FFB703" stop-opacity="0"/>
    </radialGradient>
    <filter id="soft"><feGaussianBlur stdDeviation="18"/></filter>
  </defs>
  <rect width="708" height="480" rx="22" fill="url(#bg)"/>
  <circle cx="552.2" cy="163.2" r="153.6" fill="url(#halo)"/>
  <path d="M 56.6 345.6 C 198.2 120.0, 382.3 412.8, 651.4 134.4" fill="none" stroke="#493606" stroke-opacity="0.16" stroke-width="3"/>
  <polyline points="0.0,216.1 88.5,249.7 177.0,301.5 265.5,305.5 354.0,256.6 442.5,217.1 531.0,237.4 619.5,291.6 708.0,310.6" fill="none" stroke="#FFB703" stroke-opacity="0.34" stroke-width="4" stroke-linecap="round"/>
  <line x1="106.48" y1="98.3" x2="504.66" y2="116.16" stroke="#FFB703" stroke-opacity="0.24" stroke-width="2"/><line x1="305.57" y1="256.03" x2="165.67" y2="273.89" stroke="#FFB703" stroke-opacity="0.24" stroke-width="2"/><line x1="504.66" y1="116.16" x2="364.76" y2="134.02" stroke="#FFB703" stroke-opacity="0.24" stroke-width="2"/><line x1="165.67" y1="273.89" x2="563.85" y2="291.74" stroke="#FFB703" stroke-opacity="0.24" stroke-width="2"/><line x1="364.76" y1="134.02" x2="224.86" y2="151.87" stroke="#FFB703" stroke-opacity="0.24" stroke-width="2"/><line x1="224.86" y1="151.87" x2="84.96" y2="169.73" stroke="#FFB703" stroke-opacity="0.24" stroke-width="2"/>
  <circle cx="106.48" cy="98.3" r="3" fill="#FFB703" fill-opacity="0.35"/><circle cx="305.57" cy="256.03" r="4" fill="#FFB703" fill-opacity="0.40"/><circle cx="504.66" cy="116.16" r="5" fill="#FFB703" fill-opacity="0.45"/><circle cx="165.67" cy="273.89" r="3" fill="#FFB703" fill-opacity="0.50"/><circle cx="364.76" cy="134.02" r="4" fill="#FFB703" fill-opacity="0.35"/><circle cx="563.85" cy="291.74" r="5" fill="#FFB703" fill-opacity="0.40"/><circle cx="224.86" cy="151.87" r="3" fill="#FFB703" fill-opacity="0.45"/><circle cx="423.95" cy="309.6" r="4" fill="#FFB703" fill-opacity="0.50"/><circle cx="84.96" cy="169.73" r="5" fill="#FFB703" fill-opacity="0.35"/>
  <rect x="53.1" y="57.6" width="127.4" height="86.4" rx="18" fill="#FFB703" fill-opacity="0.16"/>
  <circle cx="594.7" cy="345.6" r="76.8" fill="#FFFFFF" fill-opacity="0.36" stroke="#493606" stroke-opacity="0.10"/>
  <text x="56.6" y="422.4" font-family="Inter, Arial, sans-serif" font-size="43" font-weight="700" fill="#493606" fill-opacity="0.72">ENFP-A</text>
  <text x="56.6" y="476.1" font-family="Inter, Arial, sans-serif" font-size="22" font-weight="500" fill="#493606" fill-opacity="0.48">identity lattice · A</text>
</svg>
