<svg xmlns="http://www.w3.org/2000/svg" width="1272" height="296" viewBox="0 0 1272 296" role="img" aria-labelledby="title desc">
  <title id="title">ENFP-A Relationships illustration</title>
  <desc id="desc">Abstract relationship orbit map for the ENFP-A MBTI desktop result module.</desc>
  <defs>
    <linearGradient id="bg" x1="0" x2="1" y1="0" y2="1">
      <stop offset="0" stop-color="#FFF0C2" stop-opacity="0.92"/>
      <stop offset="0.55" stop-color="#FFFFFF" stop-opacity="0.96"/>
      <stop offset="1" stop-color="#FFB703" stop-opacity="0.14"/>
    </linearGradient>
    <radialGradient id="halo" cx="74%" cy="35%" r="48%">
      <stop offset="0" stop-color="#FFB703" stop-opacity="0.26"/>
      <stop offset="1" stop-color="#FFB703" stop-opacity="0"/>
    </radialGradient>
    <filter id="soft"><feGaussianBlur stdDeviation="18"/></filter>
  </defs>
  <rect width="1272" height="296" rx="22" fill="url(#bg)"/>
  <circle cx="992.2" cy="100.6" r="94.7" fill="url(#halo)"/>
  <path d="M 101.8 213.1 C 356.2 74.0, 686.9 254.6, 1170.2 82.9" fill="none" stroke="#493606" stroke-opacity="0.16" stroke-width="3"/>
  <polyline points="0.0,134.9 159.0,161.9 318.0,190.1 477.0,183.4 636.0,150.5 795.0,133.2 954.0,153.7 1113.0,185.7 1272.0,188.5" fill="none" stroke="#FFB703" stroke-opacity="0.34" stroke-width="4" stroke-linecap="round"/>
  <line x1="993.69" y1="212.94" x2="742.34" y2="223.95" stroke="#FFB703" stroke-opacity="0.24" stroke-width="2"/><line x1="384.65" y1="126.69" x2="1100.03" y2="137.7" stroke="#FFB703" stroke-opacity="0.24" stroke-width="2"/><line x1="742.34" y1="223.95" x2="490.99" y2="234.96" stroke="#FFB703" stroke-opacity="0.24" stroke-width="2"/><line x1="1100.03" y1="137.7" x2="848.68" y2="148.71" stroke="#FFB703" stroke-opacity="0.24" stroke-width="2"/><line x1="848.68" y1="148.71" x2="597.33" y2="159.72" stroke="#FFB703" stroke-opacity="0.24" stroke-width="2"/><line x1="597.33" y1="159.72" x2="993.69" y2="212.94" stroke="#FFB703" stroke-opacity="0.24" stroke-width="2"/>
  <circle cx="993.69" cy="212.94" r="3" fill="#FFB703" fill-opacity="0.35"/><circle cx="384.65" cy="126.69" r="4" fill="#FFB703" fill-opacity="0.40"/><circle cx="742.34" cy="223.95" r="5" fill="#FFB703" fill-opacity="0.45"/><circle cx="1100.03" cy="137.7" r="3" fill="#FFB703" fill-opacity="0.50"/><circle cx="490.99" cy="234.96" r="4" fill="#FFB703" fill-opacity="0.35"/><circle cx="848.68" cy="148.71" r="5" fill="#FFB703" fill-opacity="0.40"/><circle cx="239.64" cy="62.46" r="3" fill="#FFB703" fill-opacity="0.45"/><circle cx="597.33" cy="159.72" r="4" fill="#FFB703" fill-opacity="0.50"/><circle cx="955.02" cy="73.47" r="5" fill="#FFB703" fill-opacity="0.35"/>
  <rect x="95.4" y="35.5" width="229.0" height="53.3" rx="18" fill="#FFB703" fill-opacity="0.16"/>
  <circle cx="1068.5" cy="213.1" r="47.4" fill="#FFFFFF" fill-opacity="0.36" stroke="#493606" stroke-opacity="0.10"/>
  <text x="101.8" y="260.5" font-family="Inter, Arial, sans-serif" font-size="27" font-weight="700" fill="#493606" fill-opacity="0.72">ENFP-A</text>
  <text x="101.8" y="294.2" font-family="Inter, Arial, sans-serif" font-size="13" font-weight="500" fill="#493606" fill-opacity="0.48">relationship orbit map · A</text>
</svg>
