<svg xmlns="http://www.w3.org/2000/svg" width="720" height="354" viewBox="0 0 720 354" role="img" aria-labelledby="title desc">
  <title id="title">ENFP-A Traits summary illustration</title>
  <desc id="desc">Abstract trait signal card for the ENFP-A MBTI desktop result module.</desc>
  <defs>
    <linearGradient id="bg" x1="0" x2="1" y1="0" y2="1">
      <stop offset="0" stop-color="#FFF0C2" stop-opacity="0.92"/>
      <stop offset="0.55" stop-color="#FFFFFF" stop-opacity="0.96"/>
      <stop offset="1" stop-color="#FFB703" stop-opacity="0.14"/>
    </linearGradient>
    <radialGradient id="halo" cx="74%" cy="35%" r="48%">
      <stop offset="0" stop-color="#FFB703" stop-opacity="0.26"/>
      <stop offset="1" stop-color="#FFB703" stop-opacity="0"/>
    </radialGradient>
    <filter id="soft"><feGaussianBlur stdDeviation="18"/></filter>
  </defs>
  <rect width="720" height="354" rx="22" fill="url(#bg)"/>
  <circle cx="561.6" cy="120.4" r="113.3" fill="url(#halo)"/>
  <path d="M 57.6 254.9 C 201.6 88.5, 388.8 304.4, 662.4 99.1" fill="none" stroke="#493606" stroke-opacity="0.16" stroke-width="3"/>
  <polyline points="0.0,163.8 90.0,167.5 180.0,205.9 270.0,230.1 360.0,209.1 450.0,169.8 540.0,162.2 630.0,196.1 720.0,228.2" fill="none" stroke="#FFB703" stroke-opacity="0.34" stroke-width="4" stroke-linecap="round"/>
  <line x1="436.61" y1="204.19" x2="294.34" y2="217.36" stroke="#FFB703" stroke-opacity="0.24" stroke-width="2"/><line x1="91.87" y1="101.03" x2="496.8" y2="114.2" stroke="#FFB703" stroke-opacity="0.24" stroke-width="2"/><line x1="294.34" y1="217.36" x2="152.06" y2="230.52" stroke="#FFB703" stroke-opacity="0.24" stroke-width="2"/><line x1="496.8" y1="114.2" x2="354.53" y2="127.37" stroke="#FFB703" stroke-opacity="0.24" stroke-width="2"/><line x1="152.06" y1="230.52" x2="556.99" y2="243.69" stroke="#FFB703" stroke-opacity="0.24" stroke-width="2"/><line x1="556.99" y1="243.69" x2="414.72" y2="256.86" stroke="#FFB703" stroke-opacity="0.24" stroke-width="2"/>
  <circle cx="436.61" cy="204.19" r="3" fill="#FFB703" fill-opacity="0.35"/><circle cx="91.87" cy="101.03" r="4" fill="#FFB703" fill-opacity="0.40"/><circle cx="294.34" cy="217.36" r="5" fill="#FFB703" fill-opacity="0.45"/><circle cx="496.8" cy="114.2" r="3" fill="#FFB703" fill-opacity="0.50"/><circle cx="152.06" cy="230.52" r="4" fill="#FFB703" fill-opacity="0.35"/><circle cx="354.53" cy="127.37" r="5" fill="#FFB703" fill-opacity="0.40"/><circle cx="556.99" cy="243.69" r="3" fill="#FFB703" fill-opacity="0.45"/><circle cx="212.26" cy="140.54" r="4" fill="#FFB703" fill-opacity="0.50"/><circle cx="414.72" cy="256.86" r="5" fill="#FFB703" fill-opacity="0.35"/>
  <rect x="54.0" y="42.5" width="129.6" height="63.7" rx="18" fill="#FFB703" fill-opacity="0.16"/>
  <circle cx="604.8" cy="254.9" r="56.6" fill="#FFFFFF" fill-opacity="0.36" stroke="#493606" stroke-opacity="0.10"/>
  <text x="57.6" y="311.5" font-family="Inter, Arial, sans-serif" font-size="32" font-weight="700" fill="#493606" fill-opacity="0.72">ENFP-A</text>
  <text x="57.6" y="351.5" font-family="Inter, Arial, sans-serif" font-size="16" font-weight="500" fill="#493606" fill-opacity="0.48">trait signal card · A</text>
</svg>
