<svg xmlns="http://www.w3.org/2000/svg" width="756" height="660" viewBox="0 0 756 660" role="img" aria-labelledby="title desc">
  <title id="title">ESTP-A Final offer illustration</title>
  <desc id="desc">Abstract report unlock panel for the ESTP-A MBTI desktop result module.</desc>
  <defs>
    <linearGradient id="bg" x1="0" x2="1" y1="0" y2="1">
      <stop offset="0" stop-color="#FFDCDC" stop-opacity="0.92"/>
      <stop offset="0.55" stop-color="#FFFFFF" stop-opacity="0.96"/>
      <stop offset="1" stop-color="#F94144" stop-opacity="0.14"/>
    </linearGradient>
    <radialGradient id="halo" cx="74%" cy="35%" r="48%">
      <stop offset="0" stop-color="#F94144" stop-opacity="0.26"/>
      <stop offset="1" stop-color="#F94144" stop-opacity="0"/>
    </radialGradient>
    <filter id="soft"><feGaussianBlur stdDeviation="18"/></filter>
  </defs>
  <rect width="756" height="660" rx="22" fill="url(#bg)"/>
  <circle cx="589.7" cy="224.4" r="211.2" fill="url(#halo)"/>
  <path d="M 60.5 475.2 C 211.7 165.0, 408.2 567.6, 695.5 184.8" fill="none" stroke="#4B1011" stroke-opacity="0.16" stroke-width="3"/>
  <polyline points="0.0,376.3 94.5,307.6 189.0,309.5 283.5,379.6 378.0,428.6 472.5,393.9 567.0,319.8 661.5,300.8 756.0,361.1" fill="none" stroke="#F94144" stroke-opacity="0.34" stroke-width="4" stroke-linecap="round"/>
  <line x1="607.82" y1="487.08" x2="458.44" y2="511.63" stroke="#F94144" stroke-opacity="0.24" stroke-width="2"/><line x1="245.85" y1="294.76" x2="96.47" y2="319.31" stroke="#F94144" stroke-opacity="0.24" stroke-width="2"/><line x1="458.44" y1="511.63" x2="309.05" y2="126.98" stroke="#F94144" stroke-opacity="0.24" stroke-width="2"/><line x1="96.47" y1="319.31" x2="521.64" y2="343.86" stroke="#F94144" stroke-opacity="0.24" stroke-width="2"/><line x1="309.05" y1="126.98" x2="159.67" y2="151.54" stroke="#F94144" stroke-opacity="0.24" stroke-width="2"/><line x1="159.67" y1="151.54" x2="584.84" y2="176.09" stroke="#F94144" stroke-opacity="0.24" stroke-width="2"/>
  <circle cx="607.82" cy="487.08" r="3" fill="#F94144" fill-opacity="0.35"/><circle cx="245.85" cy="294.76" r="4" fill="#F94144" fill-opacity="0.40"/><circle cx="458.44" cy="511.63" r="5" fill="#F94144" fill-opacity="0.45"/><circle cx="96.47" cy="319.31" r="3" fill="#F94144" fill-opacity="0.50"/><circle cx="309.05" cy="126.98" r="4" fill="#F94144" fill-opacity="0.35"/><circle cx="521.64" cy="343.86" r="5" fill="#F94144" fill-opacity="0.40"/><circle cx="159.67" cy="151.54" r="3" fill="#F94144" fill-opacity="0.45"/><circle cx="372.25" cy="368.41" r="4" fill="#F94144" fill-opacity="0.50"/><circle cx="584.84" cy="176.09" r="5" fill="#F94144" fill-opacity="0.35"/>
  <rect x="56.7" y="79.2" width="136.1" height="118.8" rx="18" fill="#F94144" fill-opacity="0.16"/>
  <circle cx="635.0" cy="475.2" r="105.6" fill="#FFFFFF" fill-opacity="0.36" stroke="#4B1011" stroke-opacity="0.10"/>
  <text x="60.5" y="580.8" font-family="Inter, Arial, sans-serif" font-size="59" font-weight="700" fill="#4B1011" fill-opacity="0.72">ESTP-A</text>
  <text x="60.5" y="654.5" font-family="Inter, Arial, sans-serif" font-size="30" font-weight="500" fill="#4B1011" fill-opacity="0.48">report unlock panel · A</text>
</svg>
