<svg xmlns="http://www.w3.org/2000/svg" width="708" height="480" viewBox="0 0 708 480" role="img" aria-labelledby="title desc">
  <title id="title">ESTP-A Hero identity illustration</title>
  <desc id="desc">Abstract identity lattice for the ESTP-A MBTI desktop result module.</desc>
  <defs>
    <linearGradient id="bg" x1="0" x2="1" y1="0" y2="1">
      <stop offset="0" stop-color="#FFDCDC" stop-opacity="0.92"/>
      <stop offset="0.55" stop-color="#FFFFFF" stop-opacity="0.96"/>
      <stop offset="1" stop-color="#F94144" stop-opacity="0.14"/>
    </linearGradient>
    <radialGradient id="halo" cx="74%" cy="35%" r="48%">
      <stop offset="0" stop-color="#F94144" stop-opacity="0.26"/>
      <stop offset="1" stop-color="#F94144" stop-opacity="0"/>
    </radialGradient>
    <filter id="soft"><feGaussianBlur stdDeviation="18"/></filter>
  </defs>
  <rect width="708" height="480" rx="22" fill="url(#bg)"/>
  <circle cx="552.2" cy="163.2" r="153.6" fill="url(#halo)"/>
  <path d="M 56.6 345.6 C 198.2 120.0, 382.3 412.8, 651.4 134.4" fill="none" stroke="#4B1011" stroke-opacity="0.16" stroke-width="3"/>
  <polyline points="0.0,256.3 88.5,305.3 177.0,301.7 265.5,250.0 354.0,216.1 442.5,243.3 531.0,296.9 619.5,308.5 708.0,263.4" fill="none" stroke="#F94144" stroke-opacity="0.34" stroke-width="4" stroke-linecap="round"/>
  <line x1="208.72" y1="154.85" x2="606.9" y2="172.7" stroke="#F94144" stroke-opacity="0.24" stroke-width="2"/><line x1="407.81" y1="312.58" x2="267.91" y2="330.43" stroke="#F94144" stroke-opacity="0.24" stroke-width="2"/><line x1="606.9" y1="172.7" x2="467.0" y2="190.56" stroke="#F94144" stroke-opacity="0.24" stroke-width="2"/><line x1="267.91" y1="330.43" x2="128.01" y2="348.29" stroke="#F94144" stroke-opacity="0.24" stroke-width="2"/><line x1="128.01" y1="348.29" x2="526.19" y2="366.14" stroke="#F94144" stroke-opacity="0.24" stroke-width="2"/><line x1="526.19" y1="366.14" x2="208.72" y2="154.85" stroke="#F94144" stroke-opacity="0.24" stroke-width="2"/>
  <circle cx="208.72" cy="154.85" r="3" fill="#F94144" fill-opacity="0.35"/><circle cx="407.81" cy="312.58" r="4" fill="#F94144" fill-opacity="0.40"/><circle cx="606.9" cy="172.7" r="5" fill="#F94144" fill-opacity="0.45"/><circle cx="267.91" cy="330.43" r="3" fill="#F94144" fill-opacity="0.50"/><circle cx="467.0" cy="190.56" r="4" fill="#F94144" fill-opacity="0.35"/><circle cx="128.01" cy="348.29" r="5" fill="#F94144" fill-opacity="0.40"/><circle cx="327.1" cy="208.42" r="3" fill="#F94144" fill-opacity="0.45"/><circle cx="526.19" cy="366.14" r="4" fill="#F94144" fill-opacity="0.50"/><circle cx="187.2" cy="226.27" r="5" fill="#F94144" fill-opacity="0.35"/>
  <rect x="53.1" y="57.6" width="127.4" height="86.4" rx="18" fill="#F94144" fill-opacity="0.16"/>
  <circle cx="594.7" cy="345.6" r="76.8" fill="#FFFFFF" fill-opacity="0.36" stroke="#4B1011" stroke-opacity="0.10"/>
  <text x="56.6" y="422.4" font-family="Inter, Arial, sans-serif" font-size="43" font-weight="700" fill="#4B1011" fill-opacity="0.72">ESTP-A</text>
  <text x="56.6" y="476.1" font-family="Inter, Arial, sans-serif" font-size="22" font-weight="500" fill="#4B1011" fill-opacity="0.48">identity lattice · A</text>
</svg>
