<svg xmlns="http://www.w3.org/2000/svg" width="708" height="480" viewBox="0 0 708 480" role="img" aria-labelledby="title desc">
  <title id="title">ESFJ-T Hero identity illustration</title>
  <desc id="desc">Abstract identity lattice for the ESFJ-T MBTI desktop result module.</desc>
  <defs>
    <linearGradient id="bg" x1="0" x2="1" y1="0" y2="1">
      <stop offset="0" stop-color="#FFE8DA" stop-opacity="0.92"/>
      <stop offset="0.55" stop-color="#FFFFFF" stop-opacity="0.96"/>
      <stop offset="1" stop-color="#F9844A" stop-opacity="0.14"/>
    </linearGradient>
    <radialGradient id="halo" cx="74%" cy="35%" r="48%">
      <stop offset="0" stop-color="#F9844A" stop-opacity="0.26"/>
      <stop offset="1" stop-color="#F9844A" stop-opacity="0"/>
    </radialGradient>
    <filter id="soft"><feGaussianBlur stdDeviation="18"/></filter>
  </defs>
  <rect width="708" height="480" rx="22" fill="url(#bg)"/>
  <circle cx="552.2" cy="163.2" r="153.6" fill="url(#halo)"/>
  <path d="M 56.6 345.6 C 198.2 120.0, 382.3 412.8, 651.4 134.4" fill="none" stroke="#4C2615" stroke-opacity="0.16" stroke-width="3"/>
  <polyline points="0.0,252.9 88.5,303.5 177.0,303.7 265.5,253.3 354.0,216.5 442.5,240.3 531.0,294.3 619.5,309.7 708.0,266.8" fill="none" stroke="#F9844A" stroke-opacity="0.34" stroke-width="4" stroke-linecap="round"/>
  <line x1="203.34" y1="151.87" x2="601.52" y2="169.73" stroke="#F9844A" stroke-opacity="0.24" stroke-width="2"/><line x1="402.43" y1="309.6" x2="262.53" y2="327.46" stroke="#F9844A" stroke-opacity="0.24" stroke-width="2"/><line x1="601.52" y1="169.73" x2="461.62" y2="187.58" stroke="#F9844A" stroke-opacity="0.24" stroke-width="2"/><line x1="262.53" y1="327.46" x2="122.63" y2="345.31" stroke="#F9844A" stroke-opacity="0.24" stroke-width="2"/><line x1="461.62" y1="187.58" x2="321.72" y2="205.44" stroke="#F9844A" stroke-opacity="0.24" stroke-width="2"/><line x1="321.72" y1="205.44" x2="181.81" y2="223.3" stroke="#F9844A" stroke-opacity="0.24" stroke-width="2"/>
  <circle cx="203.34" cy="151.87" r="3" fill="#F9844A" fill-opacity="0.35"/><circle cx="402.43" cy="309.6" r="4" fill="#F9844A" fill-opacity="0.40"/><circle cx="601.52" cy="169.73" r="5" fill="#F9844A" fill-opacity="0.45"/><circle cx="262.53" cy="327.46" r="3" fill="#F9844A" fill-opacity="0.50"/><circle cx="461.62" cy="187.58" r="4" fill="#F9844A" fill-opacity="0.35"/><circle cx="122.63" cy="345.31" r="5" fill="#F9844A" fill-opacity="0.40"/><circle cx="321.72" cy="205.44" r="3" fill="#F9844A" fill-opacity="0.45"/><circle cx="520.8" cy="363.17" r="4" fill="#F9844A" fill-opacity="0.50"/><circle cx="181.81" cy="223.3" r="5" fill="#F9844A" fill-opacity="0.35"/>
  <rect x="53.1" y="57.6" width="127.4" height="86.4" rx="18" fill="#F9844A" fill-opacity="0.16"/>
  <circle cx="594.7" cy="345.6" r="76.8" fill="#FFFFFF" fill-opacity="0.36" stroke="#4C2615" stroke-opacity="0.10"/>
  <text x="56.6" y="422.4" font-family="Inter, Arial, sans-serif" font-size="43" font-weight="700" fill="#4C2615" fill-opacity="0.72">ESFJ-T</text>
  <text x="56.6" y="476.1" font-family="Inter, Arial, sans-serif" font-size="22" font-weight="500" fill="#4C2615" fill-opacity="0.48">identity lattice · T</text>
</svg>
