<svg xmlns="http://www.w3.org/2000/svg" width="1272" height="296" viewBox="0 0 1272 296" role="img" aria-labelledby="title desc">
  <title id="title">ESFJ-T Relationships illustration</title>
  <desc id="desc">Abstract relationship orbit map for the ESFJ-T MBTI desktop result module.</desc>
  <defs>
    <linearGradient id="bg" x1="0" x2="1" y1="0" y2="1">
      <stop offset="0" stop-color="#FFE8DA" stop-opacity="0.92"/>
      <stop offset="0.55" stop-color="#FFFFFF" stop-opacity="0.96"/>
      <stop offset="1" stop-color="#F9844A" stop-opacity="0.14"/>
    </linearGradient>
    <radialGradient id="halo" cx="74%" cy="35%" r="48%">
      <stop offset="0" stop-color="#F9844A" stop-opacity="0.26"/>
      <stop offset="1" stop-color="#F9844A" stop-opacity="0"/>
    </radialGradient>
    <filter id="soft"><feGaussianBlur stdDeviation="18"/></filter>
  </defs>
  <rect width="1272" height="296" rx="22" fill="url(#bg)"/>
  <circle cx="992.2" cy="100.6" r="94.7" fill="url(#halo)"/>
  <path d="M 101.8 213.1 C 356.2 74.0, 686.9 254.6, 1170.2 82.9" fill="none" stroke="#4C2615" stroke-opacity="0.16" stroke-width="3"/>
  <polyline points="0.0,164.0 159.0,190.8 318.0,181.9 477.0,148.6 636.0,133.4 795.0,155.7 954.0,187.0 1113.0,187.5 1272.0,156.5" fill="none" stroke="#F9844A" stroke-opacity="0.34" stroke-width="4" stroke-linecap="round"/>
  <line x1="200.98" y1="62.46" x2="916.35" y2="73.47" stroke="#F9844A" stroke-opacity="0.24" stroke-width="2"/><line x1="558.66" y1="159.72" x2="307.32" y2="170.73" stroke="#F9844A" stroke-opacity="0.24" stroke-width="2"/><line x1="916.35" y1="73.47" x2="665.0" y2="84.48" stroke="#F9844A" stroke-opacity="0.24" stroke-width="2"/><line x1="307.32" y1="170.73" x2="1022.69" y2="181.74" stroke="#F9844A" stroke-opacity="0.24" stroke-width="2"/><line x1="1022.69" y1="181.74" x2="771.34" y2="192.76" stroke="#F9844A" stroke-opacity="0.24" stroke-width="2"/><line x1="771.34" y1="192.76" x2="200.98" y2="62.46" stroke="#F9844A" stroke-opacity="0.24" stroke-width="2"/>
  <circle cx="200.98" cy="62.46" r="3" fill="#F9844A" fill-opacity="0.35"/><circle cx="558.66" cy="159.72" r="4" fill="#F9844A" fill-opacity="0.40"/><circle cx="916.35" cy="73.47" r="5" fill="#F9844A" fill-opacity="0.45"/><circle cx="307.32" cy="170.73" r="3" fill="#F9844A" fill-opacity="0.50"/><circle cx="665.0" cy="84.48" r="4" fill="#F9844A" fill-opacity="0.35"/><circle cx="1022.69" cy="181.74" r="5" fill="#F9844A" fill-opacity="0.40"/><circle cx="413.65" cy="95.49" r="3" fill="#F9844A" fill-opacity="0.45"/><circle cx="771.34" cy="192.76" r="4" fill="#F9844A" fill-opacity="0.50"/><circle cx="162.31" cy="106.5" r="5" fill="#F9844A" fill-opacity="0.35"/>
  <rect x="95.4" y="35.5" width="229.0" height="53.3" rx="18" fill="#F9844A" fill-opacity="0.16"/>
  <circle cx="1068.5" cy="213.1" r="47.4" fill="#FFFFFF" fill-opacity="0.36" stroke="#4C2615" stroke-opacity="0.10"/>
  <text x="101.8" y="260.5" font-family="Inter, Arial, sans-serif" font-size="27" font-weight="700" fill="#4C2615" fill-opacity="0.72">ESFJ-T</text>
  <text x="101.8" y="294.2" font-family="Inter, Arial, sans-serif" font-size="13" font-weight="500" fill="#4C2615" fill-opacity="0.48">relationship orbit map · T</text>
</svg>
