<svg xmlns="http://www.w3.org/2000/svg" width="1272" height="296" viewBox="0 0 1272 296" role="img" aria-labelledby="title desc">
  <title id="title">ISFP-T Career path illustration</title>
  <desc id="desc">Abstract career path map for the ISFP-T MBTI desktop result module.</desc>
  <defs>
    <linearGradient id="bg" x1="0" x2="1" y1="0" y2="1">
      <stop offset="0" stop-color="#EAF7DD" stop-opacity="0.92"/>
      <stop offset="0.55" stop-color="#FFFFFF" stop-opacity="0.96"/>
      <stop offset="1" stop-color="#90BE6D" stop-opacity="0.14"/>
    </linearGradient>
    <radialGradient id="halo" cx="74%" cy="35%" r="48%">
      <stop offset="0" stop-color="#90BE6D" stop-opacity="0.26"/>
      <stop offset="1" stop-color="#90BE6D" stop-opacity="0"/>
    </radialGradient>
    <filter id="soft"><feGaussianBlur stdDeviation="18"/></filter>
  </defs>
  <rect width="1272" height="296" rx="22" fill="url(#bg)"/>
  <circle cx="992.2" cy="100.6" r="94.7" fill="url(#halo)"/>
  <path d="M 101.8 213.1 C 356.2 74.0, 686.9 254.6, 1170.2 82.9" fill="none" stroke="#2C421D" stroke-opacity="0.16" stroke-width="3"/>
  <polyline points="0.0,192.0 159.0,168.7 318.0,137.9 477.0,138.9 636.0,170.4 795.0,192.2 954.0,176.5 1113.0,143.3 1272.0,135.0" fill="none" stroke="#90BE6D" stroke-opacity="0.34" stroke-width="4" stroke-linecap="round"/>
  <line x1="423.32" y1="104.67" x2="171.97" y2="115.68" stroke="#90BE6D" stroke-opacity="0.24" stroke-width="2"/><line x1="781.01" y1="201.93" x2="529.66" y2="212.94" stroke="#90BE6D" stroke-opacity="0.24" stroke-width="2"/><line x1="171.97" y1="115.68" x2="887.35" y2="126.69" stroke="#90BE6D" stroke-opacity="0.24" stroke-width="2"/><line x1="529.66" y1="212.94" x2="278.31" y2="223.95" stroke="#90BE6D" stroke-opacity="0.24" stroke-width="2"/><line x1="887.35" y1="126.69" x2="636.0" y2="137.7" stroke="#90BE6D" stroke-opacity="0.24" stroke-width="2"/><line x1="636.0" y1="137.7" x2="384.65" y2="148.71" stroke="#90BE6D" stroke-opacity="0.24" stroke-width="2"/>
  <circle cx="423.32" cy="104.67" r="3" fill="#90BE6D" fill-opacity="0.35"/><circle cx="781.01" cy="201.93" r="4" fill="#90BE6D" fill-opacity="0.40"/><circle cx="171.97" cy="115.68" r="5" fill="#90BE6D" fill-opacity="0.45"/><circle cx="529.66" cy="212.94" r="3" fill="#90BE6D" fill-opacity="0.50"/><circle cx="887.35" cy="126.69" r="4" fill="#90BE6D" fill-opacity="0.35"/><circle cx="278.31" cy="223.95" r="5" fill="#90BE6D" fill-opacity="0.40"/><circle cx="636.0" cy="137.7" r="3" fill="#90BE6D" fill-opacity="0.45"/><circle cx="993.69" cy="234.96" r="4" fill="#90BE6D" fill-opacity="0.50"/><circle cx="384.65" cy="148.71" r="5" fill="#90BE6D" fill-opacity="0.35"/>
  <rect x="95.4" y="35.5" width="229.0" height="53.3" rx="18" fill="#90BE6D" fill-opacity="0.16"/>
  <circle cx="1068.5" cy="213.1" r="47.4" fill="#FFFFFF" fill-opacity="0.36" stroke="#2C421D" stroke-opacity="0.10"/>
  <text x="101.8" y="260.5" font-family="Inter, Arial, sans-serif" font-size="27" font-weight="700" fill="#2C421D" fill-opacity="0.72">ISFP-T</text>
  <text x="101.8" y="294.2" font-family="Inter, Arial, sans-serif" font-size="13" font-weight="500" fill="#2C421D" fill-opacity="0.48">career path map · T</text>
</svg>
