<svg xmlns="http://www.w3.org/2000/svg" width="756" height="660" viewBox="0 0 756 660" role="img" aria-labelledby="title desc">
  <title id="title">ISFP-T Final offer illustration</title>
  <desc id="desc">Abstract report unlock panel for the ISFP-T MBTI desktop result module.</desc>
  <defs>
    <linearGradient id="bg" x1="0" x2="1" y1="0" y2="1">
      <stop offset="0" stop-color="#EAF7DD" stop-opacity="0.92"/>
      <stop offset="0.55" stop-color="#FFFFFF" stop-opacity="0.96"/>
      <stop offset="1" stop-color="#90BE6D" stop-opacity="0.14"/>
    </linearGradient>
    <radialGradient id="halo" cx="74%" cy="35%" r="48%">
      <stop offset="0" stop-color="#90BE6D" stop-opacity="0.26"/>
      <stop offset="1" stop-color="#90BE6D" stop-opacity="0"/>
    </radialGradient>
    <filter id="soft"><feGaussianBlur stdDeviation="18"/></filter>
  </defs>
  <rect width="756" height="660" rx="22" fill="url(#bg)"/>
  <circle cx="589.7" cy="224.4" r="211.2" fill="url(#halo)"/>
  <path d="M 60.5 475.2 C 211.7 165.0, 408.2 567.6, 695.5 184.8" fill="none" stroke="#2C421D" stroke-opacity="0.16" stroke-width="3"/>
  <polyline points="0.0,335.4 94.5,297.1 189.0,342.9 283.5,414.3 378.0,420.3 472.5,353.2 567.0,298.6 661.5,326.1 756.0,400.6" fill="none" stroke="#90BE6D" stroke-opacity="0.34" stroke-width="4" stroke-linecap="round"/>
  <line x1="659.53" y1="523.91" x2="510.15" y2="139.26" stroke="#90BE6D" stroke-opacity="0.24" stroke-width="2"/><line x1="297.56" y1="331.58" x2="148.18" y2="356.14" stroke="#90BE6D" stroke-opacity="0.24" stroke-width="2"/><line x1="510.15" y1="139.26" x2="360.76" y2="163.81" stroke="#90BE6D" stroke-opacity="0.24" stroke-width="2"/><line x1="148.18" y1="356.14" x2="573.35" y2="380.69" stroke="#90BE6D" stroke-opacity="0.24" stroke-width="2"/><line x1="573.35" y1="380.69" x2="423.96" y2="405.24" stroke="#90BE6D" stroke-opacity="0.24" stroke-width="2"/><line x1="423.96" y1="405.24" x2="659.53" y2="523.91" stroke="#90BE6D" stroke-opacity="0.24" stroke-width="2"/>
  <circle cx="659.53" cy="523.91" r="3" fill="#90BE6D" fill-opacity="0.35"/><circle cx="297.56" cy="331.58" r="4" fill="#90BE6D" fill-opacity="0.40"/><circle cx="510.15" cy="139.26" r="5" fill="#90BE6D" fill-opacity="0.45"/><circle cx="148.18" cy="356.14" r="3" fill="#90BE6D" fill-opacity="0.50"/><circle cx="360.76" cy="163.81" r="4" fill="#90BE6D" fill-opacity="0.35"/><circle cx="573.35" cy="380.69" r="5" fill="#90BE6D" fill-opacity="0.40"/><circle cx="211.38" cy="188.36" r="3" fill="#90BE6D" fill-opacity="0.45"/><circle cx="423.96" cy="405.24" r="4" fill="#90BE6D" fill-opacity="0.50"/><circle cx="636.55" cy="212.92" r="5" fill="#90BE6D" fill-opacity="0.35"/>
  <rect x="56.7" y="79.2" width="136.1" height="118.8" rx="18" fill="#90BE6D" fill-opacity="0.16"/>
  <circle cx="635.0" cy="475.2" r="105.6" fill="#FFFFFF" fill-opacity="0.36" stroke="#2C421D" stroke-opacity="0.10"/>
  <text x="60.5" y="580.8" font-family="Inter, Arial, sans-serif" font-size="59" font-weight="700" fill="#2C421D" fill-opacity="0.72">ISFP-T</text>
  <text x="60.5" y="654.5" font-family="Inter, Arial, sans-serif" font-size="30" font-weight="500" fill="#2C421D" fill-opacity="0.48">report unlock panel · T</text>
</svg>
