<svg xmlns="http://www.w3.org/2000/svg" width="708" height="480" viewBox="0 0 708 480" role="img" aria-labelledby="title desc">
  <title id="title">ISFP-T Hero identity illustration</title>
  <desc id="desc">Abstract identity lattice for the ISFP-T MBTI desktop result module.</desc>
  <defs>
    <linearGradient id="bg" x1="0" x2="1" y1="0" y2="1">
      <stop offset="0" stop-color="#EAF7DD" stop-opacity="0.92"/>
      <stop offset="0.55" stop-color="#FFFFFF" stop-opacity="0.96"/>
      <stop offset="1" stop-color="#90BE6D" stop-opacity="0.14"/>
    </linearGradient>
    <radialGradient id="halo" cx="74%" cy="35%" r="48%">
      <stop offset="0" stop-color="#90BE6D" stop-opacity="0.26"/>
      <stop offset="1" stop-color="#90BE6D" stop-opacity="0"/>
    </radialGradient>
    <filter id="soft"><feGaussianBlur stdDeviation="18"/></filter>
  </defs>
  <rect width="708" height="480" rx="22" fill="url(#bg)"/>
  <circle cx="552.2" cy="163.2" r="153.6" fill="url(#halo)"/>
  <path d="M 56.6 345.6 C 198.2 120.0, 382.3 412.8, 651.4 134.4" fill="none" stroke="#2C421D" stroke-opacity="0.16" stroke-width="3"/>
  <polyline points="0.0,285.9 88.5,311.7 177.0,276.7 265.5,225.5 354.0,223.4 442.5,273.1 531.0,311.2 619.5,289.1 708.0,235.0" fill="none" stroke="#90BE6D" stroke-opacity="0.34" stroke-width="4" stroke-linecap="round"/>
  <line x1="257.15" y1="181.63" x2="117.24" y2="199.49" stroke="#90BE6D" stroke-opacity="0.24" stroke-width="2"/><line x1="456.24" y1="339.36" x2="316.33" y2="357.22" stroke="#90BE6D" stroke-opacity="0.24" stroke-width="2"/><line x1="117.24" y1="199.49" x2="515.42" y2="217.34" stroke="#90BE6D" stroke-opacity="0.24" stroke-width="2"/><line x1="316.33" y1="357.22" x2="176.43" y2="375.07" stroke="#90BE6D" stroke-opacity="0.24" stroke-width="2"/><line x1="515.42" y1="217.34" x2="375.52" y2="235.2" stroke="#90BE6D" stroke-opacity="0.24" stroke-width="2"/><line x1="375.52" y1="235.2" x2="235.62" y2="253.06" stroke="#90BE6D" stroke-opacity="0.24" stroke-width="2"/>
  <circle cx="257.15" cy="181.63" r="3" fill="#90BE6D" fill-opacity="0.35"/><circle cx="456.24" cy="339.36" r="4" fill="#90BE6D" fill-opacity="0.40"/><circle cx="117.24" cy="199.49" r="5" fill="#90BE6D" fill-opacity="0.45"/><circle cx="316.33" cy="357.22" r="3" fill="#90BE6D" fill-opacity="0.50"/><circle cx="515.42" cy="217.34" r="4" fill="#90BE6D" fill-opacity="0.35"/><circle cx="176.43" cy="375.07" r="5" fill="#90BE6D" fill-opacity="0.40"/><circle cx="375.52" cy="235.2" r="3" fill="#90BE6D" fill-opacity="0.45"/><circle cx="574.61" cy="95.33" r="4" fill="#90BE6D" fill-opacity="0.50"/><circle cx="235.62" cy="253.06" r="5" fill="#90BE6D" fill-opacity="0.35"/>
  <rect x="53.1" y="57.6" width="127.4" height="86.4" rx="18" fill="#90BE6D" fill-opacity="0.16"/>
  <circle cx="594.7" cy="345.6" r="76.8" fill="#FFFFFF" fill-opacity="0.36" stroke="#2C421D" stroke-opacity="0.10"/>
  <text x="56.6" y="422.4" font-family="Inter, Arial, sans-serif" font-size="43" font-weight="700" fill="#2C421D" fill-opacity="0.72">ISFP-T</text>
  <text x="56.6" y="476.1" font-family="Inter, Arial, sans-serif" font-size="22" font-weight="500" fill="#2C421D" fill-opacity="0.48">identity lattice · T</text>
</svg>
