<svg xmlns="http://www.w3.org/2000/svg" width="1272" height="296" viewBox="0 0 1272 296" role="img" aria-labelledby="title desc">
  <title id="title">ISFP-T Relationships illustration</title>
  <desc id="desc">Abstract relationship orbit map for the ISFP-T MBTI desktop result module.</desc>
  <defs>
    <linearGradient id="bg" x1="0" x2="1" y1="0" y2="1">
      <stop offset="0" stop-color="#EAF7DD" stop-opacity="0.92"/>
      <stop offset="0.55" stop-color="#FFFFFF" stop-opacity="0.96"/>
      <stop offset="1" stop-color="#90BE6D" stop-opacity="0.14"/>
    </linearGradient>
    <radialGradient id="halo" cx="74%" cy="35%" r="48%">
      <stop offset="0" stop-color="#90BE6D" stop-opacity="0.26"/>
      <stop offset="1" stop-color="#90BE6D" stop-opacity="0"/>
    </radialGradient>
    <filter id="soft"><feGaussianBlur stdDeviation="18"/></filter>
  </defs>
  <rect width="1272" height="296" rx="22" fill="url(#bg)"/>
  <circle cx="992.2" cy="100.6" r="94.7" fill="url(#halo)"/>
  <path d="M 101.8 213.1 C 356.2 74.0, 686.9 254.6, 1170.2 82.9" fill="none" stroke="#2C421D" stroke-opacity="0.16" stroke-width="3"/>
  <polyline points="0.0,182.9 159.0,190.3 318.0,162.7 477.0,135.2 636.0,142.9 795.0,176.0 954.0,192.3 1113.0,170.9 1272.0,139.2" fill="none" stroke="#90BE6D" stroke-opacity="0.34" stroke-width="4" stroke-linecap="round"/>
  <line x1="297.65" y1="80.81" x2="1013.02" y2="91.82" stroke="#90BE6D" stroke-opacity="0.24" stroke-width="2"/><line x1="655.33" y1="178.07" x2="403.99" y2="189.08" stroke="#90BE6D" stroke-opacity="0.24" stroke-width="2"/><line x1="1013.02" y1="91.82" x2="761.67" y2="102.83" stroke="#90BE6D" stroke-opacity="0.24" stroke-width="2"/><line x1="403.99" y1="189.08" x2="152.64" y2="200.1" stroke="#90BE6D" stroke-opacity="0.24" stroke-width="2"/><line x1="152.64" y1="200.1" x2="868.01" y2="211.11" stroke="#90BE6D" stroke-opacity="0.24" stroke-width="2"/><line x1="868.01" y1="211.11" x2="297.65" y2="80.81" stroke="#90BE6D" stroke-opacity="0.24" stroke-width="2"/>
  <circle cx="297.65" cy="80.81" r="3" fill="#90BE6D" fill-opacity="0.35"/><circle cx="655.33" cy="178.07" r="4" fill="#90BE6D" fill-opacity="0.40"/><circle cx="1013.02" cy="91.82" r="5" fill="#90BE6D" fill-opacity="0.45"/><circle cx="403.99" cy="189.08" r="3" fill="#90BE6D" fill-opacity="0.50"/><circle cx="761.67" cy="102.83" r="4" fill="#90BE6D" fill-opacity="0.35"/><circle cx="152.64" cy="200.1" r="5" fill="#90BE6D" fill-opacity="0.40"/><circle cx="510.33" cy="113.84" r="3" fill="#90BE6D" fill-opacity="0.45"/><circle cx="868.01" cy="211.11" r="4" fill="#90BE6D" fill-opacity="0.50"/><circle cx="258.98" cy="124.85" r="5" fill="#90BE6D" fill-opacity="0.35"/>
  <rect x="95.4" y="35.5" width="229.0" height="53.3" rx="18" fill="#90BE6D" fill-opacity="0.16"/>
  <circle cx="1068.5" cy="213.1" r="47.4" fill="#FFFFFF" fill-opacity="0.36" stroke="#2C421D" stroke-opacity="0.10"/>
  <text x="101.8" y="260.5" font-family="Inter, Arial, sans-serif" font-size="27" font-weight="700" fill="#2C421D" fill-opacity="0.72">ISFP-T</text>
  <text x="101.8" y="294.2" font-family="Inter, Arial, sans-serif" font-size="13" font-weight="500" fill="#2C421D" fill-opacity="0.48">relationship orbit map · T</text>
</svg>
