<svg xmlns="http://www.w3.org/2000/svg" width="1272" height="296" viewBox="0 0 1272 296" role="img" aria-labelledby="title desc">
  <title id="title">ISFP-T Traits axis illustration</title>
  <desc id="desc">Abstract axis map for the ISFP-T MBTI desktop result module.</desc>
  <defs>
    <linearGradient id="bg" x1="0" x2="1" y1="0" y2="1">
      <stop offset="0" stop-color="#EAF7DD" stop-opacity="0.92"/>
      <stop offset="0.55" stop-color="#FFFFFF" stop-opacity="0.96"/>
      <stop offset="1" stop-color="#90BE6D" stop-opacity="0.14"/>
    </linearGradient>
    <radialGradient id="halo" cx="74%" cy="35%" r="48%">
      <stop offset="0" stop-color="#90BE6D" stop-opacity="0.26"/>
      <stop offset="1" stop-color="#90BE6D" stop-opacity="0"/>
    </radialGradient>
    <filter id="soft"><feGaussianBlur stdDeviation="18"/></filter>
  </defs>
  <rect width="1272" height="296" rx="22" fill="url(#bg)"/>
  <circle cx="992.2" cy="100.6" r="94.7" fill="url(#halo)"/>
  <path d="M 101.8 213.1 C 356.2 74.0, 686.9 254.6, 1170.2 82.9" fill="none" stroke="#2C421D" stroke-opacity="0.16" stroke-width="3"/>
  <polyline points="0.0,135.1 159.0,143.1 318.0,176.2 477.0,192.3 636.0,170.7 795.0,139.1 954.0,137.7 1113.0,168.3 1272.0,191.9" fill="none" stroke="#90BE6D" stroke-opacity="0.34" stroke-width="4" stroke-linecap="round"/>
  <line x1="781.01" y1="172.57" x2="529.66" y2="183.58" stroke="#90BE6D" stroke-opacity="0.24" stroke-width="2"/><line x1="171.97" y1="86.31" x2="887.35" y2="97.32" stroke="#90BE6D" stroke-opacity="0.24" stroke-width="2"/><line x1="529.66" y1="183.58" x2="278.31" y2="194.59" stroke="#90BE6D" stroke-opacity="0.24" stroke-width="2"/><line x1="887.35" y1="97.32" x2="636.0" y2="108.34" stroke="#90BE6D" stroke-opacity="0.24" stroke-width="2"/><line x1="636.0" y1="108.34" x2="384.65" y2="119.35" stroke="#90BE6D" stroke-opacity="0.24" stroke-width="2"/><line x1="384.65" y1="119.35" x2="781.01" y2="172.57" stroke="#90BE6D" stroke-opacity="0.24" stroke-width="2"/>
  <circle cx="781.01" cy="172.57" r="3" fill="#90BE6D" fill-opacity="0.35"/><circle cx="171.97" cy="86.31" r="4" fill="#90BE6D" fill-opacity="0.40"/><circle cx="529.66" cy="183.58" r="5" fill="#90BE6D" fill-opacity="0.45"/><circle cx="887.35" cy="97.32" r="3" fill="#90BE6D" fill-opacity="0.50"/><circle cx="278.31" cy="194.59" r="4" fill="#90BE6D" fill-opacity="0.35"/><circle cx="636.0" cy="108.34" r="5" fill="#90BE6D" fill-opacity="0.40"/><circle cx="993.69" cy="205.6" r="3" fill="#90BE6D" fill-opacity="0.45"/><circle cx="384.65" cy="119.35" r="4" fill="#90BE6D" fill-opacity="0.50"/><circle cx="742.34" cy="216.61" r="5" fill="#90BE6D" fill-opacity="0.35"/>
  <rect x="95.4" y="35.5" width="229.0" height="53.3" rx="18" fill="#90BE6D" fill-opacity="0.16"/>
  <circle cx="1068.5" cy="213.1" r="47.4" fill="#FFFFFF" fill-opacity="0.36" stroke="#2C421D" stroke-opacity="0.10"/>
  <text x="101.8" y="260.5" font-family="Inter, Arial, sans-serif" font-size="27" font-weight="700" fill="#2C421D" fill-opacity="0.72">ISFP-T</text>
  <text x="101.8" y="294.2" font-family="Inter, Arial, sans-serif" font-size="13" font-weight="500" fill="#2C421D" fill-opacity="0.48">axis map · T</text>
</svg>
