<svg xmlns="http://www.w3.org/2000/svg" width="720" height="354" viewBox="0 0 720 354" role="img" aria-labelledby="title desc">
  <title id="title">ISFP-T Traits summary illustration</title>
  <desc id="desc">Abstract trait signal card for the ISFP-T MBTI desktop result module.</desc>
  <defs>
    <linearGradient id="bg" x1="0" x2="1" y1="0" y2="1">
      <stop offset="0" stop-color="#EAF7DD" stop-opacity="0.92"/>
      <stop offset="0.55" stop-color="#FFFFFF" stop-opacity="0.96"/>
      <stop offset="1" stop-color="#90BE6D" stop-opacity="0.14"/>
    </linearGradient>
    <radialGradient id="halo" cx="74%" cy="35%" r="48%">
      <stop offset="0" stop-color="#90BE6D" stop-opacity="0.26"/>
      <stop offset="1" stop-color="#90BE6D" stop-opacity="0"/>
    </radialGradient>
    <filter id="soft"><feGaussianBlur stdDeviation="18"/></filter>
  </defs>
  <rect width="720" height="354" rx="22" fill="url(#bg)"/>
  <circle cx="561.6" cy="120.4" r="113.3" fill="url(#halo)"/>
  <path d="M 57.6 254.9 C 201.6 88.5, 388.8 304.4, 662.4 99.1" fill="none" stroke="#2C421D" stroke-opacity="0.16" stroke-width="3"/>
  <polyline points="0.0,191.1 90.0,226.2 180.0,221.1 270.0,182.3 360.0,159.3 450.0,181.4 540.0,220.5 630.0,226.7 720.0,192.1" fill="none" stroke="#90BE6D" stroke-opacity="0.34" stroke-width="4" stroke-linecap="round"/>
  <line x1="589.82" y1="265.64" x2="447.55" y2="278.81" stroke="#90BE6D" stroke-opacity="0.24" stroke-width="2"/><line x1="245.09" y1="162.49" x2="102.82" y2="175.65" stroke="#90BE6D" stroke-opacity="0.24" stroke-width="2"/><line x1="447.55" y1="278.81" x2="305.28" y2="72.5" stroke="#90BE6D" stroke-opacity="0.24" stroke-width="2"/><line x1="102.82" y1="175.65" x2="507.74" y2="188.82" stroke="#90BE6D" stroke-opacity="0.24" stroke-width="2"/><line x1="305.28" y1="72.5" x2="163.01" y2="85.67" stroke="#90BE6D" stroke-opacity="0.24" stroke-width="2"/><line x1="163.01" y1="85.67" x2="567.94" y2="98.84" stroke="#90BE6D" stroke-opacity="0.24" stroke-width="2"/>
  <circle cx="589.82" cy="265.64" r="3" fill="#90BE6D" fill-opacity="0.35"/><circle cx="245.09" cy="162.49" r="4" fill="#90BE6D" fill-opacity="0.40"/><circle cx="447.55" cy="278.81" r="5" fill="#90BE6D" fill-opacity="0.45"/><circle cx="102.82" cy="175.65" r="3" fill="#90BE6D" fill-opacity="0.50"/><circle cx="305.28" cy="72.5" r="4" fill="#90BE6D" fill-opacity="0.35"/><circle cx="507.74" cy="188.82" r="5" fill="#90BE6D" fill-opacity="0.40"/><circle cx="163.01" cy="85.67" r="3" fill="#90BE6D" fill-opacity="0.45"/><circle cx="365.47" cy="201.99" r="4" fill="#90BE6D" fill-opacity="0.50"/><circle cx="567.94" cy="98.84" r="5" fill="#90BE6D" fill-opacity="0.35"/>
  <rect x="54.0" y="42.5" width="129.6" height="63.7" rx="18" fill="#90BE6D" fill-opacity="0.16"/>
  <circle cx="604.8" cy="254.9" r="56.6" fill="#FFFFFF" fill-opacity="0.36" stroke="#2C421D" stroke-opacity="0.10"/>
  <text x="57.6" y="311.5" font-family="Inter, Arial, sans-serif" font-size="32" font-weight="700" fill="#2C421D" fill-opacity="0.72">ISFP-T</text>
  <text x="57.6" y="351.5" font-family="Inter, Arial, sans-serif" font-size="16" font-weight="500" fill="#2C421D" fill-opacity="0.48">trait signal card · T</text>
</svg>
