<svg xmlns="http://www.w3.org/2000/svg" width="708" height="480" viewBox="0 0 708 480" role="img" aria-labelledby="title desc">
  <title id="title">ENFJ-T Hero identity illustration</title>
  <desc id="desc">Abstract identity lattice for the ENFJ-T MBTI desktop result module.</desc>
  <defs>
    <linearGradient id="bg" x1="0" x2="1" y1="0" y2="1">
      <stop offset="0" stop-color="#FFE0E0" stop-opacity="0.92"/>
      <stop offset="0.55" stop-color="#FFFFFF" stop-opacity="0.96"/>
      <stop offset="1" stop-color="#FF6B6B" stop-opacity="0.14"/>
    </linearGradient>
    <radialGradient id="halo" cx="74%" cy="35%" r="48%">
      <stop offset="0" stop-color="#FF6B6B" stop-opacity="0.26"/>
      <stop offset="1" stop-color="#FF6B6B" stop-opacity="0"/>
    </radialGradient>
    <filter id="soft"><feGaussianBlur stdDeviation="18"/></filter>
  </defs>
  <rect width="708" height="480" rx="22" fill="url(#bg)"/>
  <circle cx="552.2" cy="163.2" r="153.6" fill="url(#halo)"/>
  <path d="M 56.6 345.6 C 198.2 120.0, 382.3 412.8, 651.4 134.4" fill="none" stroke="#4A1E24" stroke-opacity="0.16" stroke-width="3"/>
  <polyline points="0.0,237.5 88.5,291.7 177.0,310.6 265.5,270.1 354.0,221.8 442.5,227.4 531.0,279.6 619.5,312.0 708.0,283.1" fill="none" stroke="#FF6B6B" stroke-opacity="0.34" stroke-width="4" stroke-linecap="round"/>
  <line x1="176.43" y1="136.99" x2="574.61" y2="154.85" stroke="#FF6B6B" stroke-opacity="0.24" stroke-width="2"/><line x1="375.52" y1="294.72" x2="235.62" y2="312.58" stroke="#FF6B6B" stroke-opacity="0.24" stroke-width="2"/><line x1="574.61" y1="154.85" x2="434.71" y2="172.7" stroke="#FF6B6B" stroke-opacity="0.24" stroke-width="2"/><line x1="235.62" y1="312.58" x2="95.72" y2="330.43" stroke="#FF6B6B" stroke-opacity="0.24" stroke-width="2"/><line x1="95.72" y1="330.43" x2="493.9" y2="348.29" stroke="#FF6B6B" stroke-opacity="0.24" stroke-width="2"/><line x1="493.9" y1="348.29" x2="176.43" y2="136.99" stroke="#FF6B6B" stroke-opacity="0.24" stroke-width="2"/>
  <circle cx="176.43" cy="136.99" r="3" fill="#FF6B6B" fill-opacity="0.35"/><circle cx="375.52" cy="294.72" r="4" fill="#FF6B6B" fill-opacity="0.40"/><circle cx="574.61" cy="154.85" r="5" fill="#FF6B6B" fill-opacity="0.45"/><circle cx="235.62" cy="312.58" r="3" fill="#FF6B6B" fill-opacity="0.50"/><circle cx="434.71" cy="172.7" r="4" fill="#FF6B6B" fill-opacity="0.35"/><circle cx="95.72" cy="330.43" r="5" fill="#FF6B6B" fill-opacity="0.40"/><circle cx="294.81" cy="190.56" r="3" fill="#FF6B6B" fill-opacity="0.45"/><circle cx="493.9" cy="348.29" r="4" fill="#FF6B6B" fill-opacity="0.50"/><circle cx="154.91" cy="208.42" r="5" fill="#FF6B6B" fill-opacity="0.35"/>
  <rect x="53.1" y="57.6" width="127.4" height="86.4" rx="18" fill="#FF6B6B" fill-opacity="0.16"/>
  <circle cx="594.7" cy="345.6" r="76.8" fill="#FFFFFF" fill-opacity="0.36" stroke="#4A1E24" stroke-opacity="0.10"/>
  <text x="56.6" y="422.4" font-family="Inter, Arial, sans-serif" font-size="43" font-weight="700" fill="#4A1E24" fill-opacity="0.72">ENFJ-T</text>
  <text x="56.6" y="476.1" font-family="Inter, Arial, sans-serif" font-size="22" font-weight="500" fill="#4A1E24" fill-opacity="0.48">identity lattice · T</text>
</svg>
