<svg xmlns="http://www.w3.org/2000/svg" width="1272" height="296" viewBox="0 0 1272 296" role="img" aria-labelledby="title desc">
  <title id="title">ENFJ-T Traits axis illustration</title>
  <desc id="desc">Abstract axis map for the ENFJ-T MBTI desktop result module.</desc>
  <defs>
    <linearGradient id="bg" x1="0" x2="1" y1="0" y2="1">
      <stop offset="0" stop-color="#FFE0E0" stop-opacity="0.92"/>
      <stop offset="0.55" stop-color="#FFFFFF" stop-opacity="0.96"/>
      <stop offset="1" stop-color="#FF6B6B" stop-opacity="0.14"/>
    </linearGradient>
    <radialGradient id="halo" cx="74%" cy="35%" r="48%">
      <stop offset="0" stop-color="#FF6B6B" stop-opacity="0.26"/>
      <stop offset="1" stop-color="#FF6B6B" stop-opacity="0"/>
    </radialGradient>
    <filter id="soft"><feGaussianBlur stdDeviation="18"/></filter>
  </defs>
  <rect width="1272" height="296" rx="22" fill="url(#bg)"/>
  <circle cx="992.2" cy="100.6" r="94.7" fill="url(#halo)"/>
  <path d="M 101.8 213.1 C 356.2 74.0, 686.9 254.6, 1170.2 82.9" fill="none" stroke="#4A1E24" stroke-opacity="0.16" stroke-width="3"/>
  <polyline points="0.0,158.3 159.0,133.9 318.0,146.4 477.0,179.8 636.0,191.5 795.0,166.6 954.0,136.8 1113.0,140.2 1272.0,172.4" fill="none" stroke="#FF6B6B" stroke-opacity="0.34" stroke-width="4" stroke-linecap="round"/>
  <line x1="636.0" y1="145.04" x2="384.65" y2="156.05" stroke="#FF6B6B" stroke-opacity="0.24" stroke-width="2"/><line x1="993.69" y1="58.79" x2="742.34" y2="69.8" stroke="#FF6B6B" stroke-opacity="0.24" stroke-width="2"/><line x1="384.65" y1="156.05" x2="1100.03" y2="167.06" stroke="#FF6B6B" stroke-opacity="0.24" stroke-width="2"/><line x1="742.34" y1="69.8" x2="490.99" y2="80.81" stroke="#FF6B6B" stroke-opacity="0.24" stroke-width="2"/><line x1="1100.03" y1="167.06" x2="848.68" y2="178.07" stroke="#FF6B6B" stroke-opacity="0.24" stroke-width="2"/><line x1="848.68" y1="178.07" x2="597.33" y2="189.08" stroke="#FF6B6B" stroke-opacity="0.24" stroke-width="2"/>
  <circle cx="636.0" cy="145.04" r="3" fill="#FF6B6B" fill-opacity="0.35"/><circle cx="993.69" cy="58.79" r="4" fill="#FF6B6B" fill-opacity="0.40"/><circle cx="384.65" cy="156.05" r="5" fill="#FF6B6B" fill-opacity="0.45"/><circle cx="742.34" cy="69.8" r="3" fill="#FF6B6B" fill-opacity="0.50"/><circle cx="1100.03" cy="167.06" r="4" fill="#FF6B6B" fill-opacity="0.35"/><circle cx="490.99" cy="80.81" r="5" fill="#FF6B6B" fill-opacity="0.40"/><circle cx="848.68" cy="178.07" r="3" fill="#FF6B6B" fill-opacity="0.45"/><circle cx="239.64" cy="91.82" r="4" fill="#FF6B6B" fill-opacity="0.50"/><circle cx="597.33" cy="189.08" r="5" fill="#FF6B6B" fill-opacity="0.35"/>
  <rect x="95.4" y="35.5" width="229.0" height="53.3" rx="18" fill="#FF6B6B" fill-opacity="0.16"/>
  <circle cx="1068.5" cy="213.1" r="47.4" fill="#FFFFFF" fill-opacity="0.36" stroke="#4A1E24" stroke-opacity="0.10"/>
  <text x="101.8" y="260.5" font-family="Inter, Arial, sans-serif" font-size="27" font-weight="700" fill="#4A1E24" fill-opacity="0.72">ENFJ-T</text>
  <text x="101.8" y="294.2" font-family="Inter, Arial, sans-serif" font-size="13" font-weight="500" fill="#4A1E24" fill-opacity="0.48">axis map · T</text>
</svg>
