<svg xmlns="http://www.w3.org/2000/svg" width="720" height="354" viewBox="0 0 720 354" role="img" aria-labelledby="title desc">
  <title id="title">ENFJ-T Traits summary illustration</title>
  <desc id="desc">Abstract trait signal card for the ENFJ-T MBTI desktop result module.</desc>
  <defs>
    <linearGradient id="bg" x1="0" x2="1" y1="0" y2="1">
      <stop offset="0" stop-color="#FFE0E0" stop-opacity="0.92"/>
      <stop offset="0.55" stop-color="#FFFFFF" stop-opacity="0.96"/>
      <stop offset="1" stop-color="#FF6B6B" stop-opacity="0.14"/>
    </linearGradient>
    <radialGradient id="halo" cx="74%" cy="35%" r="48%">
      <stop offset="0" stop-color="#FF6B6B" stop-opacity="0.26"/>
      <stop offset="1" stop-color="#FF6B6B" stop-opacity="0"/>
    </radialGradient>
    <filter id="soft"><feGaussianBlur stdDeviation="18"/></filter>
  </defs>
  <rect width="720" height="354" rx="22" fill="url(#bg)"/>
  <circle cx="561.6" cy="120.4" r="113.3" fill="url(#halo)"/>
  <path d="M 57.6 254.9 C 201.6 88.5, 388.8 304.4, 662.4 99.1" fill="none" stroke="#4A1E24" stroke-opacity="0.16" stroke-width="3"/>
  <polyline points="0.0,162.2 90.0,196.1 180.0,228.2 270.0,217.6 360.0,177.8 450.0,159.6 540.0,186.2 630.0,223.6 720.0,224.2" fill="none" stroke="#FF6B6B" stroke-opacity="0.34" stroke-width="4" stroke-linecap="round"/>
  <line x1="507.74" y1="232.72" x2="365.47" y2="245.89" stroke="#FF6B6B" stroke-opacity="0.24" stroke-width="2"/><line x1="163.01" y1="129.56" x2="567.94" y2="142.73" stroke="#FF6B6B" stroke-opacity="0.24" stroke-width="2"/><line x1="365.47" y1="245.89" x2="223.2" y2="259.06" stroke="#FF6B6B" stroke-opacity="0.24" stroke-width="2"/><line x1="567.94" y1="142.73" x2="425.66" y2="155.9" stroke="#FF6B6B" stroke-opacity="0.24" stroke-width="2"/><line x1="425.66" y1="155.9" x2="283.39" y2="169.07" stroke="#FF6B6B" stroke-opacity="0.24" stroke-width="2"/><line x1="283.39" y1="169.07" x2="507.74" y2="232.72" stroke="#FF6B6B" stroke-opacity="0.24" stroke-width="2"/>
  <circle cx="507.74" cy="232.72" r="3" fill="#FF6B6B" fill-opacity="0.35"/><circle cx="163.01" cy="129.56" r="4" fill="#FF6B6B" fill-opacity="0.40"/><circle cx="365.47" cy="245.89" r="5" fill="#FF6B6B" fill-opacity="0.45"/><circle cx="567.94" cy="142.73" r="3" fill="#FF6B6B" fill-opacity="0.50"/><circle cx="223.2" cy="259.06" r="4" fill="#FF6B6B" fill-opacity="0.35"/><circle cx="425.66" cy="155.9" r="5" fill="#FF6B6B" fill-opacity="0.40"/><circle cx="628.13" cy="272.23" r="3" fill="#FF6B6B" fill-opacity="0.45"/><circle cx="283.39" cy="169.07" r="4" fill="#FF6B6B" fill-opacity="0.50"/><circle cx="485.86" cy="65.91" r="5" fill="#FF6B6B" fill-opacity="0.35"/>
  <rect x="54.0" y="42.5" width="129.6" height="63.7" rx="18" fill="#FF6B6B" fill-opacity="0.16"/>
  <circle cx="604.8" cy="254.9" r="56.6" fill="#FFFFFF" fill-opacity="0.36" stroke="#4A1E24" stroke-opacity="0.10"/>
  <text x="57.6" y="311.5" font-family="Inter, Arial, sans-serif" font-size="32" font-weight="700" fill="#4A1E24" fill-opacity="0.72">ENFJ-T</text>
  <text x="57.6" y="351.5" font-family="Inter, Arial, sans-serif" font-size="16" font-weight="500" fill="#4A1E24" fill-opacity="0.48">trait signal card · T</text>
</svg>
