<svg xmlns="http://www.w3.org/2000/svg" width="1272" height="296" viewBox="0 0 1272 296" role="img" aria-labelledby="title desc">
  <title id="title">ESTP-T Career path illustration</title>
  <desc id="desc">Abstract career path map for the ESTP-T MBTI desktop result module.</desc>
  <defs>
    <linearGradient id="bg" x1="0" x2="1" y1="0" y2="1">
      <stop offset="0" stop-color="#FFDCDC" stop-opacity="0.92"/>
      <stop offset="0.55" stop-color="#FFFFFF" stop-opacity="0.96"/>
      <stop offset="1" stop-color="#F94144" stop-opacity="0.14"/>
    </linearGradient>
    <radialGradient id="halo" cx="74%" cy="35%" r="48%">
      <stop offset="0" stop-color="#F94144" stop-opacity="0.26"/>
      <stop offset="1" stop-color="#F94144" stop-opacity="0"/>
    </radialGradient>
    <filter id="soft"><feGaussianBlur stdDeviation="18"/></filter>
  </defs>
  <rect width="1272" height="296" rx="22" fill="url(#bg)"/>
  <circle cx="992.2" cy="100.6" r="94.7" fill="url(#halo)"/>
  <path d="M 101.8 213.1 C 356.2 74.0, 686.9 254.6, 1170.2 82.9" fill="none" stroke="#4B1011" stroke-opacity="0.16" stroke-width="3"/>
  <polyline points="0.0,181.7 159.0,148.4 318.0,133.5 477.0,155.9 636.0,187.1 795.0,187.3 954.0,156.2 1113.0,133.5 1272.0,148.1" fill="none" stroke="#F94144" stroke-opacity="0.34" stroke-width="4" stroke-linecap="round"/>
  <line x1="519.99" y1="123.02" x2="268.65" y2="134.03" stroke="#F94144" stroke-opacity="0.24" stroke-width="2"/><line x1="877.68" y1="220.28" x2="626.33" y2="231.29" stroke="#F94144" stroke-opacity="0.24" stroke-width="2"/><line x1="268.65" y1="134.03" x2="984.02" y2="145.04" stroke="#F94144" stroke-opacity="0.24" stroke-width="2"/><line x1="626.33" y1="231.29" x2="374.99" y2="58.79" stroke="#F94144" stroke-opacity="0.24" stroke-width="2"/><line x1="984.02" y1="145.04" x2="732.67" y2="156.05" stroke="#F94144" stroke-opacity="0.24" stroke-width="2"/><line x1="732.67" y1="156.05" x2="481.32" y2="167.06" stroke="#F94144" stroke-opacity="0.24" stroke-width="2"/>
  <circle cx="519.99" cy="123.02" r="3" fill="#F94144" fill-opacity="0.35"/><circle cx="877.68" cy="220.28" r="4" fill="#F94144" fill-opacity="0.40"/><circle cx="268.65" cy="134.03" r="5" fill="#F94144" fill-opacity="0.45"/><circle cx="626.33" cy="231.29" r="3" fill="#F94144" fill-opacity="0.50"/><circle cx="984.02" cy="145.04" r="4" fill="#F94144" fill-opacity="0.35"/><circle cx="374.99" cy="58.79" r="5" fill="#F94144" fill-opacity="0.40"/><circle cx="732.67" cy="156.05" r="3" fill="#F94144" fill-opacity="0.45"/><circle cx="1090.36" cy="69.8" r="4" fill="#F94144" fill-opacity="0.50"/><circle cx="481.32" cy="167.06" r="5" fill="#F94144" fill-opacity="0.35"/>
  <rect x="95.4" y="35.5" width="229.0" height="53.3" rx="18" fill="#F94144" fill-opacity="0.16"/>
  <circle cx="1068.5" cy="213.1" r="47.4" fill="#FFFFFF" fill-opacity="0.36" stroke="#4B1011" stroke-opacity="0.10"/>
  <text x="101.8" y="260.5" font-family="Inter, Arial, sans-serif" font-size="27" font-weight="700" fill="#4B1011" fill-opacity="0.72">ESTP-T</text>
  <text x="101.8" y="294.2" font-family="Inter, Arial, sans-serif" font-size="13" font-weight="500" fill="#4B1011" fill-opacity="0.48">career path map · T</text>
</svg>
