<svg xmlns="http://www.w3.org/2000/svg" width="756" height="660" viewBox="0 0 756 660" role="img" aria-labelledby="title desc">
  <title id="title">ESTP-T Final offer illustration</title>
  <desc id="desc">Abstract report unlock panel for the ESTP-T MBTI desktop result module.</desc>
  <defs>
    <linearGradient id="bg" x1="0" x2="1" y1="0" y2="1">
      <stop offset="0" stop-color="#FFDCDC" stop-opacity="0.92"/>
      <stop offset="0.55" stop-color="#FFFFFF" stop-opacity="0.96"/>
      <stop offset="1" stop-color="#F94144" stop-opacity="0.14"/>
    </linearGradient>
    <radialGradient id="halo" cx="74%" cy="35%" r="48%">
      <stop offset="0" stop-color="#F94144" stop-opacity="0.26"/>
      <stop offset="1" stop-color="#F94144" stop-opacity="0"/>
    </radialGradient>
    <filter id="soft"><feGaussianBlur stdDeviation="18"/></filter>
  </defs>
  <rect width="756" height="660" rx="22" fill="url(#bg)"/>
  <circle cx="589.7" cy="224.4" r="211.2" fill="url(#halo)"/>
  <path d="M 60.5 475.2 C 211.7 165.0, 408.2 567.6, 695.5 184.8" fill="none" stroke="#4B1011" stroke-opacity="0.16" stroke-width="3"/>
  <polyline points="0.0,303.1 94.5,315.5 189.0,388.5 283.5,429.0 378.0,385.4 472.5,313.2 567.0,304.6 661.5,370.4 756.0,426.8" fill="none" stroke="#F94144" stroke-opacity="0.34" stroke-width="4" stroke-linecap="round"/>
  <line x1="142.43" y1="155.63" x2="567.6" y2="180.18" stroke="#F94144" stroke-opacity="0.24" stroke-width="2"/><line x1="355.02" y1="372.5" x2="205.63" y2="397.06" stroke="#F94144" stroke-opacity="0.24" stroke-width="2"/><line x1="567.6" y1="180.18" x2="418.22" y2="204.73" stroke="#F94144" stroke-opacity="0.24" stroke-width="2"/><line x1="205.63" y1="397.06" x2="630.81" y2="421.61" stroke="#F94144" stroke-opacity="0.24" stroke-width="2"/><line x1="630.81" y1="421.61" x2="481.42" y2="446.16" stroke="#F94144" stroke-opacity="0.24" stroke-width="2"/><line x1="481.42" y1="446.16" x2="142.43" y2="155.63" stroke="#F94144" stroke-opacity="0.24" stroke-width="2"/>
  <circle cx="142.43" cy="155.63" r="3" fill="#F94144" fill-opacity="0.35"/><circle cx="355.02" cy="372.5" r="4" fill="#F94144" fill-opacity="0.40"/><circle cx="567.6" cy="180.18" r="5" fill="#F94144" fill-opacity="0.45"/><circle cx="205.63" cy="397.06" r="3" fill="#F94144" fill-opacity="0.50"/><circle cx="418.22" cy="204.73" r="4" fill="#F94144" fill-opacity="0.35"/><circle cx="630.81" cy="421.61" r="5" fill="#F94144" fill-opacity="0.40"/><circle cx="268.83" cy="229.28" r="3" fill="#F94144" fill-opacity="0.45"/><circle cx="481.42" cy="446.16" r="4" fill="#F94144" fill-opacity="0.50"/><circle cx="119.45" cy="253.84" r="5" fill="#F94144" fill-opacity="0.35"/>
  <rect x="56.7" y="79.2" width="136.1" height="118.8" rx="18" fill="#F94144" fill-opacity="0.16"/>
  <circle cx="635.0" cy="475.2" r="105.6" fill="#FFFFFF" fill-opacity="0.36" stroke="#4B1011" stroke-opacity="0.10"/>
  <text x="60.5" y="580.8" font-family="Inter, Arial, sans-serif" font-size="59" font-weight="700" fill="#4B1011" fill-opacity="0.72">ESTP-T</text>
  <text x="60.5" y="654.5" font-family="Inter, Arial, sans-serif" font-size="30" font-weight="500" fill="#4B1011" fill-opacity="0.48">report unlock panel · T</text>
</svg>
