<svg xmlns="http://www.w3.org/2000/svg" width="708" height="480" viewBox="0 0 708 480" role="img" aria-labelledby="title desc">
  <title id="title">ESTP-T Hero identity illustration</title>
  <desc id="desc">Abstract identity lattice for the ESTP-T MBTI desktop result module.</desc>
  <defs>
    <linearGradient id="bg" x1="0" x2="1" y1="0" y2="1">
      <stop offset="0" stop-color="#FFDCDC" stop-opacity="0.92"/>
      <stop offset="0.55" stop-color="#FFFFFF" stop-opacity="0.96"/>
      <stop offset="1" stop-color="#F94144" stop-opacity="0.14"/>
    </linearGradient>
    <radialGradient id="halo" cx="74%" cy="35%" r="48%">
      <stop offset="0" stop-color="#F94144" stop-opacity="0.26"/>
      <stop offset="1" stop-color="#F94144" stop-opacity="0"/>
    </radialGradient>
    <filter id="soft"><feGaussianBlur stdDeviation="18"/></filter>
  </defs>
  <rect width="708" height="480" rx="22" fill="url(#bg)"/>
  <circle cx="552.2" cy="163.2" r="153.6" fill="url(#halo)"/>
  <path d="M 56.6 345.6 C 198.2 120.0, 382.3 412.8, 651.4 134.4" fill="none" stroke="#4B1011" stroke-opacity="0.16" stroke-width="3"/>
  <polyline points="0.0,308.4 88.5,297.2 177.0,243.7 265.5,216.1 354.0,249.6 442.5,301.5 531.0,305.5 619.5,256.6 708.0,217.1" fill="none" stroke="#F94144" stroke-opacity="0.34" stroke-width="4" stroke-linecap="round"/>
  <line x1="310.95" y1="211.39" x2="171.05" y2="229.25" stroke="#F94144" stroke-opacity="0.24" stroke-width="2"/><line x1="510.04" y1="369.12" x2="370.14" y2="89.38" stroke="#F94144" stroke-opacity="0.24" stroke-width="2"/><line x1="171.05" y1="229.25" x2="569.23" y2="247.1" stroke="#F94144" stroke-opacity="0.24" stroke-width="2"/><line x1="370.14" y1="89.38" x2="230.24" y2="107.23" stroke="#F94144" stroke-opacity="0.24" stroke-width="2"/><line x1="569.23" y1="247.1" x2="429.33" y2="264.96" stroke="#F94144" stroke-opacity="0.24" stroke-width="2"/><line x1="429.33" y1="264.96" x2="289.43" y2="282.82" stroke="#F94144" stroke-opacity="0.24" stroke-width="2"/>
  <circle cx="310.95" cy="211.39" r="3" fill="#F94144" fill-opacity="0.35"/><circle cx="510.04" cy="369.12" r="4" fill="#F94144" fill-opacity="0.40"/><circle cx="171.05" cy="229.25" r="5" fill="#F94144" fill-opacity="0.45"/><circle cx="370.14" cy="89.38" r="3" fill="#F94144" fill-opacity="0.50"/><circle cx="569.23" cy="247.1" r="4" fill="#F94144" fill-opacity="0.35"/><circle cx="230.24" cy="107.23" r="5" fill="#F94144" fill-opacity="0.40"/><circle cx="429.33" cy="264.96" r="3" fill="#F94144" fill-opacity="0.45"/><circle cx="90.34" cy="125.09" r="4" fill="#F94144" fill-opacity="0.50"/><circle cx="289.43" cy="282.82" r="5" fill="#F94144" fill-opacity="0.35"/>
  <rect x="53.1" y="57.6" width="127.4" height="86.4" rx="18" fill="#F94144" fill-opacity="0.16"/>
  <circle cx="594.7" cy="345.6" r="76.8" fill="#FFFFFF" fill-opacity="0.36" stroke="#4B1011" stroke-opacity="0.10"/>
  <text x="56.6" y="422.4" font-family="Inter, Arial, sans-serif" font-size="43" font-weight="700" fill="#4B1011" fill-opacity="0.72">ESTP-T</text>
  <text x="56.6" y="476.1" font-family="Inter, Arial, sans-serif" font-size="22" font-weight="500" fill="#4B1011" fill-opacity="0.48">identity lattice · T</text>
</svg>
