<svg xmlns="http://www.w3.org/2000/svg" width="1272" height="296" viewBox="0 0 1272 296" role="img" aria-labelledby="title desc">
  <title id="title">ESTP-T Relationships illustration</title>
  <desc id="desc">Abstract relationship orbit map for the ESTP-T MBTI desktop result module.</desc>
  <defs>
    <linearGradient id="bg" x1="0" x2="1" y1="0" y2="1">
      <stop offset="0" stop-color="#FFDCDC" stop-opacity="0.92"/>
      <stop offset="0.55" stop-color="#FFFFFF" stop-opacity="0.96"/>
      <stop offset="1" stop-color="#F94144" stop-opacity="0.14"/>
    </linearGradient>
    <radialGradient id="halo" cx="74%" cy="35%" r="48%">
      <stop offset="0" stop-color="#F94144" stop-opacity="0.26"/>
      <stop offset="1" stop-color="#F94144" stop-opacity="0"/>
    </radialGradient>
    <filter id="soft"><feGaussianBlur stdDeviation="18"/></filter>
  </defs>
  <rect width="1272" height="296" rx="22" fill="url(#bg)"/>
  <circle cx="992.2" cy="100.6" r="94.7" fill="url(#halo)"/>
  <path d="M 101.8 213.1 C 356.2 74.0, 686.9 254.6, 1170.2 82.9" fill="none" stroke="#4B1011" stroke-opacity="0.16" stroke-width="3"/>
  <polyline points="0.0,192.2 159.0,176.7 318.0,143.5 477.0,134.9 636.0,161.9 795.0,190.0 954.0,183.5 1113.0,150.5 1272.0,133.2" fill="none" stroke="#F94144" stroke-opacity="0.34" stroke-width="4" stroke-linecap="round"/>
  <line x1="394.32" y1="99.16" x2="1109.69" y2="110.17" stroke="#F94144" stroke-opacity="0.24" stroke-width="2"/><line x1="752.01" y1="196.43" x2="500.66" y2="207.44" stroke="#F94144" stroke-opacity="0.24" stroke-width="2"/><line x1="1109.69" y1="110.17" x2="858.35" y2="121.18" stroke="#F94144" stroke-opacity="0.24" stroke-width="2"/><line x1="500.66" y1="207.44" x2="249.31" y2="218.45" stroke="#F94144" stroke-opacity="0.24" stroke-width="2"/><line x1="249.31" y1="218.45" x2="964.68" y2="229.46" stroke="#F94144" stroke-opacity="0.24" stroke-width="2"/><line x1="964.68" y1="229.46" x2="394.32" y2="99.16" stroke="#F94144" stroke-opacity="0.24" stroke-width="2"/>
  <circle cx="394.32" cy="99.16" r="3" fill="#F94144" fill-opacity="0.35"/><circle cx="752.01" cy="196.43" r="4" fill="#F94144" fill-opacity="0.40"/><circle cx="1109.69" cy="110.17" r="5" fill="#F94144" fill-opacity="0.45"/><circle cx="500.66" cy="207.44" r="3" fill="#F94144" fill-opacity="0.50"/><circle cx="858.35" cy="121.18" r="4" fill="#F94144" fill-opacity="0.35"/><circle cx="249.31" cy="218.45" r="5" fill="#F94144" fill-opacity="0.40"/><circle cx="607.0" cy="132.19" r="3" fill="#F94144" fill-opacity="0.45"/><circle cx="964.68" cy="229.46" r="4" fill="#F94144" fill-opacity="0.50"/><circle cx="355.65" cy="143.2" r="5" fill="#F94144" fill-opacity="0.35"/>
  <rect x="95.4" y="35.5" width="229.0" height="53.3" rx="18" fill="#F94144" fill-opacity="0.16"/>
  <circle cx="1068.5" cy="213.1" r="47.4" fill="#FFFFFF" fill-opacity="0.36" stroke="#4B1011" stroke-opacity="0.10"/>
  <text x="101.8" y="260.5" font-family="Inter, Arial, sans-serif" font-size="27" font-weight="700" fill="#4B1011" fill-opacity="0.72">ESTP-T</text>
  <text x="101.8" y="294.2" font-family="Inter, Arial, sans-serif" font-size="13" font-weight="500" fill="#4B1011" fill-opacity="0.48">relationship orbit map · T</text>
</svg>
