<svg xmlns="http://www.w3.org/2000/svg" width="720" height="354" viewBox="0 0 720 354" role="img" aria-labelledby="title desc">
  <title id="title">ESTP-T Traits summary illustration</title>
  <desc id="desc">Abstract trait signal card for the ESTP-T MBTI desktop result module.</desc>
  <defs>
    <linearGradient id="bg" x1="0" x2="1" y1="0" y2="1">
      <stop offset="0" stop-color="#FFDCDC" stop-opacity="0.92"/>
      <stop offset="0.55" stop-color="#FFFFFF" stop-opacity="0.96"/>
      <stop offset="1" stop-color="#F94144" stop-opacity="0.14"/>
    </linearGradient>
    <radialGradient id="halo" cx="74%" cy="35%" r="48%">
      <stop offset="0" stop-color="#F94144" stop-opacity="0.26"/>
      <stop offset="1" stop-color="#F94144" stop-opacity="0"/>
    </radialGradient>
    <filter id="soft"><feGaussianBlur stdDeviation="18"/></filter>
  </defs>
  <rect width="720" height="354" rx="22" fill="url(#bg)"/>
  <circle cx="561.6" cy="120.4" r="113.3" fill="url(#halo)"/>
  <path d="M 57.6 254.9 C 201.6 88.5, 388.8 304.4, 662.4 99.1" fill="none" stroke="#4B1011" stroke-opacity="0.16" stroke-width="3"/>
  <polyline points="0.0,214.8 90.0,229.1 180.0,199.5 270.0,163.8 360.0,167.4 450.0,205.9 540.0,230.1 630.0,209.1 720.0,169.8" fill="none" stroke="#F94144" stroke-opacity="0.34" stroke-width="4" stroke-linecap="round"/>
  <line x1="97.34" y1="68.11" x2="502.27" y2="81.28" stroke="#F94144" stroke-opacity="0.24" stroke-width="2"/><line x1="299.81" y1="184.43" x2="157.54" y2="197.6" stroke="#F94144" stroke-opacity="0.24" stroke-width="2"/><line x1="502.27" y1="81.28" x2="360.0" y2="94.45" stroke="#F94144" stroke-opacity="0.24" stroke-width="2"/><line x1="157.54" y1="197.6" x2="562.46" y2="210.77" stroke="#F94144" stroke-opacity="0.24" stroke-width="2"/><line x1="360.0" y1="94.45" x2="217.73" y2="107.62" stroke="#F94144" stroke-opacity="0.24" stroke-width="2"/><line x1="217.73" y1="107.62" x2="622.66" y2="120.78" stroke="#F94144" stroke-opacity="0.24" stroke-width="2"/>
  <circle cx="97.34" cy="68.11" r="3" fill="#F94144" fill-opacity="0.35"/><circle cx="299.81" cy="184.43" r="4" fill="#F94144" fill-opacity="0.40"/><circle cx="502.27" cy="81.28" r="5" fill="#F94144" fill-opacity="0.45"/><circle cx="157.54" cy="197.6" r="3" fill="#F94144" fill-opacity="0.50"/><circle cx="360.0" cy="94.45" r="4" fill="#F94144" fill-opacity="0.35"/><circle cx="562.46" cy="210.77" r="5" fill="#F94144" fill-opacity="0.40"/><circle cx="217.73" cy="107.62" r="3" fill="#F94144" fill-opacity="0.45"/><circle cx="420.19" cy="223.94" r="4" fill="#F94144" fill-opacity="0.50"/><circle cx="622.66" cy="120.78" r="5" fill="#F94144" fill-opacity="0.35"/>
  <rect x="54.0" y="42.5" width="129.6" height="63.7" rx="18" fill="#F94144" fill-opacity="0.16"/>
  <circle cx="604.8" cy="254.9" r="56.6" fill="#FFFFFF" fill-opacity="0.36" stroke="#4B1011" stroke-opacity="0.10"/>
  <text x="57.6" y="311.5" font-family="Inter, Arial, sans-serif" font-size="32" font-weight="700" fill="#4B1011" fill-opacity="0.72">ESTP-T</text>
  <text x="57.6" y="351.5" font-family="Inter, Arial, sans-serif" font-size="16" font-weight="500" fill="#4B1011" fill-opacity="0.48">trait signal card · T</text>
</svg>
