<svg xmlns="http://www.w3.org/2000/svg" width="1272" height="296" viewBox="0 0 1272 296" role="img" aria-labelledby="title desc">
  <title id="title">ISTP-A Career path illustration</title>
  <desc id="desc">Abstract career path map for the ISTP-A MBTI desktop result module.</desc>
  <defs>
    <linearGradient id="bg" x1="0" x2="1" y1="0" y2="1">
      <stop offset="0" stop-color="#D8EEF6" stop-opacity="0.92"/>
      <stop offset="0.55" stop-color="#FFFFFF" stop-opacity="0.96"/>
      <stop offset="1" stop-color="#277DA1" stop-opacity="0.14"/>
    </linearGradient>
    <radialGradient id="halo" cx="74%" cy="35%" r="48%">
      <stop offset="0" stop-color="#277DA1" stop-opacity="0.26"/>
      <stop offset="1" stop-color="#277DA1" stop-opacity="0"/>
    </radialGradient>
    <filter id="soft"><feGaussianBlur stdDeviation="18"/></filter>
  </defs>
  <rect width="1272" height="296" rx="22" fill="url(#bg)"/>
  <circle cx="992.2" cy="100.6" r="94.7" fill="url(#halo)"/>
  <path d="M 101.8 213.1 C 356.2 74.0, 686.9 254.6, 1170.2 82.9" fill="none" stroke="#0E3140" stroke-opacity="0.16" stroke-width="3"/>
  <polyline points="0.0,191.9 159.0,178.3 318.0,144.9 477.0,134.3 636.0,160.0 795.0,189.3 954.0,184.8 1113.0,152.2 1272.0,133.2" fill="none" stroke="#277DA1" stroke-opacity="0.34" stroke-width="4" stroke-linecap="round"/>
  <line x1="374.99" y1="95.49" x2="1090.36" y2="106.5" stroke="#277DA1" stroke-opacity="0.24" stroke-width="2"/><line x1="732.67" y1="192.76" x2="481.32" y2="203.77" stroke="#277DA1" stroke-opacity="0.24" stroke-width="2"/><line x1="1090.36" y1="106.5" x2="839.01" y2="117.51" stroke="#277DA1" stroke-opacity="0.24" stroke-width="2"/><line x1="481.32" y1="203.77" x2="229.98" y2="214.78" stroke="#277DA1" stroke-opacity="0.24" stroke-width="2"/><line x1="229.98" y1="214.78" x2="945.35" y2="225.79" stroke="#277DA1" stroke-opacity="0.24" stroke-width="2"/><line x1="945.35" y1="225.79" x2="374.99" y2="95.49" stroke="#277DA1" stroke-opacity="0.24" stroke-width="2"/>
  <circle cx="374.99" cy="95.49" r="3" fill="#277DA1" fill-opacity="0.35"/><circle cx="732.67" cy="192.76" r="4" fill="#277DA1" fill-opacity="0.40"/><circle cx="1090.36" cy="106.5" r="5" fill="#277DA1" fill-opacity="0.45"/><circle cx="481.32" cy="203.77" r="3" fill="#277DA1" fill-opacity="0.50"/><circle cx="839.01" cy="117.51" r="4" fill="#277DA1" fill-opacity="0.35"/><circle cx="229.98" cy="214.78" r="5" fill="#277DA1" fill-opacity="0.40"/><circle cx="587.66" cy="128.52" r="3" fill="#277DA1" fill-opacity="0.45"/><circle cx="945.35" cy="225.79" r="4" fill="#277DA1" fill-opacity="0.50"/><circle cx="336.32" cy="139.53" r="5" fill="#277DA1" fill-opacity="0.35"/>
  <rect x="95.4" y="35.5" width="229.0" height="53.3" rx="18" fill="#277DA1" fill-opacity="0.16"/>
  <circle cx="1068.5" cy="213.1" r="47.4" fill="#FFFFFF" fill-opacity="0.36" stroke="#0E3140" stroke-opacity="0.10"/>
  <text x="101.8" y="260.5" font-family="Inter, Arial, sans-serif" font-size="27" font-weight="700" fill="#0E3140" fill-opacity="0.72">ISTP-A</text>
  <text x="101.8" y="294.2" font-family="Inter, Arial, sans-serif" font-size="13" font-weight="500" fill="#0E3140" fill-opacity="0.48">career path map · A</text>
</svg>
