<svg xmlns="http://www.w3.org/2000/svg" width="708" height="480" viewBox="0 0 708 480" role="img" aria-labelledby="title desc">
  <title id="title">ISTP-A Hero identity illustration</title>
  <desc id="desc">Abstract identity lattice for the ISTP-A MBTI desktop result module.</desc>
  <defs>
    <linearGradient id="bg" x1="0" x2="1" y1="0" y2="1">
      <stop offset="0" stop-color="#D8EEF6" stop-opacity="0.92"/>
      <stop offset="0.55" stop-color="#FFFFFF" stop-opacity="0.96"/>
      <stop offset="1" stop-color="#277DA1" stop-opacity="0.14"/>
    </linearGradient>
    <radialGradient id="halo" cx="74%" cy="35%" r="48%">
      <stop offset="0" stop-color="#277DA1" stop-opacity="0.26"/>
      <stop offset="1" stop-color="#277DA1" stop-opacity="0"/>
    </radialGradient>
    <filter id="soft"><feGaussianBlur stdDeviation="18"/></filter>
  </defs>
  <rect width="708" height="480" rx="22" fill="url(#bg)"/>
  <circle cx="552.2" cy="163.2" r="153.6" fill="url(#halo)"/>
  <path d="M 56.6 345.6 C 198.2 120.0, 382.3 412.8, 651.4 134.4" fill="none" stroke="#0E3140" stroke-opacity="0.16" stroke-width="3"/>
  <polyline points="0.0,269.8 88.5,310.5 177.0,291.9 265.5,237.7 354.0,217.0 442.5,256.2 531.0,305.3 619.5,301.7 708.0,250.0" fill="none" stroke="#277DA1" stroke-opacity="0.34" stroke-width="4" stroke-linecap="round"/>
  <line x1="230.24" y1="166.75" x2="90.34" y2="184.61" stroke="#277DA1" stroke-opacity="0.24" stroke-width="2"/><line x1="429.33" y1="324.48" x2="289.43" y2="342.34" stroke="#277DA1" stroke-opacity="0.24" stroke-width="2"/><line x1="90.34" y1="184.61" x2="488.52" y2="202.46" stroke="#277DA1" stroke-opacity="0.24" stroke-width="2"/><line x1="289.43" y1="342.34" x2="149.53" y2="360.19" stroke="#277DA1" stroke-opacity="0.24" stroke-width="2"/><line x1="149.53" y1="360.19" x2="547.71" y2="378.05" stroke="#277DA1" stroke-opacity="0.24" stroke-width="2"/><line x1="547.71" y1="378.05" x2="230.24" y2="166.75" stroke="#277DA1" stroke-opacity="0.24" stroke-width="2"/>
  <circle cx="230.24" cy="166.75" r="3" fill="#277DA1" fill-opacity="0.35"/><circle cx="429.33" cy="324.48" r="4" fill="#277DA1" fill-opacity="0.40"/><circle cx="90.34" cy="184.61" r="5" fill="#277DA1" fill-opacity="0.45"/><circle cx="289.43" cy="342.34" r="3" fill="#277DA1" fill-opacity="0.50"/><circle cx="488.52" cy="202.46" r="4" fill="#277DA1" fill-opacity="0.35"/><circle cx="149.53" cy="360.19" r="5" fill="#277DA1" fill-opacity="0.40"/><circle cx="348.62" cy="220.32" r="3" fill="#277DA1" fill-opacity="0.45"/><circle cx="547.71" cy="378.05" r="4" fill="#277DA1" fill-opacity="0.50"/><circle cx="208.72" cy="238.18" r="5" fill="#277DA1" fill-opacity="0.35"/>
  <rect x="53.1" y="57.6" width="127.4" height="86.4" rx="18" fill="#277DA1" fill-opacity="0.16"/>
  <circle cx="594.7" cy="345.6" r="76.8" fill="#FFFFFF" fill-opacity="0.36" stroke="#0E3140" stroke-opacity="0.10"/>
  <text x="56.6" y="422.4" font-family="Inter, Arial, sans-serif" font-size="43" font-weight="700" fill="#0E3140" fill-opacity="0.72">ISTP-A</text>
  <text x="56.6" y="476.1" font-family="Inter, Arial, sans-serif" font-size="22" font-weight="500" fill="#0E3140" fill-opacity="0.48">identity lattice · A</text>
</svg>
