<svg xmlns="http://www.w3.org/2000/svg" width="720" height="354" viewBox="0 0 720 354" role="img" aria-labelledby="title desc">
  <title id="title">ISTP-A Traits summary illustration</title>
  <desc id="desc">Abstract trait signal card for the ISTP-A MBTI desktop result module.</desc>
  <defs>
    <linearGradient id="bg" x1="0" x2="1" y1="0" y2="1">
      <stop offset="0" stop-color="#D8EEF6" stop-opacity="0.92"/>
      <stop offset="0.55" stop-color="#FFFFFF" stop-opacity="0.96"/>
      <stop offset="1" stop-color="#277DA1" stop-opacity="0.14"/>
    </linearGradient>
    <radialGradient id="halo" cx="74%" cy="35%" r="48%">
      <stop offset="0" stop-color="#277DA1" stop-opacity="0.26"/>
      <stop offset="1" stop-color="#277DA1" stop-opacity="0"/>
    </radialGradient>
    <filter id="soft"><feGaussianBlur stdDeviation="18"/></filter>
  </defs>
  <rect width="720" height="354" rx="22" fill="url(#bg)"/>
  <circle cx="561.6" cy="120.4" r="113.3" fill="url(#halo)"/>
  <path d="M 57.6 254.9 C 201.6 88.5, 388.8 304.4, 662.4 99.1" fill="none" stroke="#0E3140" stroke-opacity="0.16" stroke-width="3"/>
  <polyline points="0.0,179.2 90.0,218.7 180.0,227.6 270.0,194.6 360.0,161.7 450.0,170.9 540.0,210.5 630.0,230.0 720.0,204.5" fill="none" stroke="#277DA1" stroke-opacity="0.34" stroke-width="4" stroke-linecap="round"/>
  <line x1="562.46" y1="254.67" x2="420.19" y2="267.84" stroke="#277DA1" stroke-opacity="0.24" stroke-width="2"/><line x1="217.73" y1="151.51" x2="622.66" y2="164.68" stroke="#277DA1" stroke-opacity="0.24" stroke-width="2"/><line x1="420.19" y1="267.84" x2="277.92" y2="281.01" stroke="#277DA1" stroke-opacity="0.24" stroke-width="2"/><line x1="622.66" y1="164.68" x2="480.38" y2="177.85" stroke="#277DA1" stroke-opacity="0.24" stroke-width="2"/><line x1="480.38" y1="177.85" x2="338.11" y2="191.02" stroke="#277DA1" stroke-opacity="0.24" stroke-width="2"/><line x1="338.11" y1="191.02" x2="562.46" y2="254.67" stroke="#277DA1" stroke-opacity="0.24" stroke-width="2"/>
  <circle cx="562.46" cy="254.67" r="3" fill="#277DA1" fill-opacity="0.35"/><circle cx="217.73" cy="151.51" r="4" fill="#277DA1" fill-opacity="0.40"/><circle cx="420.19" cy="267.84" r="5" fill="#277DA1" fill-opacity="0.45"/><circle cx="622.66" cy="164.68" r="3" fill="#277DA1" fill-opacity="0.50"/><circle cx="277.92" cy="281.01" r="4" fill="#277DA1" fill-opacity="0.35"/><circle cx="480.38" cy="177.85" r="5" fill="#277DA1" fill-opacity="0.40"/><circle cx="135.65" cy="74.69" r="3" fill="#277DA1" fill-opacity="0.45"/><circle cx="338.11" cy="191.02" r="4" fill="#277DA1" fill-opacity="0.50"/><circle cx="540.58" cy="87.86" r="5" fill="#277DA1" fill-opacity="0.35"/>
  <rect x="54.0" y="42.5" width="129.6" height="63.7" rx="18" fill="#277DA1" fill-opacity="0.16"/>
  <circle cx="604.8" cy="254.9" r="56.6" fill="#FFFFFF" fill-opacity="0.36" stroke="#0E3140" stroke-opacity="0.10"/>
  <text x="57.6" y="311.5" font-family="Inter, Arial, sans-serif" font-size="32" font-weight="700" fill="#0E3140" fill-opacity="0.72">ISTP-A</text>
  <text x="57.6" y="351.5" font-family="Inter, Arial, sans-serif" font-size="16" font-weight="500" fill="#0E3140" fill-opacity="0.48">trait signal card · A</text>
</svg>
